<svg preserveAspectRatio="none" width="100%" height="100%" overflow="visible" style="display: block;" viewBox="0 0 24 34" fill="none" xmlns="http://www.w3.org/2000/svg">
<g id="&#236;&#156;&#132;&#236;&#185;&#152;">
<path id="Vector" d="M12 0C8.8174 0 5.76515 1.33733 3.51472 3.71779C1.26428 6.09825 0 9.32685 0 12.6933C0 20.8371 8.78132 30.6396 11.3202 33.3035C11.6964 33.6982 12.3036 33.6982 12.6798 33.3035C15.2187 30.6396 24 20.8371 24 12.6933C24 9.32685 22.7357 6.09825 20.4853 3.71779C18.2348 1.33733 15.1826 0 12 0Z" fill="var(--fill-0, white)"/>
<path id="Exclude" d="M12 0C15.1826 0 18.2349 1.33731 20.4854 3.71777C22.7358 6.09823 24 9.32689 24 12.6934C24 20.8371 15.2185 30.6398 12.6797 33.3037C12.3035 33.6982 11.6965 33.6982 11.3203 33.3037C8.78145 30.6398 1.89395e-05 20.8371 0 12.6934C0 9.32689 1.26423 6.09823 3.51465 3.71777C5.76508 1.33731 8.8174 1.00184e-07 12 0ZM12 7C9.23858 7 7 9.23858 7 12C7 14.7614 9.23858 17 12 17C14.7614 17 17 14.7614 17 12C17 9.23858 14.7614 7 12 7Z" fill="var(--fill-0, #0C1625)"/>
</g>
</svg>
