<svg width="110" height="111" viewBox="0 0 110 111" fill="none" xmlns="http://www.w3.org/2000/svg">
<g opacity="0.7">
<path d="M54 42C61.1797 42 67 36.1797 67 29C67 21.8203 61.1797 16 54 16C46.8203 16 41 21.8203 41 29C41 36.1797 46.8203 42 54 42Z" stroke="white" stroke-width="2" stroke-miterlimit="10" stroke-linecap="round"/>
<path d="M28 68L30.6727 60.6187C32.7365 54.187 37.6422 50 43.0891 50H64.9109C70.3578 50 75.2635 54.187 77.3273 60.6187L80 68" stroke="white" stroke-width="2" stroke-miterlimit="10" stroke-linecap="round"/>
<path d="M8.33852 65C6.82001 60.2725 6 55.232 6 50C6 22.938 27.938 1 55 1C82.062 1 104 22.938 104 50C104 55.232 103.18 60.2725 101.661 65" stroke="white" stroke-width="2" stroke-linecap="round"/>
</g>
<path d="M53.7012 74.8234C54.2325 73.7255 55.7675 73.7255 56.2988 74.8234L61.0481 84.6368C61.2591 85.0727 61.6669 85.3749 62.1386 85.4448L72.7583 87.0185C73.9463 87.1945 74.4207 88.6833 73.561 89.5379L65.8766 97.1766C65.5352 97.5159 65.3794 98.0048 65.46 98.484L67.2741 109.27C67.477 110.477 66.2351 111.397 65.1725 110.827L55.674 105.735C55.252 105.508 54.748 105.508 54.326 105.735L44.8275 110.827C43.7649 111.397 42.523 110.477 42.7259 109.27L44.54 98.484C44.6206 98.0048 44.4648 97.5159 44.1234 97.1766L36.439 89.5379C35.5793 88.6833 36.0537 87.1945 37.2417 87.0185L47.8614 85.4448C48.3331 85.3749 48.7409 85.0727 48.9519 84.6368L53.7012 74.8234Z" fill="#B80033"/>
<mask id="mask0_7477_37531" style="mask-type:alpha" maskUnits="userSpaceOnUse" x="36" y="74" width="38" height="37">
<path d="M53.7012 74.8234C54.2325 73.7255 55.7675 73.7255 56.2988 74.8234L61.0481 84.6368C61.2591 85.0727 61.6669 85.3749 62.1386 85.4448L72.7583 87.0185C73.9463 87.1945 74.4207 88.6833 73.561 89.5379L65.8766 97.1766C65.5352 97.5159 65.3794 98.0048 65.46 98.484L67.2741 109.27C67.477 110.477 66.2351 111.397 65.1725 110.827L55.674 105.735C55.252 105.508 54.748 105.508 54.326 105.735L44.8275 110.827C43.7649 111.397 42.523 110.477 42.7259 109.27L44.54 98.484C44.6206 98.0048 44.4648 97.5159 44.1234 97.1766L36.439 89.5379C35.5793 88.6833 36.0537 87.1945 37.2417 87.0185L47.8614 85.4448C48.3331 85.3749 48.7409 85.0727 48.9519 84.6368L53.7012 74.8234Z" fill="#B80033"/>
</mask>
<g mask="url(#mask0_7477_37531)">
<ellipse cx="68" cy="80" rx="28" ry="27" fill="#E60040"/>
</g>
<path d="M90.248 68.4673C90.5556 67.8442 91.4444 67.8442 91.752 68.4673L94.5015 74.0371C94.6237 74.2845 94.8598 74.456 95.1329 74.4957L101.281 75.3889C101.969 75.4888 102.244 76.3338 101.746 76.8188L97.297 81.1543C97.0993 81.3469 97.0091 81.6244 97.0558 81.8963L98.106 88.0181C98.2235 88.7029 97.5045 89.2252 96.8893 88.9018L91.3902 86.0115C91.1459 85.8831 90.8541 85.8831 90.6098 86.0115L85.1107 88.9018C84.4955 89.2252 83.7765 88.7029 83.894 88.0181L84.9442 81.8963C84.9909 81.6244 84.9007 81.3469 84.703 81.1543L80.2541 76.8188C79.7565 76.3338 80.0311 75.4888 80.7189 75.3889L86.8671 74.4957C87.1402 74.456 87.3763 74.2845 87.4985 74.0371L90.248 68.4673Z" fill="#B80033"/>
<mask id="mask1_7477_37531" style="mask-type:alpha" maskUnits="userSpaceOnUse" x="80" y="68" width="22" height="21">
<path d="M90.248 68.4673C90.5556 67.8442 91.4444 67.8442 91.752 68.4673L94.5015 74.0371C94.6237 74.2845 94.8598 74.456 95.1329 74.4957L101.281 75.3889C101.969 75.4888 102.244 76.3338 101.746 76.8188L97.297 81.1543C97.0993 81.3469 97.0091 81.6244 97.0558 81.8963L98.106 88.0181C98.2235 88.7029 97.5045 89.2252 96.8893 88.9018L91.3902 86.0115C91.1459 85.8831 90.8541 85.8831 90.6098 86.0115L85.1107 88.9018C84.4955 89.2252 83.7765 88.7029 83.894 88.0181L84.9442 81.8963C84.9909 81.6244 84.9007 81.3469 84.703 81.1543L80.2541 76.8188C79.7565 76.3338 80.0311 75.4888 80.7189 75.3889L86.8671 74.4957C87.1402 74.456 87.3763 74.2845 87.4985 74.0371L90.248 68.4673Z" fill="#E60040"/>
</mask>
<g mask="url(#mask1_7477_37531)">
<ellipse cx="101.5" cy="66.5" rx="21.5" ry="20.5" fill="#E60040"/>
</g>
<path d="M18.248 68.4673C18.5556 67.8442 19.4444 67.8442 19.752 68.4673L22.5015 74.0371C22.6237 74.2845 22.8598 74.456 23.1329 74.4957L29.2811 75.3889C29.9689 75.4888 30.2435 76.3338 29.7459 76.8188L25.297 81.1543C25.0993 81.3469 25.0091 81.6244 25.0558 81.8963L26.106 88.0181C26.2235 88.7029 25.5045 89.2252 24.8893 88.9018L19.3902 86.0115C19.1459 85.8831 18.8541 85.8831 18.6098 86.0115L13.1107 88.9018C12.4955 89.2252 11.7765 88.7029 11.894 88.0181L12.9442 81.8963C12.9909 81.6244 12.9007 81.3469 12.703 81.1543L8.25415 76.8188C7.75646 76.3338 8.03109 75.4888 8.71888 75.3889L14.8671 74.4957C15.1402 74.456 15.3763 74.2845 15.4985 74.0371L18.248 68.4673Z" fill="#B80033"/>
<mask id="mask2_7477_37531" style="mask-type:alpha" maskUnits="userSpaceOnUse" x="8" y="68" width="22" height="21">
<path d="M18.248 68.4673C18.5556 67.8442 19.4444 67.8442 19.752 68.4673L22.5015 74.0371C22.6237 74.2845 22.8598 74.456 23.1329 74.4957L29.2811 75.3889C29.9689 75.4888 30.2435 76.3338 29.7459 76.8188L25.297 81.1543C25.0993 81.3469 25.0091 81.6244 25.0558 81.8963L26.106 88.0181C26.2235 88.7029 25.5045 89.2252 24.8893 88.9018L19.3902 86.0115C19.1459 85.8831 18.8541 85.8831 18.6098 86.0115L13.1107 88.9018C12.4955 89.2252 11.7765 88.7029 11.894 88.0181L12.9442 81.8963C12.9909 81.6244 12.9007 81.3469 12.703 81.1543L8.25415 76.8188C7.75646 76.3338 8.03109 75.4888 8.71888 75.3889L14.8671 74.4957C15.1402 74.456 15.3763 74.2845 15.4985 74.0371L18.248 68.4673Z" fill="#E60040"/>
</mask>
<g mask="url(#mask2_7477_37531)">
<ellipse cx="29.5" cy="66.5" rx="21.5" ry="20.5" fill="#E60040"/>
</g>
</svg>
