<svg width="110" height="110" viewBox="0 0 110 110" fill="none" xmlns="http://www.w3.org/2000/svg">
<path d="M60.4875 0C61.5919 0.000189094 62.4875 0.895548 62.4875 2V6.15723C65.5234 7.16104 68.2786 8.78054 70.6067 10.8672L74.2844 8.75781C75.2391 8.21024 76.4575 8.5364 77.01 9.48828L82.2365 18.4951C82.7926 19.4534 82.4638 20.6815 81.5032 21.2334L77.7942 23.3633C78.1006 24.8606 78.2619 26.4111 78.2619 27.999C78.2619 29.5843 78.1006 31.132 77.7951 32.627L81.5198 34.7666C82.4805 35.3185 82.8093 36.5466 82.2532 37.5049L77.0266 46.5117C76.4741 47.4635 75.2566 47.7896 74.302 47.2422L70.6115 45.125C68.2868 47.2101 65.5356 48.828 62.5041 49.833V54C62.5041 55.1045 61.6087 56 60.5041 56H50.0364C48.9318 56 48.0364 55.1046 48.0364 54V49.8389C45.0009 48.8352 42.246 47.2171 39.9182 45.1309L36.2385 47.2422C35.2839 47.7897 34.0664 47.4634 33.5139 46.5117L28.2864 37.5049C27.7304 36.5466 28.0601 35.3185 29.0207 34.7666L32.7287 32.6357C32.4222 31.1381 32.2619 29.5873 32.2619 27.999C32.2619 26.4142 32.4215 24.8667 32.7268 23.3721L29.0031 21.2334C28.0425 20.6814 27.7137 19.4534 28.2698 18.4951L33.4973 9.48828C34.0498 8.53668 35.2673 8.21031 36.2219 8.75781L39.9094 10.873C42.2345 8.78731 44.9866 7.16832 48.0188 6.16309V2C48.0188 0.895587 48.9144 0.000254371 50.0188 0H60.4875Z" fill="#E60040"/>
<path opacity="0.2" d="M33.4974 9.48896C34.0498 8.53705 35.2673 8.20993 36.222 8.75752L39.6332 10.7136C38.454 13.9317 37.8109 17.4081 37.8109 21.0349C37.8109 35.7926 48.4668 48.0606 62.5042 50.5661V53.9997C62.504 55.1041 61.6087 55.9997 60.5042 55.9997H50.0365C48.932 55.9997 48.0367 55.1041 48.0365 53.9997V49.8395C45.0012 48.836 42.2461 47.2176 39.9183 45.1315L36.2386 47.2429C35.2841 47.79 34.0665 47.4629 33.514 46.5114L28.2874 37.5046C27.7314 36.5463 28.0603 35.3193 29.0208 34.7673L32.7289 32.6364C32.4222 31.1386 32.2621 29.5872 32.2621 27.9987C32.2621 26.414 32.4217 24.8663 32.7269 23.3718L29.0033 21.2331C28.0429 20.6811 27.714 19.453 28.2699 18.4948L33.4974 9.48896Z" fill="black"/>
<path d="M55.2617 39C61.3368 39 66.2617 34.0751 66.2617 28C66.2617 21.9249 61.3368 17 55.2617 17C49.1866 17 44.2617 21.9249 44.2617 28C44.2617 34.0751 49.1866 39 55.2617 39Z" stroke="white" stroke-width="2" stroke-miterlimit="10" stroke-linecap="round" stroke-linejoin="round"/>
<g opacity="0.7">
<path d="M1.6034 79.7098C0.607705 78.3381 0.871687 76.3882 2.19302 75.3545L9.3705 69.7397C10.6918 68.706 12.5702 68.9801 13.5659 70.3518L33.3975 97.6725C34.3932 99.0442 34.1292 100.994 32.8079 102.028L25.6304 107.643C24.309 108.676 22.4307 108.402 21.435 107.031L1.6034 79.7098Z" stroke="white" stroke-width="2"/>
<path d="M64.0002 68.1517L86.2219 51.5898C88.8691 49.6168 92.606 50.1578 94.5901 52.8013C95.2186 53.6387 95.5964 54.5869 95.7364 55.5557C95.8244 55.7715 95.9002 56.4031 95.5002 57.2031" stroke="white" stroke-width="2" stroke-linecap="round"/>
<path d="M71.2015 75.1372L99.4232 54.6054C102.07 52.6324 105.807 53.1734 107.791 55.8169C109.796 58.4874 109.25 62.2858 106.576 64.2789L68.4955 92.6604C67.4451 93.4433 66.219 93.825 64.9981 93.8354L41.2086 91.7031C39.7006 91.7031 38.3239 92.1337 37.5326 92.6604C37.0514 92.9808 34.204 94.9211 32.6721 95.9444" stroke="white" stroke-width="2"/>
<path d="M31.2391 63.0939L31.3578 62.0993L31.374 62.1012L31.3902 62.1037L31.2391 63.0939ZM71.5082 75.1401L72.4991 75.2626L72.499 75.2626L71.5082 75.1401ZM66.2568 68.4098L66.1382 69.4044L66.1219 69.4024L66.1057 69.4L66.2568 68.4098ZM64.8525 80.3746L64.7338 81.3692L64.7177 81.3673L64.7016 81.3648L64.8525 80.3746ZM27.6235 63.8237L27.0215 63.0257L27.0754 62.9847L27.1343 62.9514L27.6235 63.8237ZM46.1841 78.5578C45.639 78.4752 45.2646 77.9648 45.3479 77.4179C45.4313 76.871 45.9407 76.4947 46.4859 76.5773L46.335 77.5676L46.1841 78.5578ZM16.1412 73.8015C15.7012 74.1357 15.075 74.0494 14.7426 73.6087C14.4101 73.168 14.4972 72.5398 14.9372 72.2056L15.5392 73.0036L16.1412 73.8015ZM66.2568 68.4098L66.1057 69.4L31.088 64.0841L31.2391 63.0939L31.3902 62.1037L66.4079 67.4196L66.2568 68.4098ZM71.5082 75.1401L70.5174 75.0175C70.8623 72.2501 68.8957 69.7306 66.1382 69.4044L66.2568 68.4098L66.3755 67.4152C70.2333 67.8716 72.9811 71.3942 72.499 75.2626L71.5082 75.1401ZM71.5082 75.1401L72.499 75.2626C72.0216 79.0933 68.5541 81.8211 64.7338 81.3692L64.8525 80.3746L64.9711 79.38C67.6994 79.7028 70.1762 77.7555 70.5174 75.0175L71.5082 75.1401ZM31.2391 63.0939L31.1205 64.0885C30.0402 63.9607 28.9996 64.1945 28.1126 64.6959L27.6235 63.8237L27.1343 62.9514C28.3751 62.25 29.8396 61.9197 31.3578 62.0993L31.2391 63.0939ZM46.335 77.5676L46.4859 76.5773L65.0034 79.3844L64.8525 80.3746L64.7016 81.3648L46.1841 78.5578L46.335 77.5676ZM27.6235 63.8237L28.2255 64.6216L16.1412 73.8015L15.5392 73.0036L14.9372 72.2056L27.0215 63.0257L27.6235 63.8237Z" fill="white"/>
</g>
</svg>
