<svg width="1320" height="560" viewBox="0 0 1320 560" fill="none" xmlns="http://www.w3.org/2000/svg">
<path d="M0 0H1320V560H0V0Z" fill="white"/>
<path d="M770 190L918 190" stroke="#0F1F45" stroke-width="1.5" stroke-linecap="round"/>
<path d="M911 183L918 190L911 197" stroke="#0F1F45" stroke-width="1.5" stroke-linecap="round" stroke-linejoin="round"/>
<path d="M529.002 175L403.001 175" stroke="#0F1F45" stroke-width="1.5" stroke-linecap="round" stroke-dasharray="4 4"/>
<path d="M523 168L530 175L523 182" stroke="#0F1F45" stroke-width="1.5" stroke-linecap="round" stroke-linejoin="round"/>
<path d="M409 168L402 175L409 182" stroke="#0F1F45" stroke-width="1.5" stroke-linecap="round" stroke-linejoin="round"/>
<path d="M402.998 205L528.998 205" stroke="#0F1F45" stroke-width="1.5" stroke-linecap="round" stroke-dasharray="4 4"/>
<path d="M409 198L402 205L409 212" stroke="#0F1F45" stroke-width="1.5" stroke-linecap="round" stroke-linejoin="round"/>
<path d="M523 198L530 205L523 212" stroke="#0F1F45" stroke-width="1.5" stroke-linecap="round" stroke-linejoin="round"/>
<path d="M593 340L472 340" stroke="#0F1F45" stroke-width="1.5" stroke-linecap="round"/>
<path d="M479 333L472 340L479 347" stroke="#0F1F45" stroke-width="1.5" stroke-linecap="round" stroke-linejoin="round"/>
<path d="M593 260L593 340" stroke="#0F1F45" stroke-width="1.5" stroke-linecap="round"/>
<path d="M727 340L848 340" stroke="#0F1F45" stroke-width="1.5" stroke-linecap="round"/>
<path d="M841 333L848 340L841 347" stroke="#0F1F45" stroke-width="1.5" stroke-linecap="round" stroke-linejoin="round"/>
<path d="M727 260L727 340" stroke="#0F1F45" stroke-width="1.5" stroke-linecap="round"/>
<path d="M660.002 300L660.002 380" stroke="#0F1F45" stroke-width="1.5" stroke-linecap="round"/>
<path d="M667.002 373L660.002 380L653.002 373" stroke="#0F1F45" stroke-width="1.5" stroke-linecap="round" stroke-linejoin="round"/>
<circle cx="660" cy="190" r="109.25" fill="#0F1F45" stroke="#0F1F45" stroke-width="1.5"/>
<path d="M583.781 222.273L587.569 231.52H587.719L591.507 222.273H594.311V235H592.113V226.237H591.99L588.466 234.956H586.822L583.289 226.22H583.184V235H580.978V222.273H583.781ZM596.596 225.455H598.828V235H596.596V225.455ZM597.703 224.093C597.475 224.093 597.261 224.04 597.062 223.935C596.862 223.823 596.704 223.674 596.587 223.486C596.47 223.299 596.411 223.097 596.411 222.88C596.411 222.657 596.47 222.452 596.587 222.265C596.704 222.077 596.862 221.931 597.062 221.825C597.261 221.72 597.475 221.667 597.703 221.667C597.943 221.667 598.163 221.72 598.362 221.825C598.562 221.931 598.72 222.077 598.837 222.265C598.954 222.452 599.013 222.657 599.013 222.88C599.013 223.097 598.954 223.299 598.837 223.486C598.72 223.674 598.562 223.823 598.362 223.935C598.163 224.04 597.943 224.093 597.703 224.093ZM605.147 235.185C604.216 235.185 603.401 234.977 602.704 234.561C602.013 234.145 601.482 233.564 601.113 232.82C600.75 232.076 600.568 231.224 600.568 230.263C600.568 229.296 600.756 228.44 601.131 227.696C601.506 226.946 602.036 226.366 602.722 225.956C603.407 225.54 604.21 225.332 605.13 225.332C605.897 225.332 606.583 225.473 607.187 225.754C607.79 226.029 608.268 226.428 608.619 226.949C608.977 227.465 609.179 228.065 609.226 228.751H607.09C607.031 228.435 606.917 228.156 606.747 227.916C606.577 227.67 606.36 227.477 606.097 227.336C605.833 227.195 605.522 227.125 605.165 227.125C604.702 227.125 604.295 227.251 603.943 227.503C603.592 227.749 603.316 228.104 603.117 228.566C602.924 229.029 602.827 229.58 602.827 230.219C602.827 230.863 602.924 231.423 603.117 231.897C603.311 232.366 603.583 232.727 603.935 232.979C604.286 233.23 604.696 233.356 605.165 233.356C605.499 233.356 605.798 233.295 606.062 233.172C606.331 233.043 606.554 232.858 606.729 232.618C606.905 232.372 607.025 232.082 607.09 231.748H609.226C609.173 232.422 608.974 233.017 608.628 233.532C608.282 234.048 607.811 234.452 607.213 234.745C606.621 235.038 605.933 235.185 605.147 235.185ZM610.922 225.455H613.084V227.046H613.189C613.359 226.495 613.655 226.07 614.077 225.771C614.499 225.467 614.985 225.314 615.536 225.314C615.817 225.314 616.09 225.335 616.354 225.376V227.441C616.26 227.4 616.107 227.368 615.896 227.345C615.686 227.321 615.489 227.31 615.308 227.31C614.903 227.31 614.537 227.397 614.209 227.573C613.881 227.749 613.623 227.995 613.436 228.312C613.248 228.622 613.154 228.979 613.154 229.384V235H610.922V225.455ZM621.565 235.185C620.651 235.185 619.846 234.979 619.148 234.569C618.457 234.159 617.924 233.582 617.549 232.838C617.174 232.094 616.986 231.235 616.986 230.263C616.986 229.278 617.174 228.417 617.549 227.679C617.924 226.935 618.457 226.357 619.148 225.947C619.846 225.537 620.651 225.332 621.565 225.332C622.485 225.332 623.291 225.537 623.982 225.947C624.674 226.357 625.204 226.935 625.573 227.679C625.942 228.417 626.127 229.278 626.127 230.263C626.127 231.235 625.942 232.094 625.573 232.838C625.204 233.582 624.674 234.159 623.982 234.569C623.291 234.979 622.485 235.185 621.565 235.185ZM621.583 233.4C622.075 233.4 622.491 233.263 622.831 232.987C623.177 232.706 623.435 232.328 623.604 231.854C623.774 231.379 623.859 230.846 623.859 230.254C623.859 229.656 623.774 229.12 623.604 228.646C623.435 228.171 623.177 227.796 622.831 227.521C622.491 227.239 622.075 227.099 621.583 227.099C621.079 227.099 620.651 227.239 620.3 227.521C619.948 227.796 619.685 228.171 619.509 228.646C619.333 229.12 619.245 229.656 619.245 230.254C619.245 230.852 619.333 231.388 619.509 231.862C619.685 232.331 619.948 232.706 620.3 232.987C620.651 233.263 621.079 233.4 621.583 233.4ZM632.024 238.779C631.198 238.779 630.469 238.659 629.836 238.419C629.209 238.185 628.717 237.848 628.359 237.408C628.002 236.975 627.794 236.456 627.735 235.853H629.968C630.056 236.263 630.281 236.57 630.645 236.775C631.008 236.98 631.479 237.083 632.06 237.083C632.769 237.083 633.316 236.922 633.703 236.6C634.09 236.283 634.283 235.785 634.283 235.105V233.286H634.169C634.022 233.585 633.841 233.846 633.624 234.068C633.413 234.285 633.123 234.473 632.754 234.631C632.385 234.789 631.942 234.868 631.427 234.868C630.677 234.868 630.003 234.689 629.405 234.332C628.813 233.969 628.345 233.433 627.999 232.724C627.653 232.009 627.48 231.147 627.48 230.14C627.48 229.126 627.653 228.259 627.999 227.538C628.345 226.812 628.816 226.264 629.414 225.895C630.012 225.52 630.683 225.332 631.427 225.332C631.954 225.332 632.399 225.42 632.763 225.596C633.126 225.766 633.404 225.962 633.598 226.185C633.791 226.401 633.984 226.683 634.178 227.028H634.292V225.455H636.498V235.158C636.498 235.943 636.308 236.608 635.927 237.153C635.552 237.698 635.027 238.105 634.354 238.375C633.68 238.645 632.903 238.779 632.024 238.779ZM632.033 233.102C632.514 233.102 632.924 232.984 633.264 232.75C633.604 232.516 633.861 232.182 634.037 231.748C634.219 231.309 634.31 230.784 634.31 230.175C634.31 229.565 634.219 229.035 634.037 228.584C633.861 228.133 633.604 227.784 633.264 227.538C632.93 227.292 632.52 227.169 632.033 227.169C631.553 227.169 631.143 227.298 630.803 227.556C630.463 227.808 630.205 228.162 630.029 228.619C629.854 229.07 629.766 229.589 629.766 230.175C629.766 230.767 629.854 231.282 630.029 231.722C630.205 232.161 630.463 232.501 630.803 232.741C631.143 232.981 631.553 233.102 632.033 233.102ZM638.66 225.455H640.893V235H638.66V225.455ZM639.768 224.093C639.539 224.093 639.325 224.04 639.126 223.935C638.927 223.823 638.769 223.674 638.651 223.486C638.534 223.299 638.476 223.097 638.476 222.88C638.476 222.657 638.534 222.452 638.651 222.265C638.769 222.077 638.927 221.931 639.126 221.825C639.325 221.72 639.539 221.667 639.768 221.667C640.008 221.667 640.228 221.72 640.427 221.825C640.626 221.931 640.784 222.077 640.901 222.265C641.019 222.452 641.077 222.657 641.077 222.88C641.077 223.097 641.019 223.299 640.901 223.486C640.784 223.674 640.626 223.823 640.427 223.935C640.228 224.04 640.008 224.093 639.768 224.093ZM646.597 235.167C645.847 235.167 645.173 234.974 644.575 234.587C643.978 234.194 643.506 233.626 643.16 232.882C642.82 232.138 642.65 231.256 642.65 230.236C642.65 229.205 642.823 228.32 643.169 227.582C643.515 226.838 643.986 226.278 644.584 225.903C645.182 225.522 645.853 225.332 646.597 225.332C647.124 225.332 647.569 225.42 647.933 225.596C648.296 225.766 648.577 225.968 648.776 226.202C648.976 226.437 649.16 226.712 649.33 227.028H649.409V222.273H651.659V235H649.462V233.497H649.33C649.154 233.813 648.964 234.086 648.759 234.314C648.56 234.537 648.278 234.736 647.915 234.912C647.552 235.082 647.112 235.167 646.597 235.167ZM647.203 233.33C647.684 233.33 648.094 233.201 648.434 232.943C648.773 232.686 649.031 232.322 649.207 231.854C649.389 231.379 649.479 230.834 649.479 230.219C649.479 229.598 649.392 229.059 649.216 228.602C649.04 228.145 648.782 227.793 648.442 227.547C648.103 227.295 647.689 227.169 647.203 227.169C646.723 227.169 646.312 227.298 645.973 227.556C645.633 227.808 645.375 228.165 645.199 228.628C645.023 229.091 644.936 229.621 644.936 230.219C644.936 230.828 645.023 231.367 645.199 231.836C645.375 232.299 645.633 232.665 645.973 232.935C646.312 233.198 646.723 233.33 647.203 233.33ZM666.891 226.562C666.809 226.064 666.624 225.634 666.337 225.271C666.056 224.907 665.698 224.632 665.265 224.444C664.837 224.251 664.365 224.154 663.85 224.154C663.152 224.154 662.534 224.33 661.995 224.682C661.462 225.027 661.043 225.537 660.738 226.211C660.439 226.885 660.29 227.693 660.29 228.637C660.29 229.592 660.439 230.406 660.738 231.08C661.043 231.748 661.462 232.255 661.995 232.601C662.534 232.946 663.149 233.119 663.841 233.119C664.351 233.119 664.816 233.028 665.238 232.847C665.66 232.659 666.015 232.39 666.302 232.038C666.595 231.687 666.791 231.268 666.891 230.781L669.202 230.79C669.085 231.604 668.789 232.346 668.314 233.014C667.84 233.682 667.216 234.209 666.442 234.596C665.669 234.982 664.793 235.176 663.814 235.176C662.695 235.176 661.693 234.915 660.809 234.394C659.93 233.866 659.241 233.11 658.743 232.126C658.245 231.136 657.996 229.973 657.996 228.637C657.996 227.289 658.248 226.123 658.752 225.139C659.256 224.154 659.944 223.401 660.817 222.88C661.696 222.358 662.695 222.098 663.814 222.098C664.752 222.098 665.604 222.276 666.372 222.634C667.146 222.985 667.775 223.498 668.262 224.172C668.754 224.84 669.067 225.637 669.202 226.562H666.891ZM675.231 235.185C674.317 235.185 673.512 234.979 672.814 234.569C672.123 234.159 671.59 233.582 671.215 232.838C670.84 232.094 670.652 231.235 670.652 230.263C670.652 229.278 670.84 228.417 671.215 227.679C671.59 226.935 672.123 226.357 672.814 225.947C673.512 225.537 674.317 225.332 675.231 225.332C676.151 225.332 676.957 225.537 677.648 225.947C678.34 226.357 678.87 226.935 679.239 227.679C679.608 228.417 679.793 229.278 679.793 230.263C679.793 231.235 679.608 232.094 679.239 232.838C678.87 233.582 678.34 234.159 677.648 234.569C676.957 234.979 676.151 235.185 675.231 235.185ZM675.249 233.4C675.741 233.4 676.157 233.263 676.497 232.987C676.843 232.706 677.101 232.328 677.271 231.854C677.44 231.379 677.525 230.846 677.525 230.254C677.525 229.656 677.44 229.12 677.271 228.646C677.101 228.171 676.843 227.796 676.497 227.521C676.157 227.239 675.741 227.099 675.249 227.099C674.745 227.099 674.317 227.239 673.966 227.521C673.614 227.796 673.351 228.171 673.175 228.646C672.999 229.12 672.911 229.656 672.911 230.254C672.911 230.852 672.999 231.388 673.175 231.862C673.351 232.331 673.614 232.706 673.966 232.987C674.317 233.263 674.745 233.4 675.249 233.4ZM683.783 235H681.551V225.455H683.687V227.072H683.792C684.026 226.521 684.384 226.094 684.864 225.789C685.345 225.484 685.937 225.332 686.64 225.332C687.302 225.332 687.876 225.473 688.362 225.754C688.854 226.029 689.232 226.437 689.496 226.976C689.766 227.515 689.9 228.162 689.9 228.918V235H687.668V229.261C687.668 228.833 687.595 228.47 687.448 228.171C687.302 227.866 687.091 227.632 686.815 227.468C686.54 227.304 686.203 227.222 685.805 227.222C685.406 227.222 685.055 227.307 684.75 227.477C684.445 227.646 684.208 227.896 684.038 228.224C683.868 228.552 683.783 228.944 683.783 229.401V235ZM696.8 227.178H691.333V225.455H696.8V227.178ZM694.928 223.17V232.135C694.928 232.422 694.972 232.647 695.06 232.812C695.147 232.97 695.265 233.081 695.411 233.146C695.563 233.204 695.745 233.236 695.956 233.242C696.214 233.248 696.539 233.233 696.932 233.198V235.035C696.568 235.1 696.146 235.132 695.666 235.132C695.092 235.132 694.579 235.035 694.128 234.842C693.677 234.643 693.322 234.347 693.064 233.954C692.807 233.562 692.681 233.075 692.687 232.495V223.17H694.928ZM698.549 225.455H700.711V227.046H700.816C700.986 226.495 701.282 226.07 701.704 225.771C702.126 225.467 702.612 225.314 703.163 225.314C703.444 225.314 703.717 225.335 703.98 225.376V227.441C703.887 227.4 703.734 227.368 703.523 227.345C703.312 227.321 703.116 227.31 702.935 227.31C702.53 227.31 702.164 227.397 701.836 227.573C701.508 227.749 701.25 227.995 701.062 228.312C700.875 228.622 700.781 228.979 700.781 229.384V235H698.549V225.455ZM709.192 235.185C708.278 235.185 707.473 234.979 706.775 234.569C706.084 234.159 705.551 233.582 705.176 232.838C704.801 232.094 704.613 231.235 704.613 230.263C704.613 229.278 704.801 228.417 705.176 227.679C705.551 226.935 706.084 226.357 706.775 225.947C707.473 225.537 708.278 225.332 709.192 225.332C710.112 225.332 710.918 225.537 711.609 225.947C712.301 226.357 712.831 226.935 713.2 227.679C713.569 228.417 713.754 229.278 713.754 230.263C713.754 231.235 713.569 232.094 713.2 232.838C712.831 233.582 712.301 234.159 711.609 234.569C710.918 234.979 710.112 235.185 709.192 235.185ZM709.21 233.4C709.702 233.4 710.118 233.263 710.458 232.987C710.804 232.706 711.062 232.328 711.231 231.854C711.401 231.379 711.486 230.846 711.486 230.254C711.486 229.656 711.401 229.12 711.231 228.646C711.062 228.171 710.804 227.796 710.458 227.521C710.118 227.239 709.702 227.099 709.21 227.099C708.706 227.099 708.278 227.239 707.927 227.521C707.575 227.796 707.312 228.171 707.136 228.646C706.96 229.12 706.872 229.656 706.872 230.254C706.872 230.852 706.96 231.388 707.136 231.862C707.312 232.331 707.575 232.706 707.927 232.987C708.278 233.263 708.706 233.4 709.21 233.4ZM717.744 235H715.512V222.273H717.744V235ZM722.139 235H719.906V222.273H722.139V235ZM728.52 235.185C727.576 235.185 726.756 234.985 726.059 234.587C725.361 234.188 724.822 233.62 724.441 232.882C724.066 232.144 723.879 231.279 723.879 230.289C723.879 229.311 724.066 228.446 724.441 227.696C724.822 226.94 725.353 226.357 726.032 225.947C726.712 225.537 727.503 225.332 728.405 225.332C729.22 225.332 729.955 225.505 730.611 225.851C731.268 226.196 731.789 226.732 732.176 227.459C732.562 228.18 732.756 229.073 732.756 230.14V230.843H724.942V229.322H730.611C730.611 228.889 730.521 228.502 730.339 228.162C730.157 227.822 729.899 227.556 729.565 227.362C729.237 227.169 728.859 227.072 728.432 227.072C727.975 227.072 727.57 227.181 727.219 227.397C726.867 227.614 726.592 227.907 726.393 228.276C726.199 228.64 726.1 229.038 726.094 229.472V230.772C726.094 231.329 726.193 231.81 726.393 232.214C726.598 232.612 726.885 232.917 727.254 233.128C727.623 233.339 728.054 233.444 728.546 233.444C728.862 233.444 729.146 233.4 729.398 233.312C729.656 233.225 729.876 233.11 730.058 232.97C730.239 232.823 730.377 232.65 730.471 232.451H732.668C732.533 232.996 732.278 233.477 731.903 233.893C731.534 234.303 731.06 234.622 730.479 234.851C729.899 235.073 729.246 235.185 728.52 235.185ZM734.514 225.455H736.676V227.046H736.781C736.951 226.495 737.247 226.07 737.669 225.771C738.091 225.467 738.577 225.314 739.128 225.314C739.409 225.314 739.682 225.335 739.945 225.376V227.441C739.852 227.4 739.699 227.368 739.488 227.345C739.277 227.321 739.081 227.31 738.899 227.31C738.495 227.31 738.129 227.397 737.801 227.573C737.473 227.749 737.215 227.995 737.027 228.312C736.84 228.622 736.746 228.979 736.746 229.384V235H734.514V225.455Z" fill="white"/>
<mask id="path-20-inside-1_5863_26479" fill="white">
<rect x="624" y="139" width="72" height="54" rx="1"/>
</mask>
<rect x="624" y="139" width="72" height="54" rx="1" stroke="white" stroke-width="3" mask="url(#path-20-inside-1_5863_26479)"/>
<path d="M655 193C653.438 198.467 652.562 200.533 651 206" stroke="white" stroke-width="1.5" stroke-linecap="round"/>
<path d="M664 193L669 206" stroke="white" stroke-width="1.5" stroke-linecap="round"/>
<path d="M644 206H676" stroke="white" stroke-width="1.5" stroke-linecap="round"/>
<path d="M625 183C654.996 183 665.004 183 695 183" stroke="white" stroke-width="1.5" stroke-linecap="round"/>
<path d="M670 154C699.996 154 656.004 154 686 154" stroke="white" stroke-width="1.5" stroke-linecap="round"/>
<path d="M670 162C699.996 162 656.004 162 686 162" stroke="white" stroke-width="1.5" stroke-linecap="round"/>
<path d="M670 170C699.996 170 656.004 170 686 170" stroke="white" stroke-width="1.5" stroke-linecap="round"/>
<mask id="path-28-inside-2_5863_26479" fill="white">
<path d="M659 162C659 164.571 658.238 167.085 656.809 169.222C655.381 171.36 653.35 173.026 650.975 174.01C648.599 174.994 645.986 175.252 643.464 174.75C640.942 174.249 638.626 173.01 636.808 171.192C634.99 169.374 633.751 167.058 633.25 164.536C632.748 162.014 633.006 159.401 633.99 157.025C634.974 154.65 636.64 152.619 638.778 151.191C640.915 149.762 643.429 149 646 149V162H659Z"/>
</mask>
<path d="M659 162C659 164.571 658.238 167.085 656.809 169.222C655.381 171.36 653.35 173.026 650.975 174.01C648.599 174.994 645.986 175.252 643.464 174.75C640.942 174.249 638.626 173.01 636.808 171.192C634.99 169.374 633.751 167.058 633.25 164.536C632.748 162.014 633.006 159.401 633.99 157.025C634.974 154.65 636.64 152.619 638.778 151.191C640.915 149.762 643.429 149 646 149V162H659Z" stroke="white" stroke-width="3" mask="url(#path-28-inside-2_5863_26479)"/>
<mask id="path-29-inside-3_5863_26479" fill="white">
<path d="M661 160C661 158.293 660.664 156.602 660.01 155.025C659.357 153.448 658.4 152.015 657.192 150.808C655.985 149.6 654.552 148.643 652.975 147.99C651.398 147.336 649.707 147 648 147L648 160H661Z"/>
</mask>
<path d="M661 160C661 158.293 660.664 156.602 660.01 155.025C659.357 153.448 658.4 152.015 657.192 150.808C655.985 149.6 654.552 148.643 652.975 147.99C651.398 147.336 649.707 147 648 147L648 160H661Z" stroke="#E60040" stroke-width="3" mask="url(#path-29-inside-3_5863_26479)"/>
<rect x="100" y="150" width="282" height="80" rx="4" fill="white"/>
<rect x="100.5" y="150.5" width="281" height="79" rx="3.5" stroke="#0F1F45" stroke-opacity="0.3"/>
<path d="M125 191.75H163C163.138 191.75 163.25 191.862 163.25 192V209C163.25 209.138 163.138 209.25 163 209.25H125C124.862 209.25 124.75 209.138 124.75 209V192C124.75 191.862 124.862 191.75 125 191.75Z" fill="white" stroke="#0F1F45" stroke-width="1.5"/>
<path d="M137 198.75H151C151.138 198.75 151.25 198.862 151.25 199V209C151.25 209.138 151.138 209.25 151 209.25H137C136.862 209.25 136.75 209.138 136.75 209V199C136.75 198.862 136.862 198.75 137 198.75Z" fill="white" stroke="#0F1F45" stroke-width="1.5"/>
<path d="M144 198V210" stroke="#0F1F45" stroke-width="1.5"/>
<path d="M130.915 170.75H143.085C143.214 170.75 143.322 170.849 143.334 170.978L145.156 191.478C145.169 191.624 145.054 191.75 144.907 191.75H129.093C128.946 191.75 128.831 191.624 128.844 191.478L130.666 170.978C130.678 170.849 130.786 170.75 130.915 170.75Z" fill="white" stroke="#0F1F45" stroke-width="1.5"/>
<path d="M137 203.992L125 203.992M151 203.992L163 203.992" stroke="#0F1F45" stroke-width="1.5"/>
<path d="M137 179L134.5 183.5H139.5L137 188" stroke="#E60040" stroke-width="1.5" stroke-linecap="round" stroke-linejoin="round"/>
<path d="M149.944 175.75H156.056C156.188 175.75 156.297 175.853 156.305 175.985L157.19 191.485C157.199 191.629 157.085 191.75 156.941 191.75H149.059C148.915 191.75 148.801 191.629 148.81 191.485L149.695 175.985C149.703 175.853 149.812 175.75 149.944 175.75Z" fill="white" stroke="#0F1F45" stroke-width="1.5"/>
<path d="M131 175H144" stroke="#0F1F45" stroke-width="1.5"/>
<path d="M149 179H157" stroke="#0F1F45" stroke-width="1.5"/>
<path d="M194.148 184.688V192.125C194.148 192.911 193.961 193.612 193.586 194.227C193.216 194.836 192.69 195.315 192.008 195.664C191.326 196.013 190.539 196.188 189.648 196.188C188.753 196.188 187.966 196.013 187.289 195.664C186.612 195.315 186.086 194.836 185.711 194.227C185.341 193.612 185.156 192.911 185.156 192.125V184.688H186.875V191.992C186.875 192.492 186.987 192.943 187.211 193.344C187.44 193.74 187.763 194.052 188.18 194.281C188.602 194.51 189.091 194.625 189.648 194.625C190.211 194.625 190.703 194.51 191.125 194.281C191.547 194.052 191.867 193.74 192.086 193.344C192.31 192.943 192.422 192.492 192.422 191.992V184.688H194.148ZM200.273 188.844H195.633V187.516H200.273V188.844ZM198.555 185.484V193.508C198.555 193.81 198.599 194.042 198.688 194.203C198.776 194.365 198.893 194.477 199.039 194.539C199.185 194.602 199.359 194.633 199.562 194.633C199.812 194.633 200.091 194.622 200.398 194.602V196.039C200.102 196.086 199.758 196.109 199.367 196.109C198.914 196.109 198.497 196.026 198.117 195.859C197.742 195.688 197.44 195.432 197.211 195.094C196.987 194.75 196.875 194.333 196.875 193.844V185.484H198.555ZM201.914 187.516H203.578V196H201.914V187.516ZM202.742 186.203C202.555 186.203 202.38 186.161 202.219 186.078C202.057 185.99 201.93 185.87 201.836 185.719C201.742 185.562 201.695 185.396 201.695 185.219C201.695 185.036 201.742 184.872 201.836 184.727C201.93 184.576 202.057 184.456 202.219 184.367C202.38 184.279 202.555 184.234 202.742 184.234C202.94 184.234 203.12 184.279 203.281 184.367C203.443 184.456 203.568 184.576 203.656 184.727C203.75 184.872 203.797 185.036 203.797 185.219C203.797 185.396 203.75 185.562 203.656 185.719C203.568 185.87 203.443 185.99 203.281 186.078C203.12 186.161 202.94 186.203 202.742 186.203ZM207.281 196H205.617V184.688H207.281V196ZM209.305 187.516H210.969V196H209.305V187.516ZM210.133 186.203C209.945 186.203 209.771 186.161 209.609 186.078C209.448 185.99 209.32 185.87 209.227 185.719C209.133 185.562 209.086 185.396 209.086 185.219C209.086 185.036 209.133 184.872 209.227 184.727C209.32 184.576 209.448 184.456 209.609 184.367C209.771 184.279 209.945 184.234 210.133 184.234C210.331 184.234 210.51 184.279 210.672 184.367C210.833 184.456 210.958 184.576 211.047 184.727C211.141 184.872 211.188 185.036 211.188 185.219C211.188 185.396 211.141 185.562 211.047 185.719C210.958 185.87 210.833 185.99 210.672 186.078C210.51 186.161 210.331 186.203 210.133 186.203ZM216.961 188.844H212.32V187.516H216.961V188.844ZM215.242 185.484V193.508C215.242 193.81 215.286 194.042 215.375 194.203C215.464 194.365 215.581 194.477 215.727 194.539C215.872 194.602 216.047 194.633 216.25 194.633C216.5 194.633 216.779 194.622 217.086 194.602V196.039C216.789 196.086 216.445 196.109 216.055 196.109C215.602 196.109 215.185 196.026 214.805 195.859C214.43 195.688 214.128 195.432 213.898 195.094C213.674 194.75 213.562 194.333 213.562 193.844V185.484H215.242ZM219.625 199.188C219.292 199.188 218.995 199.177 218.734 199.156V197.75L219.031 197.766C219.141 197.776 219.292 197.781 219.484 197.781C219.698 197.781 219.875 197.76 220.016 197.719C220.161 197.677 220.302 197.573 220.438 197.406C220.578 197.245 220.706 196.997 220.82 196.664L221.039 196.125L217.922 187.516H219.719L221.852 194.086H221.945L224.086 187.516H225.883L222.383 197.125C222.128 197.802 221.776 198.315 221.328 198.664C220.88 199.013 220.312 199.188 219.625 199.188ZM238.938 188.258C238.802 187.81 238.596 187.427 238.32 187.109C238.044 186.786 237.711 186.539 237.32 186.367C236.935 186.19 236.495 186.102 236 186.102C235.354 186.102 234.776 186.266 234.266 186.594C233.76 186.922 233.359 187.406 233.062 188.047C232.771 188.682 232.625 189.448 232.625 190.344C232.625 191.234 232.771 192 233.062 192.641C233.359 193.276 233.766 193.76 234.281 194.094C234.802 194.422 235.398 194.586 236.07 194.586C236.685 194.586 237.219 194.461 237.672 194.211C238.13 193.961 238.484 193.607 238.734 193.148C238.984 192.685 239.109 192.151 239.109 191.547L239.555 191.625H236.32V190.203H240.781V191.492C240.781 192.424 240.578 193.245 240.172 193.953C239.771 194.656 239.214 195.201 238.5 195.586C237.792 195.966 236.982 196.156 236.07 196.156C235.055 196.156 234.159 195.919 233.383 195.445C232.607 194.971 232.003 194.297 231.57 193.422C231.143 192.547 230.93 191.521 230.93 190.344C230.93 189.161 231.146 188.133 231.578 187.258C232.016 186.383 232.617 185.711 233.383 185.242C234.148 184.768 235.018 184.531 235.992 184.531C236.799 184.531 237.536 184.688 238.203 185C238.875 185.312 239.427 185.75 239.859 186.312C240.297 186.875 240.578 187.523 240.703 188.258H238.938ZM242.633 187.516H244.242V188.875H244.336C244.487 188.406 244.758 188.042 245.148 187.781C245.539 187.516 245.979 187.383 246.469 187.383C246.729 187.383 246.969 187.398 247.188 187.43V189.023C247.12 188.997 246.997 188.974 246.82 188.953C246.643 188.927 246.474 188.914 246.312 188.914C245.938 188.914 245.596 188.997 245.289 189.164C244.982 189.326 244.74 189.552 244.562 189.844C244.385 190.135 244.297 190.464 244.297 190.828V196H242.633V187.516ZM248.445 187.516H250.109V196H248.445V187.516ZM249.273 186.203C249.086 186.203 248.911 186.161 248.75 186.078C248.589 185.99 248.461 185.87 248.367 185.719C248.273 185.562 248.227 185.396 248.227 185.219C248.227 185.036 248.273 184.872 248.367 184.727C248.461 184.576 248.589 184.456 248.75 184.367C248.911 184.279 249.086 184.234 249.273 184.234C249.471 184.234 249.651 184.279 249.812 184.367C249.974 184.456 250.099 184.576 250.188 184.727C250.281 184.872 250.328 185.036 250.328 185.219C250.328 185.396 250.281 185.562 250.188 185.719C250.099 185.87 249.974 185.99 249.812 186.078C249.651 186.161 249.471 186.203 249.273 186.203ZM255.32 196.156C254.638 196.156 254.026 195.982 253.484 195.633C252.948 195.279 252.526 194.771 252.219 194.109C251.917 193.443 251.766 192.664 251.766 191.773C251.766 190.872 251.919 190.094 252.227 189.438C252.534 188.776 252.956 188.273 253.492 187.93C254.034 187.581 254.648 187.406 255.336 187.406C255.815 187.406 256.219 187.484 256.547 187.641C256.875 187.797 257.122 187.974 257.289 188.172C257.456 188.37 257.617 188.607 257.773 188.883H257.859V184.688H259.531V196H257.898V194.688H257.773C257.607 194.958 257.44 195.193 257.273 195.391C257.107 195.583 256.859 195.76 256.531 195.922C256.203 196.078 255.799 196.156 255.32 196.156ZM255.688 194.742C256.156 194.742 256.557 194.617 256.891 194.367C257.224 194.117 257.477 193.768 257.648 193.32C257.82 192.867 257.906 192.344 257.906 191.75C257.906 191.156 257.823 190.641 257.656 190.203C257.49 189.766 257.237 189.427 256.898 189.188C256.565 188.948 256.161 188.828 255.688 188.828C255.214 188.828 254.81 188.953 254.477 189.203C254.143 189.448 253.891 189.792 253.719 190.234C253.547 190.677 253.461 191.182 253.461 191.75C253.461 192.328 253.547 192.844 253.719 193.297C253.891 193.745 254.143 194.099 254.477 194.359C254.81 194.615 255.214 194.742 255.688 194.742Z" fill="#0F1F45"/>
<rect x="170" y="300" width="282" height="80" rx="4" fill="white"/>
<rect x="170.5" y="300.5" width="281" height="79" rx="3.5" stroke="#0F1F45" stroke-opacity="0.3"/>
<path d="M255.156 334.688H262.258V336.164H256.875V339.602H261.883V341.07H256.875V344.523H262.312V346H255.156V334.688ZM265.875 346H264.211V337.516H265.805V338.898H265.914C266.122 338.424 266.435 338.057 266.852 337.797C267.273 337.536 267.797 337.406 268.422 337.406C269.005 337.406 269.51 337.529 269.938 337.773C270.37 338.013 270.703 338.372 270.938 338.852C271.177 339.331 271.297 339.914 271.297 340.602V346H269.633V340.797C269.633 340.391 269.562 340.042 269.422 339.75C269.281 339.458 269.078 339.237 268.812 339.086C268.547 338.93 268.224 338.852 267.844 338.852C267.458 338.852 267.117 338.935 266.82 339.102C266.523 339.263 266.292 339.505 266.125 339.828C265.958 340.146 265.875 340.526 265.875 340.969V346ZM276.992 346.172C276.174 346.172 275.458 345.992 274.844 345.633C274.234 345.273 273.766 344.766 273.438 344.109C273.109 343.453 272.945 342.69 272.945 341.82C272.945 340.951 273.109 340.182 273.438 339.516C273.766 338.844 274.227 338.326 274.82 337.961C275.414 337.591 276.099 337.406 276.875 337.406C277.562 337.406 278.19 337.555 278.758 337.852C279.326 338.143 279.781 338.609 280.125 339.25C280.469 339.885 280.641 340.69 280.641 341.664V342.25H273.883V341.008H279.008C279.008 340.576 278.919 340.193 278.742 339.859C278.57 339.521 278.323 339.255 278 339.062C277.677 338.87 277.307 338.773 276.891 338.773C276.438 338.773 276.039 338.883 275.695 339.102C275.352 339.32 275.083 339.615 274.891 339.984C274.698 340.354 274.602 340.75 274.602 341.172V342.141C274.602 342.698 274.701 343.177 274.898 343.578C275.102 343.979 275.383 344.284 275.742 344.492C276.107 344.701 276.526 344.805 277 344.805C277.302 344.805 277.576 344.763 277.82 344.68C278.065 344.591 278.273 344.482 278.445 344.352C278.617 344.216 278.75 344.057 278.844 343.875H280.539C280.414 344.333 280.19 344.734 279.867 345.078C279.544 345.422 279.135 345.69 278.641 345.883C278.151 346.076 277.602 346.172 276.992 346.172ZM282.289 337.516H283.898V338.875H283.992C284.143 338.406 284.414 338.042 284.805 337.781C285.195 337.516 285.635 337.383 286.125 337.383C286.385 337.383 286.625 337.398 286.844 337.43V339.023C286.776 338.997 286.654 338.974 286.477 338.953C286.299 338.927 286.13 338.914 285.969 338.914C285.594 338.914 285.253 338.997 284.945 339.164C284.638 339.326 284.396 339.552 284.219 339.844C284.042 340.135 283.953 340.464 283.953 340.828V346H282.289V337.516ZM291.391 349.359C290.688 349.359 290.065 349.258 289.523 349.055C288.982 348.857 288.552 348.568 288.234 348.188C287.922 347.807 287.742 347.354 287.695 346.828H289.391C289.474 347.224 289.69 347.521 290.039 347.719C290.393 347.917 290.852 348.016 291.414 348.016C292.102 348.016 292.633 347.862 293.008 347.555C293.383 347.247 293.57 346.771 293.57 346.125V344.461H293.469C293.328 344.716 293.169 344.943 292.992 345.141C292.815 345.333 292.56 345.505 292.227 345.656C291.893 345.802 291.487 345.875 291.008 345.875C290.336 345.875 289.729 345.711 289.188 345.383C288.651 345.055 288.227 344.573 287.914 343.938C287.607 343.302 287.453 342.544 287.453 341.664C287.453 340.784 287.607 340.023 287.914 339.383C288.221 338.737 288.643 338.247 289.18 337.914C289.721 337.576 290.336 337.406 291.023 337.406C291.503 337.406 291.906 337.484 292.234 337.641C292.562 337.797 292.805 337.966 292.961 338.148C293.117 338.331 293.292 338.576 293.484 338.883H293.586V337.516H295.227V346.188C295.227 346.885 295.062 347.471 294.734 347.945C294.406 348.424 293.956 348.779 293.383 349.008C292.81 349.242 292.146 349.359 291.391 349.359ZM291.375 344.492C291.844 344.492 292.245 344.38 292.578 344.156C292.911 343.932 293.164 343.615 293.336 343.203C293.508 342.786 293.594 342.286 293.594 341.703C293.594 341.125 293.508 340.62 293.336 340.188C293.164 339.75 292.911 339.414 292.578 339.18C292.25 338.945 291.849 338.828 291.375 338.828C290.901 338.828 290.497 338.953 290.164 339.203C289.831 339.448 289.578 339.789 289.406 340.227C289.234 340.659 289.148 341.151 289.148 341.703C289.148 342.26 289.234 342.75 289.406 343.172C289.578 343.589 289.831 343.914 290.164 344.148C290.497 344.378 290.901 344.492 291.375 344.492ZM298.281 349.188C297.948 349.188 297.651 349.177 297.391 349.156V347.75L297.688 347.766C297.797 347.776 297.948 347.781 298.141 347.781C298.354 347.781 298.531 347.76 298.672 347.719C298.818 347.677 298.958 347.573 299.094 347.406C299.234 347.245 299.362 346.997 299.477 346.664L299.695 346.125L296.578 337.516H298.375L300.508 344.086H300.602L302.742 337.516H304.539L301.039 347.125C300.784 347.802 300.432 348.315 299.984 348.664C299.536 349.013 298.969 349.188 298.281 349.188ZM316.109 337.664C316.068 337.32 315.948 337.023 315.75 336.773C315.552 336.523 315.284 336.336 314.945 336.211C314.612 336.086 314.227 336.023 313.789 336.023C313.336 336.023 312.938 336.094 312.594 336.234C312.25 336.375 311.984 336.573 311.797 336.828C311.609 337.078 311.516 337.365 311.516 337.688C311.516 338.161 311.711 338.526 312.102 338.781C312.492 339.036 312.984 339.24 313.578 339.391L314.664 339.68C315.607 339.909 316.385 340.268 317 340.758C317.62 341.247 317.93 341.953 317.93 342.875C317.93 343.51 317.763 344.081 317.43 344.586C317.102 345.086 316.62 345.479 315.984 345.766C315.354 346.047 314.604 346.188 313.734 346.188C312.896 346.188 312.164 346.055 311.539 345.789C310.914 345.518 310.427 345.135 310.078 344.641C309.729 344.141 309.536 343.549 309.5 342.867H311.219C311.255 343.258 311.388 343.589 311.617 343.859C311.846 344.13 312.143 344.333 312.508 344.469C312.872 344.604 313.279 344.672 313.727 344.672C314.206 344.672 314.635 344.596 315.016 344.445C315.396 344.294 315.693 344.081 315.906 343.805C316.12 343.523 316.227 343.203 316.227 342.844C316.227 342.531 316.138 342.268 315.961 342.055C315.784 341.841 315.542 341.667 315.234 341.531C314.932 341.391 314.552 341.258 314.094 341.133L312.75 340.781C311.802 340.521 311.076 340.148 310.57 339.664C310.065 339.174 309.812 338.547 309.812 337.781C309.812 337.141 309.987 336.576 310.336 336.086C310.69 335.596 311.169 335.216 311.773 334.945C312.383 334.669 313.068 334.531 313.828 334.531C314.583 334.531 315.255 334.667 315.844 334.938C316.438 335.203 316.904 335.573 317.242 336.047C317.581 336.521 317.758 337.06 317.773 337.664H316.109ZM323.617 338.844H318.977V337.516H323.617V338.844ZM321.898 335.484V343.508C321.898 343.81 321.943 344.042 322.031 344.203C322.12 344.365 322.237 344.477 322.383 344.539C322.529 344.602 322.703 344.633 322.906 344.633C323.156 344.633 323.435 344.622 323.742 344.602V346.039C323.445 346.086 323.102 346.109 322.711 346.109C322.258 346.109 321.841 346.026 321.461 345.859C321.086 345.688 320.784 345.432 320.555 345.094C320.331 344.75 320.219 344.333 320.219 343.844V335.484H321.898ZM328.766 346.172C327.974 346.172 327.276 345.99 326.672 345.625C326.073 345.26 325.609 344.747 325.281 344.086C324.953 343.424 324.789 342.661 324.789 341.797C324.789 340.922 324.953 340.154 325.281 339.492C325.609 338.831 326.073 338.318 326.672 337.953C327.276 337.589 327.974 337.406 328.766 337.406C329.552 337.406 330.245 337.589 330.844 337.953C331.443 338.318 331.904 338.831 332.227 339.492C332.549 340.154 332.711 340.922 332.711 341.797C332.711 342.661 332.549 343.424 332.227 344.086C331.904 344.747 331.443 345.26 330.844 345.625C330.245 345.99 329.552 346.172 328.766 346.172ZM328.766 344.781C329.266 344.781 329.685 344.648 330.023 344.383C330.362 344.112 330.615 343.753 330.781 343.305C330.948 342.852 331.031 342.346 331.031 341.789C331.031 341.232 330.948 340.727 330.781 340.273C330.615 339.82 330.362 339.461 330.023 339.195C329.685 338.924 329.266 338.789 328.766 338.789C328.266 338.789 327.844 338.924 327.5 339.195C327.156 339.461 326.898 339.82 326.727 340.273C326.555 340.727 326.469 341.232 326.469 341.789C326.469 342.346 326.555 342.852 326.727 343.305C326.898 343.753 327.156 344.112 327.5 344.383C327.844 344.648 328.266 344.781 328.766 344.781ZM334.383 337.516H335.992V338.875H336.086C336.237 338.406 336.508 338.042 336.898 337.781C337.289 337.516 337.729 337.383 338.219 337.383C338.479 337.383 338.719 337.398 338.938 337.43V339.023C338.87 338.997 338.747 338.974 338.57 338.953C338.393 338.927 338.224 338.914 338.062 338.914C337.688 338.914 337.346 338.997 337.039 339.164C336.732 339.326 336.49 339.552 336.312 339.844C336.135 340.135 336.047 340.464 336.047 340.828V346H334.383V337.516ZM345.234 342.156C345.099 342.156 344.674 342.182 343.961 342.234L343.117 342.297C342.555 342.339 342.117 342.469 341.805 342.688C341.497 342.906 341.344 343.219 341.344 343.625C341.344 343.891 341.411 344.115 341.547 344.297C341.682 344.474 341.872 344.612 342.117 344.711C342.362 344.805 342.641 344.852 342.953 344.852C343.396 344.852 343.779 344.766 344.102 344.594C344.43 344.417 344.682 344.182 344.859 343.891C345.036 343.594 345.125 343.276 345.125 342.938L345.117 340.266C345.117 339.943 345.052 339.669 344.922 339.445C344.797 339.216 344.604 339.044 344.344 338.93C344.083 338.81 343.766 338.75 343.391 338.75C342.917 338.75 342.529 338.849 342.227 339.047C341.93 339.24 341.737 339.5 341.648 339.828H339.977C340.034 339.354 340.211 338.935 340.508 338.57C340.805 338.206 341.206 337.922 341.711 337.719C342.216 337.51 342.794 337.406 343.445 337.406C343.992 337.406 344.51 337.49 345 337.656C345.495 337.818 345.914 338.12 346.258 338.562C346.602 339 346.773 339.602 346.773 340.367V346H345.156V344.836H345.094C344.979 345.07 344.812 345.289 344.594 345.492C344.375 345.695 344.094 345.862 343.75 345.992C343.411 346.122 343.021 346.188 342.578 346.188C342.031 346.188 341.542 346.086 341.109 345.883C340.677 345.68 340.336 345.383 340.086 344.992C339.836 344.602 339.711 344.141 339.711 343.609C339.711 342.724 340.008 342.094 340.602 341.719C341.201 341.344 341.961 341.128 342.883 341.07C343.008 341.055 343.503 341.023 344.367 340.977L345.219 340.945L345.234 342.156ZM352.359 349.359C351.656 349.359 351.034 349.258 350.492 349.055C349.951 348.857 349.521 348.568 349.203 348.188C348.891 347.807 348.711 347.354 348.664 346.828H350.359C350.443 347.224 350.659 347.521 351.008 347.719C351.362 347.917 351.82 348.016 352.383 348.016C353.07 348.016 353.602 347.862 353.977 347.555C354.352 347.247 354.539 346.771 354.539 346.125V344.461H354.438C354.297 344.716 354.138 344.943 353.961 345.141C353.784 345.333 353.529 345.505 353.195 345.656C352.862 345.802 352.456 345.875 351.977 345.875C351.305 345.875 350.698 345.711 350.156 345.383C349.62 345.055 349.195 344.573 348.883 343.938C348.576 343.302 348.422 342.544 348.422 341.664C348.422 340.784 348.576 340.023 348.883 339.383C349.19 338.737 349.612 338.247 350.148 337.914C350.69 337.576 351.305 337.406 351.992 337.406C352.471 337.406 352.875 337.484 353.203 337.641C353.531 337.797 353.773 337.966 353.93 338.148C354.086 338.331 354.26 338.576 354.453 338.883H354.555V337.516H356.195V346.188C356.195 346.885 356.031 347.471 355.703 347.945C355.375 348.424 354.924 348.779 354.352 349.008C353.779 349.242 353.115 349.359 352.359 349.359ZM352.344 344.492C352.812 344.492 353.214 344.38 353.547 344.156C353.88 343.932 354.133 343.615 354.305 343.203C354.477 342.786 354.562 342.286 354.562 341.703C354.562 341.125 354.477 340.62 354.305 340.188C354.133 339.75 353.88 339.414 353.547 339.18C353.219 338.945 352.818 338.828 352.344 338.828C351.87 338.828 351.466 338.953 351.133 339.203C350.799 339.448 350.547 339.789 350.375 340.227C350.203 340.659 350.117 341.151 350.117 341.703C350.117 342.26 350.203 342.75 350.375 343.172C350.547 343.589 350.799 343.914 351.133 344.148C351.466 344.378 351.87 344.492 352.344 344.492ZM361.883 346.172C361.065 346.172 360.349 345.992 359.734 345.633C359.125 345.273 358.656 344.766 358.328 344.109C358 343.453 357.836 342.69 357.836 341.82C357.836 340.951 358 340.182 358.328 339.516C358.656 338.844 359.117 338.326 359.711 337.961C360.305 337.591 360.99 337.406 361.766 337.406C362.453 337.406 363.081 337.555 363.648 337.852C364.216 338.143 364.672 338.609 365.016 339.25C365.359 339.885 365.531 340.69 365.531 341.664V342.25H358.773V341.008H363.898C363.898 340.576 363.81 340.193 363.633 339.859C363.461 339.521 363.214 339.255 362.891 339.062C362.568 338.87 362.198 338.773 361.781 338.773C361.328 338.773 360.93 338.883 360.586 339.102C360.242 339.32 359.974 339.615 359.781 339.984C359.589 340.354 359.492 340.75 359.492 341.172V342.141C359.492 342.698 359.591 343.177 359.789 343.578C359.992 343.979 360.273 344.284 360.633 344.492C360.997 344.701 361.417 344.805 361.891 344.805C362.193 344.805 362.466 344.763 362.711 344.68C362.956 344.591 363.164 344.482 363.336 344.352C363.508 344.216 363.641 344.057 363.734 343.875H365.43C365.305 344.333 365.081 344.734 364.758 345.078C364.435 345.422 364.026 345.69 363.531 345.883C363.042 346.076 362.492 346.172 361.883 346.172Z" fill="#0F1F45"/>
<path d="M197 325.25H231C231.138 325.25 231.25 325.362 231.25 325.5V358.5C231.25 358.638 231.138 358.75 231 358.75H197C196.862 358.75 196.75 358.638 196.75 358.5V325.5C196.75 325.362 196.862 325.25 197 325.25Z" stroke="#0F1F45" stroke-width="1.5"/>
<path d="M196 330H232" stroke="#0F1F45" stroke-width="1.5"/>
<path d="M196 354H232" stroke="#0F1F45" stroke-width="1.5"/>
<path d="M214 336.5L211 342H217L214 347.5" stroke="#E60040" stroke-width="1.5" stroke-linecap="round" stroke-linejoin="round"/>
<path d="M202 341.5H206" stroke="#0F1F45" stroke-width="1.5" stroke-linecap="round"/>
<path d="M222 341.5H226" stroke="#0F1F45" stroke-width="1.5" stroke-linecap="round"/>
<path d="M224 339.5V343.5" stroke="#0F1F45" stroke-width="1.5" stroke-linecap="round"/>
<path d="M208.25 320.75V325.25H199.75V320.75H208.25Z" stroke="#0F1F45" stroke-width="1.5"/>
<path d="M228.25 320.75V325.25H219.75V320.75H228.25Z" stroke="#0F1F45" stroke-width="1.5"/>
<rect x="519" y="400" width="282" height="80" rx="4" fill="white"/>
<rect x="519.5" y="400.5" width="281" height="79" rx="3.5" stroke="#0F1F45" stroke-opacity="0.3"/>
<path d="M544 459H582" stroke="#0F1F45" stroke-width="1.5" stroke-linecap="round"/>
<path d="M550 459V452" stroke="#0F1F45" stroke-width="1.5" stroke-linecap="round"/>
<path d="M558 459V452" stroke="#0F1F45" stroke-width="1.5" stroke-linecap="round"/>
<path d="M547 454L553 450" stroke="#0F1F45" stroke-width="1.5" stroke-linecap="round"/>
<path d="M555 454L561 450" stroke="#0F1F45" stroke-width="1.5" stroke-linecap="round"/>
<circle cx="569" cy="436" r="3.25" stroke="#0F1F45" stroke-width="1.5"/>
<path d="M570 433V422.319C570 421.591 569.409 421 568.681 421C568.039 421 567.491 421.461 567.381 422.093L566 430L568 433" stroke="#0F1F45" stroke-width="1.5"/>
<path d="M570.998 438.464L580.248 443.804C580.879 444.169 581.686 443.952 582.05 443.321C582.371 442.766 582.246 442.061 581.754 441.649L575.596 436.5L571.998 436.732" stroke="#0F1F45" stroke-width="1.5"/>
<path d="M566.392 438.464L557.143 443.804C556.512 444.169 555.705 443.952 555.34 443.321C555.02 442.766 555.145 442.061 555.637 441.649L561.794 436.5L565.392 436.732" stroke="#0F1F45" stroke-width="1.5"/>
<path d="M565 459L568 439.5" stroke="#0F1F45" stroke-width="1.5" stroke-linecap="round"/>
<path d="M573 459L570 439.5" stroke="#0F1F45" stroke-width="1.5" stroke-linecap="round"/>
<path d="M575.326 427C577.897 428.81 579.657 431.694 579.955 435" stroke="#E60040" stroke-width="1.5" stroke-linecap="round"/>
<path d="M558.045 434.999C558.354 431.567 560.239 428.59 562.971 426.797" stroke="#E60040" stroke-width="1.5" stroke-linecap="round"/>
<path d="M604.156 434.688H608.188C609.052 434.688 609.776 434.836 610.359 435.133C610.948 435.424 611.388 435.839 611.68 436.375C611.971 436.911 612.117 437.534 612.117 438.242C612.117 438.94 611.971 439.552 611.68 440.078C611.388 440.599 610.945 441.005 610.352 441.297C609.763 441.589 609.039 441.734 608.18 441.734H605.125V440.242H608.016C608.568 440.242 609.018 440.164 609.367 440.008C609.716 439.852 609.971 439.625 610.133 439.328C610.299 439.031 610.383 438.669 610.383 438.242C610.383 437.799 610.299 437.424 610.133 437.117C609.971 436.805 609.714 436.568 609.359 436.406C609.005 436.245 608.555 436.164 608.008 436.164H605.875V446H604.156V434.688ZM612.539 446H610.578L607.844 440.898H609.75L612.539 446ZM617.445 446.172C616.628 446.172 615.911 445.992 615.297 445.633C614.688 445.273 614.219 444.766 613.891 444.109C613.562 443.453 613.398 442.69 613.398 441.82C613.398 440.951 613.562 440.182 613.891 439.516C614.219 438.844 614.68 438.326 615.273 437.961C615.867 437.591 616.552 437.406 617.328 437.406C618.016 437.406 618.643 437.555 619.211 437.852C619.779 438.143 620.234 438.609 620.578 439.25C620.922 439.885 621.094 440.69 621.094 441.664V442.25H614.336V441.008H619.461C619.461 440.576 619.372 440.193 619.195 439.859C619.023 439.521 618.776 439.255 618.453 439.062C618.13 438.87 617.76 438.773 617.344 438.773C616.891 438.773 616.492 438.883 616.148 439.102C615.805 439.32 615.536 439.615 615.344 439.984C615.151 440.354 615.055 440.75 615.055 441.172V442.141C615.055 442.698 615.154 443.177 615.352 443.578C615.555 443.979 615.836 444.284 616.195 444.492C616.56 444.701 616.979 444.805 617.453 444.805C617.755 444.805 618.029 444.763 618.273 444.68C618.518 444.591 618.727 444.482 618.898 444.352C619.07 444.216 619.203 444.057 619.297 443.875H620.992C620.867 444.333 620.643 444.734 620.32 445.078C619.997 445.422 619.589 445.69 619.094 445.883C618.604 446.076 618.055 446.172 617.445 446.172ZM624.406 446H622.742V437.516H624.336V438.898H624.445C624.654 438.424 624.966 438.057 625.383 437.797C625.805 437.536 626.328 437.406 626.953 437.406C627.536 437.406 628.042 437.529 628.469 437.773C628.901 438.013 629.234 438.372 629.469 438.852C629.708 439.331 629.828 439.914 629.828 440.602V446H628.164V440.797C628.164 440.391 628.094 440.042 627.953 439.75C627.812 439.458 627.609 439.237 627.344 439.086C627.078 438.93 626.755 438.852 626.375 438.852C625.99 438.852 625.648 438.935 625.352 439.102C625.055 439.263 624.823 439.505 624.656 439.828C624.49 440.146 624.406 440.526 624.406 440.969V446ZM635.523 446.172C634.706 446.172 633.99 445.992 633.375 445.633C632.766 445.273 632.297 444.766 631.969 444.109C631.641 443.453 631.477 442.69 631.477 441.82C631.477 440.951 631.641 440.182 631.969 439.516C632.297 438.844 632.758 438.326 633.352 437.961C633.945 437.591 634.63 437.406 635.406 437.406C636.094 437.406 636.721 437.555 637.289 437.852C637.857 438.143 638.312 438.609 638.656 439.25C639 439.885 639.172 440.69 639.172 441.664V442.25H632.414V441.008H637.539C637.539 440.576 637.451 440.193 637.273 439.859C637.102 439.521 636.854 439.255 636.531 439.062C636.208 438.87 635.839 438.773 635.422 438.773C634.969 438.773 634.57 438.883 634.227 439.102C633.883 439.32 633.615 439.615 633.422 439.984C633.229 440.354 633.133 440.75 633.133 441.172V442.141C633.133 442.698 633.232 443.177 633.43 443.578C633.633 443.979 633.914 444.284 634.273 444.492C634.638 444.701 635.057 444.805 635.531 444.805C635.833 444.805 636.107 444.763 636.352 444.68C636.596 444.591 636.805 444.482 636.977 444.352C637.148 444.216 637.281 444.057 637.375 443.875H639.07C638.945 444.333 638.721 444.734 638.398 445.078C638.076 445.422 637.667 445.69 637.172 445.883C636.682 446.076 636.133 446.172 635.523 446.172ZM640.141 437.516H641.867L643.523 443.742H643.602L645.258 437.516H646.984L648.633 443.703H648.719L650.367 437.516H652.078L649.594 446H647.891L646.172 439.891H646.055L644.344 446H642.633L640.141 437.516ZM658.578 442.156C658.443 442.156 658.018 442.182 657.305 442.234L656.461 442.297C655.898 442.339 655.461 442.469 655.148 442.688C654.841 442.906 654.688 443.219 654.688 443.625C654.688 443.891 654.755 444.115 654.891 444.297C655.026 444.474 655.216 444.612 655.461 444.711C655.706 444.805 655.984 444.852 656.297 444.852C656.74 444.852 657.122 444.766 657.445 444.594C657.773 444.417 658.026 444.182 658.203 443.891C658.38 443.594 658.469 443.276 658.469 442.938L658.461 440.266C658.461 439.943 658.396 439.669 658.266 439.445C658.141 439.216 657.948 439.044 657.688 438.93C657.427 438.81 657.109 438.75 656.734 438.75C656.26 438.75 655.872 438.849 655.57 439.047C655.273 439.24 655.081 439.5 654.992 439.828H653.32C653.378 439.354 653.555 438.935 653.852 438.57C654.148 438.206 654.549 437.922 655.055 437.719C655.56 437.51 656.138 437.406 656.789 437.406C657.336 437.406 657.854 437.49 658.344 437.656C658.839 437.818 659.258 438.12 659.602 438.562C659.945 439 660.117 439.602 660.117 440.367V446H658.5V444.836H658.438C658.323 445.07 658.156 445.289 657.938 445.492C657.719 445.695 657.438 445.862 657.094 445.992C656.755 446.122 656.365 446.188 655.922 446.188C655.375 446.188 654.885 446.086 654.453 445.883C654.021 445.68 653.68 445.383 653.43 444.992C653.18 444.602 653.055 444.141 653.055 443.609C653.055 442.724 653.352 442.094 653.945 441.719C654.544 441.344 655.305 441.128 656.227 441.07C656.352 441.055 656.846 441.023 657.711 440.977L658.562 440.945L658.578 442.156ZM662.281 434.688H663.945V438.883H664.039C664.232 438.576 664.404 438.331 664.555 438.148C664.706 437.966 664.943 437.797 665.266 437.641C665.594 437.484 665.997 437.406 666.477 437.406C667.164 437.406 667.776 437.581 668.312 437.93C668.854 438.273 669.279 438.776 669.586 439.438C669.893 440.094 670.047 440.872 670.047 441.773C670.047 442.664 669.893 443.443 669.586 444.109C669.284 444.771 668.865 445.279 668.328 445.633C667.797 445.982 667.185 446.156 666.492 446.156C666.018 446.156 665.617 446.078 665.289 445.922C664.966 445.76 664.719 445.583 664.547 445.391C664.375 445.193 664.206 444.958 664.039 444.688H663.898V446H662.281V434.688ZM663.906 441.75C663.906 442.344 663.992 442.867 664.164 443.32C664.336 443.768 664.589 444.117 664.922 444.367C665.255 444.617 665.651 444.742 666.109 444.742C666.589 444.742 666.995 444.615 667.328 444.359C667.667 444.099 667.922 443.745 668.094 443.297C668.266 442.844 668.352 442.328 668.352 441.75C668.352 441.182 668.268 440.677 668.102 440.234C667.935 439.792 667.682 439.448 667.344 439.203C667.005 438.953 666.594 438.828 666.109 438.828C665.646 438.828 665.247 438.948 664.914 439.188C664.586 439.427 664.336 439.766 664.164 440.203C663.992 440.641 663.906 441.156 663.906 441.75ZM673.375 446H671.711V434.688H673.375V446ZM679.055 446.172C678.237 446.172 677.521 445.992 676.906 445.633C676.297 445.273 675.828 444.766 675.5 444.109C675.172 443.453 675.008 442.69 675.008 441.82C675.008 440.951 675.172 440.182 675.5 439.516C675.828 438.844 676.289 438.326 676.883 437.961C677.477 437.591 678.161 437.406 678.938 437.406C679.625 437.406 680.253 437.555 680.82 437.852C681.388 438.143 681.844 438.609 682.188 439.25C682.531 439.885 682.703 440.69 682.703 441.664V442.25H675.945V441.008H681.07C681.07 440.576 680.982 440.193 680.805 439.859C680.633 439.521 680.385 439.255 680.062 439.062C679.74 438.87 679.37 438.773 678.953 438.773C678.5 438.773 678.102 438.883 677.758 439.102C677.414 439.32 677.146 439.615 676.953 439.984C676.76 440.354 676.664 440.75 676.664 441.172V442.141C676.664 442.698 676.763 443.177 676.961 443.578C677.164 443.979 677.445 444.284 677.805 444.492C678.169 444.701 678.589 444.805 679.062 444.805C679.365 444.805 679.638 444.763 679.883 444.68C680.128 444.591 680.336 444.482 680.508 444.352C680.68 444.216 680.812 444.057 680.906 443.875H682.602C682.477 444.333 682.253 444.734 681.93 445.078C681.607 445.422 681.198 445.69 680.703 445.883C680.214 446.076 679.664 446.172 679.055 446.172ZM688.391 434.688H695.492V436.164H690.109V439.602H695.117V441.07H690.109V444.523H695.547V446H688.391V434.688ZM699.109 446H697.445V437.516H699.039V438.898H699.148C699.357 438.424 699.669 438.057 700.086 437.797C700.508 437.536 701.031 437.406 701.656 437.406C702.24 437.406 702.745 437.529 703.172 437.773C703.604 438.013 703.938 438.372 704.172 438.852C704.411 439.331 704.531 439.914 704.531 440.602V446H702.867V440.797C702.867 440.391 702.797 440.042 702.656 439.75C702.516 439.458 702.312 439.237 702.047 439.086C701.781 438.93 701.458 438.852 701.078 438.852C700.693 438.852 700.352 438.935 700.055 439.102C699.758 439.263 699.526 439.505 699.359 439.828C699.193 440.146 699.109 440.526 699.109 440.969V446ZM710.227 446.172C709.409 446.172 708.693 445.992 708.078 445.633C707.469 445.273 707 444.766 706.672 444.109C706.344 443.453 706.18 442.69 706.18 441.82C706.18 440.951 706.344 440.182 706.672 439.516C707 438.844 707.461 438.326 708.055 437.961C708.648 437.591 709.333 437.406 710.109 437.406C710.797 437.406 711.424 437.555 711.992 437.852C712.56 438.143 713.016 438.609 713.359 439.25C713.703 439.885 713.875 440.69 713.875 441.664V442.25H707.117V441.008H712.242C712.242 440.576 712.154 440.193 711.977 439.859C711.805 439.521 711.557 439.255 711.234 439.062C710.911 438.87 710.542 438.773 710.125 438.773C709.672 438.773 709.273 438.883 708.93 439.102C708.586 439.32 708.318 439.615 708.125 439.984C707.932 440.354 707.836 440.75 707.836 441.172V442.141C707.836 442.698 707.935 443.177 708.133 443.578C708.336 443.979 708.617 444.284 708.977 444.492C709.341 444.701 709.76 444.805 710.234 444.805C710.536 444.805 710.81 444.763 711.055 444.68C711.299 444.591 711.508 444.482 711.68 444.352C711.852 444.216 711.984 444.057 712.078 443.875H713.773C713.648 444.333 713.424 444.734 713.102 445.078C712.779 445.422 712.37 445.69 711.875 445.883C711.385 446.076 710.836 446.172 710.227 446.172ZM715.523 437.516H717.133V438.875H717.227C717.378 438.406 717.648 438.042 718.039 437.781C718.43 437.516 718.87 437.383 719.359 437.383C719.62 437.383 719.859 437.398 720.078 437.43V439.023C720.01 438.997 719.888 438.974 719.711 438.953C719.534 438.927 719.365 438.914 719.203 438.914C718.828 438.914 718.487 438.997 718.18 439.164C717.872 439.326 717.63 439.552 717.453 439.844C717.276 440.135 717.188 440.464 717.188 440.828V446H715.523V437.516ZM724.625 449.359C723.922 449.359 723.299 449.258 722.758 449.055C722.216 448.857 721.786 448.568 721.469 448.188C721.156 447.807 720.977 447.354 720.93 446.828H722.625C722.708 447.224 722.924 447.521 723.273 447.719C723.628 447.917 724.086 448.016 724.648 448.016C725.336 448.016 725.867 447.862 726.242 447.555C726.617 447.247 726.805 446.771 726.805 446.125V444.461H726.703C726.562 444.716 726.404 444.943 726.227 445.141C726.049 445.333 725.794 445.505 725.461 445.656C725.128 445.802 724.721 445.875 724.242 445.875C723.57 445.875 722.964 445.711 722.422 445.383C721.885 445.055 721.461 444.573 721.148 443.938C720.841 443.302 720.688 442.544 720.688 441.664C720.688 440.784 720.841 440.023 721.148 439.383C721.456 438.737 721.878 438.247 722.414 437.914C722.956 437.576 723.57 437.406 724.258 437.406C724.737 437.406 725.141 437.484 725.469 437.641C725.797 437.797 726.039 437.966 726.195 438.148C726.352 438.331 726.526 438.576 726.719 438.883H726.82V437.516H728.461V446.188C728.461 446.885 728.297 447.471 727.969 447.945C727.641 448.424 727.19 448.779 726.617 449.008C726.044 449.242 725.38 449.359 724.625 449.359ZM724.609 444.492C725.078 444.492 725.479 444.38 725.812 444.156C726.146 443.932 726.398 443.615 726.57 443.203C726.742 442.786 726.828 442.286 726.828 441.703C726.828 441.125 726.742 440.62 726.57 440.188C726.398 439.75 726.146 439.414 725.812 439.18C725.484 438.945 725.083 438.828 724.609 438.828C724.135 438.828 723.732 438.953 723.398 439.203C723.065 439.448 722.812 439.789 722.641 440.227C722.469 440.659 722.383 441.151 722.383 441.703C722.383 442.26 722.469 442.75 722.641 443.172C722.812 443.589 723.065 443.914 723.398 444.148C723.732 444.378 724.135 444.492 724.609 444.492ZM731.516 449.188C731.182 449.188 730.885 449.177 730.625 449.156V447.75L730.922 447.766C731.031 447.776 731.182 447.781 731.375 447.781C731.589 447.781 731.766 447.76 731.906 447.719C732.052 447.677 732.193 447.573 732.328 447.406C732.469 447.245 732.596 446.997 732.711 446.664L732.93 446.125L729.812 437.516H731.609L733.742 444.086H733.836L735.977 437.516H737.773L734.273 447.125C734.018 447.802 733.667 448.315 733.219 448.664C732.771 449.013 732.203 449.188 731.516 449.188Z" fill="#0F1F45"/>
<rect x="868" y="300" width="282" height="80" rx="4" fill="white"/>
<rect x="868.5" y="300.5" width="281" height="79" rx="3.5" stroke="#0F1F45" stroke-opacity="0.3"/>
<path d="M960.797 338.258C960.661 337.81 960.456 337.427 960.18 337.109C959.904 336.786 959.57 336.539 959.18 336.367C958.794 336.19 958.354 336.102 957.859 336.102C957.214 336.102 956.635 336.266 956.125 336.594C955.62 336.922 955.219 337.406 954.922 338.047C954.63 338.682 954.484 339.448 954.484 340.344C954.484 341.234 954.63 342 954.922 342.641C955.219 343.276 955.625 343.76 956.141 344.094C956.661 344.422 957.258 344.586 957.93 344.586C958.544 344.586 959.078 344.461 959.531 344.211C959.99 343.961 960.344 343.607 960.594 343.148C960.844 342.685 960.969 342.151 960.969 341.547L961.414 341.625H958.18V340.203H962.641V341.492C962.641 342.424 962.438 343.245 962.031 343.953C961.63 344.656 961.073 345.201 960.359 345.586C959.651 345.966 958.841 346.156 957.93 346.156C956.914 346.156 956.018 345.919 955.242 345.445C954.466 344.971 953.862 344.297 953.43 343.422C953.003 342.547 952.789 341.521 952.789 340.344C952.789 339.161 953.005 338.133 953.438 337.258C953.875 336.383 954.477 335.711 955.242 335.242C956.008 334.768 956.878 334.531 957.852 334.531C958.659 334.531 959.396 334.688 960.062 335C960.734 335.312 961.286 335.75 961.719 336.312C962.156 336.875 962.438 337.523 962.562 338.258H960.797ZM968.148 346.172C967.331 346.172 966.615 345.992 966 345.633C965.391 345.273 964.922 344.766 964.594 344.109C964.266 343.453 964.102 342.69 964.102 341.82C964.102 340.951 964.266 340.182 964.594 339.516C964.922 338.844 965.383 338.326 965.977 337.961C966.57 337.591 967.255 337.406 968.031 337.406C968.719 337.406 969.346 337.555 969.914 337.852C970.482 338.143 970.938 338.609 971.281 339.25C971.625 339.885 971.797 340.69 971.797 341.664V342.25H965.039V341.008H970.164C970.164 340.576 970.076 340.193 969.898 339.859C969.727 339.521 969.479 339.255 969.156 339.062C968.833 338.87 968.464 338.773 968.047 338.773C967.594 338.773 967.195 338.883 966.852 339.102C966.508 339.32 966.24 339.615 966.047 339.984C965.854 340.354 965.758 340.75 965.758 341.172V342.141C965.758 342.698 965.857 343.177 966.055 343.578C966.258 343.979 966.539 344.284 966.898 344.492C967.263 344.701 967.682 344.805 968.156 344.805C968.458 344.805 968.732 344.763 968.977 344.68C969.221 344.591 969.43 344.482 969.602 344.352C969.773 344.216 969.906 344.057 970 343.875H971.695C971.57 344.333 971.346 344.734 971.023 345.078C970.701 345.422 970.292 345.69 969.797 345.883C969.307 346.076 968.758 346.172 968.148 346.172ZM975.109 346H973.445V337.516H975.039V338.898H975.148C975.357 338.424 975.669 338.057 976.086 337.797C976.508 337.536 977.031 337.406 977.656 337.406C978.24 337.406 978.745 337.529 979.172 337.773C979.604 338.013 979.938 338.372 980.172 338.852C980.411 339.331 980.531 339.914 980.531 340.602V346H978.867V340.797C978.867 340.391 978.797 340.042 978.656 339.75C978.516 339.458 978.312 339.237 978.047 339.086C977.781 338.93 977.458 338.852 977.078 338.852C976.693 338.852 976.352 338.935 976.055 339.102C975.758 339.263 975.526 339.505 975.359 339.828C975.193 340.146 975.109 340.526 975.109 340.969V346ZM986.227 346.172C985.409 346.172 984.693 345.992 984.078 345.633C983.469 345.273 983 344.766 982.672 344.109C982.344 343.453 982.18 342.69 982.18 341.82C982.18 340.951 982.344 340.182 982.672 339.516C983 338.844 983.461 338.326 984.055 337.961C984.648 337.591 985.333 337.406 986.109 337.406C986.797 337.406 987.424 337.555 987.992 337.852C988.56 338.143 989.016 338.609 989.359 339.25C989.703 339.885 989.875 340.69 989.875 341.664V342.25H983.117V341.008H988.242C988.242 340.576 988.154 340.193 987.977 339.859C987.805 339.521 987.557 339.255 987.234 339.062C986.911 338.87 986.542 338.773 986.125 338.773C985.672 338.773 985.273 338.883 984.93 339.102C984.586 339.32 984.318 339.615 984.125 339.984C983.932 340.354 983.836 340.75 983.836 341.172V342.141C983.836 342.698 983.935 343.177 984.133 343.578C984.336 343.979 984.617 344.284 984.977 344.492C985.341 344.701 985.76 344.805 986.234 344.805C986.536 344.805 986.81 344.763 987.055 344.68C987.299 344.591 987.508 344.482 987.68 344.352C987.852 344.216 987.984 344.057 988.078 343.875H989.773C989.648 344.333 989.424 344.734 989.102 345.078C988.779 345.422 988.37 345.69 987.875 345.883C987.385 346.076 986.836 346.172 986.227 346.172ZM991.523 337.516H993.133V338.875H993.227C993.378 338.406 993.648 338.042 994.039 337.781C994.43 337.516 994.87 337.383 995.359 337.383C995.62 337.383 995.859 337.398 996.078 337.43V339.023C996.01 338.997 995.888 338.974 995.711 338.953C995.534 338.927 995.365 338.914 995.203 338.914C994.828 338.914 994.487 338.997 994.18 339.164C993.872 339.326 993.63 339.552 993.453 339.844C993.276 340.135 993.188 340.464 993.188 340.828V346H991.523V337.516ZM1002.38 342.156C1002.24 342.156 1001.82 342.182 1001.1 342.234L1000.26 342.297C999.695 342.339 999.258 342.469 998.945 342.688C998.638 342.906 998.484 343.219 998.484 343.625C998.484 343.891 998.552 344.115 998.688 344.297C998.823 344.474 999.013 344.612 999.258 344.711C999.503 344.805 999.781 344.852 1000.09 344.852C1000.54 344.852 1000.92 344.766 1001.24 344.594C1001.57 344.417 1001.82 344.182 1002 343.891C1002.18 343.594 1002.27 343.276 1002.27 342.938L1002.26 340.266C1002.26 339.943 1002.19 339.669 1002.06 339.445C1001.94 339.216 1001.74 339.044 1001.48 338.93C1001.22 338.81 1000.91 338.75 1000.53 338.75C1000.06 338.75 999.669 338.849 999.367 339.047C999.07 339.24 998.878 339.5 998.789 339.828H997.117C997.174 339.354 997.352 338.935 997.648 338.57C997.945 338.206 998.346 337.922 998.852 337.719C999.357 337.51 999.935 337.406 1000.59 337.406C1001.13 337.406 1001.65 337.49 1002.14 337.656C1002.64 337.818 1003.05 338.12 1003.4 338.562C1003.74 339 1003.91 339.602 1003.91 340.367V346H1002.3V344.836H1002.23C1002.12 345.07 1001.95 345.289 1001.73 345.492C1001.52 345.695 1001.23 345.862 1000.89 345.992C1000.55 346.122 1000.16 346.188 999.719 346.188C999.172 346.188 998.682 346.086 998.25 345.883C997.818 345.68 997.477 345.383 997.227 344.992C996.977 344.602 996.852 344.141 996.852 343.609C996.852 342.724 997.148 342.094 997.742 341.719C998.341 341.344 999.102 341.128 1000.02 341.07C1000.15 341.055 1000.64 341.023 1001.51 340.977L1002.36 340.945L1002.38 342.156ZM1009.9 338.844H1005.26V337.516H1009.9V338.844ZM1008.18 335.484V343.508C1008.18 343.81 1008.22 344.042 1008.31 344.203C1008.4 344.365 1008.52 344.477 1008.66 344.539C1008.81 344.602 1008.98 344.633 1009.19 344.633C1009.44 344.633 1009.72 344.622 1010.02 344.602V346.039C1009.73 346.086 1009.38 346.109 1008.99 346.109C1008.54 346.109 1008.12 346.026 1007.74 345.859C1007.37 345.688 1007.07 345.432 1006.84 345.094C1006.61 344.75 1006.5 344.333 1006.5 343.844V335.484H1008.18ZM1015.05 346.172C1014.26 346.172 1013.56 345.99 1012.95 345.625C1012.35 345.26 1011.89 344.747 1011.56 344.086C1011.23 343.424 1011.07 342.661 1011.07 341.797C1011.07 340.922 1011.23 340.154 1011.56 339.492C1011.89 338.831 1012.35 338.318 1012.95 337.953C1013.56 337.589 1014.26 337.406 1015.05 337.406C1015.83 337.406 1016.53 337.589 1017.12 337.953C1017.72 338.318 1018.18 338.831 1018.51 339.492C1018.83 340.154 1018.99 340.922 1018.99 341.797C1018.99 342.661 1018.83 343.424 1018.51 344.086C1018.18 344.747 1017.72 345.26 1017.12 345.625C1016.53 345.99 1015.83 346.172 1015.05 346.172ZM1015.05 344.781C1015.55 344.781 1015.97 344.648 1016.3 344.383C1016.64 344.112 1016.9 343.753 1017.06 343.305C1017.23 342.852 1017.31 342.346 1017.31 341.789C1017.31 341.232 1017.23 340.727 1017.06 340.273C1016.9 339.82 1016.64 339.461 1016.3 339.195C1015.97 338.924 1015.55 338.789 1015.05 338.789C1014.55 338.789 1014.12 338.924 1013.78 339.195C1013.44 339.461 1013.18 339.82 1013.01 340.273C1012.84 340.727 1012.75 341.232 1012.75 341.789C1012.75 342.346 1012.84 342.852 1013.01 343.305C1013.18 343.753 1013.44 344.112 1013.78 344.383C1014.12 344.648 1014.55 344.781 1015.05 344.781ZM1020.66 337.516H1022.27V338.875H1022.37C1022.52 338.406 1022.79 338.042 1023.18 337.781C1023.57 337.516 1024.01 337.383 1024.5 337.383C1024.76 337.383 1025 337.398 1025.22 337.43V339.023C1025.15 338.997 1025.03 338.974 1024.85 338.953C1024.67 338.927 1024.51 338.914 1024.34 338.914C1023.97 338.914 1023.63 338.997 1023.32 339.164C1023.01 339.326 1022.77 339.552 1022.59 339.844C1022.42 340.135 1022.33 340.464 1022.33 340.828V346H1020.66V337.516ZM1031.23 339.828C1031.16 339.474 1030.98 339.201 1030.7 339.008C1030.43 338.815 1030.07 338.719 1029.62 338.719C1029.31 338.719 1029.03 338.768 1028.78 338.867C1028.54 338.961 1028.34 339.096 1028.2 339.273C1028.05 339.445 1027.98 339.641 1027.98 339.859C1027.98 340.109 1028.09 340.326 1028.31 340.508C1028.53 340.69 1028.87 340.831 1029.32 340.93L1030.67 341.242C1031.45 341.419 1032.04 341.698 1032.42 342.078C1032.81 342.453 1033 342.94 1033 343.539C1033 344.049 1032.86 344.505 1032.58 344.906C1032.3 345.302 1031.9 345.612 1031.38 345.836C1030.86 346.06 1030.24 346.172 1029.52 346.172C1028.85 346.172 1028.27 346.076 1027.78 345.883C1027.29 345.685 1026.9 345.401 1026.61 345.031C1026.32 344.656 1026.14 344.208 1026.07 343.688H1027.78C1027.86 344.062 1028.04 344.346 1028.33 344.539C1028.62 344.732 1029.01 344.828 1029.51 344.828C1029.86 344.828 1030.17 344.784 1030.44 344.695C1030.71 344.602 1030.92 344.466 1031.06 344.289C1031.21 344.112 1031.29 343.906 1031.29 343.672C1031.29 343.396 1031.18 343.167 1030.97 342.984C1030.76 342.802 1030.43 342.664 1029.98 342.57L1028.66 342.273C1027.89 342.102 1027.31 341.818 1026.91 341.422C1026.52 341.026 1026.32 340.536 1026.33 339.953C1026.33 339.453 1026.46 339.01 1026.73 338.625C1027.01 338.24 1027.4 337.94 1027.89 337.727C1028.39 337.513 1028.96 337.406 1029.62 337.406C1030.23 337.406 1030.77 337.508 1031.24 337.711C1031.71 337.909 1032.08 338.19 1032.35 338.555C1032.62 338.919 1032.78 339.344 1032.83 339.828H1031.23Z" fill="#0F1F45"/>
<path d="M905.5 349.75C907.571 349.75 909.25 351.429 909.25 353.5C909.25 355.571 907.571 357.25 905.5 357.25C903.429 357.25 901.75 355.571 901.75 353.5C901.75 351.429 903.429 349.75 905.5 349.75Z" stroke="#0F1F45" stroke-width="1.5"/>
<circle cx="923.5" cy="353.5" r="3.75" stroke="#0F1F45" stroke-width="1.5"/>
<mask id="path-75-inside-4_5863_26479" fill="white">
<rect x="897" y="329" width="35" height="25" rx="1"/>
</mask>
<rect x="897" y="329" width="35" height="25" rx="1" fill="white" stroke="#0F1F45" stroke-width="3" mask="url(#path-75-inside-4_5863_26479)"/>
<path d="M906.5 335L904 339.5H909L906.5 344" stroke="#E60040" stroke-width="1.5" stroke-linecap="round" stroke-linejoin="round"/>
<path d="M897 349H932" stroke="#0F1F45" stroke-width="1.5"/>
<path d="M917 336H925" stroke="#0F1F45" stroke-width="1.5" stroke-linecap="round"/>
<path d="M900 323H910" stroke="#0F1F45" stroke-width="1.5" stroke-linecap="round"/>
<path d="M902 323.5L902 329" stroke="#0F1F45" stroke-width="1.5" stroke-linecap="round"/>
<path d="M908 323.5L908 329" stroke="#0F1F45" stroke-width="1.5" stroke-linecap="round"/>
<path d="M917 342H925" stroke="#0F1F45" stroke-width="1.5" stroke-linecap="round"/>
<path d="M895.414 333.75H897.75V349.25H893C892.862 349.25 892.75 349.138 892.75 349V336.414C892.75 336.348 892.776 336.284 892.823 336.237L895.237 333.823C895.284 333.776 895.348 333.75 895.414 333.75Z" stroke="#0F1F45" stroke-width="1.5"/>
<rect x="938" y="150" width="282" height="80" rx="4" fill="white"/>
<rect x="938.5" y="150.5" width="281" height="79" rx="3.5" stroke="#0F1F45" stroke-opacity="0.3"/>
<path d="M978.959 170.934C979.111 170.908 979.25 171.026 979.25 171.181V204C979.25 204.138 979.138 204.25 979 204.25H969C968.862 204.25 968.75 204.138 968.75 204V172.847C968.75 172.725 968.839 172.621 968.959 172.601L978.959 170.934Z" fill="white" stroke="#E60040" stroke-width="1.5"/>
<path d="M983 181.75H998C998.138 181.75 998.25 181.862 998.25 182V209C998.25 209.138 998.138 209.25 998 209.25H983C982.862 209.25 982.75 209.138 982.75 209V182C982.75 181.862 982.862 181.75 983 181.75Z" fill="white" stroke="#0F1F45" stroke-width="1.5"/>
<path d="M988 199.75H993C993.138 199.75 993.25 199.862 993.25 200V209C993.25 209.138 993.138 209.25 993 209.25H988C987.862 209.25 987.75 209.138 987.75 209V200C987.75 199.862 987.862 199.75 988 199.75Z" fill="white" stroke="#0F1F45" stroke-width="1.5"/>
<path d="M966 176.75H982C982.138 176.75 982.25 176.862 982.25 177V209C982.25 209.138 982.138 209.25 982 209.25H966C965.862 209.25 965.75 209.138 965.75 209V177C965.75 176.862 965.862 176.75 966 176.75Z" fill="white" stroke="#0F1F45" stroke-width="1.5"/>
<path d="M970 202H978" stroke="#0F1F45" stroke-width="1.5" stroke-linecap="round"/>
<path d="M970 196H978" stroke="#0F1F45" stroke-width="1.5" stroke-linecap="round"/>
<path d="M970 190H978" stroke="#0F1F45" stroke-width="1.5" stroke-linecap="round"/>
<path d="M970 184H978" stroke="#0F1F45" stroke-width="1.5" stroke-linecap="round"/>
<path d="M992 188H998" stroke="#0F1F45" stroke-width="1.5" stroke-linecap="round"/>
<path d="M992 194H998" stroke="#0F1F45" stroke-width="1.5" stroke-linecap="round"/>
<path d="M963 209.25H1001" stroke="#0F1F45" stroke-width="1.5" stroke-linecap="round"/>
<path d="M1023.16 184.688H1024.88V194.523H1029.99V196H1023.16V184.688ZM1035.2 196.172C1034.41 196.172 1033.71 195.99 1033.11 195.625C1032.51 195.26 1032.05 194.747 1031.72 194.086C1031.39 193.424 1031.23 192.661 1031.23 191.797C1031.23 190.922 1031.39 190.154 1031.72 189.492C1032.05 188.831 1032.51 188.318 1033.11 187.953C1033.71 187.589 1034.41 187.406 1035.2 187.406C1035.99 187.406 1036.68 187.589 1037.28 187.953C1037.88 188.318 1038.34 188.831 1038.66 189.492C1038.99 190.154 1039.15 190.922 1039.15 191.797C1039.15 192.661 1038.99 193.424 1038.66 194.086C1038.34 194.747 1037.88 195.26 1037.28 195.625C1036.68 195.99 1035.99 196.172 1035.2 196.172ZM1035.2 194.781C1035.7 194.781 1036.12 194.648 1036.46 194.383C1036.8 194.112 1037.05 193.753 1037.22 193.305C1037.39 192.852 1037.47 192.346 1037.47 191.789C1037.47 191.232 1037.39 190.727 1037.22 190.273C1037.05 189.82 1036.8 189.461 1036.46 189.195C1036.12 188.924 1035.7 188.789 1035.2 188.789C1034.7 188.789 1034.28 188.924 1033.94 189.195C1033.59 189.461 1033.34 189.82 1033.16 190.273C1032.99 190.727 1032.91 191.232 1032.91 191.789C1032.91 192.346 1032.99 192.852 1033.16 193.305C1033.34 193.753 1033.59 194.112 1033.94 194.383C1034.28 194.648 1034.7 194.781 1035.2 194.781ZM1045.94 192.156C1045.8 192.156 1045.38 192.182 1044.66 192.234L1043.82 192.297C1043.26 192.339 1042.82 192.469 1042.51 192.688C1042.2 192.906 1042.05 193.219 1042.05 193.625C1042.05 193.891 1042.11 194.115 1042.25 194.297C1042.39 194.474 1042.58 194.612 1042.82 194.711C1043.07 194.805 1043.34 194.852 1043.66 194.852C1044.1 194.852 1044.48 194.766 1044.8 194.594C1045.13 194.417 1045.39 194.182 1045.56 193.891C1045.74 193.594 1045.83 193.276 1045.83 192.938L1045.82 190.266C1045.82 189.943 1045.76 189.669 1045.62 189.445C1045.5 189.216 1045.31 189.044 1045.05 188.93C1044.79 188.81 1044.47 188.75 1044.09 188.75C1043.62 188.75 1043.23 188.849 1042.93 189.047C1042.63 189.24 1042.44 189.5 1042.35 189.828H1040.68C1040.74 189.354 1040.91 188.935 1041.21 188.57C1041.51 188.206 1041.91 187.922 1042.41 187.719C1042.92 187.51 1043.5 187.406 1044.15 187.406C1044.7 187.406 1045.21 187.49 1045.7 187.656C1046.2 187.818 1046.62 188.12 1046.96 188.562C1047.3 189 1047.48 189.602 1047.48 190.367V196H1045.86V194.836H1045.8C1045.68 195.07 1045.52 195.289 1045.3 195.492C1045.08 195.695 1044.8 195.862 1044.45 195.992C1044.11 196.122 1043.72 196.188 1043.28 196.188C1042.73 196.188 1042.24 196.086 1041.81 195.883C1041.38 195.68 1041.04 195.383 1040.79 194.992C1040.54 194.602 1040.41 194.141 1040.41 193.609C1040.41 192.724 1040.71 192.094 1041.3 191.719C1041.9 191.344 1042.66 191.128 1043.59 191.07C1043.71 191.055 1044.21 191.023 1045.07 190.977L1045.92 190.945L1045.94 192.156ZM1052.68 196.156C1052 196.156 1051.39 195.982 1050.84 195.633C1050.31 195.279 1049.89 194.771 1049.58 194.109C1049.28 193.443 1049.12 192.664 1049.12 191.773C1049.12 190.872 1049.28 190.094 1049.59 189.438C1049.89 188.776 1050.32 188.273 1050.85 187.93C1051.39 187.581 1052.01 187.406 1052.7 187.406C1053.17 187.406 1053.58 187.484 1053.91 187.641C1054.23 187.797 1054.48 187.974 1054.65 188.172C1054.82 188.37 1054.98 188.607 1055.13 188.883H1055.22V184.688H1056.89V196H1055.26V194.688H1055.13C1054.97 194.958 1054.8 195.193 1054.63 195.391C1054.47 195.583 1054.22 195.76 1053.89 195.922C1053.56 196.078 1053.16 196.156 1052.68 196.156ZM1053.05 194.742C1053.52 194.742 1053.92 194.617 1054.25 194.367C1054.58 194.117 1054.84 193.768 1055.01 193.32C1055.18 192.867 1055.27 192.344 1055.27 191.75C1055.27 191.156 1055.18 190.641 1055.02 190.203C1054.85 189.766 1054.6 189.427 1054.26 189.188C1053.92 188.948 1053.52 188.828 1053.05 188.828C1052.57 188.828 1052.17 188.953 1051.84 189.203C1051.5 189.448 1051.25 189.792 1051.08 190.234C1050.91 190.677 1050.82 191.182 1050.82 191.75C1050.82 192.328 1050.91 192.844 1051.08 193.297C1051.25 193.745 1051.5 194.099 1051.84 194.359C1052.17 194.615 1052.57 194.742 1053.05 194.742Z" fill="#0F1F45"/>
</svg>
