<svg width="110" height="110" viewBox="0 0 110 110" fill="none" xmlns="http://www.w3.org/2000/svg">
<g opacity="0.7">
<path d="M54.3068 100H109V22L89 2L33 2V37.4828" stroke="white" stroke-width="2" stroke-linecap="round"/>
<path d="M89 2C89 9.48505 89 14.515 89 22H109" stroke="white" stroke-width="2"/>
<path d="M50 22H72" stroke="white" stroke-width="2"/>
<path d="M80.6562 85.2031H94.2406" stroke="white" stroke-width="2"/>
<path d="M50 40H92" stroke="white" stroke-width="2"/>
<path d="M50 58H92" stroke="white" stroke-width="2"/>
</g>
<path d="M0 74.3122V55.7746C0 54.9999 0.592657 54.354 1.36444 54.2876L4.19186 54.0442C12.3468 53.3421 19.8786 49.3957 25.0975 43.0903C25.573 42.5158 26.4569 42.5079 26.9557 43.0623C32.6177 49.3557 40.5338 53.3698 48.9651 54.131L50.6242 54.2808C51.4033 54.3512 52 55.0042 52 55.7865V74.3122V86.4493C52 91.8346 49.1131 96.8066 44.4361 99.4763L26.9915 109.434C26.377 109.785 25.623 109.785 25.0085 109.434L7.56391 99.4763C2.88691 96.8066 0 91.8346 0 86.4493V74.3122Z" fill="#E60040"/>
<path opacity="0.2" d="M0 73.6211C5.49282 89.635 19.7644 101.568 37.0713 103.679L26.9912 109.434C26.3769 109.784 25.6231 109.784 25.0088 109.434L7.56348 99.4756C2.88687 96.8059 0.000145864 91.8342 0 86.4492V73.6211Z" fill="black"/>
<path d="M15.0742 76L22.1456 84L37.0742 68" stroke="white" stroke-width="2" stroke-linecap="round"/>
</svg>
