<svg width="110" height="110" viewBox="0 0 110 110" fill="none" xmlns="http://www.w3.org/2000/svg">
<g opacity="0.7">
<path d="M1.6034 79.7098C0.607705 78.3381 0.871687 76.3882 2.19302 75.3545L9.3705 69.7397C10.6918 68.706 12.5702 68.9801 13.5659 70.3518L33.3975 97.6725C34.3932 99.0442 34.1292 100.994 32.8079 102.028L25.6304 107.643C24.309 108.676 22.4307 108.402 21.435 107.031L1.6034 79.7098Z" stroke="white" stroke-width="2"/>
<path d="M64 68.1517L86.2216 51.5898C88.8688 49.6168 92.6057 50.1578 94.5899 52.8013C95.2184 53.6387 95.5961 54.5869 95.7362 55.5557C95.8241 55.7715 95.9 56.4031 95.5 57.2031" stroke="white" stroke-width="2" stroke-linecap="round"/>
<path d="M71.2012 75.1372L99.423 54.6054C102.07 52.6324 105.807 53.1734 107.791 55.8169C109.796 58.4874 109.25 62.2858 106.576 64.2789L68.4953 92.6604C67.4449 93.4433 66.2188 93.825 64.9979 93.8354L41.2084 91.7031C39.7004 91.7031 38.3236 92.1337 37.5323 92.6604C37.0511 92.9808 34.2037 94.9211 32.6719 95.9444" stroke="white" stroke-width="2"/>
<path d="M31.2394 63.0939L31.358 62.0993L31.3743 62.1012L31.3905 62.1037L31.2394 63.0939ZM71.5085 75.1401L72.4993 75.2626L72.4993 75.2626L71.5085 75.1401ZM66.2571 68.4098L66.1384 69.4044L66.1221 69.4024L66.106 69.4L66.2571 68.4098ZM64.8527 80.3746L64.7341 81.3692L64.7179 81.3673L64.7018 81.3648L64.8527 80.3746ZM27.6237 63.8237L27.0217 63.0257L27.0757 62.9847L27.1346 62.9514L27.6237 63.8237ZM46.1844 78.5578C45.6392 78.4752 45.2648 77.9648 45.3482 77.4179C45.4315 76.871 45.941 76.4947 46.4861 76.5773L46.3352 77.5676L46.1844 78.5578ZM16.1414 73.8015C15.7015 74.1357 15.0753 74.0494 14.7428 73.6087C14.4103 73.168 14.4975 72.5398 14.9374 72.2056L15.5394 73.0036L16.1414 73.8015ZM66.2571 68.4098L66.106 69.4L31.0883 64.0841L31.2394 63.0939L31.3905 62.1037L66.4082 67.4196L66.2571 68.4098ZM71.5085 75.1401L70.5177 75.0175C70.8626 72.2501 68.8959 69.7306 66.1384 69.4044L66.2571 68.4098L66.3757 67.4152C70.2335 67.8716 72.9814 71.3942 72.4993 75.2626L71.5085 75.1401ZM71.5085 75.1401L72.4993 75.2626C72.0219 79.0933 68.5544 81.8211 64.7341 81.3692L64.8527 80.3746L64.9714 79.38C67.6996 79.7028 70.1764 77.7555 70.5177 75.0175L71.5085 75.1401ZM31.2394 63.0939L31.1207 64.0885C30.0404 63.9607 28.9998 64.1945 28.1129 64.6959L27.6237 63.8237L27.1346 62.9514C28.3754 62.25 29.8399 61.9197 31.358 62.0993L31.2394 63.0939ZM46.3352 77.5676L46.4861 76.5773L65.0036 79.3844L64.8527 80.3746L64.7018 81.3648L46.1844 78.5578L46.3352 77.5676ZM27.6237 63.8237L28.2257 64.6216L16.1414 73.8015L15.5394 73.0036L14.9374 72.2056L27.0217 63.0257L27.6237 63.8237Z" fill="white"/>
</g>
<circle cx="55" cy="28" r="28" fill="#E60040"/>
<path opacity="0.2" d="M38.4316 5.42578C35.0176 10.0665 33 15.7979 33 22.001C33 37.465 45.536 50.001 61 50.001C67.1999 50.0009 72.928 47.9842 77.5674 44.5732C72.4704 51.5017 64.261 55.9989 55 55.999C39.536 55.999 27 43.463 27 27.999C27 18.735 31.4993 10.5225 38.4316 5.42578Z" fill="black"/>
<path d="M44 31.1111L55 14V24.8889H66L55 42V31.1111H44Z" stroke="white" stroke-width="2" stroke-linejoin="round"/>
</svg>
