<svg width="150" height="16" viewBox="0 0 150 16" fill="none" xmlns="http://www.w3.org/2000/svg">
<rect width="150" height="16" fill="#1E1E1E"/>
<g id="0615">
<path d="M-18129.2 -8156.25C-18129.2 -8157.35 -18128.4 -8158.25 -18127.2 -8158.25H34868.8C34869.9 -8158.25 34870.8 -8157.35 34870.8 -8156.25V5360.75C34870.8 5361.85 34869.9 5362.75 34868.8 5362.75H-18127.3C-18128.4 5362.75 -18129.2 5361.85 -18129.2 5360.75V-8156.25Z" fill="#444444"/>
<path d="M-18127.2 -8158.25V-8157.25H34868.8V-8158.25V-8159.25H-18127.2V-8158.25ZM34870.8 -8156.25H34869.8V5360.75H34870.8H34871.8V-8156.25H34870.8ZM34868.8 5362.75V5361.75H-18127.3V5362.75V5363.75H34868.8V5362.75ZM-18129.2 5360.75H-18128.2V-8156.25H-18129.2H-18130.2V5360.75H-18129.2ZM-18127.3 5362.75V5361.75C-18127.8 5361.75 -18128.2 5361.3 -18128.2 5360.75H-18129.2H-18130.2C-18130.2 5362.41 -18128.9 5363.75 -18127.3 5363.75V5362.75ZM34870.8 5360.75H34869.8C34869.8 5361.3 34869.3 5361.75 34868.8 5361.75V5362.75V5363.75C34870.4 5363.75 34871.8 5362.41 34871.8 5360.75H34870.8ZM34868.8 -8158.25V-8157.25C34869.3 -8157.25 34869.8 -8156.8 34869.8 -8156.25H34870.8H34871.8C34871.8 -8157.91 34870.4 -8159.25 34868.8 -8159.25V-8158.25ZM-18127.2 -8158.25V-8159.25C-18128.9 -8159.25 -18130.2 -8157.91 -18130.2 -8156.25H-18129.2H-18128.2C-18128.2 -8156.8 -18127.8 -8157.25 -18127.2 -8157.25V-8158.25Z" fill="white" fill-opacity="0.1"/>
<g id="LS ELECTRIC_01_PC_02_Sub_02_Markets_04_Power Grid_01_Power Generation, Transmission &#38; Distribution">
<rect width="1920" height="13261" transform="translate(-1069.25 -8058.25)" fill="white"/>
<g id="## 06 Smart Grid &#38; Energy Storage Solutions">
<g id="Group 1707485687">
<path id="Vector 647" d="M0.75 7.75001L148.75 7.75001" stroke="#0F1F45" stroke-width="1.5" stroke-linecap="round"/>
<path id="Vector 775" d="M141.75 0.75L148.75 7.75L141.75 14.75" stroke="#0F1F45" stroke-width="1.5" stroke-linecap="round" stroke-linejoin="round"/>
</g>
</g>
</g>
</g>
</svg>
