<svg width="40" height="40" viewBox="0 0 40 40" fill="none" xmlns="http://www.w3.org/2000/svg" aria-hidden="true">
  <path d="M3 5.25H37C37.1381 5.25 37.25 5.36193 37.25 5.5V38.5C37.25 38.6381 37.1381 38.75 37 38.75H3C2.86193 38.75 2.75 38.6381 2.75 38.5V5.5C2.75 5.36193 2.86193 5.25 3 5.25Z" stroke="#0F1F45" stroke-width="1.5"/>
  <path d="M2 10H38" stroke="#0F1F45" stroke-width="1.5"/>
  <path d="M2 34H38" stroke="#0F1F45" stroke-width="1.5"/>
  <path d="M20 16.5L17 22H23L20 27.5" stroke="#E60040" stroke-width="1.5" stroke-linecap="round" stroke-linejoin="round"/>
  <path d="M8 21.5H12" stroke="#0F1F45" stroke-width="1.5" stroke-linecap="round"/>
  <path d="M28 21.5H32" stroke="#0F1F45" stroke-width="1.5" stroke-linecap="round"/>
  <path d="M30 19.5V23.5" stroke="#0F1F45" stroke-width="1.5" stroke-linecap="round"/>
  <path d="M14.25 0.75V5.25H5.75V0.75H14.25Z" stroke="#0F1F45" stroke-width="1.5"/>
  <path d="M34.25 0.75V5.25H25.75V0.75H34.25Z" stroke="#0F1F45" stroke-width="1.5"/>
</svg>
