<svg width="40" height="40" viewBox="0 0 40 40" fill="none" xmlns="http://www.w3.org/2000/svg" aria-hidden="true">
  <path d="M13.5 29.75C15.5711 29.75 17.25 31.4289 17.25 33.5C17.25 35.5711 15.5711 37.25 13.5 37.25C11.4289 37.25 9.75 35.5711 9.75 33.5C9.75 31.4289 11.4289 29.75 13.5 29.75Z" stroke="#0F1F45" stroke-width="1.5"/>
  <circle cx="31.5" cy="33.5" r="3.75" stroke="#0F1F45" stroke-width="1.5"/>
  <rect x="5" y="9" width="35" height="25" rx="1" fill="white" stroke="#0F1F45" stroke-width="1.5"/>
  <path d="M14.5 15L12 19.5H17L14.5 24" stroke="#E60040" stroke-width="1.5" stroke-linecap="round" stroke-linejoin="round"/>
  <path d="M5 29H40" stroke="#0F1F45" stroke-width="1.5"/>
  <path d="M25 16H33M25 22H33" stroke="#0F1F45" stroke-width="1.5" stroke-linecap="round"/>
  <path d="M8 3H18M10 3.5V9M16 3.5V9" stroke="#0F1F45" stroke-width="1.5" stroke-linecap="round"/>
  <path d="M3.41406 13.75H5.75V29.25H1C0.861929 29.25 0.75 29.1381 0.75 29V16.4141C0.75004 16.3478 0.776393 16.2842 0.823242 16.2373L3.2373 13.8232C3.28415 13.7764 3.34781 13.75 3.41406 13.75Z" stroke="#0F1F45" stroke-width="1.5"/>
</svg>
