<svg width="40" height="40" viewBox="0 0 40 40" fill="none" xmlns="http://www.w3.org/2000/svg" aria-hidden="true">
  <path d="M1 21.75H39C39.1381 21.75 39.25 21.8619 39.25 22V39C39.25 39.1381 39.1381 39.25 39 39.25H1C0.861929 39.25 0.75 39.1381 0.75 39V22C0.75 21.8619 0.861928 21.75 1 21.75Z" fill="white" stroke="#0F1F45" stroke-width="1.5"/>
  <path d="M13 28.75H27C27.1381 28.75 27.25 28.8619 27.25 29V39C27.25 39.1381 27.1381 39.25 27 39.25H13C12.8619 39.25 12.75 39.1381 12.75 39V29C12.75 28.8619 12.8619 28.75 13 28.75Z" fill="white" stroke="#0F1F45" stroke-width="1.5"/>
  <path d="M20 28V40" stroke="#0F1F45" stroke-width="1.5"/>
  <path d="M6.91504 0.75H19.085C19.2143 0.750008 19.3224 0.848718 19.334 0.977539L21.1562 21.4775C21.1692 21.6238 21.054 21.75 20.9072 21.75H5.09277C4.94599 21.75 4.83075 21.6237 4.84375 21.4775L6.66602 0.977539C6.67763 0.848716 6.78566 0.750008 6.91504 0.75Z" fill="white" stroke="#0F1F45" stroke-width="1.5"/>
  <path d="M13 33.9941H1M27 33.9941H39" stroke="#0F1F45" stroke-width="1.5"/>
  <path d="M13 9L10.5 13.5H15.5L13 18" stroke="#E60040" stroke-width="1.5" stroke-linecap="round" stroke-linejoin="round"/>
  <path d="M25.9443 5.75H32.0557C32.188 5.75008 32.2969 5.85328 32.3047 5.98535L33.1904 21.4854C33.1986 21.6287 33.085 21.7499 32.9414 21.75H25.0586C24.915 21.7499 24.8014 21.6287 24.8096 21.4854L25.6953 5.98535C25.7031 5.85328 25.812 5.75008 25.9443 5.75Z" fill="white" stroke="#0F1F45" stroke-width="1.5"/>
  <path d="M7 5H20" stroke="#0F1F45" stroke-width="1.5"/>
  <path d="M25 9H33" stroke="#0F1F45" stroke-width="1.5"/>
</svg>
