<svg width="40" height="40" viewBox="0 0 40 40" fill="none" xmlns="http://www.w3.org/2000/svg" aria-hidden="true">
  <path d="M1 39H39" stroke="#0F1F45" stroke-width="1.5" stroke-linecap="round"/>
  <path d="M7 39V32M15 39V32" stroke="#0F1F45" stroke-width="1.5" stroke-linecap="round"/>
  <path d="M4 34L10 30M12 34L18 30" stroke="#0F1F45" stroke-width="1.5" stroke-linecap="round"/>
  <circle cx="26" cy="16" r="3.25" stroke="#0F1F45" stroke-width="1.5"/>
  <path d="M27 13V2.3195C27 1.59076 26.4092 1 25.6805 1C25.0393 1 24.491 1.46092 24.3807 2.09254L23 10L25 13" stroke="#0F1F45" stroke-width="1.5"/>
  <path d="M27.9983 18.4641L37.2479 23.8044C37.879 24.1687 38.686 23.9525 39.0504 23.3214C39.371 22.7661 39.246 22.0607 38.7541 21.6494L32.5964 16.5L28.9983 16.7321" stroke="#0F1F45" stroke-width="1.5"/>
  <path d="M23.3923 18.4641L14.1427 23.8044C13.5116 24.1687 12.7046 23.9525 12.3403 23.3214C12.0197 22.7661 12.1446 22.0607 12.6365 21.6494L18.7942 16.5L22.3923 16.7321" stroke="#0F1F45" stroke-width="1.5"/>
  <path d="M22 39L25 19.5M30 39L27 19.5" stroke="#0F1F45" stroke-width="1.5" stroke-linecap="round"/>
  <path d="M32.3262 7C34.897 8.81036 36.6573 11.6943 36.9552 15" stroke="#E60040" stroke-width="1.5" stroke-linecap="round"/>
  <path d="M15.0449 15C15.3541 11.5685 17.2392 8.59148 19.9709 6.79803" stroke="#E60040" stroke-width="1.5" stroke-linecap="round"/>
</svg>
