<svg width="110" height="110" viewBox="0 0 110 110" fill="none" xmlns="http://www.w3.org/2000/svg">
<path d="M109 1H1V77H22.9375H87.0625H109V1Z" fill="white"/>
<path d="M20 77H1V1H109V77H88.0625" stroke="#666666" stroke-width="2" stroke-linecap="round"/>
<path d="M42 15H68" stroke="#666666" stroke-width="2" stroke-linecap="round"/>
<path d="M20 27H90" stroke="#666666" stroke-width="2" stroke-linecap="round"/>
<path d="M20 39H90" stroke="#666666" stroke-width="2" stroke-linecap="round"/>
<path d="M34.8398 80.4754C35.116 79.9971 35.7276 79.8332 36.2059 80.1094L51.7943 89.1094C52.2726 89.3855 52.4365 89.9971 52.1604 90.4754L41.5812 108.799C41.1846 109.486 40.1843 109.46 39.8242 108.753L35.6202 100.502C35.4435 100.155 35.0817 99.9424 34.6927 99.9566L25.1599 100.304C24.3743 100.333 23.8644 99.4854 24.2575 98.8046L34.8398 80.4754Z" fill="#E60040"/>
<path d="M57.8398 90.4754C57.5637 89.9971 57.7276 89.3855 58.2059 89.1094L73.7943 80.1094C74.2726 79.8332 74.8842 79.9971 75.1604 80.4754L85.7395 98.799C86.1361 99.4859 85.6133 100.339 84.8211 100.298L75.5735 99.8129C75.1848 99.7925 74.8197 99.9995 74.6375 100.343L70.1719 108.773C69.8039 109.467 68.8153 109.485 68.4222 108.805L57.8398 90.4754Z" fill="#E60040"/>
<circle cx="54" cy="69" r="27" fill="#E60040"/>
<path opacity="0.2" d="M38.1416 47.1484C34.9081 51.5998 33 57.0763 33 62.999C33 77.9107 45.0883 89.999 60 89.999C65.9261 89.999 71.4047 88.0875 75.8574 84.8506C70.9499 91.6066 62.9891 96.001 54 96.001C39.0883 96.001 27 83.9127 27 69.001C27 60.0155 31.3902 52.0564 38.1416 47.1484Z" fill="black"/>
<path d="M54 79C59.5228 79 64 74.5228 64 69C64 63.4772 59.5228 59 54 59C48.4772 59 44 63.4772 44 69C44 74.5228 48.4772 79 54 79Z" stroke="white" stroke-width="2" stroke-miterlimit="10" stroke-linecap="round" stroke-linejoin="round"/>
</svg>
