<svg width="110" height="110" viewBox="0 0 110 110" fill="none" xmlns="http://www.w3.org/2000/svg">
<ellipse cx="38" cy="81.5" rx="38" ry="13.5" fill="white"/>
<ellipse cx="38" cy="15.5" rx="38" ry="13.5" fill="white"/>
<rect x="2" y="16" width="73" height="65" fill="white"/>
<path d="M38 3C48.4103 3 57.7917 4.50081 64.5352 6.89648C67.9113 8.0959 70.5731 9.50057 72.3711 11.0107C74.174 12.5251 75 14.0468 75 15.5C75 16.9532 74.174 18.4749 72.3711 19.9893C70.5731 21.4994 67.9113 22.9041 64.5352 24.1035C57.7917 26.4992 48.4103 28 38 28C27.5897 28 18.2083 26.4992 11.4648 24.1035C8.0887 22.9041 5.42687 21.4994 3.62891 19.9893C1.82601 18.4749 1 16.9532 1 15.5C1 14.0468 1.82601 12.5251 3.62891 11.0107C5.42687 9.50057 8.0887 8.0959 11.4648 6.89648C18.2083 4.50081 27.5897 3 38 3Z" stroke="#666666" stroke-width="2"/>
<path d="M1 83V16" stroke="#666666" stroke-width="2"/>
<path d="M75 49V16" stroke="#666666" stroke-width="2" stroke-linecap="round"/>
<path d="M75 60C75 67.1797 58.4345 73 38 73C17.5655 73 1 67.1797 1 60" stroke="#666666" stroke-width="2"/>
<path d="M75 38C75 45.1797 58.4345 51 38 51C17.5655 51 1 45.1797 1 38" stroke="#666666" stroke-width="2"/>
<path d="M1 82C1 89.1797 17.5655 95 38 95C41.8305 95 45.525 94.7955 49 94.4158" stroke="#666666" stroke-width="2" stroke-linecap="round"/>
<circle cx="10.5" cy="34.5" r="1.5" stroke="#666666" stroke-width="2"/>
<circle cx="10.5" cy="57.5" r="1.5" stroke="#666666" stroke-width="2"/>
<circle cx="10.5" cy="79.5" r="1.5" stroke="#666666" stroke-width="2"/>
<circle cx="83" cy="83" r="27" fill="#E60040"/>
<path opacity="0.2" d="M67.1445 61.1406C63.909 65.5928 62 71.0713 62 76.9961C62 91.9078 74.0883 103.996 89 103.996C94.9247 103.996 100.402 102.086 104.854 98.8506C99.9467 105.604 91.987 109.996 83 109.996C68.0883 109.996 56 97.9078 56 82.9961C56 74.0092 60.3912 66.0484 67.1445 61.1406Z" fill="black"/>
<path d="M77 83L83 89C83 89 87.0474 84.9526 89 83" stroke="white" stroke-width="2" stroke-linecap="round" stroke-linejoin="round"/>
<path d="M83 72L83 88.5" stroke="white" stroke-width="2" stroke-linecap="round"/>
<path d="M94 94H72" stroke="white" stroke-width="2" stroke-linecap="round"/>
</svg>
