<svg width="110" height="110" viewBox="0 0 110 110" fill="none" xmlns="http://www.w3.org/2000/svg">
<path d="M22 104C49.9966 104 60.0034 104 88 104" stroke="#666666" stroke-width="2" stroke-linecap="round"/>
<path d="M109 90V25H87.7402H21.4165H1V90H109Z" fill="white"/>
<path d="M20 25H1V90H109V25H90" stroke="#666666" stroke-width="2" stroke-linecap="round"/>
<path d="M1 38H13" stroke="#666666" stroke-width="2" stroke-linecap="round"/>
<path d="M97 38H109" stroke="#666666" stroke-width="2" stroke-linecap="round"/>
<path d="M1 51H13" stroke="#666666" stroke-width="2" stroke-linecap="round"/>
<path d="M97 51H109" stroke="#666666" stroke-width="2" stroke-linecap="round"/>
<path d="M1 64H13" stroke="#666666" stroke-width="2" stroke-linecap="round"/>
<path d="M97 64H109" stroke="#666666" stroke-width="2" stroke-linecap="round"/>
<path d="M1 77H13" stroke="#666666" stroke-width="2" stroke-linecap="round"/>
<path d="M97 77H109" stroke="#666666" stroke-width="2" stroke-linecap="round"/>
<path d="M13 25V90" stroke="#666666" stroke-width="2" stroke-linecap="round"/>
<path d="M97 25V90" stroke="#666666" stroke-width="2" stroke-linecap="round"/>
<circle cx="55" cy="28" r="28" fill="#E60040"/>
<path opacity="0.2" d="M38.4316 5.42676C35.0176 10.0674 33 15.7989 33 22.002C33 37.4659 45.536 50.002 61 50.002C67.1999 50.002 72.9279 47.9852 77.5674 44.5742C72.4703 51.5027 64.261 56 55 56C39.536 56 27 43.464 27 28C27 18.736 31.4994 10.5235 38.4316 5.42676Z" fill="black"/>
<path d="M49 37.099V18.901C49 18.0959 49.903 17.6208 50.5665 18.077L63.8014 27.176C64.3794 27.5733 64.3794 28.4267 63.8014 28.824L50.5665 37.923C49.903 38.3792 49 37.9041 49 37.099Z" stroke="white" stroke-width="2"/>
<circle cx="38" cy="104" r="5" fill="white" stroke="#666666" stroke-width="2"/>
</svg>
