<svg width="60" height="60" viewBox="0 0 60 60" fill="none" xmlns="http://www.w3.org/2000/svg">
<path d="M7 28.5108V12.7802C7 12.0492 7.54514 11.433 8.27067 11.3439L11.1487 10.9903C18.127 10.1329 24.5446 6.73389 29.1747 1.44304C29.6178 0.936768 30.4 0.920532 30.8637 1.40799L30.9576 1.5067C35.9739 6.78026 42.6525 10.1666 49.8711 11.0968L51.7119 11.334C52.4485 11.4289 53 12.0561 53 12.7988V28.5108V37.1843C53 42.5755 50.1068 47.552 45.4217 50.2195L30.9896 58.4366C30.3761 58.7859 29.6239 58.7859 29.0104 58.4366L14.5783 50.2195C9.8932 47.552 7 42.5755 7 37.1843V28.5108Z" stroke="#666666" stroke-width="2" stroke-linecap="round" stroke-linejoin="round"/>
<circle cx="30" cy="31" r="14" fill="#E8E8E8"/>
<path d="M25 31L28.5357 35L36 27" stroke="#666666" stroke-width="2" stroke-linecap="round" stroke-linejoin="round"/>
</svg>
