<svg width="60" height="60" viewBox="0 0 60 60" fill="none" xmlns="http://www.w3.org/2000/svg">
<mask id="path-1-inside-1_3082_52523" fill="white">
<path d="M35.7421 0C36.8467 0 37.7421 0.895431 37.7421 2V6.22363C41.1239 7.32408 44.1895 9.12457 46.7666 11.4561L50.5058 9.3125C51.4604 8.76499 52.6779 9.09136 53.2304 10.043L58.9746 19.9404C59.5305 20.8986 59.2017 22.1268 58.2412 22.6787L54.4668 24.8457C54.8154 26.5091 55 28.233 55 30C55 31.7632 54.8159 33.4835 54.4687 35.1436L58.2588 37.3213C59.2195 37.8732 59.5482 39.1013 58.9921 40.0596L53.249 49.957C52.6965 50.9088 51.478 51.235 50.5234 50.6875L46.7734 48.5361C44.1996 50.8667 41.1384 52.6674 37.7607 53.7695V58C37.7607 59.1044 36.8651 59.9998 35.7607 60H24.2588C23.1543 59.9999 22.2588 59.1045 22.2588 58V53.7764C18.8762 52.6758 15.8099 50.8751 13.2324 48.543L9.49508 50.6875C8.54049 51.2349 7.32294 50.9087 6.77047 49.957L1.02731 40.0596C0.471156 39.1013 0.799963 37.8732 1.7607 37.3213L5.53317 35.1543C5.18451 33.4909 4.99996 31.767 4.99996 30C4.99996 28.2362 5.18281 26.5151 5.53024 24.8545L1.74215 22.6787C0.781499 22.1268 0.452772 20.8987 1.00875 19.9404L6.75289 10.043C7.30546 9.09143 8.52295 8.76501 9.4775 9.3125L13.2255 11.4619C15.7999 9.13105 18.8627 7.33048 22.2412 6.22852V2C22.2412 0.895431 23.1366 0 24.2412 0H35.7421Z"/>
</mask>
<path d="M37.7421 6.22363H35.7421V7.67605L37.1233 8.12547L37.7421 6.22363ZM46.7666 11.4561L45.4248 12.9392L46.5015 13.9133L47.7612 13.1912L46.7666 11.4561ZM50.5058 9.3125L51.5005 11.0476L51.5009 11.0474L50.5058 9.3125ZM53.2304 10.043L54.9602 9.03906L54.96 9.0387L53.2304 10.043ZM58.9746 19.9404L60.7045 18.9368L60.7044 18.9365L58.9746 19.9404ZM58.2412 22.6787L59.237 24.4132L59.2376 24.4128L58.2412 22.6787ZM54.4668 24.8457L53.471 23.1112L52.2113 23.8344L52.5093 25.256L54.4668 24.8457ZM54.4687 35.1436L52.5111 34.7341L52.214 36.1546L53.4723 36.8777L54.4687 35.1436ZM58.2588 37.3213L57.2623 39.0554L57.2625 39.0555L58.2588 37.3213ZM58.9921 40.0596L57.2623 39.0558L57.2623 39.0558L58.9921 40.0596ZM53.249 49.957L54.9787 50.9611L54.9788 50.9608L53.249 49.957ZM50.5234 50.6875L49.5282 52.4223L49.5283 52.4224L50.5234 50.6875ZM46.7734 48.5361L47.7686 46.8013L46.5082 46.0782L45.431 47.0536L46.7734 48.5361ZM37.7607 53.7695L37.1403 51.8682L35.7607 52.3183V53.7695H37.7607ZM37.7607 58H39.7607V58H37.7607ZM35.7607 60V62H35.7611L35.7607 60ZM24.2588 60L24.2586 62H24.2588V60ZM22.2588 58H20.2588V58H22.2588ZM22.2588 53.7764H24.2588V52.3239L22.8776 51.8745L22.2588 53.7764ZM13.2324 48.543L14.5743 47.0599L13.497 46.0852L12.237 46.8083L13.2324 48.543ZM9.49508 50.6875L10.4899 52.4225L10.4905 52.4222L9.49508 50.6875ZM6.77047 49.957L5.04061 50.9608L5.04082 50.9612L6.77047 49.957ZM1.02731 40.0596L2.75717 39.0558L2.75711 39.0557L1.02731 40.0596ZM1.7607 37.3213L0.764513 35.587L0.764423 35.5871L1.7607 37.3213ZM5.53317 35.1543L6.52936 36.8885L7.78853 36.1652L7.49063 34.744L5.53317 35.1543ZM5.53024 24.8545L7.48785 25.2641L7.78512 23.8432L6.52636 23.1202L5.53024 24.8545ZM1.74215 22.6787L0.745841 24.4129L0.746023 24.413L1.74215 22.6787ZM1.00875 19.9404L-0.721037 18.9365L-0.721168 18.9367L1.00875 19.9404ZM6.75289 10.043L5.02336 9.03862L5.0231 9.03906L6.75289 10.043ZM9.4775 9.3125L8.48244 11.0474L8.48255 11.0475L9.4775 9.3125ZM13.2255 11.4619L12.2306 13.1969L13.4909 13.9196L14.5679 12.9445L13.2255 11.4619ZM22.2412 6.22852L22.8614 8.12992L24.2412 7.67986V6.22852H22.2412ZM22.2412 2L20.2412 2V2H22.2412ZM35.7421 0V2H37.7421H39.7421C39.7421 -0.209139 37.9513 -2 35.7421 -2V0ZM37.7421 2H35.7421V6.22363H37.7421H39.7421V2H37.7421ZM37.7421 6.22363L37.1233 8.12547C40.2325 9.13723 43.0528 10.7932 45.4248 12.9392L46.7666 11.4561L48.1084 9.97295C45.3263 7.45597 42.0154 5.51093 38.361 4.32179L37.7421 6.22363ZM46.7666 11.4561L47.7612 13.1912L51.5005 11.0476L50.5058 9.3125L49.5112 7.57738L45.7719 9.72094L46.7666 11.4561ZM50.5058 9.3125L51.5009 11.0474L51.5009 11.0472L53.2304 10.043L54.96 9.0387C53.8548 7.13526 51.4197 6.48272 49.5108 7.57761L50.5058 9.3125ZM53.2304 10.043L51.5006 11.0469L57.2448 20.9443L58.9746 19.9404L60.7044 18.9365L54.9602 9.03906L53.2304 10.043ZM58.9746 19.9404L57.2446 20.944L57.2447 20.9446L58.2412 22.6787L59.2376 24.4128C61.1591 23.3087 61.8161 20.8528 60.7045 18.9368L58.9746 19.9404ZM58.2412 22.6787L57.2454 20.9442L53.471 23.1112L54.4668 24.8457L55.4626 26.5802L59.237 24.4132L58.2412 22.6787ZM54.4668 24.8457L52.5093 25.256C52.83 26.7862 53 28.3727 53 30H55H57C57 28.0934 56.8008 26.232 56.4242 24.4354L54.4668 24.8457ZM55 30H53C53 31.6236 52.8305 33.2067 52.5111 34.7341L54.4687 35.1436L56.4264 35.553C56.8013 33.7602 57 31.9028 57 30H55ZM54.4687 35.1436L53.4723 36.8777L57.2623 39.0554L58.2588 37.3213L59.2552 35.5872L55.4651 33.4094L54.4687 35.1436ZM58.2588 37.3213L57.2625 39.0555L57.2623 39.0558L58.9921 40.0596L60.722 41.0634C61.834 39.1472 61.1768 36.6912 59.255 35.5871L58.2588 37.3213ZM58.9921 40.0596L57.2623 39.0558L51.5191 48.9533L53.249 49.957L54.9788 50.9608L60.722 41.0634L58.9921 40.0596ZM53.249 49.957L51.5193 48.953L51.5185 48.9526L50.5234 50.6875L49.5283 52.4224C51.4367 53.517 53.8732 52.8655 54.9787 50.9611L53.249 49.957ZM50.5234 50.6875L51.5186 48.9527L47.7686 46.8013L46.7734 48.5361L45.7782 50.2709L49.5282 52.4223L50.5234 50.6875ZM46.7734 48.5361L45.431 47.0536C43.0618 49.1988 40.2456 50.855 37.1403 51.8682L37.7607 53.7695L38.3811 55.6709C42.0312 54.4799 45.3373 52.5345 48.1158 50.0187L46.7734 48.5361ZM37.7607 53.7695H35.7607V58H37.7607H39.7607V53.7695H37.7607ZM37.7607 58H35.7607H35.7603L35.7607 60L35.7611 62C37.9694 61.9996 39.7607 60.2094 39.7607 58H37.7607ZM35.7607 60V58H24.2588V60V62H35.7607V60ZM24.2588 60L24.2589 58H24.2588H22.2588H20.2588C20.2588 60.2093 22.0499 61.9998 24.2586 62L24.2588 60ZM22.2588 58H24.2588V53.7764H22.2588H20.2588V58H22.2588ZM22.2588 53.7764L22.8776 51.8745C19.7675 50.8626 16.9466 49.2065 14.5743 47.0599L13.2324 48.543L11.8905 50.026C14.6731 52.5437 17.9848 54.489 21.64 55.6782L22.2588 53.7764ZM13.2324 48.543L12.237 46.8083L8.49968 48.9528L9.49508 50.6875L10.4905 52.4222L14.2278 50.2777L13.2324 48.543ZM9.49508 50.6875L8.50021 48.9525L8.50012 48.9529L6.77047 49.957L5.04082 50.9612C6.14613 52.8651 8.58141 53.5169 10.4899 52.4225L9.49508 50.6875ZM6.77047 49.957L8.50033 48.9533L2.75717 39.0558L1.02731 40.0596L-0.702556 41.0634L5.04061 50.9608L6.77047 49.957ZM1.02731 40.0596L2.75711 39.0557L2.75699 39.0555L1.7607 37.3213L0.764423 35.5871C-1.15734 36.6911 -1.81464 39.1471 -0.702497 41.0635L1.02731 40.0596ZM1.7607 37.3213L2.7569 39.0555L6.52936 36.8885L5.53317 35.1543L4.53697 33.4201L0.764513 35.587L1.7607 37.3213ZM5.53317 35.1543L7.49063 34.744C7.16989 33.2138 6.99996 31.6273 6.99996 30H4.99996H2.99996C2.99996 31.9066 3.19913 33.768 3.5757 35.5646L5.53317 35.1543ZM4.99996 30H6.99996C6.99996 28.3748 7.1684 26.7909 7.48785 25.2641L5.53024 24.8545L3.57262 24.4449C3.19721 26.2393 2.99996 28.0976 2.99996 30H4.99996ZM5.53024 24.8545L6.52636 23.1202L2.73828 20.9444L1.74215 22.6787L0.746023 24.413L4.53411 26.5888L5.53024 24.8545ZM1.74215 22.6787L2.73846 20.9445L2.73867 20.9441L1.00875 19.9404L-0.721168 18.9367C-1.83284 20.8528 -1.17597 23.3088 0.745841 24.4129L1.74215 22.6787ZM1.00875 19.9404L2.73854 20.9443L8.48268 11.0469L6.75289 10.043L5.0231 9.03906L-0.721037 18.9365L1.00875 19.9404ZM6.75289 10.043L8.48243 11.0473L8.48244 11.0474L9.4775 9.3125L10.4726 7.57761C8.56357 6.48269 6.12855 7.13542 5.02336 9.03862L6.75289 10.043ZM9.4775 9.3125L8.48255 11.0475L12.2306 13.1969L13.2255 11.4619L14.2205 9.72696L10.4725 7.57755L9.4775 9.3125ZM13.2255 11.4619L14.5679 12.9445C16.9373 10.7992 19.7551 9.14312 22.8614 8.12992L22.2412 6.22852L21.621 4.32711C17.9704 5.51784 14.6625 7.46291 11.8832 9.97933L13.2255 11.4619ZM22.2412 6.22852H24.2412V2H22.2412H20.2412V6.22852H22.2412ZM22.2412 2L24.2412 2V2V0V-2C22.032 -2 20.2412 -0.209139 20.2412 2L22.2412 2ZM24.2412 0V2H35.7421V0V-2H24.2412V0Z" fill="#666666" mask="url(#path-1-inside-1_3082_52523)"/>
<circle cx="30" cy="30" r="14" fill="#E8E8E8"/>
<path d="M43.2207 18.9019L42.6226 23.866L38.0246 21.9019" stroke="#666666" stroke-width="2" stroke-linecap="round" stroke-linejoin="round"/>
<path d="M15.7754 39.366L16.3735 34.4019L20.9715 36.366" stroke="#666666" stroke-width="2" stroke-linecap="round" stroke-linejoin="round"/>
<path d="M42.1218 23.0001C38.2558 16.304 29.6935 14.0097 22.9974 17.8757C19.6049 19.8344 17.3422 22.9986 16.4382 26.5148M43.8543 32.0009C43.2598 36.0986 40.8615 39.8935 36.9974 42.1244C30.3013 45.9904 21.739 43.6962 17.873 37.0001L16.873 35.268" stroke="#666666" stroke-width="2" stroke-linecap="round"/>
</svg>
