<svg width="514" height="20" viewBox="0 0 514 20" fill="none" xmlns="http://www.w3.org/2000/svg">
<g clip-path="url(#clip0_6539_56458)">
<path d="M1.45131 20C0.867006 20 0.461762 19.7925 0.216731 19.3679C-0.0188758 18.9434 -0.0659972 18.4717 0.0753669 17.9434L4.2409 0.962264C4.33514 0.669811 4.4765 0.433962 4.67441 0.264151C4.87232 0.0943396 5.09851 0 5.36239 0H20.3847C21.6664 0 22.7407 0.160377 23.6266 0.490566C24.5125 0.820755 25.2099 1.29245 25.7188 1.90566C26.2277 2.51887 26.5576 3.25472 26.7084 4.11321C26.8497 4.9717 26.8215 5.93396 26.5953 6.99057L25.0403 13.783C24.8424 14.717 24.4748 15.566 23.9565 16.3302C23.4381 17.0943 22.8067 17.7547 22.0716 18.3019C21.3365 18.8491 20.5166 19.2736 19.6213 19.566C18.726 19.8585 17.8024 20 16.86 20H1.45131ZM21.1292 7.15094C21.2046 6.83962 21.2234 6.53774 21.1952 6.23585C21.1669 5.93396 21.0821 5.66981 20.9501 5.42453C20.8088 5.18868 20.6297 5 20.3847 4.84906C20.1491 4.69811 19.8663 4.63208 19.5365 4.63208H9.00016L6.4556 15.3962H16.6338C17.4537 15.3962 18.1229 15.1415 18.6318 14.6415C19.1407 14.1415 19.4894 13.4811 19.6684 12.6509L21.1198 7.14151L21.1292 7.15094Z" fill="#595757"/>
<path d="M46.5087 0C47.7339 0 48.846 0.103774 49.8449 0.311321C50.8533 0.518868 51.6921 0.867924 52.3801 1.33962C53.068 1.81132 53.577 2.43396 53.9257 3.18868C54.2744 3.9434 54.4063 4.87736 54.3403 5.9717C54.2838 6.9434 54.0576 7.84906 53.6712 8.70755C53.2754 9.56604 52.7382 10.3208 52.0408 10.9811C51.3434 11.6415 50.5046 12.1698 49.5245 12.5849C48.535 13 47.4135 13.2453 46.16 13.3396L52.5874 20H47.7151C47.291 20 46.9328 19.9811 46.6313 19.934C46.3297 19.8868 46.0564 19.8113 45.7925 19.6981C45.538 19.5849 45.293 19.434 45.0668 19.2358C44.8407 19.0377 44.5768 18.783 44.2846 18.4717L37.7159 11.1038C37.5651 10.9528 37.4803 10.8019 37.452 10.6226C37.4237 10.4528 37.4426 10.283 37.5086 10.1321C37.5745 9.98113 37.6782 9.84906 37.8196 9.74528C37.9609 9.64151 38.14 9.59434 38.3379 9.59434H44.4731C45.0951 9.59434 45.6606 9.5 46.1695 9.32076C46.6784 9.14151 47.1119 8.90566 47.47 8.60377C47.8281 8.31132 48.1014 7.98113 48.3088 7.60377C48.5067 7.22642 48.6104 6.85849 48.6104 6.49057C48.6292 5.90566 48.4313 5.45283 48.0072 5.12264C47.5831 4.79245 46.9611 4.63208 46.1224 4.63208H36.8206L33.098 20H29.5356C29.1115 20 28.7911 19.934 28.5461 19.8113C28.3105 19.6887 28.1314 19.5094 28.0089 19.2925C27.8864 19.0755 27.8298 18.8208 27.8298 18.5283C27.8298 18.2358 27.8675 17.934 27.9429 17.6226L31.9294 1.26415C32.0425 0.792453 32.2027 0.462264 32.4195 0.273585C32.6362 0.0943396 33.0226 0 33.5692 0H46.5182L46.5087 0Z" fill="#595757"/>
<path d="M64.6033 0.141509C64.8106 0.235849 64.9991 0.367925 65.1499 0.537736C65.3007 0.707547 65.4138 0.933962 65.4609 1.19811C65.5174 1.46226 65.508 1.77358 65.4326 2.11321L61.1634 20H57.4974C56.6963 20 56.1874 19.7736 55.9612 19.3113C55.7445 18.8585 55.735 18.3019 55.9329 17.6415L60.1833 0H63.9342C64.1698 0 64.3959 0.0471698 64.6033 0.141509Z" fill="#595757"/>
<path d="M95.4114 0.00162146L79.2393 20.0016H75.3848C74.7251 20.0016 74.2162 19.8507 73.8487 19.5488C73.4811 19.2469 73.1984 18.8318 73.0005 18.3035L66.0171 0.00162146H70.5313C71.5868 0.00162146 72.3219 0.501621 72.7178 1.51106L77.4487 14.3035L88.2866 0.765772C88.4657 0.529923 88.6919 0.341244 88.9463 0.199735C89.2008 0.0582252 89.5118 -0.0078125 89.8794 -0.0078125H95.4114V0.00162146Z" fill="#595757"/>
<path d="M119.99 0.540979C120.32 0.899469 120.414 1.41834 120.263 2.11645L119.745 4.63532H102.282L101.547 7.54098H116.022L115.447 9.89947C115.306 10.4844 115.023 10.9844 114.609 11.39C114.194 11.8051 113.61 12.0032 112.846 12.0032H100.5L99.6806 15.4561H117.474L116.899 17.89C116.748 18.4749 116.446 18.9749 115.966 19.3806C115.494 19.7957 114.872 19.9938 114.109 19.9938H95.0061C94.1862 19.9938 93.6773 19.7674 93.47 19.3051C93.2721 18.8523 93.2532 18.2957 93.4134 17.6353L97.3528 1.22022C97.4659 0.748526 97.6166 0.418337 97.8334 0.248526C98.0407 0.0787146 98.4083 -0.015625 98.9455 -0.015625H118.765C119.255 -0.015625 119.669 0.16362 119.999 0.522111L119.99 0.540979Z" fill="#595757"/>
<path d="M158.356 0C158.592 0 158.818 0.0471698 159.044 0.141509C159.261 0.235849 159.449 0.367924 159.591 0.556604C159.732 0.735849 159.836 0.962264 159.892 1.21698C159.949 1.4717 159.93 1.77358 159.836 2.12264L159.204 4.64151H145.709C145.237 4.64151 144.747 4.68868 144.248 4.79245C143.748 4.89623 143.277 5.06604 142.834 5.31132C142.401 5.5566 142.005 5.89623 141.656 6.33962C141.307 6.77358 141.062 7.33019 140.921 7.98113L139.932 12.2264C139.818 12.717 139.781 13.1604 139.8 13.5566C139.818 13.9528 139.932 14.283 140.139 14.5566C140.346 14.8302 140.657 15.0377 141.053 15.1887C141.458 15.3302 141.977 15.4057 142.608 15.4057H157.253L156.678 17.8962C156.518 18.4811 156.236 18.9811 155.84 19.3868C155.444 19.8019 154.869 20 154.106 20H140.252C138.791 20 137.604 19.783 136.69 19.3585C135.775 18.934 135.097 18.3491 134.635 17.6038C134.183 16.8679 133.928 16.0094 133.881 15.0283C133.834 14.0472 133.938 13.0283 134.192 11.9434L135.342 7.12264C135.945 4.60377 137.029 2.78302 138.603 1.66981C140.167 0.556604 142.297 0 144.983 0H158.337L158.356 0Z" fill="#595757"/>
<path d="M186.846 0.00162146C187.317 0.00162146 187.722 0.143131 188.052 0.42615C188.382 0.709169 188.467 1.19973 188.297 1.88841L184.414 18.2186C184.282 18.7469 184 19.1809 183.566 19.5016C183.133 19.8318 182.633 19.9922 182.086 19.9922H178.232L180.145 12.0488H167.441L165.528 19.9922H161.918C161.117 19.9922 160.608 19.7658 160.401 19.3035C160.194 18.8507 160.166 18.2941 160.335 17.6337L164.604 -0.0078125H168.384C168.6 -0.0078125 168.817 0.0299233 169.024 0.105395C169.232 0.180867 169.411 0.28464 169.562 0.435584C169.712 0.586527 169.807 0.775206 169.863 1.01106C169.92 1.2469 169.91 1.53936 169.835 1.88841L168.544 7.47332H181.248L183.057 -0.0078125H186.865L186.846 0.00162146Z" fill="#595757"/>
<path d="M216.089 20H211.462C211.028 20 210.651 19.8868 210.35 19.6604C210.048 19.434 209.822 19.1226 209.681 18.7453L208.616 15.4811H195.893L192.585 19.5377C192.33 19.8491 191.982 20 191.548 20H186.073L201.02 1.69811C201.387 1.26415 201.792 0.867924 202.235 0.518868C202.678 0.169811 203.216 0 203.838 0H208.107C208.729 0 209.209 0.216981 209.549 0.660377C209.888 1.10377 210.152 1.62264 210.359 2.22641L216.108 20.0094L216.089 20ZM207.409 11.6415L204.95 4.27358L198.956 11.6415H207.409Z" fill="#595757"/>
<path d="M236.229 20.0016L225.608 6.1337L222.347 20.0016H218.737C217.917 20.0016 217.408 19.7752 217.201 19.3318C217.003 18.8884 216.984 18.3224 217.145 17.6431L221.197 0.954452C221.254 0.699735 221.404 0.47332 221.659 0.28464C221.913 0.0959611 222.177 -0.0078125 222.45 -0.0078125H226.965L236.983 12.728L240.017 -0.0078125H243.74C244.211 -0.0078125 244.616 0.171433 244.946 0.529923C245.276 0.888414 245.361 1.40728 245.191 2.10539L241.497 17.6903C241.337 18.3884 240.997 18.945 240.498 19.3601C239.998 19.7846 239.433 19.9922 238.811 19.9922H236.21L236.229 20.0016Z" fill="#595757"/>
<path d="M271.843 7.7043L268.912 20.0062H252.769C251.289 20.0062 250.092 19.7892 249.187 19.3458C248.273 18.9024 247.595 18.3175 247.152 17.5817C246.709 16.8458 246.454 15.9873 246.417 15.0251C246.369 14.0534 246.473 13.0345 246.728 11.959L247.906 7.13827C248.528 4.63827 249.611 2.82695 251.166 1.7043C252.721 0.581663 254.832 0.015625 257.518 0.015625H271.749C272.39 0.015625 272.833 0.213738 273.087 0.619399C273.342 1.02506 273.398 1.51562 273.247 2.10053L272.644 4.6477H258.197C257.726 4.6477 257.245 4.68544 256.755 4.77034C256.274 4.85525 255.813 5.01562 255.388 5.25147C254.964 5.48732 254.578 5.81751 254.258 6.22317C253.928 6.63827 253.683 7.16657 253.522 7.82695L252.458 12.242C252.326 12.7326 252.278 13.176 252.307 13.5722C252.335 13.9685 252.448 14.2986 252.646 14.5722C252.844 14.8458 253.155 15.0534 253.56 15.2043C253.975 15.3458 254.493 15.4213 255.134 15.4213H264.605L265.425 12.0817H257.434L258.225 8.71374C258.301 8.42128 258.451 8.18544 258.687 7.99676C258.923 7.81751 259.196 7.72317 259.507 7.72317H271.853L271.843 7.7043Z" fill="#595757"/>
<path d="M300.173 0.540979C300.502 0.899469 300.597 1.41834 300.446 2.11645L299.927 4.63532H282.464L281.729 7.54098H296.205L295.63 9.89947C295.489 10.4844 295.206 10.9844 294.791 11.39C294.377 11.8051 293.792 12.0032 293.029 12.0032H280.683L279.863 15.4561H297.656L297.081 17.89C296.931 18.4749 296.629 18.9749 296.148 19.3806C295.677 19.7957 295.055 19.9938 294.292 19.9938H275.189C274.369 19.9938 273.86 19.7674 273.653 19.3051C273.455 18.8523 273.436 18.2957 273.596 17.6353L277.535 1.22022C277.648 0.748526 277.799 0.418337 278.016 0.248526C278.223 0.0787146 278.591 -0.015625 279.128 -0.015625H298.947C299.437 -0.015625 299.852 0.16362 300.182 0.522111L300.173 0.540979Z" fill="#595757"/>
<path d="M340.829 0C341.319 0 341.715 0.188679 342.017 0.566038C342.318 0.943396 342.393 1.40566 342.252 1.95283L341.536 4.64151H324.073L323.281 7.84906H336.089L335.297 11.1604C335.222 11.4717 335.071 11.717 334.835 11.8962C334.6 12.0755 334.336 12.1698 334.044 12.1698H322.273L320.331 20.0094H316.477C316.006 20.0094 315.61 19.8396 315.299 19.4906C314.988 19.1415 314.903 18.7075 315.054 18.1792L319.021 1.49057C319.153 1 319.408 0.632075 319.803 0.377358C320.19 0.122641 320.699 0 321.34 0H340.829Z" fill="#595757"/>
<path d="M361.129 0C363.608 0 365.389 0.584906 366.463 1.73585C367.538 2.89623 367.792 4.71698 367.227 7.19811L365.832 13.1132C365.323 15.3962 364.239 17.1132 362.59 18.2642C360.941 19.4151 358.801 19.9906 356.172 19.9906H347.549C346.305 19.9906 345.249 19.8019 344.373 19.4151C343.496 19.0283 342.808 18.4906 342.318 17.8019C341.828 17.1038 341.536 16.2642 341.442 15.283C341.347 14.2925 341.47 13.1981 341.8 11.9906L343.411 5.77358C343.647 4.83962 344.052 4.01887 344.618 3.29245C345.183 2.56604 345.871 1.9717 346.672 1.48113C347.473 1 348.378 0.622642 349.386 0.367925C350.395 0.132075 351.441 0 352.534 0H361.129ZM356.096 15.3962C357.095 15.3962 358 15.1321 358.811 14.6132C359.612 14.0943 360.168 13.1887 360.479 11.9151L361.544 7.77358C361.657 7.30189 361.732 6.86792 361.779 6.49057C361.826 6.10377 361.779 5.77358 361.666 5.5C361.544 5.22642 361.327 5.00943 360.997 4.85849C360.667 4.70755 360.196 4.62264 359.574 4.62264H352.76C351.686 4.62264 350.762 4.90566 350.008 5.4717C349.254 6.03774 348.746 6.86792 348.491 7.96226L347.483 12.2075C347.37 12.6792 347.304 13.1132 347.266 13.5094C347.228 13.9057 347.285 14.2358 347.426 14.5094C347.568 14.783 347.822 15 348.18 15.1509C348.538 15.3019 349.038 15.3868 349.697 15.3868H356.106L356.096 15.3962Z" fill="#595757"/>
<path d="M387.112 0C388.337 0 389.449 0.103774 390.457 0.311321C391.466 0.518868 392.304 0.867924 392.992 1.33962C393.68 1.81132 394.189 2.43396 394.538 3.18868C394.887 3.9434 395.019 4.87736 394.953 5.9717C394.896 6.9434 394.67 7.84906 394.283 8.70755C393.888 9.56604 393.351 10.3208 392.653 10.9811C391.956 11.6415 391.117 12.1698 390.137 12.5849C389.147 13 388.026 13.2453 386.772 13.3396L393.2 20H388.327C387.903 20 387.545 19.9811 387.244 19.934C386.942 19.8868 386.669 19.8113 386.405 19.6981C386.15 19.5849 385.905 19.434 385.679 19.2358C385.453 19.0377 385.189 18.783 384.897 18.4717L378.328 11.1038C378.177 10.9528 378.093 10.8019 378.064 10.6226C378.036 10.4528 378.055 10.283 378.121 10.1321C378.187 9.98113 378.29 9.84906 378.432 9.74528C378.573 9.64151 378.752 9.59434 378.95 9.59434H385.085C385.707 9.59434 386.273 9.5 386.782 9.32076C387.291 9.14151 387.724 8.90566 388.082 8.60377C388.44 8.31132 388.714 7.98113 388.921 7.60377C389.119 7.22642 389.223 6.85849 389.223 6.49057C389.242 5.90566 389.044 5.45283 388.619 5.12264C388.195 4.79245 387.573 4.63208 386.735 4.63208H377.433L373.71 20H370.148C369.724 20 369.403 19.934 369.158 19.8113C368.923 19.6887 368.744 19.5094 368.621 19.2925C368.499 19.0755 368.442 18.8208 368.442 18.5283C368.442 18.2358 368.48 17.934 368.555 17.6226L372.523 1.26415C372.636 0.792453 372.796 0.462264 373.013 0.273585C373.239 0.0943396 373.625 0 374.172 0H387.121H387.112Z" fill="#595757"/>
<path d="M433.027 1.45283C432.555 1 431.933 0.641509 431.179 0.386792C430.416 0.132075 429.483 0 428.371 0H415.318C415.083 0 414.838 0.0471698 414.593 0.150943C414.348 0.254717 414.112 0.396226 413.895 0.575472C413.679 0.754717 413.481 0.962264 413.32 1.18868C413.16 1.41509 413.047 1.65094 412.991 1.88679L412.331 4.62264H426.759C427.485 4.62264 427.994 4.71698 428.277 4.90566C428.56 5.09434 428.701 5.4434 428.701 5.93396C428.701 6.38679 428.607 6.77358 428.418 7.06604C428.23 7.36792 427.975 7.60377 427.664 7.78302C427.353 7.95283 427.005 8.07547 426.609 8.15094C426.213 8.22642 425.817 8.26415 425.421 8.26415H413.377C412.83 8.26415 412.369 8.41509 411.982 8.72641C411.596 9.03774 411.351 9.42453 411.247 9.87736L409.306 17.5189C409.146 18.1981 409.155 18.7736 409.362 19.2547C409.56 19.7358 410.069 19.9811 410.87 19.9811H429.012C429.813 19.9811 430.463 19.7736 430.953 19.3679C431.443 18.9528 431.764 18.4623 431.915 17.8774L432.546 15.3868H415.601L416.261 12.566H426.006C427.212 12.566 428.324 12.3962 429.361 12.0566C430.388 11.717 431.274 11.2358 432.018 10.6038C432.753 9.9717 433.338 9.19811 433.752 8.29245C434.176 7.37736 434.384 6.34906 434.384 5.19811C434.384 4.43396 434.28 3.72641 434.073 3.08491C433.865 2.4434 433.517 1.89623 433.045 1.4434L433.027 1.45283Z" fill="url(#paint0_linear_6539_56458)"/>
<path d="M459.98 1.73585C459.452 1.14151 458.736 0.707547 457.831 0.424528C456.927 0.141509 455.862 0 454.618 0H446.814C445.721 0 444.675 0.132075 443.667 0.386792C442.658 0.641509 441.763 1.00943 440.952 1.5C440.151 1.98113 439.463 2.58491 438.898 3.31132C438.333 4.0283 437.927 4.85849 437.692 5.79245L436.08 12.0094C435.769 13.217 435.656 14.3113 435.75 15.3019C435.844 16.2925 436.127 17.1321 436.608 17.8396C437.089 18.5472 437.767 19.0849 438.644 19.4528C439.52 19.8302 440.575 20.0189 441.819 20.0189H449.651C452.28 20.0189 454.41 19.4434 456.06 18.2925C457.699 17.1415 458.783 15.4245 459.32 13.1415L460.715 7.22641C461.007 5.98113 461.092 4.91509 460.96 4.00943C460.828 3.10377 460.508 2.35849 459.971 1.76415L459.98 1.73585ZM455.259 6.49057C455.211 6.87736 455.136 7.30189 455.023 7.77358L454.759 8.79245L453.769 12.6226C453.345 14.2642 451.866 15.4151 450.169 15.4057L446.485 15.3868H443.968C443.309 15.3868 442.809 15.3113 442.451 15.1509C442.093 14.9906 441.848 14.783 441.697 14.5094C441.556 14.2358 441.499 13.9057 441.537 13.5094C441.574 13.1132 441.65 12.6792 441.754 12.2075L441.933 11.4434L442.837 7.48113C443.224 5.79245 444.732 4.59434 446.466 4.60377H448.991L453.053 4.61321C453.675 4.61321 454.146 4.68868 454.476 4.84906C454.806 5 455.032 5.21698 455.145 5.49057C455.268 5.76415 455.296 6.09434 455.259 6.48113V6.49057Z" fill="url(#paint1_linear_6539_56458)"/>
<path d="M485.803 1.24528C485.322 0.830189 484.69 0.528302 483.927 0.311321C483.164 0.103774 482.221 0 481.109 0H467.614C467.378 0 467.142 0.0471698 466.888 0.150943C466.643 0.254717 466.407 0.396226 466.191 0.575472C465.974 0.754717 465.776 0.962264 465.616 1.18868C465.456 1.41509 465.342 1.65094 465.286 1.88679L464.626 4.62264H479.488C480.214 4.62264 480.732 4.70755 481.034 4.88679C481.335 5.0566 481.486 5.37736 481.486 5.83019C481.486 6.10377 481.411 6.34906 481.251 6.56604C481.1 6.78302 480.893 6.98113 480.638 7.14151C480.384 7.30189 480.082 7.4434 479.752 7.5566C479.413 7.66981 479.074 7.73585 478.725 7.77358H466.492L465.946 10.0472C465.785 10.6698 465.814 11.1604 466.04 11.5283C466.266 11.8962 466.794 12.0755 467.614 12.0755H478.612C478.961 12.0755 479.243 12.1132 479.46 12.1981C479.677 12.283 479.846 12.3774 479.969 12.5C480.091 12.6226 480.167 12.7547 480.205 12.9151C480.242 13.066 480.252 13.217 480.233 13.3679C480.139 14.066 479.79 14.5755 479.177 14.9057C478.565 15.2358 477.877 15.3962 477.113 15.3962H462.063L461.431 17.7264C461.271 18.3491 461.337 18.8774 461.639 19.3302C461.94 19.7736 462.496 20 463.326 20H476.953C478.159 20 479.3 19.8585 480.384 19.566C481.467 19.2736 482.419 18.8302 483.239 18.2264C484.059 17.6226 484.719 16.8585 485.209 15.934C485.699 15.0094 485.944 13.9245 485.944 12.6604C485.944 12.1321 485.821 11.6321 485.586 11.1509C485.35 10.6792 485.03 10.2453 484.625 9.86792C485.388 9.24528 486.01 8.51887 486.472 7.67925C486.933 6.83962 487.169 5.87736 487.169 4.80189C487.169 4.03774 487.056 3.35849 486.839 2.76415C486.622 2.16981 486.264 1.66981 485.784 1.25472L485.803 1.24528Z" fill="url(#paint2_linear_6539_56458)"/>
<path d="M512.963 1.73585C512.435 1.14151 511.719 0.707547 510.814 0.424528C509.91 0.141509 508.835 0 507.591 0H499.788C498.704 0 497.649 0.132075 496.65 0.386792C495.641 0.641509 494.746 1.00943 493.936 1.5C493.135 1.98113 492.447 2.58491 491.881 3.31132C491.316 4.0283 490.91 4.85849 490.675 5.79245L489.063 12.0094C488.752 13.217 488.639 14.3113 488.733 15.3019C488.828 16.2925 489.11 17.1321 489.591 17.8396C490.072 18.5472 490.75 19.0849 491.627 19.4528C492.503 19.8302 493.559 20.0189 494.803 20.0189H502.634C505.264 20.0189 507.393 19.4434 509.043 18.2925C510.683 17.1415 511.766 15.4245 512.303 13.1415L513.698 7.22641C513.99 5.98113 514.075 4.91509 513.943 4.00943C513.811 3.10377 513.491 2.35849 512.954 1.76415L512.963 1.73585ZM508.242 6.49057C508.194 6.87736 508.119 7.30189 508.006 7.77358L507.742 8.79245L506.753 12.6226C506.329 14.2642 504.849 15.4151 503.153 15.4057L499.468 15.3868H496.951C496.292 15.3868 495.792 15.3113 495.434 15.1509C495.076 15 494.831 14.783 494.68 14.5094C494.539 14.2358 494.482 13.9057 494.52 13.5094C494.558 13.1132 494.633 12.6792 494.737 12.2075L494.916 11.4434L495.82 7.48113C496.207 5.79245 497.715 4.59434 499.449 4.60377H501.975L506.036 4.61321C506.658 4.61321 507.13 4.68868 507.459 4.84906C507.789 5 508.015 5.21698 508.129 5.49057C508.251 5.76415 508.279 6.09434 508.242 6.48113V6.49057Z" fill="url(#paint3_linear_6539_56458)"/>
</g>
<defs>
<linearGradient id="paint0_linear_6539_56458" x1="409.174" y1="10.5943" x2="522.049" y2="5.41628" gradientUnits="userSpaceOnUse">
<stop offset="0.08" stop-color="#192489"/>
<stop offset="0.22" stop-color="#0E4D9F"/>
<stop offset="0.38" stop-color="#0374B4"/>
<stop offset="0.47" stop-color="#0083BD"/>
<stop offset="0.54" stop-color="#008B9E"/>
<stop offset="0.65" stop-color="#009774"/>
<stop offset="0.76" stop-color="#009F55"/>
<stop offset="0.85" stop-color="#00A542"/>
<stop offset="0.91" stop-color="#00A73C"/>
</linearGradient>
<linearGradient id="paint1_linear_6539_56458" x1="409.221" y1="11.7925" x2="522.105" y2="6.6144" gradientUnits="userSpaceOnUse">
<stop offset="0.08" stop-color="#192489"/>
<stop offset="0.22" stop-color="#0E4D9F"/>
<stop offset="0.38" stop-color="#0374B4"/>
<stop offset="0.47" stop-color="#0083BD"/>
<stop offset="0.54" stop-color="#008B9E"/>
<stop offset="0.65" stop-color="#009774"/>
<stop offset="0.76" stop-color="#009F55"/>
<stop offset="0.85" stop-color="#00A542"/>
<stop offset="0.91" stop-color="#00A73C"/>
</linearGradient>
<linearGradient id="paint2_linear_6539_56458" x1="409.277" y1="12.9057" x2="522.152" y2="7.72761" gradientUnits="userSpaceOnUse">
<stop offset="0.08" stop-color="#192489"/>
<stop offset="0.22" stop-color="#0E4D9F"/>
<stop offset="0.38" stop-color="#0374B4"/>
<stop offset="0.47" stop-color="#0083BD"/>
<stop offset="0.54" stop-color="#008B9E"/>
<stop offset="0.65" stop-color="#009774"/>
<stop offset="0.76" stop-color="#009F55"/>
<stop offset="0.85" stop-color="#00A542"/>
<stop offset="0.91" stop-color="#00A73C"/>
</linearGradient>
<linearGradient id="paint3_linear_6539_56458" x1="409.334" y1="14.2264" x2="522.218" y2="9.04836" gradientUnits="userSpaceOnUse">
<stop offset="0.08" stop-color="#192489"/>
<stop offset="0.22" stop-color="#0E4D9F"/>
<stop offset="0.38" stop-color="#0374B4"/>
<stop offset="0.47" stop-color="#0083BD"/>
<stop offset="0.54" stop-color="#008B9E"/>
<stop offset="0.65" stop-color="#009774"/>
<stop offset="0.76" stop-color="#009F55"/>
<stop offset="0.85" stop-color="#00A542"/>
<stop offset="0.91" stop-color="#00A73C"/>
</linearGradient>
<clipPath id="clip0_6539_56458">
<rect width="514" height="20" fill="white"/>
</clipPath>
</defs>
</svg>
