<svg width="32" height="32" viewBox="0 0 32 32" fill="none" xmlns="http://www.w3.org/2000/svg" aria-hidden="true">
  <path d="M16 2.89157C20.241 2.89157 20.8193 2.89157 22.5542 2.89157C24.0964 2.89157 24.8675 3.27711 25.4458 3.46988C26.2169 3.85542 26.7952 4.04819 27.3735 4.62651C27.9518 5.20482 28.3374 5.78313 28.5301 6.55422C28.7229 7.13253 28.9157 7.90362 29.1084 9.44579C29.1084 11.1807 29.1084 11.5663 29.1084 16C29.1084 20.4337 29.1084 20.8193 29.1084 22.5542C29.1084 24.0964 28.7229 24.8675 28.5301 25.4458C28.1446 26.2169 27.9518 26.7952 27.3735 27.3735C26.7952 27.9518 26.2169 28.3374 25.4458 28.5301C24.8675 28.7229 24.0964 28.9157 22.5542 29.1084C20.8193 29.1084 20.4337 29.1084 16 29.1084C11.5663 29.1084 11.1807 29.1084 9.44579 29.1084C7.90362 29.1084 7.13253 28.7229 6.55422 28.5301C5.78313 28.1446 5.20482 27.9518 4.62651 27.3735C4.04819 26.7952 3.66265 26.2169 3.46988 25.4458C3.27711 24.8675 3.08434 24.0964 2.89157 22.5542C2.89157 20.8193 2.89157 20.4337 2.89157 16C2.89157 11.5663 2.89157 11.1807 2.89157 9.44579C2.89157 7.90362 3.27711 7.13253 3.46988 6.55422C3.85542 5.78313 4.04819 5.20482 4.62651 4.62651C5.20482 4.04819 5.78313 3.66265 6.55422 3.46988C7.13253 3.27711 7.90362 3.08434 9.44579 2.89157C11.1807 2.89157 11.759 2.89157 16 2.89157ZM16 0C11.5663 0 11.1807 0 9.44579 0C7.71084 0 6.55422 0.385543 5.59036 0.771086C4.62651 1.15663 3.66265 1.73494 2.6988 2.6988C1.73494 3.66265 1.3494 4.43374 0.771086 5.59036C0.385543 6.55422 0.192771 7.71084 0 9.44579C0 11.1807 0 11.759 0 16C0 20.4337 0 20.8193 0 22.5542C0 24.2892 0.385543 25.4458 0.771086 26.4096C1.15663 27.3735 1.73494 28.3374 2.6988 29.3012C3.66265 30.2651 4.43374 30.6506 5.59036 31.2289C6.55422 31.6145 7.71084 31.8072 9.44579 32C11.1807 32 11.759 32 16 32C20.241 32 20.8193 32 22.5542 32C24.2892 32 25.4458 31.6145 26.4096 31.2289C27.3735 30.8434 28.3374 30.2651 29.3012 29.3012C30.2651 28.3374 30.6506 27.5663 31.2289 26.4096C31.6145 25.4458 31.8072 24.2892 32 22.5542C32 20.8193 32 20.241 32 16C32 11.759 32 11.1807 32 9.44579C32 7.71084 31.6145 6.55422 31.2289 5.59036C30.8434 4.62651 30.2651 3.66265 29.3012 2.6988C28.3374 1.73494 27.5663 1.3494 26.4096 0.771086C25.4458 0.385543 24.2892 0.192771 22.5542 0C20.8193 0 20.4337 0 16 0Z" fill="white"/>
  <path d="M16 7.71084C11.3735 7.71084 7.71084 11.3735 7.71084 16C7.71084 20.6265 11.3735 24.2892 16 24.2892C20.6265 24.2892 24.2892 20.6265 24.2892 16C24.2892 11.3735 20.6265 7.71084 16 7.71084ZM16 21.3976C13.1084 21.3976 10.6024 19.0843 10.6024 16C10.6024 13.1084 12.9157 10.6024 16 10.6024C18.8916 10.6024 21.3976 12.9157 21.3976 16C21.3976 18.8916 18.8916 21.3976 16 21.3976Z" fill="white"/>
  <path d="M24.4819 9.44579C25.5466 9.44579 26.4096 8.58272 26.4096 7.51807C26.4096 6.45343 25.5466 5.59036 24.4819 5.59036C23.4173 5.59036 22.5542 6.45343 22.5542 7.51807C22.5542 8.58272 23.4173 9.44579 24.4819 9.44579Z" fill="white"/>
</svg>
