<svg width="32" height="32" viewBox="0 0 32 32" fill="none" xmlns="http://www.w3.org/2000/svg" aria-hidden="true">
  <path d="M31.9996 18.331V29.3331H25.4943V19.0019C25.4943 16.4526 24.5457 14.7084 22.2417 14.7084C20.4799 14.7084 19.3957 15.9159 18.9891 16.9893C18.8536 17.3918 18.7181 17.9285 18.7181 18.5994V29.3331H12.2128C12.2128 29.3331 12.3483 11.8908 12.2128 10.1465H18.7181V12.83C19.5312 11.4883 21.1575 9.60985 24.5457 9.60985C28.7469 9.60985 31.9996 12.4275 31.9996 18.331ZM5.43653 0.888672C3.26812 0.888672 1.77734 2.36456 1.77734 4.24297C1.77734 6.12138 3.1326 7.59727 5.30101 7.59727C7.60495 7.59727 8.9602 6.12138 8.9602 4.24297C9.09573 2.23039 7.74047 0.888672 5.43653 0.888672ZM2.18392 29.3331H8.68915V10.1465H2.18392V29.3331Z" fill="white"/>
</svg>
