<svg width="510" height="38" viewBox="0 0 510 38" fill="none" xmlns="http://www.w3.org/2000/svg" aria-hidden="true">
<g id="Futuring Smart Energy" clip-path="url(#clip0_0_4)">
<path id="Vector" d="M382.123 12.1745H359.038C357.657 12.1745 357.325 12.5372 357.044 13.7287L352.697 32.0423L352.007 34.9175C351.573 36.5494 351.956 37.9741 354.027 37.9741H376.396C378.365 37.9741 379.26 36.7307 379.669 35.2543L380.282 32.7676H358.859L360.035 27.82H374.632C376.601 27.82 377.496 26.5767 377.905 25.1002L378.672 21.8882H361.441L362.514 17.407H383.401L384.015 14.8943C384.475 13.0552 383.325 12.1745 382.149 12.1745H382.123Z" fill="url(#paint0_linear_0_4)"/>
<path id="Vector_2" d="M432.103 17.8473H414.079C413.006 17.8473 412.75 18.1322 412.52 19.0648L409.12 33.3633L408.583 35.6169C408.25 36.8862 408.557 38 410.168 38H427.629C429.163 38 429.853 37.0157 430.185 35.8759L430.646 33.9332H413.44L414.361 30.0736H426.248C427.782 30.0736 428.473 29.0893 428.805 27.9496L429.393 25.4369H415.46L416.304 21.94H433.1L433.586 19.9973C433.943 18.5726 433.049 17.8732 432.128 17.8732L432.103 17.8473Z" fill="url(#paint1_linear_0_4)"/>
<path id="Vector_3" d="M44.4579 38C43.7165 37.9741 43.1796 37.9482 42.8217 37.9223C42.6427 37.9223 42.2593 37.8964 41.2622 37.6374C40.6998 37.4819 40.2652 37.3265 40.0095 37.197C39.626 37.0157 39.2681 36.7048 38.9358 36.3163C38.0666 35.3061 37.9387 33.441 38.5779 30.7989L41.2622 19.9973C41.4156 19.4015 41.6713 18.9352 42.0547 18.5467C42.6172 18.0286 43.1796 17.7955 43.7932 17.7955H46.2474L42.9751 31.4983C42.924 31.7314 42.924 31.9905 42.9751 32.2495C43.2052 33.2338 43.8954 33.4151 44.4323 33.4151H55.2719C55.8344 33.4151 56.3968 33.1561 56.9081 32.6898C57.266 32.4049 57.5217 31.9387 57.6751 31.317L60.8963 17.7955H63.3761C63.6318 17.7955 63.8874 17.8473 64.0919 17.9768C64.5521 18.21 64.8333 18.5467 64.9356 19.0907C64.9356 19.272 64.9356 19.4792 64.9356 19.6864C63.4528 26.2918 62.5836 30.0995 62.4046 30.9284C62.0467 32.4049 61.5354 33.6742 60.8963 34.7362C60.7429 34.9952 60.5128 35.3061 60.2316 35.6169C59.8481 36.0314 59.3879 36.4199 58.8511 36.7566C58.442 36.9898 58.0074 37.197 57.5728 37.3524C57.1382 37.5337 56.4735 37.6892 55.6299 37.8187C54.6584 37.9482 53.8147 38.0259 53.2012 38.0259H44.509L44.4579 38Z" fill="url(#paint2_linear_0_4)"/>
<path id="Vector_4" d="M95.6138 38C94.8724 37.9741 94.3356 37.9482 93.9777 37.9223C93.7987 37.9223 93.4152 37.8964 92.4182 37.6374C91.8557 37.4819 91.4211 37.3265 91.1655 37.197C90.782 37.0157 90.4241 36.7048 90.0917 36.3163C89.2225 35.3061 89.0947 33.441 89.7338 30.7989L92.4182 19.9973C92.5716 19.4015 92.8272 18.9352 93.2107 18.5467C93.7731 18.0286 94.3356 17.7955 94.9491 17.7955H97.4034L94.131 31.4983C94.0799 31.7314 94.0799 31.9905 94.131 32.2495C94.3611 33.2338 95.0514 33.4151 95.5883 33.4151H106.428C106.99 33.4151 107.553 33.1561 108.064 32.6898C108.422 32.4049 108.678 31.9387 108.831 31.317L112.052 17.7955H114.532C114.788 17.7955 115.043 17.8473 115.248 17.9768C115.708 18.21 115.989 18.5467 116.092 19.0907C116.092 19.272 116.092 19.4792 116.092 19.6864C114.609 26.2918 113.74 30.0995 113.561 30.9284C113.203 32.4049 112.691 33.6742 112.052 34.7362C111.899 34.9952 111.669 35.3061 111.388 35.6169C111.004 36.0314 110.544 36.4199 110.007 36.7566C109.598 36.9898 109.163 37.197 108.729 37.3524C108.294 37.5337 107.629 37.6892 106.786 37.8187C105.814 37.9482 104.971 38.0259 104.357 38.0259H95.665L95.6138 38Z" fill="url(#paint3_linear_0_4)"/>
<path id="Vector_5" d="M73.4232 38C73.0909 38 72.8096 37.8705 72.554 37.5856L72.5029 37.5078C72.5029 37.5078 72.4517 37.456 72.4262 37.4042C72.2728 37.1193 72.2472 36.8344 72.3239 36.5494L75.7241 22.225H66.3928L66.9296 19.9455C67.0575 19.4533 67.1086 19.2202 67.1597 19.0907L67.2109 18.9611C67.3643 18.6503 67.5176 18.3913 67.7222 18.2359C68.029 18.0286 68.1312 17.9768 68.1312 17.9768H68.1823L68.2335 17.925C68.4124 17.8214 68.6936 17.7696 69.0516 17.7696H89.2992C89.7338 17.7696 90.0661 17.8991 90.2962 18.1581C90.4752 18.3913 90.5008 18.469 90.5008 18.4949C90.603 18.8834 90.5775 19.0907 90.5519 19.1684L89.8105 22.225H80.0957L76.3376 38H73.3721H73.4232Z" fill="url(#paint4_linear_0_4)"/>
<path id="Vector_6" d="M326.289 38C325.956 38 325.675 37.8705 325.419 37.5856L325.368 37.5078C325.368 37.5078 325.317 37.456 325.292 37.4042C325.138 37.1193 325.113 36.8344 325.189 36.5494L328.589 22.225H319.258L319.795 19.9455C319.923 19.4533 319.974 19.2202 320.025 19.0907L320.076 18.9611C320.23 18.6503 320.383 18.3913 320.588 18.2359C320.894 18.0286 320.997 17.9768 320.997 17.9768H321.048L321.099 17.925C321.278 17.8214 321.559 17.7696 321.917 17.7696H342.165C342.599 17.7696 342.932 17.8991 343.162 18.1581C343.341 18.3913 343.366 18.469 343.366 18.4949C343.468 18.8834 343.443 19.0907 343.417 19.1684L342.676 22.225H332.961L329.203 38H326.237H326.289Z" fill="url(#paint5_linear_0_4)"/>
<path id="Vector_7" d="M141.58 38C141.222 38 140.941 37.8446 140.685 37.5337C140.481 37.2747 140.455 36.9121 140.557 36.4717L145.006 17.7955H148.074C148.687 17.7955 149.045 18.0545 149.25 18.5726C149.326 18.7798 149.326 19.0648 149.25 19.4015L144.827 38.0259H141.657L141.58 38Z" fill="url(#paint6_linear_0_4)"/>
<path id="Vector_8" d="M166.404 38C166.25 37.8705 155.309 22.7948 155.309 22.7948L151.704 38H148.943C148.559 38 148.278 37.9223 148.074 37.7928C147.843 37.6115 147.716 37.3524 147.665 37.0157C147.665 36.8603 147.665 36.7048 147.69 36.5235L151.781 19.3238C151.908 18.8057 152.19 18.4172 152.675 18.1063C152.982 17.8991 153.289 17.7955 153.621 17.7955H156.894C157.047 17.925 167.938 33.0266 167.938 33.0266L171.568 17.7955H174.431C174.968 17.7955 175.326 18.0027 175.531 18.4172C175.658 18.6762 175.658 18.9611 175.582 19.272L171.491 36.4976C171.363 37.0157 171.057 37.4301 170.52 37.7928C170.443 37.8446 170.29 37.8964 170.085 37.9482C170.034 37.9482 169.906 38.0259 169.472 38.0259H166.404V38Z" fill="url(#paint7_linear_0_4)"/>
<path id="Vector_9" d="M400.964 38C400.811 37.8705 389.869 22.7948 389.869 22.7948L386.264 38H383.503C383.12 38 382.839 37.9223 382.634 37.7928C382.404 37.6115 382.276 37.3524 382.225 37.0157C382.225 36.8603 382.225 36.7048 382.251 36.5235L386.341 19.3238C386.469 18.8057 386.75 18.4172 387.236 18.1063C387.543 17.8991 387.849 17.7955 388.182 17.7955H391.454C391.608 17.925 402.498 33.0266 402.498 33.0266L406.129 17.7955H408.992C409.529 17.7955 409.887 18.0027 410.091 18.4172C410.219 18.6762 410.219 18.9611 410.142 19.272L406.052 36.4976C405.924 37.0157 405.617 37.4301 405.08 37.7928C405.004 37.8446 404.85 37.8964 404.646 37.9482C404.595 37.9482 404.467 38.0259 404.032 38.0259H400.964V38Z" fill="url(#paint8_linear_0_4)"/>
<path id="Vector_10" d="M232.132 31.3688L232.72 28.9598C232.848 28.3899 232.643 27.9496 232.132 27.7164C231.953 27.6646 231.825 27.6387 231.672 27.6387H218.966C216.128 27.6387 214.339 26.9393 213.648 25.5924C213.495 25.3333 213.418 25.1261 213.393 24.9448C213.316 24.6858 213.265 24.4008 213.239 24.09C213.239 23.805 213.239 23.4165 213.265 22.9502C213.316 22.4581 213.444 21.7069 213.699 20.6967V20.5412C214.441 17.5624 215.08 16.2154 215.489 15.6196C215.847 15.0239 216.281 14.5058 216.844 14.0136C217.227 13.6769 217.457 13.5215 217.585 13.4697C218.403 12.9775 219.247 12.6408 220.142 12.4853C220.96 12.304 221.778 12.2004 222.647 12.2004H240.338C240.85 12.2004 241.284 12.3817 241.693 12.7444C242.153 13.2365 242.281 13.91 242.077 14.7389L241.335 17.9768H221.318C220.96 17.9768 220.602 18.1063 220.27 18.3395C219.988 18.5726 219.682 18.9093 219.554 19.4533L219.196 20.9298C219.043 21.5515 219.247 22.0436 219.733 22.3027C219.835 22.3545 219.886 22.3545 219.937 22.3804C220.014 22.3804 220.091 22.4063 220.193 22.4063H233.154C233.154 22.4063 235.379 22.3027 236.785 22.8984C237.91 23.3647 238.446 24.1159 238.728 25.1779C238.983 26.1104 239.06 27.0429 238.779 28.4158L238.089 31.4983C237.475 34.0368 236.376 35.7723 234.714 36.7566C233.333 37.6115 231.416 38.0259 228.987 38.0259H211.935C211.245 38.0259 210.708 37.7151 210.325 37.1193C210.069 36.6789 210.018 36.1609 210.146 35.5651L210.887 32.4049H230.572C230.572 32.4049 231.927 32.5344 232.157 31.4206L232.132 31.3688Z" fill="url(#paint9_linear_0_4)"/>
<path id="Vector_11" d="M259.615 38L262.58 25.5147L254.629 36.7307C254.323 37.0675 253.965 37.2488 253.556 37.2488H250.334C249.951 37.2488 249.67 37.0934 249.491 36.7307C249.491 36.6789 246.781 25.4888 246.781 25.4888L243.79 38.0259H240.62C240.287 38.0259 240.032 37.8964 239.827 37.5856C239.699 37.3783 239.674 37.1193 239.725 36.8603L244.096 18.5208C244.199 18.1063 244.557 17.8214 244.966 17.8214H248.519C249.056 17.8214 249.363 18.0804 249.491 18.6244C249.491 18.6503 249.491 18.7021 249.491 18.7021C249.516 18.7798 252.559 32.1718 252.559 32.1718C252.559 32.1718 262.197 18.4172 262.452 18.3395C262.529 18.3136 262.733 17.8473 263.27 17.8473H267.565C268.153 17.8473 268.562 18.3913 268.435 18.9611L264.191 36.7826C264.063 37.3006 263.782 37.6374 263.296 37.8964C263.091 38 262.912 38.0518 262.708 38.0518H259.538L259.615 38Z" fill="url(#paint10_linear_0_4)"/>
<path id="Vector_12" d="M141.094 23.3647C140.992 20.6967 139.126 17.8214 134.141 17.8214H119.875C119.134 17.8214 119.032 17.8991 118.853 18.5985L114.634 36.2904C114.481 36.8862 114.481 37.4042 114.685 37.6633C114.839 37.8705 115.171 38 115.682 38H118.725L122.662 21.4219H133.016C135.265 21.4219 136.288 22.9502 136.288 24.3749C136.288 25.7996 135.828 26.4472 134.984 27.2243C134.345 27.82 133.195 28.5453 131.405 28.5453H124.145C123.761 28.5453 123.403 28.7785 123.25 29.1411C123.096 29.5037 123.148 29.9182 123.429 30.2031L129.206 36.5753C130.331 37.8705 130.485 38.0259 131.942 38.0259H136.339L130.868 32.1977L132.3 32.0941C137.899 31.6796 141.222 27.2502 141.069 23.3906L141.094 23.3647Z" fill="url(#paint11_linear_0_4)"/>
<path id="Vector_13" d="M317.239 23.3647C317.136 20.6967 315.27 17.8214 310.285 17.8214H296.019C295.278 17.8214 295.176 17.8991 294.997 18.5985L290.779 36.2904C290.625 36.8862 290.625 37.4042 290.83 37.6633C290.983 37.8705 291.341 38 291.827 38H294.869L298.806 21.4219H309.16C311.41 21.4219 312.432 22.9502 312.432 24.3749C312.432 25.7996 311.972 26.4472 311.128 27.2243C310.489 27.82 309.339 28.5453 307.549 28.5453H300.289C299.905 28.5453 299.547 28.7785 299.394 29.1411C299.241 29.5037 299.292 29.9182 299.573 30.2031L305.351 36.5753C306.476 37.8705 306.629 38.0259 308.086 38.0259H312.483L307.012 32.1977L308.444 32.0941C314.043 31.6796 317.366 27.2502 317.213 23.3906L317.239 23.3647Z" fill="url(#paint12_linear_0_4)"/>
<path id="Vector_14" d="M458.818 23.3647C458.716 20.6967 456.85 17.8214 451.865 17.8214H437.599C436.858 17.8214 436.756 17.8991 436.577 18.5985L432.358 36.2904C432.205 36.8862 432.205 37.4042 432.41 37.6633C432.563 37.8705 432.921 38 433.407 38H436.449L440.386 21.4219H450.74C452.99 21.4219 454.012 22.9502 454.012 24.3749C454.012 25.7996 453.552 26.4472 452.708 27.2243C452.069 27.82 450.919 28.5453 449.129 28.5453H441.869C441.485 28.5453 441.127 28.7785 440.974 29.1411C440.821 29.5037 440.872 29.9182 441.153 30.2031L446.931 36.5753C448.055 37.8705 448.209 38.0259 449.666 38.0259H454.063L448.592 32.1977L450.024 32.0941C455.623 31.6796 458.946 27.2502 458.793 23.3906L458.818 23.3647Z" fill="url(#paint13_linear_0_4)"/>
<g id="Group">
<path id="Vector_15" d="M181.999 34.3736H192.71L193.631 30.4881H186.294L186.83 28.0014C186.907 27.6646 187.035 27.3797 187.163 27.2502H187.188C187.188 27.2243 187.214 27.1725 187.214 27.1725C187.393 26.9393 187.648 26.7839 187.981 26.6544C188.109 26.6544 188.211 26.6285 188.313 26.6285H198.872L196.494 36.8344C196.417 37.1711 196.187 37.456 195.804 37.7669C195.574 37.9223 195.292 38 195.011 38H181.922" fill="url(#paint14_linear_0_4)"/>
<path id="Vector_16" d="M199.894 18.184C199.715 17.9509 199.434 17.8214 199.076 17.8214H186.958C181.411 17.8214 178.113 19.8937 176.86 24.9707L175.607 30.1772C175.224 31.9905 175.019 34.4772 176.323 36.135C177.295 37.3783 179.007 38 181.411 38H194.526C195.625 38 196.264 37.456 196.596 36.2386L197.031 34.3995H183.584C182.126 34.3995 181.129 34.0368 180.516 33.2856C179.953 32.5603 179.8 31.5501 180.081 30.1513L181.129 25.696C182.126 21.7328 186.319 21.4219 187.418 21.4219H199.434L199.971 19.2461C200.099 18.7798 200.048 18.4172 199.869 18.1581L199.894 18.184Z" fill="url(#paint15_linear_0_4)"/>
</g>
<path id="Vector_17" d="M483.821 18.184C483.642 17.9509 483.361 17.8214 483.003 17.8214H470.885C465.338 17.8214 462.04 19.8937 460.787 24.9707L459.534 30.1772C459.151 31.9905 458.946 34.4772 460.25 36.135C461.222 37.3783 462.934 38 465.338 38H465.849H478.938C479.22 38 479.501 37.9223 479.731 37.7669C480.114 37.4819 480.344 37.1711 480.421 36.8344L482.799 26.6285H472.24C472.138 26.6285 472.036 26.6285 471.908 26.6544C471.576 26.758 471.32 26.9393 471.141 27.1725V27.2243C471.115 27.2243 471.064 27.2502 471.064 27.2502C470.936 27.3797 470.809 27.6387 470.732 28.0014L470.195 30.4881H477.532L476.612 34.3736H467.281C465.951 34.3217 465.031 33.985 464.468 33.2856C463.906 32.5603 463.753 31.5501 464.034 30.1513L465.082 25.696C466.079 21.7328 470.272 21.4219 471.371 21.4219H483.387L483.924 19.2461C484.051 18.7798 484 18.4172 483.821 18.1581V18.184Z" fill="url(#paint16_linear_0_4)"/>
<path id="Vector_18" d="M284.004 18.7021C283.697 18.0804 283.543 17.7696 282.93 17.7696H279.837C279.274 17.7696 279.197 18.0286 278.737 18.5208C278.558 18.728 267.949 34.3476 265.494 38H269.38C270.096 38 270.301 38 270.786 37.3783C270.786 37.3783 272.806 34.4254 272.908 34.3217C273.062 34.1922 273.19 34.1663 273.292 34.1663H284.08L284.183 34.3217C284.234 34.3736 284.694 36.135 284.898 36.8862C285.129 37.8705 285.307 38 286.202 38H289.321C289.321 38 284.106 18.8834 284.029 18.7021H284.004ZM275.081 30.773L280.936 21.4738L283.339 30.7471H275.081V30.773Z" fill="url(#paint17_linear_0_4)"/>
<path id="Vector_19" d="M509.514 17.7696H505.143L495.223 27.6387L489.931 17.7955H486.173C485.815 17.7955 485.585 18.184 485.764 18.5208C487.298 21.3442 492.692 31.2393 492.692 31.2393L491.414 36.6012C491.363 36.8603 491.389 37.1193 491.491 37.3783C491.721 37.8187 492.053 38.0259 492.565 38.0259H495.684L497.294 31.2652L497.448 31.1097C497.448 31.1097 507.009 21.5256 509.923 18.6244C510.23 18.3136 510 17.7955 509.591 17.7955L509.514 17.7696Z" fill="url(#paint18_linear_0_4)"/>
<path id="Vector_20" d="M15.0323 13.9618C15.109 13.6769 15.288 13.3402 15.5948 13.0034C16.1316 12.4594 16.6941 12.2004 17.3332 12.2004H39.5493L42.1826 0H29.4767C11.9901 0 7.72069 3.16019 3.17008 23.287L0 37.9741H9.30573C9.30573 37.8964 9.30573 37.8446 9.33129 37.7669L15.0323 13.9359V13.9618Z" fill="var(--fill-0, #3AAA35)"/>
<path id="Vector_21" d="M18.637 22.5358H30.4481L29.1443 27.8718H17.3332L14.8789 37.9482C16.2595 37.9223 17.6144 37.8705 18.4836 37.8187C18.4836 37.8187 20.4266 37.7151 22.9831 37.2229V37.3006C24.2869 37.0675 25.4885 36.7307 26.5878 36.3163C26.7412 36.2645 26.9201 36.2127 27.0735 36.1609C27.0735 36.1609 28.4541 35.85 30.2948 34.244C32.2888 32.6639 33.8483 30.4622 35.2033 27.4056C36.3793 24.9707 37.4786 21.8364 38.3478 17.8732H19.7108L18.6115 22.5876L18.637 22.5358Z" fill="url(#paint19_linear_0_4)"/>
</g>
<defs>
<linearGradient id="paint0_linear_0_4" x1="26.8947" y1="25.0743" x2="466.36" y2="25.0743" gradientUnits="userSpaceOnUse">
<stop offset="0.2" stop-color="#154194"/>
<stop offset="0.4" stop-color="#0D6572"/>
<stop offset="0.7" stop-color="#00A13A"/>
</linearGradient>
<linearGradient id="paint1_linear_0_4" x1="26.8944" y1="27.9237" x2="466.36" y2="27.9237" gradientUnits="userSpaceOnUse">
<stop offset="0.2" stop-color="#154194"/>
<stop offset="0.4" stop-color="#0D6572"/>
<stop offset="0.7" stop-color="#00A13A"/>
</linearGradient>
<linearGradient id="paint2_linear_0_4" x1="26.8946" y1="27.8718" x2="466.36" y2="27.8718" gradientUnits="userSpaceOnUse">
<stop offset="0.2" stop-color="#154194"/>
<stop offset="0.4" stop-color="#0D6572"/>
<stop offset="0.7" stop-color="#00A13A"/>
</linearGradient>
<linearGradient id="paint3_linear_0_4" x1="26.8946" y1="27.8718" x2="466.36" y2="27.8718" gradientUnits="userSpaceOnUse">
<stop offset="0.2" stop-color="#154194"/>
<stop offset="0.4" stop-color="#0D6572"/>
<stop offset="0.7" stop-color="#00A13A"/>
</linearGradient>
<linearGradient id="paint4_linear_0_4" x1="26.8946" y1="27.8718" x2="466.36" y2="27.8718" gradientUnits="userSpaceOnUse">
<stop offset="0.2" stop-color="#154194"/>
<stop offset="0.4" stop-color="#0D6572"/>
<stop offset="0.7" stop-color="#00A13A"/>
</linearGradient>
<linearGradient id="paint5_linear_0_4" x1="26.8948" y1="27.8718" x2="466.36" y2="27.8718" gradientUnits="userSpaceOnUse">
<stop offset="0.2" stop-color="#154194"/>
<stop offset="0.4" stop-color="#0D6572"/>
<stop offset="0.7" stop-color="#00A13A"/>
</linearGradient>
<linearGradient id="paint6_linear_0_4" x1="26.8945" y1="27.8718" x2="466.36" y2="27.8718" gradientUnits="userSpaceOnUse">
<stop offset="0.2" stop-color="#154194"/>
<stop offset="0.4" stop-color="#0D6572"/>
<stop offset="0.7" stop-color="#00A13A"/>
</linearGradient>
<linearGradient id="paint7_linear_0_4" x1="26.8945" y1="27.8718" x2="466.36" y2="27.8718" gradientUnits="userSpaceOnUse">
<stop offset="0.2" stop-color="#154194"/>
<stop offset="0.4" stop-color="#0D6572"/>
<stop offset="0.7" stop-color="#00A13A"/>
</linearGradient>
<linearGradient id="paint8_linear_0_4" x1="26.8944" y1="27.8718" x2="466.36" y2="27.8718" gradientUnits="userSpaceOnUse">
<stop offset="0.2" stop-color="#154194"/>
<stop offset="0.4" stop-color="#0D6572"/>
<stop offset="0.7" stop-color="#00A13A"/>
</linearGradient>
<linearGradient id="paint9_linear_0_4" x1="26.8945" y1="25.0743" x2="466.36" y2="25.0743" gradientUnits="userSpaceOnUse">
<stop offset="0.2" stop-color="#154194"/>
<stop offset="0.4" stop-color="#0D6572"/>
<stop offset="0.7" stop-color="#00A13A"/>
</linearGradient>
<linearGradient id="paint10_linear_0_4" x1="26.8946" y1="27.8718" x2="466.36" y2="27.8718" gradientUnits="userSpaceOnUse">
<stop offset="0.2" stop-color="#154194"/>
<stop offset="0.4" stop-color="#0D6572"/>
<stop offset="0.7" stop-color="#00A13A"/>
</linearGradient>
<linearGradient id="paint11_linear_0_4" x1="26.8945" y1="27.8978" x2="466.36" y2="27.8978" gradientUnits="userSpaceOnUse">
<stop offset="0.2" stop-color="#154194"/>
<stop offset="0.4" stop-color="#0D6572"/>
<stop offset="0.7" stop-color="#00A13A"/>
</linearGradient>
<linearGradient id="paint12_linear_0_4" x1="26.8946" y1="27.8978" x2="466.36" y2="27.8978" gradientUnits="userSpaceOnUse">
<stop offset="0.2" stop-color="#154194"/>
<stop offset="0.4" stop-color="#0D6572"/>
<stop offset="0.7" stop-color="#00A13A"/>
</linearGradient>
<linearGradient id="paint13_linear_0_4" x1="26.8946" y1="27.8978" x2="466.36" y2="27.8978" gradientUnits="userSpaceOnUse">
<stop offset="0.2" stop-color="#154194"/>
<stop offset="0.4" stop-color="#0D6572"/>
<stop offset="0.7" stop-color="#00A13A"/>
</linearGradient>
<linearGradient id="paint14_linear_0_4" x1="26.8944" y1="32.3013" x2="466.36" y2="32.3013" gradientUnits="userSpaceOnUse">
<stop offset="0.2" stop-color="#154194"/>
<stop offset="0.4" stop-color="#0D6572"/>
<stop offset="0.7" stop-color="#00A13A"/>
</linearGradient>
<linearGradient id="paint15_linear_0_4" x1="26.8946" y1="27.8978" x2="466.36" y2="27.8978" gradientUnits="userSpaceOnUse">
<stop offset="0.2" stop-color="#154194"/>
<stop offset="0.4" stop-color="#0D6572"/>
<stop offset="0.7" stop-color="#00A13A"/>
</linearGradient>
<linearGradient id="paint16_linear_0_4" x1="26.8945" y1="27.8978" x2="466.36" y2="27.8978" gradientUnits="userSpaceOnUse">
<stop offset="0.2" stop-color="#154194"/>
<stop offset="0.4" stop-color="#0D6572"/>
<stop offset="0.7" stop-color="#00A13A"/>
</linearGradient>
<linearGradient id="paint17_linear_0_4" x1="26.8947" y1="27.8718" x2="466.36" y2="27.8718" gradientUnits="userSpaceOnUse">
<stop offset="0.2" stop-color="#154194"/>
<stop offset="0.4" stop-color="#0D6572"/>
<stop offset="0.7" stop-color="#00A13A"/>
</linearGradient>
<linearGradient id="paint18_linear_0_4" x1="26.8945" y1="27.8718" x2="466.36" y2="27.8718" gradientUnits="userSpaceOnUse">
<stop offset="0.2" stop-color="#154194"/>
<stop offset="0.4" stop-color="#0D6572"/>
<stop offset="0.7" stop-color="#00A13A"/>
</linearGradient>
<linearGradient id="paint19_linear_0_4" x1="26.8946" y1="27.8978" x2="466.36" y2="27.8978" gradientUnits="userSpaceOnUse">
<stop offset="0.2" stop-color="#154194"/>
<stop offset="0.4" stop-color="#0D6572"/>
<stop offset="0.7" stop-color="#00A13A"/>
</linearGradient>
<clipPath id="clip0_0_4">
<rect width="510" height="38" fill="white"/>
</clipPath>
</defs>
</svg>
