<svg width="56" height="56" viewBox="0 0 56 56" fill="none" xmlns="http://www.w3.org/2000/svg" aria-hidden="true">
  <path d="M39 43V47H21V43H39Z" stroke="#666666" stroke-width="2"/>
  <path d="M41 39V43H19V39H41Z" stroke="#666666" stroke-width="2"/>
  <path d="M30 5C21.1634 5 14 11.8936 14 20.3972C14 24.7687 15.8931 28.7147 18.9334 31.5174C19.7778 32.3728 21.2 33.4399 21.2 39" stroke="#666666" stroke-width="2" stroke-linecap="round" stroke-linejoin="round"/>
  <path d="M30 5C38.8366 5 46 11.8936 46 20.3972C46 24.7687 44.1069 28.7147 41.0666 31.5174C40.2222 32.3728 38.8 33.4399 38.8 39" stroke="#666666" stroke-width="2" stroke-linecap="round" stroke-linejoin="round"/>
  <g>
    <mask id="pillar-smart-mask" fill="white">
      <path d="M38 46C38 47.5913 37.1571 49.1174 35.6569 50.2426C34.1566 51.3679 32.1217 52 30 52C27.8783 52 25.8434 51.3679 24.3431 50.2426C22.8429 49.1174 22 47.5913 22 46L30 46H38Z"/>
    </mask>
    <path d="M38 46C38 47.5913 37.1571 49.1174 35.6569 50.2426C34.1566 51.3679 32.1217 52 30 52C27.8783 52 25.8434 51.3679 24.3431 50.2426C22.8429 49.1174 22 47.5913 22 46L30 46H38Z" stroke="#666666" stroke-width="4" mask="url(#pillar-smart-mask)"/>
  </g>
  <line x1="7.36603" y1="7.63397" x2="10.8301" y2="9.63398" stroke="#666666" stroke-width="2" stroke-linecap="round"/>
  <line x1="6" y1="14" x2="10" y2="14" stroke="#666666" stroke-width="2" stroke-linecap="round"/>
  <line x1="12.366" y1="3.36603" x2="14.366" y2="6.83013" stroke="#666666" stroke-width="2" stroke-linecap="round"/>
  <circle cx="30" cy="21" r="10" fill="#DDDDDD"/>
  <line x1="30" y1="24" x2="30" y2="40" stroke="#666666" stroke-width="2"/>
  <path d="M35 21C35 23.2091 32.7614 25 30 25C27.2386 25 25 23.2091 25 21" stroke="#666666" stroke-width="2" stroke-linecap="round"/>
</svg>
