<svg width="56" height="56" viewBox="0 0 56 56" fill="none" xmlns="http://www.w3.org/2000/svg">
<g clip-path="url(#clip0_4040_96681)">
<line x1="30.6602" y1="8.79413" x2="47.9807" y2="18.7941" stroke="#666666" stroke-width="2"/>
<mask id="path-2-inside-1_4040_96681" fill="white">
<path d="M43.8197 6C50.5158 9.86599 50.6834 22.1117 44.194 33.3516C40.5533 39.6575 35.5907 44.3071 30.753 46.4913C30.468 46.62 30.1391 46.5978 29.8683 46.4415L15.772 38.303C15.5013 38.1467 15.3175 37.8729 15.2865 37.5618C14.7593 32.28 16.3046 25.6575 19.9453 19.3516C26.4347 8.11172 37.1236 2.13401 43.8197 6Z"/>
</mask>
<path d="M15.2865 37.5618L17.2766 37.3631L15.2865 37.5618ZM30.753 46.4913L29.93 44.6685L30.753 46.4913ZM43.8197 6L42.8197 7.73205C45.3142 9.17225 46.8889 12.3576 46.9516 16.938C47.0136 21.4694 45.5578 26.9895 42.462 32.3516L44.194 33.3516L45.9261 34.3516C49.3196 28.4739 51.0247 22.2511 50.9512 16.8832C50.8784 11.5643 49.0213 6.69374 44.8197 4.26795L43.8197 6ZM44.194 33.3516L42.462 32.3516C38.9824 38.3784 34.3066 42.6924 29.93 44.6685L30.753 46.4913L31.576 48.3141C36.8748 45.9217 42.1242 40.9367 45.9261 34.3516L44.194 33.3516ZM29.8683 46.4415L30.8683 44.7094L16.772 36.5709L15.772 38.303L14.772 40.035L28.8683 48.1735L29.8683 46.4415ZM15.2865 37.5618L17.2766 37.3631C16.7996 32.5848 18.1978 26.3784 21.6774 20.3516L19.9453 19.3516L18.2133 18.3516C14.4114 24.9367 12.7189 31.9753 13.2964 37.7604L15.2865 37.5618ZM19.9453 19.3516L21.6774 20.3516C24.7732 14.9895 28.8258 10.9687 32.7812 8.75667C36.7792 6.52077 40.3252 6.29185 42.8197 7.73205L43.8197 6L44.8197 4.26795C40.6181 1.84216 35.4715 2.6691 30.8288 5.26552C26.1433 7.88584 21.6068 12.4739 18.2133 18.3516L19.9453 19.3516ZM15.772 38.303L16.772 36.5709C17.0338 36.722 17.2409 37.0052 17.2766 37.3631L15.2865 37.5618L13.2964 37.7604C13.3942 38.7406 13.9688 39.5713 14.772 40.035L15.772 38.303ZM30.753 46.4913L29.93 44.6685C30.2578 44.5205 30.6066 44.5583 30.8683 44.7094L29.8683 46.4415L28.8683 48.1735C29.6716 48.6373 30.6782 48.7195 31.576 48.3141L30.753 46.4913Z" fill="#666666" mask="url(#path-2-inside-1_4040_96681)"/>
<path d="M19.4282 24.25L11.7823 22.8269C11.3656 22.7493 10.9452 22.9429 10.7333 23.31L6.5 30.6423C6.22386 31.1206 6.38773 31.7322 6.86603 32.0083L15.9593 37.2583" stroke="#666666" stroke-width="2" stroke-linejoin="round"/>
<path d="M40.646 36.5L45.7014 42.41C45.9769 42.7321 46.0195 43.1929 45.8075 43.56L41.5742 50.8923C41.2981 51.3706 40.6865 51.5345 40.2082 51.2583L30.2489 45.5083" stroke="#666666" stroke-width="2" stroke-linejoin="round"/>
<line x1="16.491" y1="43.3387" x2="14.491" y2="46.8028" stroke="#666666" stroke-width="2" stroke-linecap="round"/>
<line x1="20.8192" y1="45.8387" x2="18.8192" y2="49.3028" stroke="#666666" stroke-width="2" stroke-linecap="round"/>
<line x1="25.1512" y1="48.3387" x2="23.1512" y2="51.8028" stroke="#666666" stroke-width="2" stroke-linecap="round"/>
<circle cx="33.8195" cy="23.3215" r="7.40433" transform="rotate(30 33.8195 23.3215)" fill="#DDDDDD"/>
<path d="M31.2405 22.1449L31.7225 25.3099L37.0005 23.4998" stroke="#666666" stroke-width="2" stroke-linecap="round" stroke-linejoin="round"/>
</g>
<defs>
<clipPath id="clip0_4040_96681">
<rect width="56" height="56" fill="white"/>
</clipPath>
</defs>
</svg>
