<svg width="72" height="72" viewBox="0 0 72 72" fill="none" xmlns="http://www.w3.org/2000/svg">
<circle cx="36.5" cy="30.5" r="12" fill="#DDDDDD"/>
<path d="M32.5 30.3636L35.5769 34L41.5 27" stroke="#666666" stroke-width="2" stroke-linecap="round" stroke-linejoin="round"/>
<path d="M33.7188 11.082C35.2694 9.58189 37.7306 9.5819 39.2812 11.082L39.8574 11.6396C41.1874 12.9263 43.0369 13.5266 44.8691 13.2676L45.6641 13.1553C47.8001 12.8534 49.7912 14.3 50.1641 16.4248L50.3027 17.2148C50.6225 19.0375 51.7648 20.6111 53.3994 21.4785L54.1084 21.8545C56.0142 22.8657 56.7747 25.2062 55.8271 27.1445L55.4746 27.8652C54.6621 29.5277 54.6621 31.4723 55.4746 33.1348L55.8271 33.8555C56.7747 35.7938 56.0142 38.1343 54.1084 39.1455L53.3994 39.5215C51.7648 40.3889 50.6225 41.9625 50.3027 43.7852L50.1641 44.5752C49.7912 46.7 47.8001 48.1466 45.6641 47.8447L44.8701 47.7324C43.0377 47.4732 41.1875 48.0736 39.8574 49.3604L39.2812 49.918C37.7306 51.4181 35.2694 51.4181 33.7188 49.918L33.1426 49.3604C31.8125 48.0736 29.9623 47.4732 28.1299 47.7324L27.3359 47.8447C25.1999 48.1466 23.2088 46.7 22.8359 44.5752L22.6973 43.7852C22.3775 41.9625 21.2352 40.3889 19.6006 39.5215L18.8916 39.1455C16.9858 38.1343 16.2253 35.7938 17.1729 33.8555L17.5254 33.1348C18.3379 31.4723 18.3379 29.5277 17.5254 27.8652L17.1729 27.1445C16.2253 25.2062 16.9858 22.8657 18.8916 21.8545L19.6006 21.4785C21.2352 20.6111 22.3775 19.0375 22.6973 17.2148L22.8359 16.4248C23.2088 14.3 25.1999 12.8534 27.3359 13.1553L28.1309 13.2676C29.9631 13.5266 31.8126 12.9263 33.1426 11.6396L33.7188 11.082Z" stroke="#666666" stroke-width="2"/>
<path d="M20.5007 48.4995L15.1989 59.7591C15.0229 60.1331 15.3507 60.547 15.755 60.4612L24.6099 58.583C24.8386 58.5345 25.0703 58.6509 25.1679 58.8632L28.2022 65.4643C28.3763 65.843 28.9102 65.8549 29.101 65.4844L34.501 55" stroke="#666666" stroke-width="2" stroke-linecap="round"/>
<path d="M53.5005 46.9976L59.4536 59.3143C59.6411 59.7022 59.283 60.1298 58.8682 60.0132L50.141 57.5608C49.8986 57.4927 49.6435 57.6153 49.5453 57.8471L46.5214 64.9875C46.3513 65.389 45.7846 65.3956 45.6052 64.9981L40.706 54.1419" stroke="#666666" stroke-width="2" stroke-linecap="round"/>
<line x1="24.6279" y1="58.6356" x2="26.6125" y2="55.1626" stroke="#666666" stroke-width="2" stroke-linecap="round"/>
<line x1="1" y1="-1" x2="5" y2="-1" transform="matrix(-0.496139 -0.868243 -0.868243 0.496139 50 59)" stroke="#666666" stroke-width="2" stroke-linecap="round"/>
</svg>
