<svg width="110" height="110" viewBox="0 0 110 110" fill="none" xmlns="http://www.w3.org/2000/svg">
<g opacity="0.7">
<path d="M11 1C16.5228 1 21 5.47715 21 11V57H1V11C1 5.47715 5.47715 1 11 1Z" stroke="white" stroke-width="2"/>
<path d="M11 1L76 1C81.5228 1 86 5.47715 86 11V47M21 10V99H49" stroke="white" stroke-width="2" stroke-linecap="round"/>
<mask id="path-3-inside-1_5565_130575" fill="white">
<rect x="29" y="17" width="12" height="12" rx="1"/>
</mask>
<rect x="29" y="17" width="12" height="12" rx="1" stroke="white" stroke-width="4" mask="url(#path-3-inside-1_5565_130575)"/>
<path d="M48 23H74" stroke="white" stroke-width="2" stroke-linecap="round"/>
<path d="M48 43H74" stroke="white" stroke-width="2" stroke-linecap="round"/>
<path d="M48 63H74" stroke="white" stroke-width="2" stroke-linecap="round"/>
<mask id="path-7-inside-2_5565_130575" fill="white">
<rect x="29" y="37" width="12" height="12" rx="1"/>
</mask>
<rect x="29" y="37" width="12" height="12" rx="1" stroke="white" stroke-width="4" mask="url(#path-7-inside-2_5565_130575)"/>
<mask id="path-8-inside-3_5565_130575" fill="white">
<rect x="29" y="57" width="12" height="12" rx="1"/>
</mask>
<rect x="29" y="57" width="12" height="12" rx="1" stroke="white" stroke-width="4" mask="url(#path-8-inside-3_5565_130575)"/>
</g>
<circle cx="81.9999" cy="82" r="28" fill="#E60040"/>
<path opacity="0.2" d="M65.4316 59.4258C62.0176 64.0664 60 69.798 60 76.001C60 91.465 72.536 104.001 88 104.001C94.1999 104.001 99.9279 101.984 104.567 98.5732C99.4703 105.502 91.261 109.999 82 109.999C66.536 109.999 54 97.463 54 81.999C54 72.7351 58.4994 64.5225 65.4316 59.4258Z" fill="black"/>
<path d="M71 82L78.0714 90L93 74" stroke="white" stroke-width="2" stroke-linecap="round" stroke-linejoin="round"/>
</svg>
