<svg width="110" height="110" viewBox="0 0 110 110" fill="none" xmlns="http://www.w3.org/2000/svg">
<g opacity="0.7">
<path d="M6 23C47.9948 23 62.0052 23 104 23" stroke="white" stroke-width="2"/>
<path d="M103 105V7H7V105H103Z" stroke="white" stroke-width="2"/>
</g>
<circle opacity="0.7" cx="16" cy="15" r="2" fill="white"/>
<circle opacity="0.7" cx="24" cy="15" r="2" fill="white"/>
<circle opacity="0.7" cx="32" cy="15" r="2" fill="white"/>
<path d="M0 39C0 38.4477 0.447715 38 1 38H109C109.552 38 110 38.4477 110 39V65C110 65.5523 109.552 66 109 66H0.999999C0.447714 66 0 65.5523 0 65L0 39Z" fill="#B80033"/>
<mask id="mask0_6272_50113" style="mask-type:alpha" maskUnits="userSpaceOnUse" x="0" y="38" width="110" height="28">
<path d="M0 39C0 38.4477 0.447715 38 1 38H109C109.552 38 110 38.4477 110 39V65C110 65.5523 109.552 66 109 66H0.999999C0.447714 66 0 65.5523 0 65L0 39Z" fill="#E60040"/>
</mask>
<g mask="url(#mask0_6272_50113)">
<rect x="-2" y="-68" width="146" height="146" rx="73" fill="#E60040"/>
</g>
<g clip-path="url(#clip0_6272_50113)">
<circle cx="92" cy="51" r="7" stroke="white" stroke-width="2"/>
<path d="M97.5 56.5L101 60" stroke="white" stroke-width="2" stroke-linecap="round"/>
</g>
<path d="M12 44V60" stroke="white" stroke-width="2" stroke-linecap="round"/>
<path opacity="0.7" d="M90 90H17" stroke="white" stroke-width="2" stroke-linecap="round"/>
<path opacity="0.7" d="M46 78H17" stroke="white" stroke-width="2" stroke-linecap="round"/>
<defs>
<clipPath id="clip0_6272_50113">
<rect width="18" height="18" fill="white" transform="translate(84 43)"/>
</clipPath>
</defs>
</svg>
