<svg width="110" height="110" viewBox="0 0 110 110" fill="none" xmlns="http://www.w3.org/2000/svg">
<g opacity="0.7">
<path d="M44 90L38 109" stroke="white" stroke-width="2"/>
<path d="M58 90L64 109" stroke="white" stroke-width="2"/>
<path d="M28 109H74" stroke="white" stroke-width="2"/>
<path d="M2 74C43.9948 74 58.0052 74 100 74" stroke="white" stroke-width="2"/>
<path d="M100 64V90H2V16H46.4126" stroke="white" stroke-width="2"/>
</g>
<circle cx="83" cy="27" r="27" fill="#E60040"/>
<path opacity="0.2" d="M67.1445 5.14062C63.909 9.59282 62 15.0713 62 20.9961C62 35.9078 74.0883 47.9961 89 47.9961C94.9247 47.9961 100.402 46.086 104.854 42.8506C99.9467 49.604 91.987 53.9961 83 53.9961C68.0883 53.9961 56 41.9078 56 26.9961C56 18.0092 60.3912 10.0484 67.1445 5.14062Z" fill="black"/>
<path d="M83 48C94.598 48 104 38.598 104 27C104 15.402 94.598 6 83 6C71.402 6 62 15.402 62 27" stroke="white" stroke-width="2" stroke-linecap="round"/>
<path d="M84 45L81 48L84 51" stroke="white" stroke-width="2" stroke-linecap="round" stroke-linejoin="round"/>
<path d="M71 35V33.3L75.08 28.94C75.88 28.0867 76.5067 27.4 76.96 26.88C77.4267 26.3467 77.76 25.88 77.96 25.48C78.1733 25.08 78.28 24.66 78.28 24.22C78.28 23.5 78.06 22.9467 77.62 22.56C77.18 22.16 76.6133 21.96 75.92 21.96C75.2 21.96 74.58 22.1667 74.06 22.58C73.54 22.98 73.18 23.5667 72.98 24.34L70.9 23.74C71.06 22.9533 71.38 22.2733 71.86 21.7C72.34 21.1133 72.9267 20.66 73.62 20.34C74.3267 20.02 75.0867 19.86 75.9 19.86C76.8467 19.86 77.6733 20.04 78.38 20.4C79.0867 20.7467 79.6333 21.2333 80.02 21.86C80.42 22.4867 80.62 23.2133 80.62 24.04C80.62 24.5867 80.5133 25.12 80.3 25.64C80.1 26.1467 79.7867 26.6867 79.36 27.26C78.9333 27.82 78.3867 28.4533 77.72 29.16L74.12 33H80.9V35H71ZM89.2378 35V31.64H82.1378V29.68L89.1378 20.1H91.4778V29.68H93.5378V31.64H91.4778V35H89.2378ZM83.8778 30.54L83.4978 29.68H89.2378V21.98L89.8778 22.18L83.8778 30.54Z" fill="white"/>
</svg>
