<svg width="111" height="111" viewBox="0 0 111 111" fill="none" xmlns="http://www.w3.org/2000/svg">
<g opacity="0.7">
<path d="M99 37V1H1L1 95L56 95" stroke="white" stroke-width="2"/>
<path d="M38 2V27.8393C38 28.6914 38.9976 29.1531 39.6472 28.6016L49.3528 20.3619C49.7261 20.045 50.2739 20.045 50.6472 20.3619L60.3528 28.6016C61.0024 29.1531 62 28.6914 62 27.8393V2" stroke="white" stroke-width="2"/>
</g>
<path d="M85 40C99.3594 40 111 52.4281 111 67.7588C111 84.1296 89.7386 105.435 85.6689 109.363C85.2923 109.727 84.7077 109.727 84.3311 109.363C80.2614 105.435 59.0001 84.1296 59 67.7588C59 52.4281 70.6406 40 85 40Z" fill="#B80033"/>
<mask id="mask0_5565_130555" style="mask-type:alpha" maskUnits="userSpaceOnUse" x="59" y="40" width="52" height="70">
<path d="M85 40C99.3594 40 111 52.4281 111 67.7588C111 84.1296 89.7386 105.435 85.6689 109.363C85.2923 109.727 84.7077 109.727 84.3311 109.363C80.2614 105.435 59.0001 84.1296 59 67.7588C59 52.4281 70.6406 40 85 40Z" fill="#E60040"/>
</mask>
<g mask="url(#mask0_5565_130555)">
<path d="M116 65.7586C116 82.1297 94.7381 103.435 90.6687 107.363C90.2921 107.727 89.7079 107.727 89.3313 107.363C85.2619 103.435 64 82.1296 64 65.7586C64 50.428 75.6406 38 90 38C104.359 38 116 50.428 116 65.7586Z" fill="#E60040"/>
</g>
<circle cx="85" cy="64" r="10" stroke="white" stroke-width="2"/>
</svg>
