<svg width="110" height="110" viewBox="0 0 110 110" fill="none" xmlns="http://www.w3.org/2000/svg">
<g opacity="0.7">
<path d="M92 21V109H54V21H92Z" stroke="white" stroke-width="2"/>
<path d="M82 81V109H64V81H82Z" stroke="white" stroke-width="2"/>
<path d="M54 73V109H16V73H54Z" stroke="white" stroke-width="2"/>
<path d="M54 33V73H24V33H54Z" stroke="white" stroke-width="2"/>
<path d="M48 81V89H22V81H48Z" stroke="white" stroke-width="2"/>
<path d="M86 13V21H60V13H86Z" stroke="white" stroke-width="2"/>
<path d="M109 45.6562V109H92V54.6035L109 45.6562Z" stroke="white" stroke-width="2"/>
<path d="M101 71V108" stroke="white" stroke-width="2" stroke-linecap="round"/>
<path d="M73 1V12.5" stroke="white" stroke-width="2" stroke-linecap="round"/>
<path d="M32 43H46" stroke="white" stroke-width="2" stroke-linecap="round"/>
<path d="M78 33H92" stroke="white" stroke-width="2" stroke-linecap="round"/>
<path d="M32 53H46" stroke="white" stroke-width="2" stroke-linecap="round"/>
<path d="M78 44H92" stroke="white" stroke-width="2" stroke-linecap="round"/>
<path d="M32 63H46" stroke="white" stroke-width="2" stroke-linecap="round"/>
<path d="M78 55H92" stroke="white" stroke-width="2" stroke-linecap="round"/>
<path d="M78 66H92" stroke="white" stroke-width="2" stroke-linecap="round"/>
</g>
<circle cx="25" cy="25" r="25" fill="#E60040"/>
<path opacity="0.2" d="M12.6426 3.26172C8.50608 8.0058 6 14.2085 6 20.9971C6 35.9088 18.0883 47.9971 33 47.9971C33.6654 47.9971 34.3251 47.9712 34.9785 47.9238C31.9216 49.2561 28.5476 49.9971 25 49.9971C11.1929 49.9971 0 38.8042 0 24.9971C0 15.6852 5.09196 7.5638 12.6426 3.26172Z" fill="black"/>
<path d="M25 34C25.8284 34 26.5 34.6716 26.5 35.5C26.5 36.3284 25.8284 37 25 37C24.1716 37 23.5 36.3284 23.5 35.5C23.5 34.6716 24.1716 34 25 34Z" stroke="white" stroke-width="2"/>
<path d="M21.4688 30.2545C22.426 29.2445 23.7484 28.6211 25.2091 28.6211C26.6685 28.6211 27.9923 29.2445 28.9495 30.2545" stroke="white" stroke-width="2" stroke-linecap="round"/>
<path d="M16 26C18.303 23.5277 21.4846 22 25 22C28.5154 22 31.697 23.5277 34 26" stroke="white" stroke-width="2" stroke-linecap="round"/>
<path d="M39 20C35.4174 16.2941 30.4673 14 25 14C19.5327 14 14.5826 16.2941 11 20" stroke="white" stroke-width="2" stroke-linecap="round"/>
</svg>
