<svg width="18" height="18" viewBox="0 0 18 18" fill="none" xmlns="http://www.w3.org/2000/svg">
<path d="M13.793 0.5L17.5 4.20703V17.5H4.5V0.5H13.793Z" stroke="#666666"/>
<path d="M13.5 1V5H17" stroke="#666666"/>
<rect y="8" width="13" height="6" fill="#E6252A"/>
<path d="M1.73926 9.21484H3.24316C3.50358 9.21484 3.73226 9.26611 3.9292 9.36865C4.12777 9.47119 4.28076 9.61686 4.38818 9.80566C4.49723 9.99447 4.55176 10.2118 4.55176 10.4575C4.55176 10.7065 4.49561 10.9238 4.3833 11.1094C4.27262 11.2933 4.11637 11.4357 3.91455 11.5366C3.71273 11.6375 3.47835 11.688 3.21143 11.688H2.30078V10.9604H3.03076C3.14632 10.9604 3.24561 10.9401 3.32861 10.8994C3.41162 10.8587 3.47428 10.8009 3.5166 10.7261C3.56055 10.6512 3.58252 10.5617 3.58252 10.4575C3.58252 10.3534 3.56055 10.2638 3.5166 10.189C3.47428 10.1141 3.41162 10.0571 3.32861 10.0181C3.24723 9.979 3.14795 9.95947 3.03076 9.95947H2.66699V12.75H1.73926V9.21484ZM5.29883 12.75V11.959H6.22656C6.41699 11.959 6.57406 11.9281 6.69775 11.8662C6.82308 11.8044 6.91829 11.7018 6.9834 11.5586C7.0485 11.4154 7.08105 11.2233 7.08105 10.9824C7.08105 10.7383 7.0485 10.5446 6.9834 10.4014C6.91829 10.2581 6.82145 10.1564 6.69287 10.0962C6.56429 10.036 6.40153 10.0059 6.20459 10.0059H5.28418V9.21484H6.24854C6.61149 9.21484 6.92562 9.28564 7.19092 9.42725C7.45785 9.56885 7.66211 9.7723 7.80371 10.0376C7.94694 10.3029 8.01855 10.6178 8.01855 10.9824C8.01855 11.347 7.94694 11.6619 7.80371 11.9272C7.66211 12.1925 7.45866 12.396 7.19336 12.5376C6.92969 12.6792 6.61882 12.75 6.26074 12.75H5.29883ZM5.8457 12.75H4.91797V9.21484H5.8457V12.75ZM8.47266 9.21484H10.936V9.96436H9.40039V10.6064H10.7847V11.356H9.40039V12.75H8.47266V9.21484Z" fill="white"/>
</svg>
