<svg width="24" height="24" viewBox="0 0 24 24" fill="none" xmlns="http://www.w3.org/2000/svg">
<g opacity="0.4" clip-path="url(#clip0_5601_126292)">
<mask id="path-1-inside-1_5601_126292" fill="white">
<path d="M11.6701 10.0271C11.8728 10.4352 12.2892 10.6934 12.7449 10.6934H21.8C22.4627 10.6934 23 11.2306 23 11.8934V21.8C23 22.4627 22.4627 23 21.8 23H2.2C1.53726 23 1 22.4627 1 21.8V8.2C1 7.53726 1.53726 7 2.2 7H9.42307C9.87878 7 10.2952 7.25814 10.4979 7.6663L11.6701 10.0271Z"/>
</mask>
<path d="M10.4979 7.6663L11.8413 6.99918L10.4979 7.6663ZM11.6701 10.0271L10.3266 10.6942L11.6701 10.0271ZM12.7449 10.6934V12.1934H21.8V10.6934V9.19336H12.7449V10.6934ZM23 11.8934H21.5V21.8H23H24.5V11.8934H23ZM21.8 23V21.5H2.2V23V24.5H21.8V23ZM1 21.8H2.5V8.2H1H-0.5V21.8H1ZM2.2 7V8.5H9.42307V7V5.5H2.2V7ZM10.4979 7.6663L9.15437 8.33342L10.3266 10.6942L11.6701 10.0271L13.0136 9.35994L11.8413 6.99918L10.4979 7.6663ZM9.42307 7V8.5C9.30914 8.5 9.20504 8.43547 9.15437 8.33342L10.4979 7.6663L11.8413 6.99918C11.3853 6.08081 10.4484 5.5 9.42307 5.5V7ZM1 8.2H2.5C2.5 8.36569 2.36569 8.5 2.2 8.5V7V5.5C0.708832 5.5 -0.5 6.70883 -0.5 8.2H1ZM2.2 23V21.5C2.36569 21.5 2.5 21.6343 2.5 21.8H1H-0.5C-0.5 23.2912 0.708832 24.5 2.2 24.5V23ZM23 21.8H21.5C21.5 21.6343 21.6343 21.5 21.8 21.5V23V24.5C23.2912 24.5 24.5 23.2912 24.5 21.8H23ZM21.8 10.6934V12.1934C21.6343 12.1934 21.5 12.059 21.5 11.8934H23H24.5C24.5 10.4022 23.2912 9.19336 21.8 9.19336V10.6934ZM12.7449 10.6934V9.19336C12.8588 9.19336 12.9629 9.25789 13.0136 9.35994L11.6701 10.0271L10.3266 10.6942C10.7827 11.6126 11.7195 12.1934 12.7449 12.1934V10.6934Z" fill="white" mask="url(#path-1-inside-1_5601_126292)"/>
<path d="M5 19L9 19" stroke="white" stroke-width="1.5" stroke-linecap="round"/>
<path d="M19 11V2.2C19 1.53726 18.4627 1 17.8 1H6.2C5.53726 1 5 1.53726 5 2.2V7.5" stroke="white" stroke-width="1.5"/>
</g>
<defs>
<clipPath id="clip0_5601_126292">
<rect width="24" height="24" fill="white"/>
</clipPath>
</defs>
</svg>
