<svg width="18" height="18" viewBox="0 0 18 18" fill="none" xmlns="http://www.w3.org/2000/svg">
<g clip-path="url(#clip0_5644_40143)">
<mask id="mask0_5644_40143" style="mask-type:luminance" maskUnits="userSpaceOnUse" x="0" y="0" width="18" height="18">
<path d="M17.6676 7.36364H9.28125V10.8409H14.1085C13.6585 13.05 11.7767 14.3182 9.28125 14.3182C6.3358 14.3182 3.96307 11.9455 3.96307 9C3.96307 6.05455 6.3358 3.68182 9.28125 3.68182C10.5494 3.68182 11.6949 4.13182 12.5949 4.86818L15.2131 2.25C13.6176 0.859091 11.5722 0 9.28125 0C4.29034 0 0.28125 4.00909 0.28125 9C0.28125 13.9909 4.29034 18 9.28125 18C13.7813 18 17.8722 14.7273 17.8722 9C17.8722 8.46818 17.7903 7.89546 17.6676 7.36364Z" fill="white"/>
</mask>
<g mask="url(#mask0_5644_40143)">
<path d="M-0.537109 14.3161V3.67969L6.41744 8.99787L-0.537109 14.3161Z" fill="#FBBC05"/>
</g>
<mask id="mask1_5644_40143" style="mask-type:luminance" maskUnits="userSpaceOnUse" x="0" y="0" width="18" height="18">
<path d="M17.6676 7.36364H9.28125V10.8409H14.1085C13.6585 13.05 11.7767 14.3182 9.28125 14.3182C6.3358 14.3182 3.96307 11.9455 3.96307 9C3.96307 6.05455 6.3358 3.68182 9.28125 3.68182C10.5494 3.68182 11.6949 4.13182 12.5949 4.86818L15.2131 2.25C13.6176 0.859091 11.5722 0 9.28125 0C4.29034 0 0.28125 4.00909 0.28125 9C0.28125 13.9909 4.29034 18 9.28125 18C13.7813 18 17.8722 14.7273 17.8722 9C17.8722 8.46818 17.7903 7.89546 17.6676 7.36364Z" fill="white"/>
</mask>
<g mask="url(#mask1_5644_40143)">
<path d="M-0.537109 3.67969L6.41744 8.99787L9.28108 6.50242L19.0993 4.90696V-0.820312H-0.537109V3.67969Z" fill="#EA4335"/>
</g>
<mask id="mask2_5644_40143" style="mask-type:luminance" maskUnits="userSpaceOnUse" x="0" y="0" width="18" height="18">
<path d="M17.6676 7.36364H9.28125V10.8409H14.1085C13.6585 13.05 11.7767 14.3182 9.28125 14.3182C6.3358 14.3182 3.96307 11.9455 3.96307 9C3.96307 6.05455 6.3358 3.68182 9.28125 3.68182C10.5494 3.68182 11.6949 4.13182 12.5949 4.86818L15.2131 2.25C13.6176 0.859091 11.5722 0 9.28125 0C4.29034 0 0.28125 4.00909 0.28125 9C0.28125 13.9909 4.29034 18 9.28125 18C13.7813 18 17.8722 14.7273 17.8722 9C17.8722 8.46818 17.7903 7.89546 17.6676 7.36364Z" fill="white"/>
</mask>
<g mask="url(#mask2_5644_40143)">
<path d="M-0.537109 14.3161L11.7356 4.90696L14.9674 5.31605L19.0993 -0.820312V18.8161H-0.537109V14.3161Z" fill="#34A853"/>
</g>
<mask id="mask3_5644_40143" style="mask-type:luminance" maskUnits="userSpaceOnUse" x="0" y="0" width="18" height="18">
<path d="M17.6676 7.36364H9.28125V10.8409H14.1085C13.6585 13.05 11.7767 14.3182 9.28125 14.3182C6.3358 14.3182 3.96307 11.9455 3.96307 9C3.96307 6.05455 6.3358 3.68182 9.28125 3.68182C10.5494 3.68182 11.6949 4.13182 12.5949 4.86818L15.2131 2.25C13.6176 0.859091 11.5722 0 9.28125 0C4.29034 0 0.28125 4.00909 0.28125 9C0.28125 13.9909 4.29034 18 9.28125 18C13.7813 18 17.8722 14.7273 17.8722 9C17.8722 8.46818 17.7903 7.89546 17.6676 7.36364Z" fill="white"/>
</mask>
<g mask="url(#mask3_5644_40143)">
<path d="M19.0994 18.8161L6.41761 8.99787L4.78125 7.7706L19.0994 3.67969V18.8161Z" fill="#4285F4"/>
</g>
</g>
<defs>
<clipPath id="clip0_5644_40143">
<rect width="18" height="18" fill="white"/>
</clipPath>
</defs>
</svg>
