<svg width="24" height="24" viewBox="0 0 24 24" fill="none" xmlns="http://www.w3.org/2000/svg">
<g clip-path="url(#clip0_5601_125729)">
<mask id="path-1-inside-1_5601_125729" fill="white">
<path d="M11.7253 10.1381C11.8942 10.4782 12.2412 10.6934 12.6209 10.6934H22C22.5523 10.6934 23 11.1411 23 11.6934V22C23 22.5523 22.5523 23 22 23H2C1.44772 23 1 22.5523 1 22V8C1 7.44772 1.44772 7 2 7H9.54705C9.92682 7 10.2738 7.21511 10.4427 7.55525L11.7253 10.1381Z"/>
</mask>
<path d="M12.6209 10.6934V12.1934H22V10.6934V9.19336H12.6209V10.6934ZM23 11.6934H21.5V22H23H24.5V11.6934H23ZM22 23V21.5H2V23V24.5H22V23ZM1 22H2.5V8H1H-0.5V22H1ZM2 7V8.5H9.54705V7V5.5H2V7ZM10.4427 7.55525L9.09923 8.22237L10.3818 10.8052L11.7253 10.1381L13.0687 9.47099L11.7862 6.88813L10.4427 7.55525ZM9.54705 7V8.5C9.35717 8.5 9.18368 8.39244 9.09923 8.22237L10.4427 7.55525L11.7862 6.88813C11.3639 6.03778 10.4965 5.5 9.54705 5.5V7ZM1 8H2.5C2.5 8.27614 2.27614 8.5 2 8.5V7V5.5C0.619288 5.5 -0.5 6.61929 -0.5 8H1ZM2 23V21.5C2.27614 21.5 2.5 21.7239 2.5 22H1H-0.5C-0.5 23.3807 0.619289 24.5 2 24.5V23ZM23 22H21.5C21.5 21.7239 21.7239 21.5 22 21.5V23V24.5C23.3807 24.5 24.5 23.3807 24.5 22H23ZM22 10.6934V12.1934C21.7239 12.1934 21.5 11.9695 21.5 11.6934H23H24.5C24.5 10.3126 23.3807 9.19336 22 9.19336V10.6934ZM12.6209 10.6934V9.19336C12.8108 9.19336 12.9843 9.30092 13.0687 9.47099L11.7253 10.1381L10.3818 10.8052C10.804 11.6556 11.6715 12.1934 12.6209 12.1934V10.6934Z" fill="#0F1F45" mask="url(#path-1-inside-1_5601_125729)"/>
<path d="M5 19L9 19" stroke="#0F1F45" stroke-width="1.5" stroke-linecap="round"/>
<path d="M19 11V2.2C19 1.53726 18.4627 1 17.8 1H6.2C5.53726 1 5 1.53726 5 2.2V7.5" stroke="#E60040" stroke-width="1.5"/>
</g>
<defs>
<clipPath id="clip0_5601_125729">
<rect width="24" height="24" fill="white"/>
</clipPath>
</defs>
</svg>
