<svg width="16" height="16" viewBox="0 0 16 16" fill="none" xmlns="http://www.w3.org/2000/svg" aria-hidden="true">
  <path d="M12.0844 8.92376L14.4476 11.2073C14.57 11.3255 14.6237 11.498 14.5572 11.6545C14.346 12.1521 13.6669 13.2147 11.6763 13.4241C9.05793 13.6997 7.12614 12.3644 5.32918 10.5675C3.53222 8.7705 2.19725 6.83941 2.47282 4.22101C2.67911 2.26095 3.62541 1.54624 4.08822 1.31076C4.24194 1.23254 4.41984 1.27954 4.54372 1.39953L6.94059 3.72105C7.26144 4.03181 7.02465 4.70978 6.73116 5.04651C6.55231 5.2517 6.42244 5.54467 6.41788 5.96295C6.40283 7.34393 8.45209 9.3932 9.83307 9.37815C10.3325 9.3727 10.6773 9.22692 10.9141 9.04302C11.2293 8.79813 11.7973 8.64637 12.0844 8.92376Z" fill="#666666"/>
</svg>
