<svg width="24" height="24" viewBox="0 0 24 24" fill="none" xmlns="http://www.w3.org/2000/svg">
<g opacity="0.4">
<path d="M5.71277 11.25C6.12692 11.2501 6.46277 11.5858 6.46277 12C6.46277 12.4142 6.12692 12.7499 5.71277 12.75H3.49304L3.01648 15.0215L6.44519 17.1074C6.79905 17.3227 6.91489 17.7861 6.70398 18.1426C6.49303 18.499 6.03539 18.6137 5.68152 18.3984L2.69031 16.5791L1.92273 20.25H7.72253L20.6102 14.8066C20.7126 14.7634 20.8189 14.7458 20.9227 14.749L20.5048 12.75H18.285C17.8708 12.75 17.535 12.4142 17.535 12C17.535 11.5858 17.8708 11.25 18.285 11.25H20.6259C21.2247 11.2501 21.747 11.6436 21.9178 12.208L21.9471 12.3232L23.5819 20.123C23.7576 20.9616 23.1173 21.7496 22.2606 21.75H1.73718C0.880459 21.7497 0.240187 20.9616 0.415891 20.123L2.05066 12.3232L2.07995 12.208C2.25084 11.6436 2.77301 11.25 3.37195 11.25H5.71277ZM21.1805 16.1934L11.578 20.25H22.0751L21.2216 16.1729C21.2079 16.1796 21.1947 16.1874 21.1805 16.1934Z" fill="white"/>
<circle cx="11.5" cy="7" r="1.5" stroke="white" stroke-width="1.8"/>
<path d="M11.5 1.40039C13.0086 1.40039 14.4418 1.95132 15.4873 2.91211C16.5303 3.87056 17.0996 5.15382 17.0996 6.47363C17.0995 7.93873 16.2401 9.67039 15.04 11.3311C13.8646 12.9576 12.4738 14.367 11.6367 15.1592C11.592 15.2015 11.5436 15.2168 11.5 15.2168C11.4564 15.2168 11.408 15.2015 11.3633 15.1592C10.5262 14.367 9.13537 12.9576 7.95996 11.3311C6.75992 9.67039 5.90051 7.93873 5.90039 6.47363C5.90039 5.15382 6.46974 3.87056 7.5127 2.91211C8.5582 1.95132 9.9914 1.40039 11.5 1.40039Z" stroke="white" stroke-width="1.8"/>
</g>
</svg>
