<svg width="14" height="14" viewBox="0 0 22 22" fill="none" xmlns="http://www.w3.org/2000/svg">
<path d="M19.1567 9.5C18.8661 7.87924 18.1085 6.36611 16.9613 5.15494C15.466 3.57617 13.4225 2.63052 11.2512 2.51253C9.07994 2.39454 6.946 3.1132 5.28842 4.52064C4.4646 5.22014 3.78959 6.06334 3.29004 7M16.4996 8.5L19.1567 9.5L20.4996 7" stroke="#666666" stroke-width="2" stroke-linecap="round" stroke-linejoin="round"/>
<path d="M2.92342 12.5C3.21401 14.1208 3.97158 15.6339 5.11873 16.8451C6.61404 18.4238 8.65755 19.3695 10.8288 19.4875C13.0001 19.6055 15.1341 18.8868 16.7917 17.4794C17.6155 16.7799 18.2905 15.9367 18.79 15M5.58043 13.5L2.92342 12.5L1.58043 15" stroke="#666666" stroke-width="2" stroke-linecap="round" stroke-linejoin="round"/>
</svg>
