<svg width="24" height="24" viewBox="0 0 24 24" fill="none" xmlns="http://www.w3.org/2000/svg">
<g clip-path="url(#clip0_2483_63495)">
<circle cx="12" cy="12" r="11" stroke="#222222" stroke-width="2"/>
<path d="M11.998 1.0625C12.1365 1.16366 12.3263 1.33679 12.5537 1.59863C13.0152 2.13003 13.5569 2.9357 14.0752 3.96484C15.1113 6.02193 16 8.86838 16 12C16 15.1316 15.1113 17.9781 14.0752 20.0352C13.5569 21.0643 13.0152 21.87 12.5537 22.4014C12.3266 22.6629 12.1365 22.8353 11.998 22.9365C11.8599 22.836 11.6707 22.6646 11.4443 22.4053C10.9834 21.8772 10.4418 21.0759 9.92383 20.0498C8.88849 17.9989 8 15.1519 8 12C8 8.84808 8.88849 6.00115 9.92383 3.9502C10.4418 2.92411 10.9834 2.12276 11.4443 1.59473C11.6709 1.33514 11.8599 1.16298 11.998 1.0625Z" stroke="#222222" stroke-width="2"/>
<path d="M1 12H23" stroke="#222222" stroke-width="2"/>
</g>
<defs>
<clipPath id="clip0_2483_63495">
<rect width="24" height="24" fill="white"/>
</clipPath>
</defs>
</svg>
