<svg width="14" height="14" viewBox="0 0 14 14" fill="none" xmlns="http://www.w3.org/2000/svg">
<path d="M1 0.75H13C13.1381 0.75 13.25 0.861929 13.25 1V1.31152C13.2499 1.37372 13.2265 1.43354 13.1846 1.47949L9.04199 6.00586C8.74689 6.32845 8.58301 6.75028 8.58301 7.1875V12.9814C8.58291 13.1743 8.37366 13.2945 8.20703 13.1973L5.54102 11.6416C5.46425 11.5968 5.41704 11.5146 5.41699 11.4258V7.1875C5.41699 6.75028 5.25311 6.32845 4.95801 6.00586L0.81543 1.47949C0.77351 1.43354 0.7501 1.37372 0.75 1.31152V1C0.75 0.861929 0.861928 0.75 1 0.75Z" stroke="#222222" stroke-width="1.5"/>
</svg>
