<svg width="80" height="80" viewBox="0 0 80 80" fill="none" xmlns="http://www.w3.org/2000/svg">
  <circle cx="40" cy="40" r="39.5" fill="#fff" stroke="#DDD"/>
  <path d="M26.4839 34L21 37.8269M26.4839 34V44.6177C26.4839 48.2817 26.4839 50.336 26.4839 54H36M26.4839 34L28.5 32.5M51.5161 34L39 25L34 28.5M51.5161 34L57 37.8269M51.5161 34V37.7619M28.5 32.5V26H34V28.5M28.5 32.5L34 28.5" stroke="#0F1F45" stroke-width="1.5" stroke-linecap="round" stroke-linejoin="round"/>
  <path d="M49 54L55 54C57.2091 54 59 52.2091 59 50C59 47.7909 57.2091 46 55 46H49.5" stroke="#E60040" stroke-width="1.5" stroke-linecap="round"/>
  <path d="M52 42L49 46L52 50" stroke="#E60040" stroke-width="1.5" stroke-linecap="round" stroke-linejoin="round"/>
  <path d="M45 54L45 49.5C45 47.0147 42.9853 45 40.5 45C38.0147 45 36 47.0147 36 49.5L36 54" stroke="#0F1F45" stroke-width="1.5" stroke-linecap="round"/>
</svg>
