<svg width="24" height="24" viewBox="0 0 24 24" fill="none" xmlns="http://www.w3.org/2000/svg">
<g opacity="0.4">
<path d="M17 2.25C17.4142 2.25 17.75 2.58579 17.75 3V4.5H22L22.1025 4.50488C22.573 4.55278 22.9472 4.92703 22.9951 5.39746L23 5.5V21.5C23 22.0177 22.6067 22.4438 22.1025 22.4951L22 22.5H2C1.48232 22.5 1.05621 22.1067 1.00488 21.6025L1 21.5V5.5L1.00488 5.39746C1.05622 4.89333 1.48232 4.5 2 4.5H6.25V3C6.25 2.58579 6.58579 2.25 7 2.25C7.41421 2.25 7.75 2.58579 7.75 3V4.5H16.25V3C16.25 2.58579 16.5858 2.25 17 2.25ZM2.5 21H21.5V6H17.75V7C17.75 7.41421 17.4142 7.75 17 7.75C16.5858 7.75 16.25 7.41421 16.25 7V6H7.75V7C7.75 7.41421 7.41421 7.75 7 7.75C6.58579 7.75 6.25 7.41421 6.25 7V6H2.5V21Z" fill="white"/>
<path d="M7 17.5L11 17.5" stroke="white" stroke-width="1.5" stroke-linecap="round"/>
<path d="M2 10L22 10" stroke="white" stroke-width="1.5" stroke-linecap="round"/>
<path d="M7 13.5L9 13.5" stroke="white" stroke-width="1.5" stroke-linecap="round"/>
</g>
</svg>
