<svg width="18" height="18" viewBox="0 0 18 18" fill="none" xmlns="http://www.w3.org/2000/svg">
<g opacity="0.3">
<path d="M9 0C10.7239 8.15981e-08 12.3777 0.707529 13.5967 1.96777C14.8156 3.22795 15.4999 4.93757 15.5 6.71973C15.5 10.7571 11.3285 15.5644 9.66895 17.3174C9.30017 17.7069 8.69983 17.7069 8.33105 17.3174C6.67151 15.5644 2.5 10.7571 2.5 6.71973C2.50007 4.93757 3.1844 3.22795 4.40332 1.96777C5.62231 0.707529 7.27609 0 9 0ZM9 4C7.61929 4 6.5 5.11929 6.5 6.5C6.5 7.88071 7.61929 9 9 9C10.3807 9 11.5 7.88071 11.5 6.5C11.5 5.11929 10.3807 4 9 4Z" fill="#0C1625"/>
</g>
</svg>
