<svg width="70" height="70" viewBox="0 0 70 70" fill="none" xmlns="http://www.w3.org/2000/svg">
  <path d="M36 32.8667V22.5C36 20.567 34.433 19 32.5 19C30.567 19 29 20.567 29 22.5V45" stroke="#fff" stroke-width="2" stroke-linecap="round"/>
  <path d="M29 36L20.6896 42.2328C18.7423 43.6933 18.54 46.54 20.2612 48.2612L37 65" stroke="#fff" stroke-width="2" stroke-linecap="round" stroke-linejoin="round"/>
  <path d="M36 33L51.3964 39.6485C51.7628 39.8067 52 40.1675 52 40.5665V52" stroke="#fff" stroke-width="2" stroke-linecap="round" stroke-linejoin="round"/>
  <path d="M9 23.5H3" stroke="#fff" stroke-width="2" stroke-linecap="round"/>
  <path d="M3 17.5V23.5" stroke="#fff" stroke-width="2" stroke-linecap="round"/>
  <path d="M67 23.5H61" stroke="#fff" stroke-width="2" stroke-linecap="round"/>
  <path d="M67 17.5V23.5" stroke="#fff" stroke-width="2" stroke-linecap="round"/>
  <path d="M4 23C9.94195 12.2833 21.5958 5 35 5C48.4042 5 60.058 12.2833 66 23" stroke="#fff" stroke-width="2" stroke-linecap="round"/>
</svg>
