<svg width="22" height="22" viewBox="0 0 22 22" fill="none" xmlns="http://www.w3.org/2000/svg">
<path d="M19.1557 9.5C18.8651 7.87924 18.1075 6.36611 16.9604 5.15494C15.4651 3.57617 13.4216 2.63052 11.2503 2.51253C9.07897 2.39454 6.94502 3.1132 5.28745 4.52064C4.46363 5.22014 3.78861 6.06334 3.28906 7M16.4987 8.5L19.1557 9.5L20.4987 7" stroke="#222222" stroke-width="1.5" stroke-linecap="round" stroke-linejoin="round"/>
<path d="M2.92244 12.5C3.21303 14.1208 3.9706 15.6339 5.11775 16.8451C6.61306 18.4238 8.65657 19.3695 10.8279 19.4875C12.9992 19.6055 15.1331 18.8868 16.7907 17.4794C17.6145 16.7799 18.2895 15.9367 18.7891 15M5.57945 13.5L2.92244 12.5L1.57945 15" stroke="#222222" stroke-width="1.5" stroke-linecap="round" stroke-linejoin="round"/>
</svg>
