<svg width="14" height="14" viewBox="0 0 14 14" fill="none" xmlns="http://www.w3.org/2000/svg" aria-hidden="true">
  <path d="M7 0.5C8.26035 0.5 9.46878 0.998282 10.3594 1.88477C11.2499 2.77134 11.75 3.97373 11.75 5.22656C11.75 6.60058 11.0234 8.16544 10.0645 9.61328C9.11628 11.0448 7.99151 12.2872 7.29785 13.002C7.1308 13.1741 6.8692 13.1741 6.70215 13.002C6.00849 12.2872 4.88372 11.0448 3.93555 9.61328C2.97656 8.16544 2.25 6.60058 2.25 5.22656C2.25003 3.97373 2.7501 2.77134 3.64062 1.88477C4.53122 0.998283 5.73965 0.5 7 0.5Z" stroke="#0F1F45"/>
  <circle cx="7" cy="5" r="1.5" stroke="#0F1F45"/>
</svg>
