<svg width="110" height="110" viewBox="0 0 110 110" fill="none" xmlns="http://www.w3.org/2000/svg">
<g opacity="0.7">
<path d="M44 90L38 109" stroke="white" stroke-width="2"/>
<path d="M58 90L64 109" stroke="white" stroke-width="2"/>
<path d="M28 109H74" stroke="white" stroke-width="2"/>
<path d="M2 74C43.9948 74 58.0052 74 100 74" stroke="white" stroke-width="2"/>
<path d="M100 58.5643V90H2V16H46.4126" stroke="white" stroke-width="2"/>
</g>
<path d="M86.2258 2C87.3302 2.00019 88.2258 2.89555 88.2258 4V8.15723C91.2617 9.16103 94.0169 10.7805 96.3449 12.8672L100.023 10.7578C100.977 10.2102 102.196 10.5364 102.748 11.4883L107.975 20.4951C108.531 21.4534 108.202 22.6815 107.241 23.2334L103.532 25.3633C103.839 26.8606 104 28.4111 104 29.999C104 31.5843 103.839 33.1319 103.533 34.627L107.258 36.7666C108.219 37.3185 108.548 38.5466 107.991 39.5049L102.765 48.5117C102.212 49.4635 100.995 49.7896 100.04 49.2422L96.3498 47.125C94.025 49.2101 91.2739 50.828 88.2424 51.833V56C88.2424 57.1045 87.3469 58 86.2424 58H75.7746C74.6701 58 73.7746 57.1046 73.7746 56V51.8389C70.7392 50.8352 67.9843 49.2171 65.6565 47.1309L61.9768 49.2422C61.0222 49.7897 59.8047 49.4634 59.2522 48.5117L54.0246 39.5049C53.4687 38.5466 53.7983 37.3185 54.759 36.7666L58.467 34.6357C58.1605 33.1381 58.0002 31.5873 58.0002 29.999C58.0002 28.4142 58.1598 26.8667 58.4651 25.3721L54.7414 23.2334C53.7808 22.6814 53.452 21.4534 54.008 20.4951L59.2356 11.4883C59.7881 10.5367 61.0056 10.2103 61.9602 10.7578L65.6477 12.873C67.9728 10.7873 70.7249 9.16833 73.7571 8.16309V4C73.7571 2.89559 74.6527 2.00025 75.7571 2H86.2258Z" fill="#E60040"/>
<path opacity="0.2" d="M59.2355 11.4881C59.788 10.5365 61.0055 10.2102 61.9601 10.7577L65.3693 12.7127C64.19 15.9311 63.547 19.408 63.547 23.035C63.547 37.7932 74.2042 50.0613 88.2423 52.5663V55.9998C88.2421 57.1042 87.3467 57.9997 86.2423 57.9998H75.7746C74.6701 57.9998 73.7747 57.1043 73.7746 55.9998V51.8387C70.7393 50.8351 67.9841 49.2168 65.6564 47.1307L61.9767 49.242C61.0222 49.7895 59.8047 49.463 59.2521 48.5116L54.0246 39.5047C53.4686 38.5465 53.7983 37.3183 54.7589 36.7665L58.4669 34.6356C58.1604 33.1381 58.0002 31.587 58.0001 29.9989C58.0001 28.4142 58.1598 26.8664 58.465 25.3719L54.7414 23.2332C53.7808 22.6813 53.4521 21.4532 54.008 20.495L59.2355 11.4881Z" fill="black"/>
<path d="M81 41C87.0751 41 92 36.0751 92 30C92 23.9249 87.0751 19 81 19C74.9249 19 70 23.9249 70 30C70 36.0751 74.9249 41 81 41Z" stroke="white" stroke-width="2" stroke-miterlimit="10" stroke-linecap="round" stroke-linejoin="round"/>
</svg>
