<svg width="110" height="110" viewBox="0 0 110 110" fill="none" xmlns="http://www.w3.org/2000/svg">
<g opacity="0.7">
<path d="M96 36C101.523 36 106 31.5228 106 26C106 20.4772 101.523 16 96 16C90.4772 16 86 20.4772 86 26C86 31.5228 90.4772 36 96 36Z" stroke="white" stroke-width="2" stroke-miterlimit="10"/>
<path d="M55 108C60.5228 108 65 103.523 65 98C65 92.4772 60.5228 88 55 88C49.4772 88 45 92.4772 45 98C45 103.523 49.4772 108 55 108Z" stroke="white" stroke-width="2" stroke-miterlimit="10"/>
<path d="M14 36C19.5228 36 24 31.5228 24 26C24 20.4772 19.5228 16 14 16C8.47715 16 4 20.4772 4 26C4 31.5228 8.47715 36 14 36Z" stroke="white" stroke-width="2" stroke-miterlimit="10"/>
<path d="M26.0608 10.8955C34.2828 5.28543 44.2532 2 55 2C65.7468 2 75.7172 5.28543 83.9392 10.8955M4.7916 43.5124C4.27143 46.4 4 49.3726 4 52.4079C4 73.421 17.0085 91.431 35.5 99M105.121 43.0382C105.698 46.0742 106 49.2062 106 52.4079C106 73.421 92.9915 91.431 74.5 99" stroke="white" stroke-width="2" stroke-miterlimit="10" stroke-linecap="round" stroke-linejoin="round"/>
</g>
<path d="M55.0002 22C65.4935 22.0001 74.0002 30.5067 74.0002 41C74.0002 48.2369 69.9536 54.5281 64.0002 57.7363V60H46.0002V57.7363C40.0467 54.5281 36.0002 48.237 36.0002 41C36.0002 30.5066 44.5068 22 55.0002 22Z" fill="#E60040"/>
<path opacity="0.2" d="M44.9014 24.9062C43.0635 27.831 42 31.2917 42 35.001C42 45.4944 50.5066 54.001 61 54.001C64.7084 54.001 68.1674 52.9367 71.0918 51.0996C69.3615 53.8505 66.9488 56.1288 64.0869 57.6904V60.002H45.9131V57.6904C40.0073 54.468 36.0001 48.2035 36 41.002C36 34.2197 39.5543 28.2681 44.9014 24.9062Z" fill="black"/>
<rect x="46" y="63" width="18" height="3" fill="#E60040"/>
<path d="M59.0005 74C59.0005 75.1044 58.1048 75.9997 57.0005 76H53.0005C51.8959 76 51.0005 75.1046 51.0005 74V73H47.9995C46.8952 72.9997 46.0005 72.1044 46.0005 71V69H63.9995V71C63.9995 72.1046 63.1041 73 61.9995 73H59.0005V74Z" fill="#E60040"/>
<path d="M50 60L50 43C52.7846 45.705 57.2154 45.705 60 43V60" stroke="white" stroke-width="2" stroke-linejoin="bevel"/>
</svg>
