<svg width="163" height="30" viewBox="0 0 163 30" fill="none" xmlns="http://www.w3.org/2000/svg">
<path d="M44.8705 2.85938H32.9556C26.0362 2.85938 22.9274 7.49167 22.9274 10.7937C22.9274 14.0958 25.5897 16.6488 32.462 16.6488L33.8654 16.6555C35.3795 16.6555 36.2222 16.8671 36.2457 17.8816C36.2558 18.4392 35.8764 19.0909 35.4668 19.41C34.5436 20.1255 33.7277 20.1994 29.3801 20.1994H7.92705L12.0733 2.87953H4.90214C4.42205 2.87953 4.24412 3.01726 4.10311 3.58832L0.17174 19.8198C-0.566862 23.048 1.09499 26.0007 4.80814 26.0007H14.6483C17.1394 26.0007 20.4766 23.2764 21.8295 20.7604C21.9034 20.6193 21.9504 20.532 22.0075 20.4178C22.0075 20.4178 22.0377 20.3808 22.0444 20.4312C21.8295 21.3382 21.0742 24.5328 20.9533 25.0568C20.7955 25.7353 21.148 25.994 21.4737 25.994H32.0592C41.0365 25.994 44.5415 21.7178 44.8504 16.585C45.0216 13.6994 43.1986 11.8351 38.0418 11.8351H34.0802C32.6702 11.8351 31.2266 11.3715 31.2266 10.2294C31.2266 9.08728 32.7978 8.08961 34.9196 8.08961H44.5583C44.5583 8.08961 45.401 4.71028 45.5689 4.00485C45.777 3.11803 45.5118 2.85938 44.8638 2.85938" fill="#003378"/>
<path d="M47.8622 5.06899L57.7292 0H38.5525C38.5525 0 46.8584 1.69302 47.597 1.84083C48.3389 1.99199 48.5068 2.38837 48.3792 2.9124C48.2617 3.4062 47.8622 5.06563 47.8622 5.06563" fill="#E6003E"/>
<path d="M95.5575 17.1275L95.91 15.6931C96.1215 14.8769 95.5978 14.4805 95.0673 14.4805H83.703C83.0785 14.4805 82.9308 14.6383 82.7999 15.1792L80.8358 23.342L80.527 24.6218C80.3289 25.3508 80.5068 25.989 81.4435 25.989H92.4856C93.3686 25.989 93.7781 25.4314 93.9594 24.773L94.3052 23.342H84.0152L84.4684 21.4575H91.6832C92.5662 21.4575 92.9758 20.8998 93.1571 20.2414L93.5029 18.8104H85.1063L85.5125 17.1275H95.5642H95.5575Z" fill="url(#paint0_linear_6289_35760)"/>
<path d="M71.6577 14.4844H69.217C68.5959 14.4844 68.4448 14.6423 68.3139 15.1831L66.041 24.6291C65.8429 25.358 66.0209 25.9963 66.9575 25.9963H77.8721C78.755 25.9963 79.1646 25.4386 79.3459 24.7802L79.6917 23.3492H69.5259L71.6577 14.4877V14.4844Z" fill="url(#paint1_linear_6289_35760)"/>
<path d="M162.106 14.4838H154.411C151.322 14.4838 149.6 15.6898 148.875 18.5787L148.2 21.3735C147.656 23.8223 148.311 25.9924 151.688 25.9924H159.648C160.531 25.9924 160.941 25.4347 161.119 24.7763L161.465 23.3453H152.877C151.396 23.3453 151.107 22.6231 151.339 21.5213L151.9 19.1396C152.286 17.6146 153.592 17.1275 154.673 17.1275H162.599L162.952 15.6931C163.163 14.8769 162.64 14.4805 162.109 14.4805L162.106 14.4838Z" fill="url(#paint2_linear_6289_35760)"/>
<path d="M109.7 14.4838H102.005C98.9164 14.4838 97.1941 15.6898 96.4689 18.5787L95.7941 21.3735C95.2502 23.8223 95.9049 25.9924 99.2823 25.9924H107.242C108.125 25.9924 108.535 25.4347 108.713 24.7763L109.059 23.3453H100.471C98.9902 23.3453 98.7015 22.6231 98.9331 21.5213L99.4938 19.1396C99.8799 17.6146 101.186 17.1275 102.267 17.1275H110.19L110.543 15.6931C110.754 14.8769 110.23 14.4805 109.7 14.4805V14.4838Z" fill="url(#paint3_linear_6289_35760)"/>
<path d="M146.925 14.4844H144.549L142.098 24.6291C141.9 25.358 142.078 25.9963 143.014 25.9963H145.29L147.768 15.7004C147.98 14.8841 147.456 14.4877 146.925 14.4877V14.4844Z" fill="url(#paint4_linear_6289_35760)"/>
<path d="M126.673 15.697C126.885 14.8808 126.361 14.4844 125.831 14.4844H112.667C112.046 14.4844 111.894 14.6423 111.764 15.1831L111.287 17.1314H117.085L115.279 24.6291C115.081 25.358 115.258 25.9963 116.195 25.9963H118.317L120.449 17.1348H126.324L126.677 15.7004L126.673 15.697Z" fill="url(#paint5_linear_6289_35760)"/>
<path d="M137.913 14.4844H128.791C128.17 14.4844 128.019 14.6423 127.888 15.1831L125.605 24.6291C125.407 25.358 125.585 25.9963 126.522 25.9963H128.455L130.587 17.1348H137.309C139.518 17.1348 139.031 20.205 136.432 20.205H131.591C131.111 20.205 130.93 20.6955 131.252 21.0448L132.91 22.8521L134.972 25.096C135.62 25.8249 135.791 25.9996 136.728 25.9996H139.964L136.949 22.8319C142.845 22.412 144.198 14.4911 137.913 14.4911V14.4844Z" fill="url(#paint6_linear_6289_35760)"/>
<path d="M66.3261 11.4883H51.9973C51.2117 11.4883 51.0236 11.6865 50.8591 12.3684L48.3815 22.6609L47.9887 24.2733C47.7369 25.1937 47.9652 25.9965 49.1436 25.9965H63.0628C64.1775 25.9965 64.6911 25.2945 64.9194 24.4648L65.2619 23.0606H51.8764L52.5445 20.2826H62.0489C63.1636 20.2826 63.6772 19.5805 63.9055 18.7508L64.342 16.9469H53.3469L53.9546 14.4242H67.0379L67.3837 13.0167C67.6489 11.9888 66.9875 11.4883 66.3194 11.4883H66.3261Z" fill="url(#paint7_linear_6289_35760)"/>
<defs>
<linearGradient id="paint0_linear_6289_35760" x1="88.0903" y1="25.7404" x2="88.0903" y2="14.42" gradientUnits="userSpaceOnUse">
<stop stop-color="#0075BE"/>
<stop offset="1" stop-color="#003378"/>
</linearGradient>
<linearGradient id="paint1_linear_6289_35760" x1="72.7275" y1="25.7476" x2="72.7275" y2="14.4239" gradientUnits="userSpaceOnUse">
<stop stop-color="#0075BE"/>
<stop offset="1" stop-color="#003378"/>
</linearGradient>
<linearGradient id="paint2_linear_6289_35760" x1="155.403" y1="25.7437" x2="155.403" y2="14.42" gradientUnits="userSpaceOnUse">
<stop stop-color="#0075BE"/>
<stop offset="1" stop-color="#003378"/>
</linearGradient>
<linearGradient id="paint3_linear_6289_35760" x1="102.995" y1="25.7437" x2="102.995" y2="14.42" gradientUnits="userSpaceOnUse">
<stop stop-color="#0075BE"/>
<stop offset="1" stop-color="#003378"/>
</linearGradient>
<linearGradient id="paint4_linear_6289_35760" x1="144.877" y1="25.7476" x2="144.877" y2="14.4239" gradientUnits="userSpaceOnUse">
<stop stop-color="#0075BE"/>
<stop offset="1" stop-color="#003378"/>
</linearGradient>
<linearGradient id="paint5_linear_6289_35760" x1="118.889" y1="25.7476" x2="118.889" y2="14.4239" gradientUnits="userSpaceOnUse">
<stop stop-color="#0075BE"/>
<stop offset="1" stop-color="#003378"/>
</linearGradient>
<linearGradient id="paint6_linear_6289_35760" x1="133.663" y1="25.7509" x2="133.663" y2="14.4239" gradientUnits="userSpaceOnUse">
<stop stop-color="#0075BE"/>
<stop offset="1" stop-color="#003378"/>
</linearGradient>
<linearGradient id="paint7_linear_6289_35760" x1="57.6778" y1="25.7446" x2="57.6778" y2="14.1891" gradientUnits="userSpaceOnUse">
<stop stop-color="#0075BE"/>
<stop offset="1" stop-color="#003378"/>
</linearGradient>
</defs>
</svg>
