<svg width="163" height="30" viewBox="0 0 163 30" fill="none" xmlns="http://www.w3.org/2000/svg">
<g clip-path="url(#clip0_6155_33256)">
<path d="M44.8553 2.8553H32.9366C26.0205 2.8553 22.8981 7.49096 22.8981 10.7829C22.8981 14.0749 25.5504 16.6279 32.433 16.6279H33.8431C35.3539 16.6279 36.1933 16.863 36.2269 17.8708C36.2269 18.4419 35.8576 19.0801 35.4547 19.3824C34.5146 20.0879 33.7088 20.1886 29.3778 20.1886H7.92429L12.0538 2.8553H4.90266C4.43263 2.8553 4.23119 2.98966 4.09689 3.56072L0.168779 19.8191C-0.569841 23.0439 1.10884 26 4.80194 26H14.639C17.1235 26 20.4808 23.2791 21.8238 20.7597C21.8909 20.6253 21.9581 20.5245 21.9916 20.4238C21.9916 20.4238 21.9916 20.3902 22.0252 20.4238C21.8238 21.3307 21.0516 24.522 20.9509 25.0594C20.783 25.7313 21.1523 26 21.488 26H32.0637C41.0279 26 44.5531 21.7339 44.8553 16.5943C45.0232 13.7054 43.2102 11.8579 38.0398 11.8579H34.0781C32.6681 11.8579 31.2244 11.3876 31.2244 10.2455C31.2244 9.10336 32.8023 8.09561 34.9175 8.09561H44.5531C44.5531 8.09561 45.3925 4.70284 45.5603 3.99742C45.7618 3.12403 45.4932 2.8553 44.8553 2.8553Z" fill="white"/>
<path d="M47.8769 5.07235L57.714 0H38.5435C38.5435 0 46.8361 1.67959 47.5748 1.84755C48.3134 1.98191 48.4813 2.38501 48.347 2.92248C48.2462 3.42636 47.8434 5.07235 47.8434 5.07235" fill="#E6003E"/>
<path d="M95.5515 17.1318L95.8872 15.6873C96.0886 14.8811 95.585 14.478 95.0479 14.478H83.7C83.0621 14.478 82.9278 14.646 82.7935 15.1835L80.8462 23.3462L80.544 24.6227C80.3426 25.3618 80.544 26 81.4505 26H92.4963C93.3692 26 93.772 25.4289 93.9735 24.7907L94.3092 23.3462H84.0021L84.4722 21.4651H91.6905C92.5634 21.4651 92.9663 20.894 93.1677 20.2558L93.5035 18.8114H85.1101L85.5129 17.1318H95.5515Z" fill="white"/>
<path d="M71.6453 14.478H69.1945C68.5566 14.478 68.4223 14.646 68.288 15.1835L66.005 24.6227C65.8035 25.3618 66.005 26 66.9115 26H77.8229C78.6958 26 79.0987 25.4289 79.3001 24.7907L79.6359 23.3462H69.4631L71.5782 14.478H71.6453Z" fill="white"/>
<path d="M162.127 14.478H154.438C151.35 14.478 149.637 15.6874 148.899 18.5762L148.227 21.3644C147.69 23.8166 148.328 25.9664 151.719 25.9664H159.676C160.549 25.9664 160.952 25.3954 161.153 24.7571L161.489 23.3127H152.894C151.417 23.3127 151.115 22.5737 151.35 21.4987L151.92 19.1137C152.29 17.6021 153.599 17.0982 154.707 17.0982H162.63L162.966 15.6538C163.168 14.8476 162.664 14.4445 162.127 14.4445V14.478Z" fill="white"/>
<path d="M109.685 14.478H101.997C98.9082 14.478 97.196 15.6874 96.4573 18.5762L95.7859 21.3644C95.2487 23.8166 95.8866 25.9664 99.2775 25.9664H107.234C108.107 25.9664 108.51 25.3954 108.712 24.7571L109.047 23.3127H100.453C98.9754 23.3127 98.6732 22.5737 98.9082 21.4987L99.479 19.1137C99.8483 17.6021 101.158 17.0982 102.266 17.0982H110.189L110.525 15.6538C110.726 14.8476 110.223 14.4445 109.685 14.4445V14.478Z" fill="white"/>
<path d="M146.918 14.478H144.534L142.083 24.6227C141.882 25.3618 142.083 26 142.99 26H145.273L147.757 15.6873C147.958 14.8811 147.455 14.478 146.918 14.478Z" fill="white"/>
<path d="M126.674 15.6873C126.875 14.8811 126.371 14.478 125.834 14.478H112.673C112.035 14.478 111.901 14.646 111.767 15.1835L111.297 17.1318H117.105L115.292 24.6227C115.091 25.3618 115.292 26 116.199 26H118.314L120.429 17.1318H126.304L126.64 15.6873H126.674Z" fill="white"/>
<path d="M137.92 14.478H128.788C128.15 14.478 128.016 14.646 127.882 15.1835L125.599 24.6227C125.397 25.3618 125.599 26 126.505 26H128.452L130.568 17.1318H137.282C139.498 17.1318 138.995 20.1886 136.409 20.1886H131.575C131.105 20.1886 130.903 20.6925 131.239 21.0284L132.884 22.8424L134.932 25.093C135.57 25.832 135.738 26 136.678 26H139.901L136.879 22.8424C142.788 22.4057 144.131 14.5116 137.853 14.5116L137.92 14.478Z" fill="white"/>
<path d="M66.3416 11.4883H52.0056C51.2335 11.4883 51.032 11.6899 50.8641 12.3617L48.3797 22.6408L47.9768 24.2532C47.7418 25.1602 47.9768 25.9664 49.1183 25.9664H63.0514C64.1593 25.9664 64.6629 25.261 64.8979 24.4212L65.2337 23.0103H51.8378L52.5093 20.2222H62.0106C63.1185 20.2222 63.6221 19.5168 63.8571 18.677L64.2936 16.863H53.2814L53.8858 14.3436H66.9795L67.3152 12.9328C67.5838 11.8914 66.9123 11.3876 66.2409 11.3876L66.3416 11.4883Z" fill="white"/>
</g>
<defs>
<clipPath id="clip0_6155_33256">
<rect width="163" height="30" fill="white"/>
</clipPath>
</defs>
</svg>
