<svg width="80" height="80" viewBox="0 0 80 80" fill="none" xmlns="http://www.w3.org/2000/svg">
<circle cx="40" cy="40" r="39.5" fill="white" stroke="#E8E8E8"/>
<path d="M23 22.75H57C57.1381 22.75 57.25 22.8619 57.25 23V50C57.25 50.1381 57.1381 50.25 57 50.25H23C22.8619 50.25 22.75 50.1381 22.75 50V23C22.75 22.8619 22.8619 22.75 23 22.75Z" stroke="#0F1F45" stroke-width="1.5" stroke-linecap="round"/>
<line x1="22.75" y1="29.25" x2="57.25" y2="29.25" stroke="#0F1F45" stroke-width="1.5" stroke-linecap="round"/>
<line x1="27.75" y1="57.25" x2="52.25" y2="57.25" stroke="#0F1F45" stroke-width="1.5" stroke-linecap="round"/>
<line x1="0.75" y1="-0.75" x2="7.794" y2="-0.75" transform="matrix(0.351123 -0.936329 0.958798 0.284088 35 58)" stroke="#0F1F45" stroke-width="1.5" stroke-linecap="round"/>
<line x1="0.75" y1="-0.75" x2="7.794" y2="-0.75" transform="matrix(-0.351123 -0.936329 -0.958798 0.284088 46 58)" stroke="#0F1F45" stroke-width="1.5" stroke-linecap="round"/>
<circle cx="27" cy="26" r="1" fill="#0F1F45"/>
<circle cx="31" cy="26" r="1" fill="#0F1F45"/>
<path d="M44.3283 39.0769C44.6396 39.273 44.6396 39.727 44.3283 39.9231L37.5165 44.2134C37.1835 44.4231 36.75 44.1838 36.75 43.7903L36.75 35.2097C36.75 34.8162 37.1835 34.5769 37.5165 34.7866L44.3283 39.0769Z" stroke="#E60040" stroke-width="1.5"/>
</svg>
