<svg width="80" height="80" viewBox="0 0 80 80" fill="none" xmlns="http://www.w3.org/2000/svg">
<circle cx="40" cy="40" r="39.5" fill="white" stroke="#E8E8E8"/>
<path d="M54 37V28C54 27.4477 53.5523 27 53 27H27C26.4477 27 26 27.4477 26 28V49C26 49.5523 26.4477 50 27 50H40" stroke="#0F1F45" stroke-width="1.5" stroke-linecap="round"/>
<path d="M40.5 25L40.5 21" stroke="#0F1F45" stroke-width="1.5" stroke-linecap="round"/>
<mask id="path-4-inside-1_6023_137851" fill="white">
<rect x="22" y="23" width="36" height="6" rx="1"/>
</mask>
<rect x="22" y="23" width="36" height="6" rx="1" fill="white" stroke="#0F1F45" stroke-width="3" mask="url(#path-4-inside-1_6023_137851)"/>
<mask id="path-5-inside-2_6023_137851" fill="white">
<path d="M52 40C55.866 40 59 43.134 59 47C59 49.384 57.8071 51.4878 55.9867 52.7515C55.6935 52.955 55.5 53.2803 55.5 53.6372V55.334C55.5 55.8863 55.0523 56.334 54.5 56.334H49.5C48.9477 56.334 48.5 55.8863 48.5 55.334V53.6372C48.5 53.2803 48.3065 52.955 48.0133 52.7515C46.1929 51.4878 45 49.384 45 47C45 43.134 48.134 40 52 40Z"/>
</mask>
<path d="M52 40C55.866 40 59 43.134 59 47C59 49.384 57.8071 51.4878 55.9867 52.7515C55.6935 52.955 55.5 53.2803 55.5 53.6372V55.334C55.5 55.8863 55.0523 56.334 54.5 56.334H49.5C48.9477 56.334 48.5 55.8863 48.5 55.334V53.6372C48.5 53.2803 48.3065 52.955 48.0133 52.7515C46.1929 51.4878 45 49.384 45 47C45 43.134 48.134 40 52 40Z" fill="white"/>
<path d="M55.9867 52.7515L55.1313 51.5193L55.9867 52.7515ZM52 40V41.5C55.0376 41.5 57.5 43.9624 57.5 47H59H60.5C60.5 42.3056 56.6944 38.5 52 38.5V40ZM59 47H57.5C57.5 48.8709 56.566 50.5234 55.1313 51.5193L55.9867 52.7515L56.8421 53.9837C59.0483 52.4521 60.5 49.8971 60.5 47H59ZM55.5 53.6372H54V55.334H55.5H57V53.6372H55.5ZM54.5 56.334V54.834H49.5V56.334V57.834H54.5V56.334ZM48.5 55.334H50V53.6372H48.5H47V55.334H48.5ZM48.0133 52.7515L48.8687 51.5193C47.434 50.5234 46.5 48.8709 46.5 47H45H43.5C43.5 49.8971 44.9517 52.4521 47.1579 53.9837L48.0133 52.7515ZM45 47H46.5C46.5 43.9624 48.9624 41.5 52 41.5V40V38.5C47.3056 38.5 43.5 42.3056 43.5 47H45ZM48.5 53.6372H50C50 52.7234 49.5088 51.9637 48.8687 51.5193L48.0133 52.7515L47.1579 53.9837C47.1041 53.9464 47 53.8372 47 53.6372H48.5ZM49.5 56.334V54.834C49.7761 54.834 50 55.0578 50 55.334H48.5H47C47 56.7147 48.1193 57.834 49.5 57.834V56.334ZM55.5 55.334H54C54 55.0578 54.2239 54.834 54.5 54.834V56.334V57.834C55.8807 57.834 57 56.7147 57 55.334H55.5ZM55.9867 52.7515L55.1313 51.5193C54.4912 51.9637 54 52.7234 54 53.6372H55.5H57C57 53.8372 56.8959 53.9464 56.8421 53.9837L55.9867 52.7515Z" fill="#E60040" mask="url(#path-5-inside-2_6023_137851)"/>
<line x1="49.75" y1="58.25" x2="54.25" y2="58.25" stroke="#E60040" stroke-width="1.5" stroke-linecap="round"/>
<line x1="30.75" y1="35.25" x2="35.25" y2="35.25" stroke="#0F1F45" stroke-width="1.5" stroke-linecap="round"/>
<line x1="30.75" y1="40.25" x2="39.25" y2="40.25" stroke="#0F1F45" stroke-width="1.5" stroke-linecap="round"/>
<path d="M55 46C55 44.8954 54.1046 44 53 44" stroke="#E60040" stroke-width="1.5" stroke-linecap="round"/>
<path d="M23 50H42" stroke="#0F1F45" stroke-width="1.5" stroke-linecap="round"/>
</svg>
