<svg width="80" height="80" viewBox="0 0 80 80" fill="none" xmlns="http://www.w3.org/2000/svg">
<circle cx="40" cy="40" r="39.5" fill="white" stroke="#E8E8E8"/>
<path d="M25.6895 35.25H54.3105C54.3924 35.2501 54.469 35.2902 54.5156 35.3574L57.293 39.3574C57.4081 39.5232 57.2897 39.75 57.0879 39.75H22.9121C22.7103 39.75 22.5919 39.5232 22.707 39.3574L25.4844 35.3574C25.531 35.2902 25.6076 35.2501 25.6895 35.25Z" stroke="#0F1F45" stroke-width="1.5"/>
<mask id="path-3-inside-1_6023_137870" fill="white">
<path d="M42.2041 23.3545C42.0144 23.568 41.7426 23.6903 41.457 23.6904H29C28.4477 23.6904 28 24.1381 28 24.6904V36.999C28 37.5513 28.4477 37.999 29 37.999H51C51.5523 37.999 52 37.5513 52 36.999V22C52 21.4477 51.5523 21 51 21H44.7434C44.4576 21 44.1853 21.1224 43.9956 21.3362L42.2041 23.3545Z"/>
</mask>
<path d="M42.2041 23.3545C42.0144 23.568 41.7426 23.6903 41.457 23.6904H29C28.4477 23.6904 28 24.1381 28 24.6904V36.999C28 37.5513 28.4477 37.999 29 37.999H51C51.5523 37.999 52 37.5513 52 36.999V22C52 21.4477 51.5523 21 51 21H44.7434C44.4576 21 44.1853 21.1224 43.9956 21.3362L42.2041 23.3545Z" fill="white"/>
<path d="M42.2041 23.3545L43.3259 24.3502L43.3255 24.3507L42.2041 23.3545ZM41.457 23.6904L41.4577 25.1904H41.457V23.6904ZM52 36.999H53.5H52ZM52 22L53.5 22V22H52ZM51 21V19.5H51L51 21ZM43.9956 21.3362L42.8737 20.3404L43.9956 21.3362ZM42.2041 23.3545L43.3255 24.3507C42.8516 24.8841 42.1721 25.1901 41.4577 25.1904L41.457 23.6904L41.4564 22.1904C41.3131 22.1905 41.1772 22.2518 41.0827 22.3583L42.2041 23.3545ZM41.457 23.6904V25.1904H29V23.6904V22.1904H41.457V23.6904ZM28 24.6904H29.5V36.999H28H26.5V24.6904H28ZM28 36.999H29.5C29.5 36.7229 29.2761 36.499 29 36.499V37.999V39.499C27.6193 39.499 26.5 38.3797 26.5 36.999H28ZM29 37.999V36.499H51V37.999V39.499H29V37.999ZM51 37.999V36.499C50.7239 36.499 50.5 36.7229 50.5 36.999H52H53.5C53.5 38.3797 52.3807 39.499 51 39.499V37.999ZM52 36.999H50.5V22H52H53.5V36.999H52ZM52 22L50.5 22C50.5 22.2761 50.7239 22.5 51 22.5L51 21L51 19.5C52.3807 19.5 53.5 20.6193 53.5 22L52 22ZM51 21V22.5H44.7434V21V19.5H51V21ZM43.9956 21.3362L45.1174 22.3319L43.3259 24.3502L42.2041 23.3545L41.0823 22.3588L42.8737 20.3404L43.9956 21.3362ZM44.7434 21V22.5C44.8864 22.5 45.0225 22.4388 45.1174 22.3319L43.9956 21.3362L42.8737 20.3404C43.3482 19.8059 44.0287 19.5 44.7434 19.5V21ZM29 23.6904V25.1904C29.2761 25.1904 29.5 24.9666 29.5 24.6904H28H26.5C26.5 23.3097 27.6193 22.1904 29 22.1904V23.6904Z" fill="#E60040" mask="url(#path-3-inside-1_6023_137870)"/>
<mask id="path-5-inside-2_6023_137870" fill="white">
<path d="M42.0615 29.1113C41.8716 29.3407 41.5889 29.4736 41.291 29.4736H26C25.4477 29.4736 25 29.9213 25 30.4736V47C25 47.5523 25.4477 48 26 48H54C54.5521 47.9997 55 47.5521 55 47V27C55 26.4479 54.5521 26.0003 54 26H45.108C44.8101 26 44.5277 26.1328 44.3378 26.3622L42.0615 29.1113Z"/>
</mask>
<path d="M42.0615 29.1113C41.8716 29.3407 41.5889 29.4736 41.291 29.4736H26C25.4477 29.4736 25 29.9213 25 30.4736V47C25 47.5523 25.4477 48 26 48H54C54.5521 47.9997 55 47.5521 55 47V27C55 26.4479 54.5521 26.0003 54 26H45.108C44.8101 26 44.5277 26.1328 44.3378 26.3622L42.0615 29.1113Z" fill="white"/>
<path d="M42.0615 29.1113L43.2169 30.068L43.2169 30.068L42.0615 29.1113ZM41.291 29.4736L41.2912 30.9736H41.291V29.4736ZM25 47L23.5 47V47H25ZM54 48L54.0007 49.5H54V48ZM55 47H56.5V47H55ZM55 27L56.5 27V27H55ZM54 26V24.5L54.0007 24.5L54 26ZM42.0615 29.1113L43.2169 30.068C42.7417 30.6418 42.0354 30.9736 41.2912 30.9736L41.291 29.4736L41.2909 27.9736C41.1423 27.9736 41.0014 28.0397 40.9062 28.1547L42.0615 29.1113ZM41.291 29.4736V30.9736H26V29.4736V27.9736H41.291V29.4736ZM25 30.4736H26.5V47H25H23.5V30.4736H25ZM25 47L26.5 47C26.5 46.7239 26.2761 46.5 26 46.5V48V49.5C24.6193 49.5 23.5 48.3807 23.5 47L25 47ZM26 48V46.5H54V48V49.5H26V48ZM54 48L53.9993 46.5C53.7242 46.5001 53.5 46.723 53.5 47H55H56.5C56.5 48.3812 55.38 49.4994 54.0007 49.5L54 48ZM55 47H53.5V27H55H56.5V47H55ZM55 27L53.5 27C53.5 27.277 53.7242 27.4999 53.9993 27.5L54 26L54.0007 24.5C55.38 24.5006 56.5 25.6188 56.5 27L55 27ZM54 26V27.5H45.108V26V24.5H54V26ZM44.3378 26.3622L45.4931 27.3189L43.2169 30.068L42.0615 29.1113L40.9062 28.1547L43.1824 25.4056L44.3378 26.3622ZM45.108 26V27.5C45.2569 27.5 45.3981 27.4336 45.4931 27.3189L44.3378 26.3622L43.1824 25.4056C43.6573 24.832 44.3633 24.5 45.108 24.5V26ZM26 29.4736V30.9736C26.2761 30.9736 26.5 30.7498 26.5 30.4736H25H23.5C23.5 29.0929 24.6193 27.9736 26 27.9736V29.4736Z" fill="#E60040" mask="url(#path-5-inside-2_6023_137870)"/>
<mask id="path-7-inside-3_6023_137870" fill="white">
<path d="M58.9994 57.9994C58.9997 58.5519 58.5519 59 57.9994 59H22C21.4477 59 21 58.5523 21 58V40C21 39.4477 21.4477 39 22 39H35C35.5523 39 36 39.4477 36 40V43C36 43.5523 36.4477 44 37 44H43C43.5523 44 44 43.5523 44 43V40C44 39.4477 44.4477 39 45 39H57.9879C58.54 39 58.9876 39.4473 58.9879 39.9994L58.9994 57.9994Z"/>
</mask>
<path d="M58.9994 57.9994C58.9997 58.5519 58.5519 59 57.9994 59H22C21.4477 59 21 58.5523 21 58V40C21 39.4477 21.4477 39 22 39H35C35.5523 39 36 39.4477 36 40V43C36 43.5523 36.4477 44 37 44H43C43.5523 44 44 43.5523 44 43V40C44 39.4477 44.4477 39 45 39H57.9879C58.54 39 58.9876 39.4473 58.9879 39.9994L58.9994 57.9994Z" fill="white"/>
<path d="M58.9879 39.9994L60.4879 39.9984L58.9879 39.9994ZM58.9994 57.9994L60.4994 57.9984L58.9994 57.9994ZM57.9994 59V57.5H22V59V60.5H57.9994V59ZM21 58H22.5V40H21H19.5V58H21ZM22 39V40.5H35V39V37.5H22V39ZM36 40H34.5V43H36H37.5V40H36ZM37 44V45.5H43V44V42.5H37V44ZM44 43H45.5V40H44H42.5V43H44ZM45 39V40.5H57.9879V39V37.5H45V39ZM58.9879 39.9994L57.4879 40.0003L57.4994 58.0003L58.9994 57.9994L60.4994 57.9984L60.4879 39.9984L58.9879 39.9994ZM57.9879 39V40.5C57.7119 40.5 57.4881 40.2763 57.4879 40.0003L58.9879 39.9994L60.4879 39.9984C60.4871 38.6183 59.368 37.5 57.9879 37.5V39ZM44 40H45.5C45.5 40.2761 45.2761 40.5 45 40.5V39V37.5C43.6193 37.5 42.5 38.6193 42.5 40H44ZM43 44V45.5C44.3807 45.5 45.5 44.3807 45.5 43H44H42.5C42.5 42.7239 42.7239 42.5 43 42.5V44ZM36 43H34.5C34.5 44.3807 35.6193 45.5 37 45.5V44V42.5C37.2761 42.5 37.5 42.7239 37.5 43H36ZM35 39V40.5C34.7239 40.5 34.5 40.2761 34.5 40H36H37.5C37.5 38.6193 36.3807 37.5 35 37.5V39ZM21 40H22.5C22.5 40.2761 22.2761 40.5 22 40.5V39V37.5C20.6193 37.5 19.5 38.6193 19.5 40H21ZM22 59V57.5C22.2761 57.5 22.5 57.7239 22.5 58H21H19.5C19.5 59.3807 20.6193 60.5 22 60.5V59ZM57.9994 59V60.5C59.3807 60.5 60.5002 59.3797 60.4994 57.9984L58.9994 57.9994L57.4994 58.0003C57.4992 57.7241 57.7231 57.5 57.9994 57.5V59Z" fill="#0F1F45" mask="url(#path-7-inside-3_6023_137870)"/>
<line x1="36.75" y1="49.25" x2="43.25" y2="49.25" stroke="#0F1F45" stroke-width="1.5" stroke-linecap="round"/>
</svg>
