<svg preserveAspectRatio="none" width="100%" height="100%" overflow="visible" style="display: block;" viewBox="0 0 32 39.6801" fill="none" xmlns="http://www.w3.org/2000/svg">
<path id="Subtract" d="M16 0C24.8366 0 32 7.10193 32 15.8623C31.9997 24.9625 19.618 36.7306 16.6387 39.4307C16.2716 39.7632 15.7284 39.7632 15.3613 39.4307C12.382 36.7306 0.000339972 24.9625 0 15.8623C0 7.10193 7.16344 3.8325e-07 16 0ZM16 8C12.6863 8 10 10.6863 10 14C10 17.3137 12.6863 20 16 20C19.3137 20 22 17.3137 22 14C22 10.6863 19.3137 8 16 8Z" fill="var(--fill-0, #E60040)"/>
</svg>
