<svg width="56" height="56" viewBox="0 0 56 56" fill="none" xmlns="http://www.w3.org/2000/svg">
<path d="M46.2597 5.62144C47.5796 5.43308 48.7112 6.56446 48.5226 7.88432L48.0502 11.1837C47.8815 12.3642 46.7904 13.0378 45.7584 12.879L36.3512 22.2861C36.7456 24.0667 36.251 26.0046 34.8659 27.3898L14.7285 47.5272C12.3854 49.8702 8.58634 49.8703 6.24325 47.5272C3.90017 45.1841 3.90029 41.3851 6.24325 39.0419L26.3806 18.9046C28.0165 17.2688 30.423 16.8749 32.4311 17.721L41.3693 8.78271C40.938 7.65262 41.6247 6.28322 42.9589 6.09239L46.2597 5.62144Z" fill="white"/>
<path d="M46.2597 5.62144L46.4009 6.61142L46.401 6.61141L46.2597 5.62144ZM48.5226 7.88432L49.5125 8.02603L49.5125 8.02581L48.5226 7.88432ZM48.0502 11.1837L47.0603 11.042L47.0603 11.0422L48.0502 11.1837ZM45.7584 12.879L45.9105 11.8906L45.4096 11.8135L45.0513 12.1718L45.7584 12.879ZM36.3512 22.2861L35.6441 21.579L35.2563 21.9668L35.3749 22.5024L36.3512 22.2861ZM34.8659 27.3898L35.573 28.0969L35.573 28.0969L34.8659 27.3898ZM14.7285 47.5272L15.4356 48.2343L15.4356 48.2343L14.7285 47.5272ZM6.24325 39.0419L5.53615 38.3348L5.53612 38.3348L6.24325 39.0419ZM26.3806 18.9046L25.6735 18.1974L25.6735 18.1974L26.3806 18.9046ZM32.4311 17.721L32.0428 18.6425L32.6626 18.9037L33.1382 18.4281L32.4311 17.721ZM41.3693 8.78271L42.0764 9.48981L42.5347 9.03156L42.3036 8.4261L41.3693 8.78271ZM42.9589 6.09239L42.8177 5.10241L42.8174 5.10246L42.9589 6.09239ZM46.2597 5.62144L46.401 6.61141C47.0612 6.51719 47.6269 7.08322 47.5326 7.74283L48.5226 7.88432L49.5125 8.02581C49.7955 6.04569 48.0979 4.34898 46.1184 4.63147L46.2597 5.62144ZM48.5226 7.88432L47.5327 7.74261L47.0603 11.042L48.0502 11.1837L49.0402 11.3254L49.5125 8.02603L48.5226 7.88432ZM48.0502 11.1837L47.0603 11.0422C46.9775 11.6215 46.4441 11.9727 45.9105 11.8906L45.7584 12.879L45.6063 13.8673C47.1366 14.1028 48.7855 13.1069 49.0402 11.3252L48.0502 11.1837ZM45.7584 12.879L45.0513 12.1718L35.6441 21.579L36.3512 22.2861L37.0583 22.9932L46.4655 13.5861L45.7584 12.879ZM36.3512 22.2861L35.3749 22.5024C35.6986 23.9638 35.2921 25.5493 34.1587 26.6828L34.8659 27.3898L35.573 28.0969C37.2099 26.4599 37.7927 24.1697 37.3276 22.0698L36.3512 22.2861ZM34.8659 27.3898L34.1588 26.6827L14.0214 46.8201L14.7285 47.5272L15.4356 48.2343L35.573 28.0969L34.8659 27.3898ZM14.7285 47.5272L14.0215 46.82C12.0688 48.7726 8.90289 48.7726 6.95036 46.8201L6.24325 47.5272L5.53615 48.2343C8.26978 50.9679 12.702 50.9677 15.4356 48.2343L14.7285 47.5272ZM6.24325 47.5272L6.95036 46.8201C4.99783 44.8675 4.99788 41.7017 6.95039 39.749L6.24325 39.0419L5.53612 38.3348C2.8027 41.0685 2.80251 45.5007 5.53615 48.2343L6.24325 47.5272ZM6.24325 39.0419L6.95036 39.749L27.0877 19.6117L26.3806 18.9046L25.6735 18.1974L5.53615 38.3348L6.24325 39.0419ZM26.3806 18.9046L27.0877 19.6117C28.426 18.2735 30.3962 17.9488 32.0428 18.6425L32.4311 17.721L32.8193 16.7994C30.4497 15.8011 27.607 16.2641 25.6735 18.1974L26.3806 18.9046ZM32.4311 17.721L33.1382 18.4281L42.0764 9.48981L41.3693 8.78271L40.6622 8.0756L31.724 17.0139L32.4311 17.721ZM41.3693 8.78271L42.3036 8.4261C42.0848 7.85292 42.4453 7.17604 43.1005 7.08231L42.9589 6.09239L42.8174 5.10246C40.8042 5.3904 39.7911 7.45233 40.4351 9.13932L41.3693 8.78271ZM42.9589 6.09239L43.1002 7.08236L46.4009 6.61142L46.2597 5.62144L46.1184 4.63147L42.8177 5.10241L42.9589 6.09239Z" fill="#0F1F45"/>
<mask id="path-3-outside-1_5552_123988" maskUnits="userSpaceOnUse" x="-1.53993" y="-1.62681" width="57.9828" height="57.9828" fill="black">
<rect fill="white" x="-1.53993" y="-1.62681" width="57.9828" height="57.9828"/>
<path d="M5.05515 12.3956C5.12924 12.0237 5.58362 11.9052 5.85202 12.1733L11.3431 17.6644C11.5384 17.8597 11.855 17.8597 12.0503 17.6644L17.6629 12.0518C17.858 11.8565 17.8581 11.5399 17.6629 11.3447L12.1732 5.85491C11.9046 5.58636 12.023 5.13171 12.3955 5.05803C15.4137 4.46126 18.6853 5.34721 21.0472 7.70899C23.6427 10.3045 24.4541 13.9982 23.4758 17.2473L38.2035 31.975C41.4525 30.9971 45.1458 31.8104 47.7412 34.4057C50.102 36.7666 50.9888 40.0362 50.3935 43.0533C50.32 43.426 49.8646 43.5449 49.596 43.2763L44.1111 37.7914C43.9158 37.5962 43.5992 37.5962 43.404 37.7914L37.7906 43.4048C37.5956 43.6 37.5955 43.9167 37.7906 44.1119L43.279 49.6002C43.5474 49.8687 43.429 50.3232 43.0566 50.3971C40.0369 50.9961 36.7627 50.1107 34.3994 47.7475C31.8011 45.1492 30.9902 41.4499 31.9735 38.1981L17.2527 23.4773C14.0013 24.4599 10.3033 23.6487 7.70542 21.0508C5.34278 18.6881 4.45701 15.4147 5.05515 12.3956Z"/>
</mask>
<path d="M5.05515 12.3956C5.12924 12.0237 5.58362 11.9052 5.85202 12.1733L11.3431 17.6644C11.5384 17.8597 11.855 17.8597 12.0503 17.6644L17.6629 12.0518C17.858 11.8565 17.8581 11.5399 17.6629 11.3447L12.1732 5.85491C11.9046 5.58636 12.023 5.13171 12.3955 5.05803C15.4137 4.46126 18.6853 5.34721 21.0472 7.70899C23.6427 10.3045 24.4541 13.9982 23.4758 17.2473L38.2035 31.975C41.4525 30.9971 45.1458 31.8104 47.7412 34.4057C50.102 36.7666 50.9888 40.0362 50.3935 43.0533C50.32 43.426 49.8646 43.5449 49.596 43.2763L44.1111 37.7914C43.9158 37.5962 43.5992 37.5962 43.404 37.7914L37.7906 43.4048C37.5956 43.6 37.5955 43.9167 37.7906 44.1119L43.279 49.6002C43.5474 49.8687 43.429 50.3232 43.0566 50.3971C40.0369 50.9961 36.7627 50.1107 34.3994 47.7475C31.8011 45.1492 30.9902 41.4499 31.9735 38.1981L17.2527 23.4773C14.0013 24.4599 10.3033 23.6487 7.70542 21.0508C5.34278 18.6881 4.45701 15.4147 5.05515 12.3956Z" fill="white"/>
<path d="M5.05515 12.3956L3.09368 12.0049L3.09328 12.007L5.05515 12.3956ZM5.85202 12.1733L7.26624 10.7591L7.26546 10.7583L5.85202 12.1733ZM11.3431 17.6644L9.92894 19.0786L9.92901 19.0787L11.3431 17.6644ZM17.6629 12.0518L19.0771 13.466L19.0779 13.4652L17.6629 12.0518ZM17.6629 11.3447L19.0772 9.93051L19.0771 9.93044L17.6629 11.3447ZM12.3955 5.05803L12.0076 3.09602L12.0075 3.09603L12.3955 5.05803ZM21.0472 7.70899L22.4614 6.29478L22.4614 6.29475L21.0472 7.70899ZM23.4758 17.2473L21.5608 16.6707L21.216 17.8159L22.0616 18.6616L23.4758 17.2473ZM38.2035 31.975L36.7893 33.3893L37.6349 34.2349L38.78 33.8902L38.2035 31.975ZM47.7412 34.4057L49.1554 32.9915L49.1554 32.9915L47.7412 34.4057ZM50.3935 43.0533L52.3557 43.4405L52.3557 43.4404L50.3935 43.0533ZM44.1111 37.7914L45.5253 36.3772L45.5249 36.3769L44.1111 37.7914ZM37.7906 43.4048L36.3764 41.9906L36.3756 41.9913L37.7906 43.4048ZM37.7906 44.1119L36.3761 45.5257L36.3764 45.5261L37.7906 44.1119ZM43.0566 50.3971L43.4458 52.3589L43.4458 52.3589L43.0566 50.3971ZM34.3994 47.7475L32.9852 49.1617L32.9852 49.1618L34.3994 47.7475ZM31.9735 38.1981L33.8879 38.7771L34.2346 37.6307L33.3878 36.7839L31.9735 38.1981ZM17.2527 23.4773L18.667 22.0631L17.8203 21.2165L16.6742 21.5628L17.2527 23.4773ZM7.70542 21.0508L6.29117 22.465L6.29121 22.465L7.70542 21.0508ZM5.05515 12.3956L7.01661 12.7864C6.74714 14.1392 5.18475 14.3336 4.43859 13.5883L5.85202 12.1733L7.26546 10.7583C5.98249 9.47674 3.51134 9.90818 3.09368 12.0049L5.05515 12.3956ZM5.85202 12.1733L4.43781 13.5875L9.92894 19.0786L11.3431 17.6644L12.7574 16.2502L7.26624 10.7591L5.85202 12.1733ZM11.3431 17.6644L9.92901 19.0787C10.9052 20.0548 12.4881 20.055 13.4645 19.0786L12.0503 17.6644L10.636 16.2502C11.2219 15.6643 12.1716 15.6645 12.7573 16.2501L11.3431 17.6644ZM12.0503 17.6644L13.4645 19.0786L19.0771 13.466L17.6629 12.0518L16.2487 10.6375L10.636 16.2502L12.0503 17.6644ZM17.6629 12.0518L19.0779 13.4652C20.0523 12.4898 20.054 10.9075 19.0772 9.93051L17.6629 11.3447L16.2486 12.7588C15.6621 12.1722 15.6637 11.2232 16.2479 10.6383L17.6629 12.0518ZM17.6629 11.3447L19.0771 9.93044L13.5874 4.4407L12.1732 5.85491L10.759 7.26912L16.2487 12.7589L17.6629 11.3447ZM12.1732 5.85491L13.5874 4.4407C14.3315 5.18478 14.1414 6.75151 12.7835 7.02004L12.3955 5.05803L12.0075 3.09603C9.90446 3.5119 9.47777 5.98794 10.759 7.26912L12.1732 5.85491ZM12.3955 5.05803L12.7835 7.02005C15.1672 6.54872 17.7572 7.24744 19.633 9.12324L21.0472 7.70899L22.4614 6.29475C19.6135 3.44697 15.6602 2.3738 12.0076 3.09602L12.3955 5.05803ZM21.0472 7.70899L19.633 9.1232C21.6939 11.1841 22.3324 14.1078 21.5608 16.6707L23.4758 17.2473L25.3909 17.824C26.5758 13.8885 25.5916 9.42493 22.4614 6.29478L21.0472 7.70899ZM23.4758 17.2473L22.0616 18.6616L36.7893 33.3893L38.2035 31.975L39.6178 30.5608L24.89 15.8331L23.4758 17.2473ZM38.2035 31.975L38.78 33.8902C41.3419 33.119 44.2656 33.7586 46.327 35.82L47.7412 34.4057L49.1554 32.9915C46.0261 29.8622 41.5631 28.8751 37.6271 30.0599L38.2035 31.975ZM47.7412 34.4057L46.327 35.8199C48.2022 37.6952 48.9015 40.2836 48.4314 42.6661L50.3935 43.0533L52.3557 43.4404C53.0762 39.7888 52.0018 35.838 49.1554 32.9915L47.7412 34.4057ZM50.3935 43.0533L48.4314 42.6661C48.6989 41.3104 50.2639 41.1159 51.0102 41.8621L49.596 43.2763L48.1818 44.6905C49.4652 45.974 51.9411 45.5415 52.3557 43.4405L50.3935 43.0533ZM49.596 43.2763L51.0102 41.8621L45.5253 36.3772L44.1111 37.7914L42.6968 39.2056L48.1818 44.6905L49.596 43.2763ZM44.1111 37.7914L45.5249 36.3769C44.549 35.4014 42.9664 35.4006 41.9897 36.3772L43.404 37.7914L44.8182 39.2056C44.232 39.7918 43.2825 39.7911 42.6972 39.206L44.1111 37.7914ZM43.404 37.7914L41.9897 36.3772L36.3764 41.9906L37.7906 43.4048L39.2048 44.819L44.8182 39.2056L43.404 37.7914ZM37.7906 43.4048L36.3756 41.9913C35.401 42.967 35.3999 44.5491 36.3761 45.5257L37.7906 44.1119L39.2051 42.698C39.7911 43.2842 39.7901 44.233 39.2056 44.8182L37.7906 43.4048ZM37.7906 44.1119L36.3764 45.5261L41.8648 51.0144L43.279 49.6002L44.6932 48.186L39.2048 42.6977L37.7906 44.1119ZM43.279 49.6002L41.8648 51.0144C41.1193 50.269 41.3123 48.7042 42.6674 48.4353L43.0566 50.3971L43.4458 52.3589C45.5457 51.9423 45.9755 49.4684 44.6932 48.186L43.279 49.6002ZM43.0566 50.3971L42.6675 48.4353C40.2825 48.9084 37.6905 48.2101 35.8136 46.3333L34.3994 47.7475L32.9852 49.1618C35.8349 52.0114 39.7914 53.0838 43.4458 52.3589L43.0566 50.3971ZM34.3994 47.7475L35.8136 46.3333C33.7504 44.27 33.1123 41.3418 33.8879 38.7771L31.9735 38.1981L30.0592 37.6192C28.868 41.5581 29.8519 46.0283 32.9852 49.1617L34.3994 47.7475ZM31.9735 38.1981L33.3878 36.7839L18.667 22.0631L17.2527 23.4773L15.8385 24.8915L30.5593 39.6124L31.9735 38.1981ZM17.2527 23.4773L16.6742 21.5628C14.1099 22.3378 11.1827 21.6996 9.11963 19.6366L7.70542 21.0508L6.29121 22.465C9.42399 25.5978 13.8928 26.5821 17.8313 25.3918L17.2527 23.4773ZM7.70542 21.0508L9.11966 19.6366C7.2432 17.7601 6.54462 15.1688 7.01702 12.7843L5.05515 12.3956L3.09328 12.007C2.36941 15.6607 3.44237 19.616 6.29117 22.465L7.70542 21.0508Z" fill="#E60040" mask="url(#path-3-outside-1_5552_123988)"/>
<line x1="22.7071" y1="23.2929" x2="32.6066" y2="33.1924" stroke="#E60040" stroke-width="2"/>
<line x1="7.68367" y1="38.832" x2="16.169" y2="47.3172" stroke="#0F1F45" stroke-width="2"/>
<line x1="31.7071" y1="17.2929" x2="36.4679" y2="22.0536" stroke="#0F1F45" stroke-width="2"/>
</svg>
