<svg width="56" height="56" viewBox="0 0 56 56" fill="none" xmlns="http://www.w3.org/2000/svg">
<rect x="2" y="11" width="48" height="33" rx="1" stroke="#0F1F45" stroke-width="2"/>
<path d="M32.5 11V20.668L27.1621 19.1152C26.8245 19.017 26.4665 19.0087 26.125 19.0928L19.5 20.7236V11H32.5Z" stroke="#0F1F45" stroke-width="2"/>
<line x1="6" y1="36" x2="15" y2="36" stroke="#0F1F45" stroke-width="2"/>
<path d="M30.666 2L32.3027 11H19.6973L21.334 2H30.666Z" stroke="#0F1F45" stroke-width="2"/>
<path d="M32 39.2554V31.0795C32 30.7363 32.2626 30.4503 32.6044 30.4209L33.8619 30.3129C37.4643 30.0036 40.7923 28.263 43.1012 25.4805C43.3115 25.2271 43.7017 25.2236 43.9223 25.4681C46.4271 28.2452 49.9254 30.0158 53.6502 30.3513L54.3905 30.4179C54.7356 30.449 55 30.7383 55 31.0848V39.2554V39.7319C55 45.1231 52.1068 50.0996 47.4217 52.7671L44.4896 54.4366C43.8761 54.7859 43.1239 54.7859 42.5104 54.4366L39.5783 52.7671C34.8932 50.0996 32 45.1231 32 39.7319V39.2554Z" fill="white" stroke="#E60040" stroke-width="2" stroke-linecap="round" stroke-linejoin="round"/>
<path d="M40 40.2L42.5455 43L48 37" stroke="#E60040" stroke-width="2"/>
<path d="M45.0537 2L49.4053 11H2.59473L6.94629 2H45.0537Z" stroke="#0F1F45" stroke-width="2"/>
</svg>
