<svg width="56" height="56" viewBox="0 0 56 56" fill="none" xmlns="http://www.w3.org/2000/svg">
<g clip-path="url(#clip0_5552_123966)">
<mask id="path-1-inside-1_5552_123966" fill="white">
<path d="M29.2825 5.4302C29.7556 7.79657 32.2006 9.20836 34.4866 8.43513L35.017 8.25571C36.8231 7.6448 38.8093 8.39355 39.7627 10.0447L43.2005 15.9987C44.0861 17.5325 43.7658 19.4782 42.4351 20.6472C40.7512 22.1265 40.7509 24.7488 42.4345 26.2285L43.3583 27.0404C44.7905 28.2991 45.1352 30.3936 44.1819 32.0449L40.8614 37.7965C39.908 39.4479 37.9215 40.1968 36.1152 39.5856L34.5863 39.0683C32.3003 38.2948 29.8551 39.7065 29.382 42.073L29.2397 42.7843C28.8659 44.6541 27.2242 46 25.3174 46H18.6765C16.7699 46 15.1283 44.6543 14.7542 42.7847L14.6577 42.3021C14.1842 39.9358 11.7391 38.5244 9.45319 39.2979L8.60354 39.5855C6.79733 40.1967 4.81077 39.448 3.85729 37.7967L0.536164 32.0448C-0.417217 30.3936 -0.0726587 28.299 1.35941 27.0403L1.48996 26.9255C3.30234 25.3325 3.30223 22.5095 1.48972 20.9166L1.35865 20.8014C-0.0735373 19.5427 -0.418255 17.4481 0.535032 15.7969L3.85574 10.0449C4.80901 8.39363 6.79524 7.64475 8.60139 8.25559L9.48336 8.55387C11.769 9.32686 14.2135 7.91558 14.6871 5.54972L14.7541 5.21499C15.1282 3.34555 16.7698 2 18.6763 2H25.3173C27.2241 2 28.8658 3.34599 29.2397 5.21581L29.2825 5.4302Z"/>
</mask>
<path d="M29.2825 5.4302C29.7556 7.79657 32.2006 9.20836 34.4866 8.43513L35.017 8.25571C36.8231 7.6448 38.8093 8.39355 39.7627 10.0447L43.2005 15.9987C44.0861 17.5325 43.7658 19.4782 42.4351 20.6472C40.7512 22.1265 40.7509 24.7488 42.4345 26.2285L43.3583 27.0404C44.7905 28.2991 45.1352 30.3936 44.1819 32.0449L40.8614 37.7965C39.908 39.4479 37.9215 40.1968 36.1152 39.5856L34.5863 39.0683C32.3003 38.2948 29.8551 39.7065 29.382 42.073L29.2397 42.7843C28.8659 44.6541 27.2242 46 25.3174 46H18.6765C16.7699 46 15.1283 44.6543 14.7542 42.7847L14.6577 42.3021C14.1842 39.9358 11.7391 38.5244 9.45319 39.2979L8.60354 39.5855C6.79733 40.1967 4.81077 39.448 3.85729 37.7967L0.536164 32.0448C-0.417217 30.3936 -0.0726587 28.299 1.35941 27.0403L1.48996 26.9255C3.30234 25.3325 3.30223 22.5095 1.48972 20.9166L1.35865 20.8014C-0.0735373 19.5427 -0.418255 17.4481 0.535032 15.7969L3.85574 10.0449C4.80901 8.39363 6.79524 7.64475 8.60139 8.25559L9.48336 8.55387C11.769 9.32686 14.2135 7.91558 14.6871 5.54972L14.7541 5.21499C15.1282 3.34555 16.7698 2 18.6763 2H25.3173C27.2241 2 28.8658 3.34599 29.2397 5.21581L29.2825 5.4302Z" fill="white"/>
<path d="M14.7541 5.21499L12.7929 4.82248L14.7541 5.21499ZM8.60354 39.5855L7.96244 37.691L8.60354 39.5855ZM3.85729 37.7967L5.58931 36.7966L3.85729 37.7967ZM29.2397 42.7843L31.2009 43.1764L29.2397 42.7843ZM34.5863 39.0683L35.2273 37.1738L34.5863 39.0683ZM29.382 42.073L27.4208 41.6809L29.382 42.073ZM40.8614 37.7965L39.1293 36.7966L40.8614 37.7965ZM36.1152 39.5856L36.7562 37.6911L36.1152 39.5856ZM43.3583 27.0404L44.6786 25.5382L43.3583 27.0404ZM44.1819 32.0449L45.914 33.0448L44.1819 32.0449ZM43.2005 15.9987L41.4685 16.9987L43.2005 15.9987ZM35.017 8.25571L34.3762 6.36116L35.017 8.25571ZM34.4866 8.43513L33.8457 6.54058L34.4866 8.43513ZM34.4866 8.43513L35.1274 10.3297L35.6578 10.1503L35.017 8.25571L34.3762 6.36116L33.8457 6.54058L34.4866 8.43513ZM39.7627 10.0447L38.0307 11.0448L41.4685 16.9987L43.2005 15.9987L44.9325 14.9986L41.4947 9.04464L39.7627 10.0447ZM42.4345 26.2285L41.1142 27.7308L42.0381 28.5427L43.3583 27.0404L44.6786 25.5382L43.7548 24.7262L42.4345 26.2285ZM44.1819 32.0449L42.4498 31.0449L39.1293 36.7966L40.8614 37.7965L42.5935 38.7965L45.914 33.0448L44.1819 32.0449ZM36.1152 39.5856L36.7562 37.6911L35.2273 37.1738L34.5863 39.0683L33.9453 40.9628L35.4742 41.4801L36.1152 39.5856ZM29.382 42.073L27.4208 41.6809L27.2786 42.3921L29.2397 42.7843L31.2009 43.1764L31.3431 42.4652L29.382 42.073ZM25.3174 46V44H18.6765V46V48H25.3174V46ZM14.7542 42.7847L16.7154 42.3924L16.6188 41.9098L14.6577 42.3021L12.6965 42.6945L12.7931 43.1771L14.7542 42.7847ZM9.45319 39.2979L8.81208 37.4035L7.96244 37.691L8.60354 39.5855L9.24465 41.4799L10.0943 41.1924L9.45319 39.2979ZM3.85729 37.7967L5.58931 36.7966L2.26818 31.0447L0.536164 32.0448L-1.19585 33.0448L2.12528 38.7967L3.85729 37.7967ZM1.35941 27.0403L2.6798 28.5425L2.81035 28.4277L1.48996 26.9255L0.169567 25.4233L0.0390199 25.5381L1.35941 27.0403ZM1.48972 20.9166L2.80999 19.4143L2.67892 19.2991L1.35865 20.8014L0.0383821 22.3037L0.169447 22.4188L1.48972 20.9166ZM0.535032 15.7969L2.26711 16.7968L5.58782 11.0448L3.85574 10.0449L2.12366 9.04491L-1.19705 14.7969L0.535032 15.7969ZM8.60139 8.25559L7.96064 10.1502L8.84261 10.4485L9.48336 8.55387L10.1241 6.65929L9.24213 6.36101L8.60139 8.25559ZM14.6871 5.54972L16.6482 5.94223L16.7152 5.60749L14.7541 5.21499L12.7929 4.82248L12.726 5.15721L14.6871 5.54972ZM18.6763 2V4H25.3173V2V0H18.6763V2ZM29.2397 5.21581L27.2785 5.60791L27.3213 5.8223L29.2825 5.4302L31.2437 5.03811L31.2009 4.82372L29.2397 5.21581ZM25.3173 2V4C26.2707 4 27.0916 4.67299 27.2785 5.60791L29.2397 5.21581L31.2009 4.82372C30.6401 2.01898 28.1775 0 25.3173 0V2ZM14.7541 5.21499L16.7152 5.60749C16.9022 4.67277 17.723 4 18.6763 4V2V0C15.8165 0 13.3542 2.01832 12.7929 4.82248L14.7541 5.21499ZM9.48336 8.55387L8.84261 10.4485C12.271 11.6079 15.9379 9.49102 16.6482 5.94223L14.6871 5.54972L12.726 5.15721C12.4892 6.34014 11.2669 7.04578 10.1241 6.65929L9.48336 8.55387ZM3.85574 10.0449L5.58782 11.0448C6.06446 10.2192 7.05757 9.84476 7.96064 10.1502L8.60139 8.25559L9.24213 6.36101C6.5329 5.44475 3.55357 6.56806 2.12366 9.04491L3.85574 10.0449ZM1.35865 20.8014L2.67892 19.2991C1.96283 18.6697 1.79047 17.6225 2.26711 16.7968L0.535032 15.7969L-1.19705 14.7969C-2.62698 17.2738 -2.1099 20.4157 0.0383821 22.3037L1.35865 20.8014ZM1.48996 26.9255L2.81035 28.4277C5.52893 26.0381 5.52876 21.8036 2.80999 19.4143L1.48972 20.9166L0.169447 22.4188C1.0757 23.2153 1.07576 24.6268 0.169567 25.4233L1.48996 26.9255ZM0.536164 32.0448L2.26818 31.0447C1.79149 30.2191 1.96377 29.1718 2.6798 28.5425L1.35941 27.0403L0.0390199 25.5381C-2.10909 27.4262 -2.62592 30.5681 -1.19585 33.0448L0.536164 32.0448ZM8.60354 39.5855L7.96244 37.691C7.05933 37.9966 6.06605 37.6223 5.58931 36.7966L3.85729 37.7967L2.12528 38.7967C3.55549 41.2737 6.53533 42.3968 9.24465 41.4799L8.60354 39.5855ZM14.6577 42.3021L16.6188 41.9098C15.9087 38.3603 12.2409 36.2431 8.81208 37.4035L9.45319 39.2979L10.0943 41.1924C11.2372 40.8056 12.4598 41.5113 12.6965 42.6945L14.6577 42.3021ZM18.6765 46V44C17.7232 44 16.9024 43.3272 16.7154 42.3924L14.7542 42.7847L12.7931 43.1771C13.3542 45.9815 15.8166 48 18.6765 48V46ZM29.2397 42.7843L27.2786 42.3921C27.0916 43.327 26.2708 44 25.3174 44V46V48C28.1776 48 30.6401 45.9811 31.2009 43.1764L29.2397 42.7843ZM34.5863 39.0683L35.2273 37.1738C31.7983 36.0136 28.1305 38.1312 27.4208 41.6809L29.382 42.073L31.3431 42.4652C31.5797 41.2819 32.8023 40.5761 33.9453 40.9628L34.5863 39.0683ZM40.8614 37.7965L39.1293 36.7966C38.6526 37.6223 37.6594 37.9967 36.7562 37.6911L36.1152 39.5856L35.4742 41.4801C38.1836 42.3969 41.1634 41.2736 42.5935 38.7965L40.8614 37.7965ZM43.3583 27.0404L42.0381 28.5427C42.7541 29.172 42.9265 30.2193 42.4498 31.0449L44.1819 32.0449L45.914 33.0448C47.3439 30.568 46.8269 27.4262 44.6786 25.5382L43.3583 27.0404ZM42.4351 20.6472L41.1152 19.1446C38.5247 21.4203 38.5242 25.4545 41.1142 27.7308L42.4345 26.2285L43.7548 24.7262C42.9776 24.0432 42.9778 22.8326 43.7551 22.1497L42.4351 20.6472ZM43.2005 15.9987L41.4685 16.9987C41.8773 17.7068 41.7294 18.605 41.1152 19.1446L42.4351 20.6472L43.7551 22.1497C45.8021 20.3515 46.2949 17.3582 44.9325 14.9986L43.2005 15.9987ZM35.017 8.25571L35.6578 10.1503C36.5609 9.84481 37.554 10.2192 38.0307 11.0448L39.7627 10.0447L41.4947 9.04464C40.0647 6.56792 37.0853 5.44479 34.3762 6.36116L35.017 8.25571ZM34.4866 8.43513L33.8457 6.54058C32.7028 6.92719 31.4803 6.2213 31.2437 5.03811L29.2825 5.4302L27.3213 5.8223C28.031 9.37185 31.6984 11.4895 35.1274 10.3297L34.4866 8.43513Z" fill="#0F1F45" mask="url(#path-1-inside-1_5552_123966)"/>
<circle cx="22" cy="24" r="8" stroke="#0F1F45" stroke-width="2"/>
<rect x="38.5926" y="40.1267" width="4" height="5" transform="rotate(-39.3613 38.5926 40.1267)" stroke="#E60040" stroke-width="2"/>
<path d="M45.8195 40.4104L52.4787 48.5286C53.7046 50.0232 53.4869 52.2285 51.9923 53.4544C50.4978 54.6804 48.2925 54.4626 47.0666 52.9681L40.4074 44.8499L45.8195 40.4104Z" stroke="#E60040" stroke-width="2"/>
<circle cx="33.5939" cy="30.5915" r="10.7907" transform="rotate(-39.3613 33.5939 30.5915)" fill="white" stroke="#E60040" stroke-width="2"/>
<path d="M36.6851 35.7075C37.6554 35.3602 38.4947 34.7214 39.0881 33.8788C39.6815 33.0361 40 32.0306 40 31" stroke="#E60040" stroke-width="2" stroke-linecap="round"/>
</g>
<defs>
<clipPath id="clip0_5552_123966">
<rect width="56" height="56" fill="white"/>
</clipPath>
</defs>
</svg>
