<svg width="56" height="56" viewBox="0 0 56 56" fill="none" xmlns="http://www.w3.org/2000/svg">
<mask id="path-1-inside-1_5552_124012" fill="white">
<path d="M24 55C22.8954 55 22 54.1046 22 53L22 33L28 33L28.0068 32.7432C28.1405 30.1011 30.3247 28 33 28C35.6753 28 37.8595 30.1011 37.9932 32.7432L38 33L42 33C43.1046 33 44 33.8954 44 35L44 53C44 54.1046 43.1046 55 42 55L24 55Z"/>
</mask>
<path d="M24 55C22.8954 55 22 54.1046 22 53L22 33L28 33L28.0068 32.7432C28.1405 30.1011 30.3247 28 33 28C35.6753 28 37.8595 30.1011 37.9932 32.7432L38 33L42 33C43.1046 33 44 33.8954 44 35L44 53C44 54.1046 43.1046 55 42 55L24 55Z" fill="white"/>
<path d="M22 53L20 53V53L22 53ZM22 33L22 31L20 31L20 33L22 33ZM28 33L28 35L29.9475 35L29.9993 33.0532L28 33ZM28.0068 32.7432L26.0094 32.6421L26.0082 32.666L26.0075 32.69L28.0068 32.7432ZM33 28L33 26L33 26L33 28ZM37.9932 32.7432L39.9925 32.69L39.9918 32.666L39.9906 32.6421L37.9932 32.7432ZM38 33L36.0007 33.0532L36.0525 35L38 35L38 33ZM44 35L46 35V35L44 35ZM42 55L42 57V57L42 55ZM24 55L24 53V53L22 53L20 53C20 55.2091 21.7909 57 24 57L24 55ZM22 53L24 53L24 33L22 33L20 33L20 53L22 53ZM22 33L22 35L28 35L28 33L28 31L22 31L22 33ZM28 33L29.9993 33.0532L30.0061 32.7964L28.0068 32.7432L26.0075 32.69L26.0007 32.9468L28 33ZM28.0068 32.7432L30.0043 32.8442C30.0844 31.2605 31.3956 30 33 30L33 28L33 26C29.2538 26 26.1966 28.9417 26.0094 32.6421L28.0068 32.7432ZM33 28L33 30C34.6044 30 35.9156 31.2605 35.9957 32.8442L37.9932 32.7432L39.9906 32.6421C39.8034 28.9417 36.7462 26 33 26L33 28ZM37.9932 32.7432L35.9939 32.7964L36.0007 33.0532L38 33L39.9993 32.9468L39.9925 32.69L37.9932 32.7432ZM38 33L38 35L42 35L42 33L42 31L38 31L38 33ZM42 33L42 35V35L44 35L46 35C46 32.7909 44.2091 31 42 31L42 33ZM44 35L42 35L42 53L44 53L46 53L46 35L44 35ZM44 53L42 53V53L42 55L42 57C44.2091 57 46 55.2091 46 53L44 53ZM42 55L42 53L24 53L24 55L24 57L42 57L42 55Z" fill="#0F1F45" mask="url(#path-1-inside-1_5552_124012)"/>
<mask id="path-3-inside-2_5552_124012" fill="white">
<path d="M2 35C2 33.8954 2.89543 33 4 33L24 33L24 39L24.2568 39.0068C26.8989 39.1405 29 41.3247 29 44C29 46.6753 26.8989 48.8595 24.2568 48.9932L24 49L24 55L4 55C2.89543 55 2 54.1046 2 53L2 35Z"/>
</mask>
<path d="M2 35C2 33.8954 2.89543 33 4 33L24 33L24 39L24.2568 39.0068C26.8989 39.1405 29 41.3247 29 44C29 46.6753 26.8989 48.8595 24.2568 48.9932L24 49L24 55L4 55C2.89543 55 2 54.1046 2 53L2 35Z" fill="white"/>
<path d="M4 33L4 31V31L4 33ZM24 33L26 33L26 31L24 31L24 33ZM24 39L22 39L22 40.9475L23.9468 40.9993L24 39ZM24.2568 39.0068L24.3579 37.0094L24.334 37.0082L24.31 37.0075L24.2568 39.0068ZM29 44L31 44V44L29 44ZM24.2568 48.9932L24.31 50.9925L24.334 50.9918L24.3579 50.9906L24.2568 48.9932ZM24 49L23.9468 47.0007L22 47.0525L22 49L24 49ZM24 55L24 57L26 57L26 55L24 55ZM2 53L-8.74228e-08 53V53L2 53ZM2 35L4 35V35L4 33L4 31C1.79086 31 -9.70792e-07 32.7909 -8.74228e-07 35L2 35ZM4 33L4 35L24 35L24 33L24 31L4 31L4 33ZM24 33L22 33L22 39L24 39L26 39L26 33L24 33ZM24 39L23.9468 40.9993L24.2036 41.0061L24.2568 39.0068L24.31 37.0075L24.0532 37.0007L24 39ZM24.2568 39.0068L24.1558 41.0043C25.7395 41.0844 27 42.3956 27 44L29 44L31 44C31 40.2538 28.0583 37.1966 24.3579 37.0094L24.2568 39.0068ZM29 44L27 44C27 45.6044 25.7395 46.9156 24.1558 46.9957L24.2568 48.9932L24.3579 50.9906C28.0583 50.8034 31 47.7462 31 44L29 44ZM24.2568 48.9932L24.2036 46.9939L23.9468 47.0007L24 49L24.0532 50.9993L24.31 50.9925L24.2568 48.9932ZM24 49L22 49L22 55L24 55L26 55L26 49L24 49ZM24 55L24 53L4 53L4 55L4 57L24 57L24 55ZM4 55L4 53V53L2 53L-8.74228e-08 53C1.28351e-07 55.2091 1.79086 57 4 57L4 55ZM2 53L4 53L4 35L2 35L-8.74228e-07 35L-8.74228e-08 53L2 53Z" fill="#0F1F45" mask="url(#path-3-inside-2_5552_124012)"/>
<mask id="path-5-inside-3_5552_124012" fill="white">
<path d="M22 13C23.1046 13 24 13.8954 24 15V22C22.3431 22 21 23.3431 21 25C21 26.6569 22.3431 28 24 28V35H18C18 37.7614 15.7614 40 13 40C10.2386 40 8 37.7614 8 35H2V15C2 13.8954 2.89543 13 4 13H22Z"/>
</mask>
<path d="M22 13C23.1046 13 24 13.8954 24 15V22C22.3431 22 21 23.3431 21 25C21 26.6569 22.3431 28 24 28V35H18C18 37.7614 15.7614 40 13 40C10.2386 40 8 37.7614 8 35H2V15C2 13.8954 2.89543 13 4 13H22Z" fill="white"/>
<path d="M24 15H26V15H24ZM24 22V24H26V22H24ZM21 25H19V25H21ZM24 28H26V26H24V28ZM24 35V37H26V35H24ZM18 35V33H16V35H18ZM8 35H10V33H8V35ZM2 35H0V37H2V35ZM4 13V11V11V13ZM22 13V15V15H24H26C26 12.7909 24.2091 11 22 11V13ZM24 15H22V22H24H26V15H24ZM24 22V20C21.2386 20 19 22.2386 19 25H21H23C23 24.4477 23.4477 24 24 24V22ZM21 25H19C19 27.7614 21.2386 30 24 30V28V26C23.4477 26 23 25.5523 23 25H21ZM24 28H22V35H24H26V28H24ZM24 35V33H18V35V37H24V35ZM18 35H16C16 36.6569 14.6569 38 13 38V40V42C16.866 42 20 38.866 20 35H18ZM13 40V38C11.3431 38 10 36.6569 10 35H8H6C6 38.866 9.13401 42 13 42V40ZM8 35V33H2V35V37H8V35ZM2 35H4V15H2H0V35H2ZM2 15H4V15V13V11C1.79086 11 0 12.7909 0 15H2ZM4 13V15H22V13V11H4V13Z" fill="#0F1F45" mask="url(#path-5-inside-3_5552_124012)"/>
<mask id="path-7-inside-4_5552_124012" fill="white">
<path d="M34.2678 1.99979C34.8202 1.04347 36.0428 0.716139 36.9993 1.26834L52.5881 10.2683C53.5443 10.8208 53.8718 12.0434 53.3196 12.9998L45.8821 25.8816L42.0002 21.9998L39.0002 24.9998L37.0002 21.9998L35.0002 24.9998L34.8674 25.4392L25.9993 20.3201C25.043 19.7677 24.7157 18.5451 25.2678 17.5887L27.7151 13.3474C26.8309 12.6138 26.2679 11.507 26.2678 10.2683C26.2678 8.0592 28.0587 6.26834 30.2678 6.26834C30.7571 6.26839 31.2261 6.35554 31.6594 6.51639L34.2678 1.99979Z"/>
</mask>
<path d="M34.2678 1.99979L32.536 0.999457L32.5359 0.999575L34.2678 1.99979ZM36.9993 1.26834L37.9993 -0.46372L37.9993 -0.463721L36.9993 1.26834ZM52.5881 10.2683L53.5887 8.53659L53.5881 8.53628L52.5881 10.2683ZM53.3196 12.9998L55.0516 13.9998L55.0516 13.9998L53.3196 12.9998ZM45.8821 25.8816L44.4679 27.2958L46.3109 29.1389L47.6141 26.8816L45.8821 25.8816ZM42.0002 21.9998L43.4145 20.5856L42.0002 19.1714L40.586 20.5856L42.0002 21.9998ZM39.0002 24.9998L37.3361 26.1092L38.6894 28.1391L40.4145 26.414L39.0002 24.9998ZM37.0002 21.9998L38.6643 20.8904L37.0002 18.3942L35.3361 20.8904L37.0002 21.9998ZM35.0002 24.9998L33.3361 23.8904L33.1716 24.1372L33.0858 24.4212L35.0002 24.9998ZM34.8674 25.4392L33.8676 27.1714L36.0522 28.4324L36.7819 26.0178L34.8674 25.4392ZM25.9993 20.3201L24.9989 22.0519L24.9994 22.0522L25.9993 20.3201ZM25.2678 17.5887L26.9999 18.5886L27.0001 18.5882L25.2678 17.5887ZM27.7151 13.3474L29.4474 14.347L30.2906 12.8857L28.9922 11.8083L27.7151 13.3474ZM26.2678 10.2683H24.2678L24.2678 10.2685L26.2678 10.2683ZM30.2678 6.26834L30.268 4.26834H30.2678V6.26834ZM31.6594 6.51639L30.9635 8.39139L32.5468 8.97907L33.3914 7.5166L31.6594 6.51639ZM34.2678 1.99979L35.9997 3.00012L35.9993 3.0004L36.9993 1.26834L37.9993 -0.463721C36.0866 -1.56797 33.6409 -0.913457 32.536 0.999457L34.2678 1.99979ZM36.9993 1.26834L35.9993 3.0004L51.5882 12.0004L52.5881 10.2683L53.5881 8.53628L37.9993 -0.46372L36.9993 1.26834ZM52.5881 10.2683L51.5876 12.0001L51.5875 11.9998L53.3196 12.9998L55.0516 13.9998C56.156 12.087 55.501 9.64146 53.5887 8.53659L52.5881 10.2683ZM53.3196 12.9998L51.5875 11.9998L44.15 24.8816L45.8821 25.8816L47.6141 26.8816L55.0516 13.9998L53.3196 12.9998ZM45.8821 25.8816L47.2963 24.4674L43.4145 20.5856L42.0002 21.9998L40.586 23.414L44.4679 27.2958L45.8821 25.8816ZM42.0002 21.9998L40.586 20.5856L37.586 23.5856L39.0002 24.9998L40.4145 26.414L43.4145 23.414L42.0002 21.9998ZM39.0002 24.9998L40.6643 23.8904L38.6643 20.8904L37.0002 21.9998L35.3361 23.1092L37.3361 26.1092L39.0002 24.9998ZM37.0002 21.9998L35.3361 20.8904L33.3361 23.8904L35.0002 24.9998L36.6643 26.1092L38.6643 23.1092L37.0002 21.9998ZM35.0002 24.9998L33.0858 24.4212L32.953 24.8606L34.8674 25.4392L36.7819 26.0178L36.9147 25.5784L35.0002 24.9998ZM34.8674 25.4392L35.8673 23.7071L26.9991 18.588L25.9993 20.3201L24.9994 22.0522L33.8676 27.1714L34.8674 25.4392ZM25.9993 20.3201L26.9996 18.5883L26.9999 18.5886L25.2678 17.5887L23.5357 16.5887C22.4316 18.5013 23.0861 20.947 24.9989 22.0519L25.9993 20.3201ZM25.2678 17.5887L27.0001 18.5882L29.4474 14.347L27.7151 13.3474L25.9828 12.3479L23.5355 16.5891L25.2678 17.5887ZM27.7151 13.3474L28.9922 11.8083C28.5463 11.4383 28.2679 10.8868 28.2678 10.2682L26.2678 10.2683L24.2678 10.2685C24.268 12.1272 25.1156 13.7893 26.438 14.8866L27.7151 13.3474ZM26.2678 10.2683H28.2678C28.2678 9.16377 29.1633 8.26834 30.2678 8.26834V6.26834V4.26834C26.9541 4.26834 24.2678 6.95463 24.2678 10.2683H26.2678ZM30.2678 6.26834L30.2676 8.26834C30.5181 8.26836 30.7515 8.31272 30.9635 8.39139L31.6594 6.51639L32.3554 4.64138C31.7006 4.39836 30.9962 4.26841 30.268 4.26834L30.2678 6.26834ZM31.6594 6.51639L33.3914 7.5166L35.9998 3L34.2678 1.99979L32.5359 0.999575L29.9275 5.51618L31.6594 6.51639Z" fill="#E60040" mask="url(#path-7-inside-4_5552_124012)"/>
<path d="M47.5906 35.965C48.4556 35.8621 49.2787 35.535 49.9784 35.0161C50.678 34.4973 51.23 33.8046 51.5796 33.0068C51.9292 32.2089 52.0643 31.3336 51.9716 30.4675C51.8788 29.6014 51.5614 28.7745 51.0507 28.0688" stroke="#E60040" stroke-width="2" stroke-linecap="round"/>
<path d="M49.25 29.6651L50.1651 26.25L53.5801 27.1651" stroke="#E60040" stroke-width="2" stroke-linecap="round" stroke-linejoin="round"/>
</svg>
