<svg width="56" height="56" viewBox="0 0 56 56" fill="none" xmlns="http://www.w3.org/2000/svg">
<path d="M24.7256 7.82324L25.9961 14.1768H16.0039L17.2744 7.82324H24.7256Z" stroke="#0F1F45" stroke-width="1.64586"/>
<mask id="path-2-inside-1_5552_123829" fill="white">
<path d="M39 13C39.5523 13 40 13.4477 40 14V42C40 42.5523 39.5523 43 39 43H32.1865L31.3242 40.7324L32.1084 34.8799L30.0615 31.5V35.5449L28.377 38.3311L29.6396 39.8096L28.5479 43H3C2.44772 43 2 42.5523 2 42V14C2 13.4477 2.44772 13 3 13H39Z"/>
</mask>
<path d="M39 13V11.3541V11.3541V13ZM40 14H41.6459H40ZM40 42L41.6459 42V42H40ZM39 43V44.6459V43ZM32.1865 43L30.6481 43.585L31.0516 44.6459H32.1865V43ZM31.3242 40.7324L29.6929 40.5138L29.6375 40.9274L29.7858 41.3174L31.3242 40.7324ZM32.1084 34.8799L33.7397 35.0985L33.8167 34.5235L33.5162 34.0273L32.1084 34.8799ZM30.0615 31.5L31.4693 30.6474L28.4157 25.6051V31.5H30.0615ZM30.0615 35.5449L31.47 36.3965L31.7074 36.0038V35.5449H30.0615ZM28.377 38.3311L26.9685 37.4795L26.3537 38.4963L27.1254 39.3999L28.377 38.3311ZM29.6396 39.8096L31.1968 40.3425L31.5007 39.4544L30.8912 38.7407L29.6396 39.8096ZM28.5479 43V44.6459H29.7242L30.1051 43.5329L28.5479 43ZM3 43L3 44.6459H3V43ZM2 42H0.354143V42L2 42ZM2 14L0.354143 14V14H2ZM3 13V11.3541V13ZM39 13V14.6459C38.6433 14.6459 38.3541 14.3567 38.3541 14H40H41.6459C41.6459 12.5387 40.4613 11.3541 39 11.3541V13ZM40 14H38.3541V42H40H41.6459V14H40ZM40 42L38.3541 42C38.3541 41.6433 38.6433 41.3541 39 41.3541V43V44.6459C40.4613 44.6459 41.6459 43.4613 41.6459 42L40 42ZM39 43V41.3541H32.1865V43V44.6459H39V43ZM32.1865 43L33.7249 42.415L32.8626 40.1474L31.3242 40.7324L29.7858 41.3174L30.6481 43.585L32.1865 43ZM31.3242 40.7324L32.9555 40.951L33.7397 35.0985L32.1084 34.8799L30.4771 34.6613L29.6929 40.5138L31.3242 40.7324ZM32.1084 34.8799L33.5162 34.0273L31.4693 30.6474L30.0615 31.5L28.6537 32.3526L30.7006 35.7325L32.1084 34.8799ZM30.0615 31.5H28.4157V35.5449H30.0615H31.7074V31.5H30.0615ZM30.0615 35.5449L28.6531 34.6933L26.9685 37.4795L28.377 38.3311L29.7854 39.1826L31.47 36.3965L30.0615 35.5449ZM28.377 38.3311L27.1254 39.3999L28.3881 40.8784L29.6396 39.8096L30.8912 38.7407L29.6285 37.2622L28.377 38.3311ZM29.6396 39.8096L28.0824 39.2767L26.9907 42.4671L28.5479 43L30.1051 43.5329L31.1968 40.3425L29.6396 39.8096ZM28.5479 43V41.3541H3V43V44.6459H28.5479V43ZM3 43L3 41.3541C3.3567 41.3541 3.64586 41.6433 3.64586 42L2 42L0.354143 42C0.354145 43.4613 1.53873 44.6459 3 44.6459L3 43ZM2 42H3.64586V14H2H0.354143V42H2ZM2 14L3.64586 14C3.64586 14.3567 3.3567 14.6459 3 14.6459V13V11.3541C1.53873 11.3541 0.354145 12.5387 0.354143 14L2 14ZM3 13V14.6459H39V13V11.3541H3V13Z" fill="#0F1F45" mask="url(#path-2-inside-1_5552_123829)"/>
<path d="M35.1113 7L38.4209 14H3.5791L6.88867 7H35.1113Z" stroke="#0F1F45" stroke-width="2"/>
<path d="M26 14V21.6523L22.0576 20.457C21.7076 20.351 21.3347 20.3437 20.9805 20.4346L16 21.7109V14H26Z" stroke="#0F1F45" stroke-width="2"/>
<line x1="6" y1="36" x2="14" y2="36" stroke="#0F1F45" stroke-width="2"/>
<path d="M26 49H49C51.7614 49 54 46.7614 54 44C54 41.2386 51.7614 39 49 39H44.5" stroke="#E60040" stroke-width="2"/>
<path d="M47 35L44 39L47 43" stroke="#E60040" stroke-width="2"/>
</svg>
