<svg width="56" height="56" viewBox="0 0 56 56" fill="none" xmlns="http://www.w3.org/2000/svg">
<line x1="8.37312" y1="25.7943" x2="3.60716" y2="29.4393" stroke="#0F1F45" stroke-width="2"/>
<line y1="-1" x2="6" y2="-1" transform="matrix(-0.132113 0.991235 0.991235 0.132113 13.793 29)" stroke="#0F1F45" stroke-width="2"/>
<line x1="45.4881" y1="37.8728" x2="38.4872" y2="41.7882" stroke="#E60040" stroke-width="2"/>
<path d="M27.8464 8.85107L27.3464 7.98503L27.3464 7.98505L27.8464 8.85107ZM34.4744 7.91116L34.9464 7.02954L34.9463 7.02952L34.4744 7.91116ZM46.0005 37.6894L46.8461 37.1556L46.8461 37.1556L46.0005 37.6894ZM44.6877 43.0075L45.1877 43.8735L45.1877 43.8735L44.6877 43.0075ZM39.4266 41.4848L40.3117 41.0194L40.3117 41.0194L39.4266 41.4848ZM21.5034 20.6322L22.3694 20.1322L20.6279 21.1155L21.5034 20.6322ZM21.1327 21.9648L21.6324 22.8311L21.6327 22.8308L21.1327 21.9648ZM17.3085 16.9011L17.6524 15.9621L17.3085 16.9011ZM17.366 25.2942L17.866 26.1603L17.366 25.2942ZM29.478 20.6108L30.3441 20.1108L29.478 20.6108ZM28.112 20.2447L27.612 19.3787L28.112 20.2447ZM20.5288 23.0536L19.5436 22.8823L20.5288 23.0536ZM20.0436 23.7483L19.5436 22.8823L20.0436 23.7483ZM35.0123 20.2833L34.1667 20.8171L35.0123 20.2833ZM29.8469 23.2683L30.7319 22.8029L29.8469 23.2683ZM33.65 19.9325L34.516 19.4325L33.65 19.9325ZM32.9007 18.6347L32.0347 19.1347L32.9007 18.6347ZM40.4213 11.4583L39.8898 12.3054L40.4213 11.4583ZM27.8464 8.85107C28.3464 9.71711 28.3462 9.71724 28.346 9.71735C28.3459 9.71738 28.3457 9.71748 28.3457 9.71753C28.3455 9.71764 28.3453 9.71771 28.3453 9.71774C28.3452 9.71781 28.3453 9.71775 28.3456 9.71755C28.3463 9.71715 28.348 9.71621 28.3506 9.71475C28.3557 9.71184 28.3645 9.70686 28.3769 9.70001C28.4017 9.6863 28.4405 9.66511 28.492 9.63787C28.5952 9.58333 28.7488 9.50494 28.9423 9.41409C29.3311 9.23148 29.8712 9.00324 30.4806 8.81642C31.7619 8.4236 33.0777 8.29777 34.0025 8.79279L34.4744 7.91116L34.9463 7.02952C33.2767 6.13581 31.2785 6.47993 29.8944 6.90426C29.1711 7.12601 28.5406 7.39314 28.0921 7.60375C27.8669 7.70952 27.6851 7.8022 27.5576 7.86959C27.4938 7.90331 27.4434 7.93079 27.4078 7.95051C27.39 7.96038 27.3758 7.96831 27.3656 7.97412C27.3604 7.97703 27.3562 7.97941 27.353 7.98124C27.3514 7.98215 27.3501 7.98292 27.349 7.98356C27.3484 7.98387 27.348 7.98416 27.3475 7.9844C27.3473 7.98453 27.347 7.98468 27.3469 7.98475C27.3467 7.98489 27.3464 7.98503 27.8464 8.85107ZM34.4744 7.91116L34.0024 8.79277C35.6744 9.68786 38.2823 11.2968 39.8898 12.3054L40.4213 11.4583L40.9527 10.6112C39.3529 9.60744 36.6884 7.96213 34.9464 7.02954L34.4744 7.91116ZM40.3861 13.1583L39.8861 12.2922L32.7667 16.4026L33.2667 17.2687L33.7667 18.1347L40.8861 14.0243L40.3861 13.1583ZM32.9007 18.6347L32.0347 19.1347L32.784 20.4325L33.65 19.9325L34.516 19.4325L33.7667 18.1347L32.9007 18.6347ZM35.0123 20.2833L34.1667 20.8171L45.1549 38.2232L46.0005 37.6894L46.8461 37.1556L35.8579 19.7495L35.0123 20.2833ZM46.0005 37.6894L45.1549 38.2232C46.0031 39.5668 45.5636 41.3471 44.1877 42.1414L44.6877 43.0075L45.1877 43.8735C47.5472 42.5112 48.3003 39.4592 46.8461 37.1556L46.0005 37.6894ZM44.6877 43.0075L44.1878 42.1414C42.8122 42.9355 41.0514 42.426 40.3117 41.0194L39.4266 41.4848L38.5415 41.9502C39.8093 44.3611 42.828 45.2358 45.1877 43.8735L44.6877 43.0075ZM39.4266 41.4848L40.3117 41.0194L30.7319 22.8029L29.8469 23.2683L28.9618 23.7338L38.5416 41.9503L39.4266 41.4848ZM30.2261 21.9064L31.0921 21.4064L30.3441 20.1108L29.478 20.6108L28.612 21.1108L29.3601 22.4064L30.2261 21.9064ZM28.112 20.2447L27.612 19.3787L23.3538 21.8372L23.8538 22.7032L24.3538 23.5692L28.612 21.1108L28.112 20.2447ZM22.4878 22.3372L23.3538 21.8372L22.3694 20.1322L21.5034 20.6322L20.6374 21.1322L21.6217 22.8372L22.4878 22.3372ZM21.5034 20.6322L20.6279 21.1155C20.628 21.1157 20.6277 21.1151 20.6273 21.1139C20.627 21.1128 20.6267 21.1115 20.6266 21.1104C20.6263 21.1082 20.6266 21.107 20.6267 21.1065C20.6269 21.106 20.6274 21.1046 20.6289 21.1026C20.6297 21.1016 20.6306 21.1006 20.6316 21.0998C20.6326 21.0989 20.6331 21.0986 20.6327 21.0988L21.1327 21.9648L21.6327 22.8308C22.573 22.288 22.9006 21.0942 22.3788 20.1489L21.5034 20.6322ZM20.6167 22.5477L19.6315 22.3764L19.5436 22.8823L20.5288 23.0536L21.514 23.2248L21.602 22.7189L20.6167 22.5477ZM20.0436 23.7483L19.5436 22.8823L16.866 24.4282L17.366 25.2942L17.866 26.1603L20.5436 24.6144L20.0436 23.7483ZM16 24.9282L16.866 24.4282L13.866 19.2321L13 19.7321L12.134 20.2321L15.134 25.4282L16 24.9282ZM13.366 18.366L13.866 19.2321L16.5438 17.686L16.0438 16.82L15.5438 15.954L12.866 17.5L13.366 18.366ZM16.8877 16.747L16.5438 17.686L16.9646 17.8401L17.3085 16.9011L17.6524 15.9621L17.2316 15.808L16.8877 16.747ZM18.5184 15.4621L19.3845 14.9621L19.3538 14.909L18.4878 15.409L17.6217 15.909L17.6524 15.9621L18.5184 15.4621ZM18.8538 14.043L19.3538 14.909L28.3464 9.7171L27.8464 8.85107L27.3464 7.98505L18.3538 13.1769L18.8538 14.043ZM18.4878 15.409L19.3538 14.909L19.3538 14.909L18.8538 14.043L18.3538 13.1769C17.3972 13.7292 17.0694 14.9524 17.6217 15.909L18.4878 15.409ZM17.3085 16.9011L16.9646 17.8401C18.7198 18.4829 20.3191 16.5809 19.3845 14.9621L18.5184 15.4621L17.6524 15.9621V15.9621L17.3085 16.9011ZM16.0438 16.82L16.5438 17.686V17.686L16.8877 16.747L17.2316 15.808C16.6752 15.6042 16.057 15.6577 15.5438 15.954L16.0438 16.82ZM13 19.7321L13.866 19.2321V19.2321L13.366 18.366L12.866 17.5C11.9094 18.0523 11.5817 19.2755 12.134 20.2321L13 19.7321ZM17.366 25.2942L16.866 24.4282L16.866 24.4282L16 24.9282L15.134 25.4282C15.6863 26.3848 16.9094 26.7125 17.866 26.1603L17.366 25.2942ZM23.8538 22.7032L23.3538 21.8372V21.8372L22.4878 22.3372L21.6217 22.8372C22.174 23.7938 23.3972 24.1215 24.3538 23.5692L23.8538 22.7032ZM29.478 20.6108L30.3441 20.1108C29.7918 19.1542 28.5686 18.8264 27.612 19.3787L28.112 20.2447L28.612 21.1108V21.1108L29.478 20.6108ZM30.0413 22.5961L30.5413 23.4621C31.2611 23.0466 31.5077 22.1262 31.0921 21.4064L30.2261 21.9064L29.3601 22.4064C29.2233 22.1696 29.3045 21.8668 29.5413 21.7301L30.0413 22.5961ZM20.5288 23.0536L19.5436 22.8823V22.8823L20.0436 23.7483L20.5436 24.6144C21.057 24.3179 21.4125 23.8089 21.514 23.2248L20.5288 23.0536ZM34.3363 20.1164L34.8363 20.9824C34.6049 21.116 34.3093 21.043 34.1667 20.8171L35.0123 20.2833L35.8579 19.7495C35.4273 19.0673 34.5349 18.847 33.8363 19.2503L34.3363 20.1164ZM29.8469 23.2683L30.7319 22.8029C30.8557 23.0382 30.7715 23.3292 30.5413 23.4621L30.0413 22.5961L29.5413 21.7301C28.8415 22.1341 28.5857 23.0186 28.9618 23.7338L29.8469 23.2683ZM21.1327 21.9648L20.6331 21.0986C20.3924 21.2374 19.7628 21.6209 19.6315 22.3764L20.6167 22.5477L21.602 22.7189C21.5917 22.7779 21.5716 22.8257 21.5524 22.8594C21.5342 22.8912 21.5189 22.9069 21.5177 22.9081C21.5167 22.9092 21.5242 22.9015 21.5454 22.8862C21.5663 22.8711 21.5946 22.8528 21.6324 22.8311L21.1327 21.9648ZM33.65 19.9325L32.784 20.4325C33.1988 21.1511 34.1177 21.3973 34.8363 20.9824L34.3363 20.1164L33.8363 19.2503C34.0743 19.1129 34.3786 19.1945 34.516 19.4325L33.65 19.9325ZM33.2667 17.2687L32.7667 16.4026C31.8101 16.9549 31.4824 18.1781 32.0347 19.1347L32.9007 18.6347L33.7667 18.1347V18.1347L33.2667 17.2687ZM40.4213 11.4583L39.8898 12.3054C39.8937 12.3078 39.8937 12.3084 39.8919 12.3065C39.8902 12.3047 39.8885 12.3023 39.8872 12.2997C39.8848 12.2951 39.8854 12.2936 39.8854 12.2958C39.8853 12.298 39.8847 12.2975 39.8864 12.2945C39.8874 12.2927 39.8887 12.2911 39.8898 12.2899C39.8911 12.2887 39.8905 12.2897 39.8861 12.2922L40.3861 13.1583L40.8861 14.0243C42.1811 13.2766 42.2324 11.4141 40.9527 10.6112L40.4213 11.4583Z" fill="#E60040"/>
<line x1="30.625" y1="22.4308" x2="34.0891" y2="20.4308" stroke="#E60040" stroke-width="2"/>
<line x1="8.1549" y1="21.228" x2="2.61531" y2="18.923" stroke="#0F1F45" stroke-width="2"/>
<rect x="3" y="50" width="50" height="4" rx="1" stroke="#0F1F45" stroke-width="2"/>
</svg>
