<svg width="56" height="58" viewBox="0 0 56 58" fill="none" xmlns="http://www.w3.org/2000/svg">
<mask id="path-1-outside-1_5552_123810" maskUnits="userSpaceOnUse" x="26" y="-0.984375" width="22" height="39" fill="black">
<rect fill="white" x="26" y="-0.984375" width="22" height="39"/>
<path d="M41 2.49982C41.0003 2.12901 41.389 1.8908 41.7051 2.08478C44.281 3.66792 45.9999 6.51045 46 9.75568C45.9999 13.2888 43.9627 16.3442 41 17.8172V35.9529H33V17.8172C30.0373 16.3442 28.0001 13.2888 28 9.75568C28.0001 6.51045 29.719 3.66792 32.2949 2.08478C32.611 1.8908 32.9997 2.12901 33 2.49982V7.45294C33 7.72909 33.2239 7.95294 33.5 7.95294L40.5 7.95294C40.7761 7.95294 41 7.72909 41 7.45294V2.49982Z"/>
</mask>
<path d="M41 2.49982C41.0003 2.12901 41.389 1.8908 41.7051 2.08478C44.281 3.66792 45.9999 6.51045 46 9.75568C45.9999 13.2888 43.9627 16.3442 41 17.8172V35.9529H33V17.8172C30.0373 16.3442 28.0001 13.2888 28 9.75568C28.0001 6.51045 29.719 3.66792 32.2949 2.08478C32.611 1.8908 32.9997 2.12901 33 2.49982V7.45294C33 7.72909 33.2239 7.95294 33.5 7.95294L40.5 7.95294C40.7761 7.95294 41 7.72909 41 7.45294V2.49982Z" fill="white"/>
<path d="M41 2.49982L39 2.49799V2.49982L41 2.49982ZM41.7051 2.08478L42.7523 0.380862L42.7513 0.380239L41.7051 2.08478ZM46 9.75568L48 9.75575V9.75563L46 9.75568ZM41 17.8172L40.1096 16.0263L39 16.578V17.8172H41ZM41 35.9529V37.9529H43V35.9529H41ZM33 35.9529H31V37.9529H33V35.9529ZM33 17.8172H35V16.578L33.8904 16.0263L33 17.8172ZM28 9.75568L26 9.75563V9.75575L28 9.75568ZM32.2949 2.08478L31.2487 0.38024L31.2477 0.380862L32.2949 2.08478ZM33 2.49982H35L35 2.49799L33 2.49982ZM41 2.49982L43 2.50165C42.9991 3.53579 41.8071 4.49407 40.6589 3.78932L41.7051 2.08478L42.7513 0.380239C40.971 -0.712477 39.0016 0.72224 39 2.49799L41 2.49982ZM41.7051 2.08478L40.6579 3.7887C42.6673 5.02366 43.9999 7.23485 44 9.75572L46 9.75568L48 9.75563C47.9999 5.78605 45.8947 2.31217 42.7523 0.380862L41.7051 2.08478ZM46 9.75568L44 9.75561C43.9999 12.4996 42.4198 14.8778 40.1096 16.0263L41 17.8172L41.8904 19.6081C45.5056 17.8107 47.9998 14.0779 48 9.75575L46 9.75568ZM41 17.8172H39V35.9529H41H43V17.8172H41ZM41 35.9529V33.9529H33V35.9529V37.9529H41V35.9529ZM33 35.9529H35V17.8172H33H31V35.9529H33ZM33 17.8172L33.8904 16.0263C31.5802 14.8778 30.0001 12.4996 30 9.75561L28 9.75568L26 9.75575C26.0002 14.0779 28.4944 17.8107 32.1096 19.6081L33 17.8172ZM28 9.75568L30 9.75572C30.0001 7.23485 31.3327 5.02366 33.3421 3.7887L32.2949 2.08478L31.2477 0.380862C28.1053 2.31217 26.0001 5.78605 26 9.75563L28 9.75568ZM32.2949 2.08478L33.3411 3.78932C32.1929 4.49407 31.0009 3.53579 31 2.50165L33 2.49982L35 2.49799C34.9984 0.72224 33.029 -0.712478 31.2487 0.38024L32.2949 2.08478ZM33 2.49982L31 2.49982V7.45294H33H35V2.49982H33ZM33 7.45294H31C31 8.83366 32.1193 9.95294 33.5 9.95294V7.95294V5.95294C34.3284 5.95294 35 6.62452 35 7.45294H33ZM33.5 7.95294V9.95294H40.5V7.95294V5.95294L33.5 5.95294V7.95294ZM40.5 7.95294V9.95294C41.8807 9.95294 43 8.83366 43 7.45294H41H39C39 6.62452 39.6716 5.95294 40.5 5.95294V7.95294ZM41 7.45294H43V2.49982H41L39 2.49982V7.45294H41Z" fill="#E60040" mask="url(#path-1-outside-1_5552_123810)"/>
<mask id="path-3-inside-2_5552_123810" fill="white">
<rect x="7" y="24.9531" width="12" height="29" rx="1"/>
</mask>
<rect x="7" y="24.9531" width="12" height="29" rx="1" stroke="#0F1F45" stroke-width="4" mask="url(#path-3-inside-2_5552_123810)"/>
<line x1="37" y1="20.9531" x2="37" y2="28.9531" stroke="#E60040" stroke-width="2"/>
<path d="M24.0515 51.81C19.8621 51.4878 18 49.4789 18 49.4789V29.4724C18 29.4724 20.9971 25.9028 24.5172 24.3534C28.0373 22.804 31.9653 22.9573 31.9653 22.9573V26.4475V29.4724H42.2069C42.2069 29.4724 44.0692 30.4032 44.0692 32.73C44.0692 35.0568 43.1377 35.5222 43.1377 35.5222C43.1377 35.5222 45 35.9834 45 38.3102C45 40.637 43.1377 41.1066 43.1377 41.1066C43.1377 41.1066 45 41.5677 45 43.8946C45 46.2214 42.6722 46.2256 42.6722 46.2256C42.6722 46.2256 44.0692 46.6868 44.0692 49.0136C44.0692 51.3404 42.6722 51.81 42.6722 51.81C42.6722 51.81 28.241 52.1321 24.0515 51.81Z" fill="white"/>
<path d="M42.6722 46.2256H38.9481M42.6722 46.2256C42.6722 46.2256 44.0692 46.6868 44.0692 49.0136C44.0692 51.3404 42.6722 51.81 42.6722 51.81C42.6722 51.81 28.241 52.1321 24.0515 51.81C19.8621 51.4878 18 49.4789 18 49.4789V29.4724C18 29.4724 20.9971 25.9028 24.5172 24.3534C28.0373 22.804 31.9653 22.9573 31.9653 22.9573V26.4475V29.4724H42.2069C42.2069 29.4724 44.0692 30.4032 44.0692 32.73C44.0692 35.0568 43.1377 35.5222 43.1377 35.5222M42.6722 46.2256C42.6722 46.2256 45 46.2214 45 43.8946C45 41.5677 43.1377 41.1066 43.1377 41.1066M43.1377 41.1066H39.4136M43.1377 41.1066C43.1377 41.1066 45 40.637 45 38.3102C45 35.9834 43.1377 35.5222 43.1377 35.5222M43.1377 35.5222H39.4136" stroke="#0F1F45" stroke-width="2"/>
</svg>
