<svg width="56" height="56" viewBox="0 0 56 56" fill="none" xmlns="http://www.w3.org/2000/svg">
<circle cx="28" cy="22.5" r="11" stroke="#E60040" stroke-width="2"/>
<path d="M24 22.3831L26.735 25.5L32 19.5" stroke="#E60040" stroke-width="2" stroke-linecap="round" stroke-linejoin="round"/>
<path d="M25.2188 3.08203C26.7694 1.58189 29.2306 1.5819 30.7812 3.08203L31.3574 3.63965C32.6874 4.9263 34.5369 5.52661 36.3691 5.26758L37.1641 5.15527C39.3001 4.85338 41.2912 6.29999 41.6641 8.4248L41.8027 9.21484C42.1225 11.0375 43.2648 12.6111 44.8994 13.4785L45.6084 13.8545C47.5142 14.8657 48.2747 17.2062 47.3271 19.1445L46.9746 19.8652C46.1621 21.5277 46.1621 23.4723 46.9746 25.1348L47.3271 25.8555C48.2747 27.7938 47.5142 30.1343 45.6084 31.1455L44.8994 31.5215C43.2648 32.3889 42.1225 33.9625 41.8027 35.7852L41.6641 36.5752C41.2912 38.7 39.3001 40.1466 37.1641 39.8447L36.3701 39.7324C34.5377 39.4732 32.6875 40.0736 31.3574 41.3604L30.7812 41.918C29.2306 43.4181 26.7694 43.4181 25.2188 41.918L24.6426 41.3604C23.3125 40.0736 21.4623 39.4732 19.6299 39.7324L18.8359 39.8447C16.6999 40.1466 14.7088 38.7 14.3359 36.5752L14.1973 35.7852C13.8775 33.9625 12.7352 32.3889 11.1006 31.5215L10.3916 31.1455C8.48578 30.1343 7.72534 27.7938 8.67285 25.8555L9.02539 25.1348C9.83793 23.4723 9.83793 21.5277 9.02539 19.8652L8.67285 19.1445C7.72534 17.2062 8.48578 14.8657 10.3916 13.8545L11.1006 13.4785C12.7352 12.6111 13.8775 11.0375 14.1973 9.21484L14.3359 8.4248C14.7088 6.29999 16.6999 4.85338 18.8359 5.15527L19.6309 5.26758C21.4631 5.52661 23.3126 4.9263 24.6426 3.63965L25.2188 3.08203Z" stroke="#0F1F45" stroke-width="2"/>
<path d="M14.198 36.8354L8.89619 48.0951C8.72012 48.469 9.04799 48.8829 9.4523 48.7972L18.3072 46.9189C18.5358 46.8704 18.7676 46.9868 18.8652 47.1992L21.8995 53.8002C22.0736 54.1789 22.6074 54.1909 22.7983 53.8203L28.1982 43.3359" stroke="#0F1F45" stroke-width="2" stroke-linecap="round"/>
<path d="M42.067 36.4742L48.02 48.7909C48.2075 49.1788 47.8494 49.6063 47.4346 49.4898L38.7074 47.0373C38.4651 46.9692 38.2099 47.0919 38.1117 47.3237L35.0878 54.464C34.9177 54.8656 34.351 54.8722 34.1716 54.4747L29.2724 43.6185" stroke="#0F1F45" stroke-width="2" stroke-linecap="round"/>
</svg>
