<svg width="110" height="110" viewBox="0 0 110 110" fill="none" xmlns="http://www.w3.org/2000/svg">
<g opacity="0.7">
<path d="M96 36C101.523 36 106 31.5228 106 26C106 20.4772 101.523 16 96 16C90.4772 16 86 20.4772 86 26C86 31.5228 90.4772 36 96 36Z" stroke="white" stroke-width="2" stroke-miterlimit="10"/>
<path d="M55 108C60.5228 108 65 103.523 65 98C65 92.4772 60.5228 88 55 88C49.4772 88 45 92.4772 45 98C45 103.523 49.4772 108 55 108Z" stroke="white" stroke-width="2" stroke-miterlimit="10"/>
<path d="M14 36C19.5228 36 24 31.5228 24 26C24 20.4772 19.5228 16 14 16C8.47715 16 4 20.4772 4 26C4 31.5228 8.47715 36 14 36Z" stroke="white" stroke-width="2" stroke-miterlimit="10"/>
<path d="M26.0608 10.8955C34.2828 5.28543 44.2532 2 55 2C65.7468 2 75.7172 5.28543 83.9392 10.8955M4.7916 43.5124C4.27143 46.4 4 49.3726 4 52.4079C4 73.421 17.0085 91.431 35.5 99M105.121 43.0382C105.698 46.0742 106 49.2062 106 52.4079C106 73.421 92.9915 91.431 74.5 99" stroke="white" stroke-width="2" stroke-miterlimit="10" stroke-linecap="round" stroke-linejoin="round"/>
</g>
<path d="M55 22C65.4934 22 74 30.5066 74 41C74 48.237 69.9535 54.5281 64 57.7363V60H46V57.7363C40.0465 54.5281 36 48.237 36 41C36 30.5066 44.5066 22 55 22Z" fill="#E60040"/>
<path opacity="0.2" d="M44.9014 24.9062C43.0635 27.831 42 31.2917 42 35.001C42 45.4944 50.5066 54.001 61 54.001C64.7092 54.001 68.169 52.9364 71.0938 51.0986C69.3636 53.8502 66.95 56.1285 64.0879 57.6904V60.002H45.9141V57.6914C40.0077 54.4692 36.0001 48.2039 36 41.002C36 34.2197 39.5543 28.2681 44.9014 24.9062Z" fill="black"/>
<rect x="46" y="63" width="18" height="3" fill="#E60040"/>
<path d="M59 74C59 75.1046 58.1046 76 57 76H53C51.8954 76 51 75.1046 51 74V73H48C46.8954 73 46 72.1046 46 71V69H64V71C64 72.1046 63.1046 73 62 73H59V74Z" fill="#E60040"/>
<path d="M50 60L50 43C52.7846 45.705 57.2154 45.705 60 43V60" stroke="white" stroke-width="2" stroke-linejoin="bevel"/>
</svg>
