<svg width="110" height="111" viewBox="0 0 110 111" fill="none" xmlns="http://www.w3.org/2000/svg">
<g opacity="0.7">
<path d="M64.2422 3L35.9579 31.2843C32.8337 34.4085 32.8337 39.4738 35.9579 42.598L43.029 49.669C46.1532 52.7932 51.2185 52.7932 54.3427 49.669L67.8125 36.1992" stroke="white" stroke-width="2"/>
<path d="M89 32H103C106.314 32 109 34.6863 109 38V71H83V38C83 34.6863 85.6863 32 89 32Z" stroke="white" stroke-width="2"/>
<path d="M83 70.4609C67.9981 78.4434 56 91.1762 56 108.999H109V70.9989" stroke="white" stroke-width="2"/>
<path d="M38.4844 46L31.9991 52.4853" stroke="white" stroke-width="2" stroke-linecap="round" stroke-linejoin="round"/>
<path d="M27 79V90" stroke="white" stroke-width="2" stroke-linecap="round" stroke-linejoin="round"/>
<path d="M82.4482 51.3701L51.9925 20.9144C50.4304 19.3523 50.4304 16.8196 51.9925 15.2575L64.7204 2.52959C66.2825 0.967491 68.8152 0.967492 70.3773 2.52959L99.8321 31.9844" stroke="white" stroke-width="2" stroke-linecap="round"/>
<circle cx="65.4303" cy="15.9648" r="3" transform="rotate(-45 65.4303 15.9648)" stroke="white" stroke-width="2" stroke-linecap="round"/>
<circle cx="96" cy="41" r="3" stroke="white" stroke-width="2"/>
</g>
<path d="M28.2724 61C29.377 61 30.2724 61.8955 30.2724 63V66.4219C32.9444 67.3054 35.3697 68.73 37.4189 70.5664L40.4521 68.8281C41.4067 68.2808 42.6243 68.6069 43.1767 69.5586L47.538 77.0742C48.0938 78.0323 47.7649 79.2595 46.8046 79.8115L43.747 81.5664C44.0171 82.8852 44.1591 84.2508 44.1591 85.6494C44.1591 87.0446 44.0177 88.4068 43.749 89.7227L46.8193 91.4863C47.78 92.0382 48.1087 93.2663 47.5527 94.2246L43.1914 101.74C42.6389 102.692 41.4213 103.018 40.4668 102.471L37.4248 100.726C35.378 102.561 32.9561 103.986 30.2871 104.871V108.299C30.2871 109.403 29.3916 110.299 28.2871 110.299H19.5507C18.4462 110.299 17.5507 109.403 17.5507 108.299V104.876C14.8784 103.992 12.4526 102.568 10.4033 100.731L7.37105 102.471C6.4165 103.018 5.19897 102.692 4.64644 101.74L0.285115 94.2246C-0.270929 93.2663 0.0578162 92.0382 1.01851 91.4863L4.07515 89.7295C3.8055 88.4116 3.66403 87.0471 3.66402 85.6494C3.66402 84.2539 3.80436 82.8912 4.0732 81.5752L1.00387 79.8115C0.0432623 79.2596 -0.285528 78.0325 0.270467 77.0742L4.63179 69.5586C5.18433 68.607 6.40182 68.2806 7.3564 68.8281L10.3974 70.5713C12.4442 68.7356 14.8671 67.3115 17.5361 66.4268V63C17.5361 61.8954 18.4315 61 19.5361 61H28.2724Z" fill="#E60040"/>
<path opacity="0.2" d="M4.63172 69.5585C5.18425 68.6068 6.40174 68.2805 7.35633 68.828L10.3173 70.5252C9.98596 72.3107 9.81141 74.1516 9.81141 76.0331C9.81148 89.4808 18.6602 100.861 30.8524 104.672C30.665 104.74 30.477 104.808 30.287 104.871V108.299C30.2868 109.403 29.3913 110.299 28.287 110.299H19.5507C18.4462 110.299 17.5509 109.403 17.5507 108.299V104.876C14.8785 103.992 12.4525 102.568 10.4032 100.731L7.37098 102.471C6.41657 103.018 5.19901 102.691 4.64637 101.74L0.285039 94.2245C-0.271005 93.2662 0.0577399 92.0381 1.01844 91.4862L4.07508 89.7293C3.80545 88.4116 3.66398 87.0468 3.66395 85.6493C3.66395 84.2539 3.80433 82.891 4.07312 81.5751L1.00379 79.8114C0.0432449 79.2595 -0.285462 78.0323 0.270391 77.0741L4.63172 69.5585Z" fill="black"/>
<path d="M24 96C30.0751 96 35 91.0751 35 85C35 78.9249 30.0751 74 24 74C17.9249 74 13 78.9249 13 85C13 91.0751 17.9249 96 24 96Z" stroke="white" stroke-width="2" stroke-miterlimit="10" stroke-linecap="round" stroke-linejoin="round"/>
</svg>
