<svg width="110" height="110" viewBox="0 0 110 110" fill="none" xmlns="http://www.w3.org/2000/svg">
<g opacity="0.7">
<rect x="13" y="83" width="16" height="26" rx="1" stroke="white" stroke-width="2"/>
<path d="M21 69C31.5 66.5 60.2 54.2 89 27" stroke="white" stroke-width="2" stroke-linecap="round"/>
<path d="M79 27H89V37" stroke="white" stroke-width="2" stroke-linecap="round" stroke-linejoin="round"/>
<path d="M1 109H109" stroke="white" stroke-width="2" stroke-linecap="round"/>
<rect x="81" y="45" width="16" height="64" rx="1" stroke="white" stroke-width="2"/>
<rect x="47" y="67" width="16" height="42" rx="1" stroke="white" stroke-width="2"/>
</g>
<circle cx="25" cy="25" r="25" fill="#E60040"/>
<path opacity="0.2" d="M12.6426 3.26172C8.50608 8.0058 6 14.2085 6 20.9971C6 35.9088 18.0883 47.9971 33 47.9971C33.6654 47.9971 34.3251 47.9712 34.9785 47.9238C31.9216 49.2561 28.5476 49.9971 25 49.9971C11.1929 49.9971 0 38.8042 0 24.9971C0 15.6852 5.09196 7.5638 12.6426 3.26172Z" fill="black"/>
<path d="M25 3V7" stroke="white" stroke-width="2" stroke-linecap="round" stroke-linejoin="round"/>
<path d="M25 43V47" stroke="white" stroke-width="2" stroke-linecap="round" stroke-linejoin="round"/>
<path d="M47.0039 24.9961L43.0039 24.9961" stroke="white" stroke-width="2" stroke-linecap="round" stroke-linejoin="round"/>
<path d="M7.00391 24.9961L3.00391 24.9961" stroke="white" stroke-width="2" stroke-linecap="round" stroke-linejoin="round"/>
<path d="M40.5586 9.44141L37.7302 12.2698" stroke="white" stroke-width="2" stroke-linecap="round" stroke-linejoin="round"/>
<path d="M12.2734 37.7227L9.44501 40.5511" stroke="white" stroke-width="2" stroke-linecap="round" stroke-linejoin="round"/>
<path d="M9.44531 9.44531L12.2737 12.2737" stroke="white" stroke-width="2" stroke-linecap="round" stroke-linejoin="round"/>
<path d="M37.7305 37.7305L40.5589 40.5589" stroke="white" stroke-width="2" stroke-linecap="round" stroke-linejoin="round"/>
<path d="M32 30L25 26V14" stroke="white" stroke-width="2" stroke-linecap="round" stroke-linejoin="round"/>
</svg>
