<svg width="90" height="90" viewBox="0 0 90 90" fill="none" xmlns="http://www.w3.org/2000/svg">
<g opacity="0.7">
<path d="M43.308 74.3571C41.2444 74.7784 39.105 75 36.9123 75C19.8399 75 6 61.5685 6 45C6 28.4315 19.8399 15 36.9123 15C49.2808 15 59.9526 22.0496 64.8945 32.2344" stroke="white" stroke-width="2" stroke-linecap="square"/>
<path d="M62.8243 29.6896C61.0209 31.8216 57.0302 34.2686 52.8782 31.9602C47.481 28.9595 43.183 29.883 39.1258 34.2884C35.0686 38.6938 30.9009 34.3109 30.7817 31.7868C30.6624 29.2628 31.8153 19.1523 35.1352 15.2632" stroke="white" stroke-width="2" stroke-linecap="round"/>
<path d="M16.0429 45.5294C14.3637 41.1155 16.2958 38.1124 19.3564 38.2728C22.4169 38.4332 24.5206 39.9399 26.2693 41.725C30.3923 45.934 29.518 48.7076 27.4819 49.8224C24.1828 51.6287 17.7221 49.9434 16.0429 45.5294Z" stroke="white" stroke-width="2" stroke-linecap="round"/>
<path d="M58.6849 66.185C55.7808 68.4071 47.3493 69.2289 48.1867 60.6464C48.8567 53.7803 43.0886 53.14 40.1209 53.6782C38.0904 54.1248 34.0491 56.4181 34.1281 62.018C34.207 67.6178 29.8516 67.4562 27.6639 66.6754C24.5 65.5461 20.7814 62.9026 16.5094 65.8249" stroke="white" stroke-width="2" stroke-linecap="round"/>
</g>
<path d="M46 59.8583V47.353C46 46.8095 46.4164 46.3566 46.958 46.3111L49.0114 46.1383C54.5929 45.6688 59.7604 43.005 63.3807 38.7311C63.7096 38.3428 64.3106 38.3373 64.6552 38.7116C68.5826 42.9771 74.0192 45.6875 79.7949 46.1971L81.0334 46.3064C81.5805 46.3546 82 46.8128 82 47.362V59.8583V64.0501C82 70.1684 78.6884 75.8074 73.345 78.7877L65.096 83.3887C64.4147 83.7687 63.5853 83.7687 62.904 83.3887L54.655 78.7877C49.3116 75.8074 46 70.1684 46 64.0501V59.8583Z" fill="#E60040"/>
<path opacity="0.2" d="M46 57.2852C48.3374 69.5297 58.6468 78.9438 71.3223 79.9189L65.0957 83.3926C64.4146 83.7724 63.5854 83.7724 62.9043 83.3926L54.6553 78.792C49.3119 75.8117 46 70.172 46 64.0537V57.2852Z" fill="black"/>
<path d="M57.5 61L62 66L71.5 56" stroke="white" stroke-width="2" stroke-linecap="round"/>
</svg>
