<svg width="90" height="90" viewBox="0 0 90 90" fill="none" xmlns="http://www.w3.org/2000/svg">
<circle cx="68" cy="68" r="18" fill="#E60040"/>
<path opacity="0.2" d="M55.2314 55.3125C53.8096 57.8881 53 60.8489 53 63.999C53 73.9401 61.0589 81.999 71 81.999C75.9914 81.999 80.507 79.9661 83.7676 76.6846C80.7024 82.2372 74.7912 85.999 68 85.999C58.0589 85.999 50 77.9401 50 67.999C50 63.0493 51.9982 58.5666 55.2314 55.3125Z" fill="black"/>
<path d="M62.9995 70.5977L68.2351 75.8333C68.2351 75.8333 71.7668 72.3015 73.4707 70.5977" stroke="white" stroke-width="2" stroke-linecap="round" stroke-linejoin="round"/>
<path d="M68.2344 61L68.2344 75.398" stroke="white" stroke-width="2" stroke-linecap="round"/>
<path d="M36.2236 18C42.4661 18 47.9799 21.2269 51.4385 26.167C52.9017 25.5678 54.4906 25.2364 56.1523 25.2363C61.062 25.2364 65.3056 28.0984 67.585 32.2881C68.1836 32.2188 68.7915 32.1826 69.4062 32.1826C74.0275 32.1828 78.5146 34.198 81.4824 37.5703C84.4706 40.966 85.9 45.7214 84.3965 51.084L84.127 52.0469L82.2012 51.5068L82.4707 50.5439C83.7839 45.8602 82.54 41.8 79.9805 38.8916C77.4005 35.96 73.4652 34.1828 69.4062 34.1826C68.6494 34.1826 67.9059 34.2437 67.1816 34.3623L66.4424 34.4834L66.1191 33.8076C64.2308 29.8729 60.4553 27.2364 56.1523 27.2363C54.5018 27.2364 52.935 27.6251 51.5205 28.3213L50.7178 28.7168L50.2363 27.9629C47.1489 23.1307 42.0105 20 36.2236 20C28.8331 20.0001 22.4851 25.1194 20.1504 32.3496C22.1009 32.6198 23.9688 33.3647 25.5977 34.5332C27.5501 35.934 29.079 37.8845 30.0059 40.1553L30.3838 41.0811L28.5322 41.8369L28.1543 40.9102C27.3666 38.9806 26.0725 37.3347 24.4326 36.1582C22.7936 34.9823 20.8744 34.3211 18.9004 34.2422L18.583 34.2285C11.0442 34.8506 5.00019 41.6553 5 50.0908C5.00007 58.7952 11.4335 65.7598 19.3066 65.9932L19.541 66H44.4355V68H18.2764V67.9316C9.6614 67.1459 3.00007 59.3992 3 50.0908C3.00018 40.8902 9.50623 33.2165 17.9766 32.2793L17.9805 32.2041L18.0977 32.208C20.5383 24.0098 27.6933 18.0001 36.2236 18Z" fill="white" fill-opacity="0.7"/>
<path d="M45 39C46.1819 39 47.3522 39.2328 48.4442 39.6851C49.5361 40.1374 50.5282 40.8003 51.364 41.636C52.1997 42.4718 52.8626 43.4639 53.3149 44.5558C53.7672 45.6478 54 46.8181 54 48" stroke="white" stroke-opacity="0.7" stroke-width="2" stroke-linecap="square"/>
<circle cx="59" cy="15.2344" r="3" stroke="white" stroke-opacity="0.7" stroke-width="2"/>
<circle cx="71.5" cy="22.7344" r="1.5" fill="white" fill-opacity="0.7"/>
<circle cx="70.5" cy="11.7344" r="1.5" stroke="white" stroke-opacity="0.7" stroke-width="2"/>
<circle cx="10" cy="23.2344" r="2" stroke="white" stroke-opacity="0.7" stroke-width="2"/>
</svg>
