<svg width="90" height="90" viewBox="0 0 90 90" fill="none" xmlns="http://www.w3.org/2000/svg">
<circle cx="72" cy="61" r="5" stroke="white" stroke-opacity="0.7" stroke-width="2"/>
<circle cx="18.5" cy="61" r="5" stroke="white" stroke-opacity="0.7" stroke-width="2"/>
<path d="M17.6288 20.5456C18.0114 19.8669 18.9886 19.8669 19.3712 20.5456L21.7667 24.7957C21.9094 25.0489 22.1552 25.2275 22.4401 25.285L27.2225 26.2499C27.9861 26.404 28.2881 27.3334 27.7609 27.9069L24.459 31.4986C24.2623 31.7126 24.1685 32.0015 24.2018 32.2902L24.7619 37.1367C24.8514 37.9106 24.0608 38.485 23.3524 38.1608L18.9162 36.1305C18.6519 36.0095 18.3481 36.0095 18.0838 36.1305L13.6476 38.1608C12.9392 38.485 12.1486 37.9106 12.2381 37.1367L12.7982 32.2902C12.8315 32.0015 12.7377 31.7126 12.541 31.4986L9.23911 27.9069C8.71188 27.3334 9.01388 26.404 9.77751 26.2499L14.5599 25.285C14.8448 25.2275 15.0906 25.0489 15.2333 24.7957L17.6288 20.5456Z" fill="#E60040"/>
<path d="M13.1407 25.5703C13.7051 29.8622 15.9192 33.6333 19.1251 36.2285L18.9102 36.1309C18.646 36.0099 18.3425 36.0099 18.0782 36.1309L13.6417 38.1611C12.9334 38.4851 12.1431 37.9105 12.2325 37.1367L12.7921 32.29C12.8254 32.0015 12.7317 31.7129 12.5352 31.499L9.23347 27.9072C8.70628 27.3338 9.00805 26.4042 9.77156 26.25L13.1407 25.5703Z" fill="#B80033"/>
<path d="M71.6288 20.5456C72.0114 19.8669 72.9886 19.8669 73.3712 20.5456L75.7667 24.7957C75.9094 25.0489 76.1552 25.2275 76.4401 25.285L81.2225 26.2499C81.9861 26.404 82.2881 27.3334 81.7609 27.9069L78.459 31.4986C78.2623 31.7126 78.1685 32.0015 78.2018 32.2902L78.7619 37.1367C78.8514 37.9106 78.0608 38.485 77.3524 38.1608L72.9162 36.1305C72.6519 36.0095 72.3481 36.0095 72.0838 36.1305L67.6476 38.1608C66.9392 38.485 66.1486 37.9106 66.2381 37.1367L66.7982 32.2902C66.8315 32.0015 66.7377 31.7126 66.541 31.4986L63.2391 27.9069C62.7119 27.3334 63.0139 26.404 63.7775 26.2499L68.5599 25.285C68.8448 25.2275 69.0906 25.0489 69.2333 24.7957L71.6288 20.5456Z" fill="#E60040"/>
<path d="M67.1407 25.5703C67.7051 29.8622 69.9192 33.6333 73.1251 36.2285L72.9102 36.1309C72.646 36.0099 72.3425 36.0099 72.0782 36.1309L67.6417 38.1611C66.9334 38.4851 66.1431 37.9105 66.2325 37.1367L66.7921 32.29C66.8254 32.0015 66.7317 31.7129 66.5352 31.499L63.2335 27.9072C62.7063 27.3338 63.0081 26.4042 63.7716 26.25L67.1407 25.5703Z" fill="#B80033"/>
<path d="M44.6288 4.54558C45.0114 3.86693 45.9886 3.86693 46.3711 4.54557L50.3537 11.6114C50.4964 11.8646 50.7422 12.0431 51.0271 12.1006L58.9778 13.7048C59.7414 13.8589 60.0434 14.7883 59.5162 15.3618L54.0269 21.333C53.8302 21.5469 53.7363 21.8359 53.7697 22.1246L54.7009 30.1818C54.7903 30.9557 53.9997 31.5301 53.2913 31.2059L45.9162 27.8305C45.6519 27.7095 45.3481 27.7095 45.0838 27.8305L37.7087 31.2059C37.0003 31.5301 36.2097 30.9557 36.2991 30.1818L37.2303 22.1246C37.2637 21.8359 37.1698 21.5469 36.9731 21.333L31.4838 15.3619C30.9566 14.7883 31.2586 13.8589 32.0222 13.7048L39.9729 12.1006C40.2578 12.0431 40.5036 11.8646 40.6463 11.6114L44.6288 4.54558Z" fill="#E60040"/>
<path d="M38.2284 12.4414C38.7836 18.3795 41.3969 23.7191 45.3475 27.7412C45.2581 27.7552 45.1698 27.7799 45.0858 27.8184L37.7108 31.1943C37.0024 31.5185 36.2112 30.9438 36.3006 30.1699L37.2323 22.1133C37.2656 21.8246 37.1711 21.5352 36.9745 21.3213L31.4852 15.3506C30.958 14.7771 31.2606 13.8474 32.0243 13.6934L38.2284 12.4414Z" fill="#B80033"/>
<circle cx="45.5" cy="49" r="8" stroke="white" stroke-opacity="0.7" stroke-width="2"/>
<path d="M45.5 60C54.0224 60 61.1202 66.0923 62.6797 74.1592C64.6255 71.0608 68.0713 69 72 69C78.0751 69 83 73.9249 83 80V88H81V80C81 75.0294 76.9706 71 72 71C67.0294 71 63 75.0294 63 80V88H61V77.5C61 68.9396 54.0604 62 45.5 62C36.9396 62 30 68.9396 30 77.5V88H28V80.5C28 75.2533 23.7467 71 18.5 71C13.2533 71 9 75.2533 9 80.5V88H7V80.5C7 74.1487 12.1487 69 18.5 69C22.6236 69 26.2378 71.1719 28.2676 74.4326C29.7177 66.2302 36.8815 60 45.5 60Z" fill="white" fill-opacity="0.7"/>
</svg>
