<svg width="502" height="80" viewBox="0 0 502 80" fill="none" xmlns="http://www.w3.org/2000/svg">
<g clip-path="url(#clip0_6494_69437)">
<path d="M2.42546 33.0475C1.44939 33.0475 0.77244 32.7046 0.363119 32.0031C-0.030458 31.3016 -0.109173 30.5222 0.126973 29.6493L7.08542 1.59002C7.24285 1.10678 7.479 0.717069 7.8096 0.436477C8.14021 0.155885 8.51804 0 8.95885 0H34.0533C36.1944 0 37.9891 0.265004 39.469 0.8106C40.9488 1.3562 42.1138 2.13562 42.9639 3.14887C43.8141 4.16212 44.3651 5.37802 44.617 6.79657C44.8531 8.21512 44.8059 9.80514 44.428 11.5511L41.8304 22.7747C41.4998 24.318 40.8858 25.721 40.02 26.9836C39.1541 28.2463 38.0993 29.3375 36.8714 30.2416C35.6434 31.1458 34.2737 31.8472 32.7781 32.3305C31.2826 32.8137 29.7397 33.0475 28.1654 33.0475H2.42546ZM35.297 11.8161C35.423 11.3016 35.4545 10.8028 35.4072 10.304C35.36 9.80514 35.2183 9.36867 34.9979 8.96337C34.7618 8.57366 34.4627 8.26189 34.0533 8.01247C33.6598 7.76306 33.1875 7.65394 32.6365 7.65394H15.0357L10.785 25.4404H27.7876C29.1572 25.4404 30.275 25.0195 31.1251 24.1933C31.9753 23.3671 32.5577 22.2759 32.8569 20.9041L35.2813 11.8005L35.297 11.8161Z" fill="#595857"/>
<path d="M77.693 0C79.7396 0 81.5973 0.171473 83.2661 0.514419C84.9506 0.857366 86.3517 1.43414 87.501 2.21356C88.6502 2.99299 89.5004 4.02182 90.0829 5.2689C90.6654 6.51598 90.8858 8.05924 90.7756 9.8675C90.6811 11.4731 90.3033 12.9696 89.6578 14.3882C88.9966 15.8067 88.0992 17.0538 86.9342 18.145C85.7692 19.2362 84.3681 20.1091 82.7308 20.795C81.0778 21.4809 79.2044 21.8862 77.1105 22.0421L87.8473 33.0475H79.7082C78.9997 33.0475 78.4015 33.0164 77.8977 32.9384C77.3939 32.8605 76.9374 32.7358 76.4966 32.5487C76.0715 32.3617 75.6622 32.1122 75.2843 31.7849C74.9065 31.4575 74.4657 31.0366 73.9777 30.5222L63.0047 18.3476C62.7528 18.0982 62.6112 17.8488 62.5639 17.5526C62.5167 17.272 62.5482 16.9914 62.6584 16.742C62.7686 16.4926 62.9418 16.2744 63.1779 16.1029C63.4141 15.9314 63.7132 15.8535 64.0438 15.8535H74.2925C75.3316 15.8535 76.2762 15.6976 77.1263 15.4014C77.9764 15.1052 78.7006 14.7155 79.2988 14.2167C79.8971 13.7334 80.3536 13.1878 80.7 12.5643C81.0306 11.9408 81.2038 11.3328 81.2038 10.7249C81.2352 9.75838 80.9046 9.01013 80.1962 8.46454C79.4878 7.91894 78.4487 7.65394 77.0476 7.65394H61.5091L55.2906 33.0475H49.3397C48.6313 33.0475 48.096 32.9384 47.6867 32.7358C47.2931 32.5331 46.994 32.2369 46.7894 31.8784C46.5847 31.5199 46.4902 31.099 46.4902 30.6157C46.4902 30.1325 46.5532 29.6337 46.6791 29.1193L53.3385 2.08885C53.5274 1.30943 53.795 0.763835 54.1571 0.452065C54.5192 0.155885 55.1647 0 56.0778 0H77.7088L77.693 0Z" fill="#595857"/>
<path d="M107.92 0.233827C108.266 0.389712 108.581 0.60795 108.833 0.888542C109.085 1.16913 109.273 1.54326 109.352 1.97974C109.447 2.41621 109.431 2.93063 109.305 3.49182L102.173 33.0475H96.0493C94.7111 33.0475 93.861 32.6734 93.4831 31.9096C93.121 31.1613 93.1053 30.2416 93.4359 29.1504L100.536 0H106.802C107.195 0 107.573 0.0779423 107.92 0.233827Z" fill="#595857"/>
<path d="M159.384 0.00386972L132.369 33.0514H125.93C124.828 33.0514 123.978 32.802 123.364 32.3032C122.75 31.8043 122.277 31.1184 121.947 30.2455L110.281 0.00386972H117.822C119.585 0.00386972 120.813 0.830058 121.475 2.49802L129.378 23.636L147.482 1.26654C147.781 0.876824 148.159 0.565054 148.584 0.331228C149.009 0.0974005 149.529 -0.0117188 150.143 -0.0117188H159.384V0.00386972Z" fill="#595857"/>
<path d="M200.442 0.888469C200.993 1.48083 201.151 2.3382 200.899 3.49174L200.033 7.65386H170.861L169.633 12.4551H193.814L192.854 16.3522C192.618 17.3187 192.146 18.1449 191.453 18.8152C190.76 19.5011 189.784 19.8285 188.509 19.8285H167.886L166.516 25.5338H196.239L195.279 29.5557C195.027 30.5221 194.523 31.3483 193.72 32.0186C192.933 32.7045 191.894 33.0319 190.619 33.0319H158.707C157.338 33.0319 156.488 32.6578 156.141 31.8939C155.811 31.1457 155.779 30.226 156.047 29.1348L162.627 2.01084C162.816 1.23142 163.068 0.685819 163.43 0.405227C163.777 0.124635 164.391 -0.03125 165.288 -0.03125H198.396C199.214 -0.03125 199.907 0.264931 200.458 0.857293L200.442 0.888469Z" fill="#595857"/>
<path d="M264.532 0C264.926 0 265.304 0.0779423 265.681 0.233827C266.044 0.389712 266.358 0.60795 266.595 0.919719C266.831 1.2159 267.004 1.59002 267.098 2.01091C267.193 2.4318 267.161 2.93063 267.004 3.5074L265.949 7.66952H243.405C242.618 7.66952 241.799 7.74747 240.965 7.91894C240.13 8.09041 239.343 8.37101 238.603 8.77631C237.879 9.18161 237.218 9.74279 236.635 10.4754C236.053 11.1925 235.644 12.1122 235.407 13.1878L233.754 20.2027C233.566 21.0133 233.503 21.7459 233.534 22.4006C233.566 23.0553 233.754 23.6009 234.101 24.053C234.447 24.5051 234.967 24.848 235.628 25.0974C236.305 25.3313 237.171 25.456 238.225 25.456H262.69L261.73 29.5713C261.462 30.5378 260.99 31.364 260.329 32.0343C259.668 32.7202 258.707 33.0475 257.432 33.0475H234.29C231.85 33.0475 229.866 32.689 228.339 31.9875C226.812 31.286 225.678 30.3196 224.907 29.0881C224.151 27.8722 223.726 26.4536 223.647 24.8324C223.569 23.2112 223.742 21.5277 224.167 19.735L226.088 11.7693C227.095 7.60717 228.906 4.5986 231.535 2.75916C234.148 0.919719 237.706 0 242.193 0H264.501L264.532 0Z" fill="#595857"/>
<path d="M312.124 0.00386971C312.911 0.00386971 313.588 0.237697 314.139 0.705351C314.69 1.173 314.832 1.9836 314.549 3.12156L308.063 30.1052C307.842 30.9781 307.37 31.6952 306.646 32.2252C305.922 32.7708 305.087 33.0358 304.174 33.0358H297.735L300.931 19.9103H279.709L276.513 33.0358H270.484C269.146 33.0358 268.296 32.6617 267.949 31.8979C267.603 31.1496 267.556 30.2299 267.839 29.1387L274.971 -0.0117188H281.284C281.646 -0.0117188 282.008 0.0506351 282.354 0.175343C282.701 0.300051 283 0.471524 283.252 0.720939C283.503 0.970354 283.661 1.28212 283.755 1.67184C283.85 2.06155 283.834 2.54479 283.708 3.12156L281.551 12.3499H302.773L305.796 -0.0117188H312.156L312.124 0.00386971Z" fill="#595857"/>
<path d="M360.974 33.0475H353.244C352.52 33.0475 351.89 32.8605 351.386 32.4864C350.882 32.1122 350.505 31.5978 350.268 30.9743L348.49 25.5807H327.236L321.711 32.2837C321.285 32.7981 320.703 33.0475 319.979 33.0475H310.832L335.801 2.80592C336.415 2.08885 337.091 1.43414 337.831 0.857366C338.571 0.280592 339.469 0 340.508 0H347.639C348.678 0 349.481 0.358535 350.048 1.09119C350.615 1.82385 351.056 2.68122 351.402 3.67888L361.005 33.0631L360.974 33.0475ZM346.474 19.2362L342.365 7.06157L332.353 19.2362H346.474Z" fill="#595857"/>
<path d="M394.618 33.0514L376.875 10.1364L371.428 33.0514H365.399C364.029 33.0514 363.179 32.6773 362.833 31.9446C362.502 31.212 362.471 30.2767 362.738 29.1543L369.508 1.5783C369.602 1.15742 369.854 0.783293 370.279 0.471524C370.704 0.159754 371.145 -0.0117188 371.602 -0.0117188H379.142L395.877 21.0327L400.947 -0.0117188H407.165C407.952 -0.0117188 408.629 0.284462 409.18 0.876824C409.731 1.46919 409.873 2.32655 409.59 3.4801L403.418 29.2322C403.151 30.3858 402.584 31.3055 401.75 31.9914C400.915 32.6929 399.971 33.0358 398.932 33.0358H394.586L394.618 33.0514Z" fill="#595857"/>
<path d="M454.112 12.7241L449.216 33.0515H422.248C419.777 33.0515 417.777 32.693 416.266 31.9603C414.739 31.2276 413.605 30.2611 412.866 29.0452C412.126 27.8293 411.701 26.4108 411.638 24.8208C411.559 23.2152 411.732 21.5316 412.157 19.7545L414.125 11.7888C415.164 7.65788 416.975 4.66489 419.572 2.80987C422.17 0.954839 425.696 0.0195312 430.183 0.0195312H453.955C455.026 0.0195312 455.765 0.346889 456.191 1.01719C456.616 1.6875 456.71 2.4981 456.458 3.46458L455.451 7.67347H431.316C430.529 7.67347 429.726 7.73582 428.908 7.87612C428.105 8.01641 427.333 8.28142 426.625 8.67113C425.917 9.06084 425.271 9.60644 424.736 10.2767C424.185 10.9626 423.776 11.8356 423.508 12.9268L421.729 20.2222C421.509 21.0328 421.43 21.7654 421.477 22.4202C421.524 23.0749 421.713 23.6205 422.044 24.0725C422.374 24.5246 422.894 24.8675 423.571 25.117C424.264 25.3508 425.129 25.4755 426.2 25.4755H442.022L443.391 19.9572H430.041L431.364 14.3921C431.49 13.9089 431.742 13.5191 432.135 13.2074C432.529 12.9112 432.985 12.7553 433.505 12.7553H454.128L454.112 12.7241Z" fill="#595857"/>
<path d="M501.433 0.888469C501.984 1.48083 502.141 2.3382 501.889 3.49174L501.023 7.65386H471.851L470.623 12.4551H494.805L493.844 16.3522C493.608 17.3187 493.136 18.1449 492.443 18.8152C491.751 19.5011 490.774 19.8285 489.499 19.8285H468.876L467.506 25.5338H497.229L496.269 29.5557C496.017 30.5221 495.513 31.3483 494.71 32.0186C493.923 32.7045 492.884 33.0319 491.609 33.0319H459.698C458.328 33.0319 457.478 32.6578 457.131 31.8939C456.801 31.1457 456.769 30.226 457.037 29.1348L463.618 2.01084C463.807 1.23142 464.058 0.685819 464.421 0.405227C464.767 0.124635 465.381 -0.03125 466.278 -0.03125H499.386C500.205 -0.03125 500.897 0.264931 501.448 0.857293L501.433 0.888469Z" fill="#595857"/>
<path d="M124.009 46.957C124.828 46.957 125.489 47.2688 125.992 47.8923C126.496 48.5159 126.622 49.2797 126.386 50.1838L125.19 54.6266H96.0177L94.6952 59.9266H116.09L114.768 65.3982C114.642 65.9126 114.39 66.3179 113.996 66.6141C113.603 66.9103 113.162 67.0662 112.674 67.0662H93.0107L89.7676 80.0202H83.3287C82.5416 80.0202 81.8804 79.7396 81.3608 79.1628C80.8413 78.586 80.6996 77.869 80.9515 76.996L87.5794 49.42C87.7998 48.6094 88.2248 48.0015 88.886 47.5806C89.5472 47.1753 90.3974 46.9726 91.4679 46.9726H124.025L124.009 46.957Z" fill="#595857"/>
<path d="M157.937 46.957C162.077 46.957 165.053 47.9234 166.847 49.8252C168.642 51.7426 169.067 54.7512 168.123 58.851L165.793 68.6249C164.943 72.3973 163.132 75.2344 160.377 77.1362C157.622 79.038 154.048 79.9889 149.656 79.9889H135.251C133.173 79.9889 131.41 79.6771 129.946 79.038C128.482 78.3989 127.332 77.5104 126.514 76.3724C125.695 75.2188 125.207 73.8315 125.05 72.2103C124.892 70.5735 125.097 68.7652 125.648 66.7699L128.34 56.4971C128.733 54.9538 129.41 53.5976 130.355 52.3973C131.3 51.197 132.449 50.2149 133.787 49.4043C135.125 48.6093 136.636 47.9858 138.321 47.5649C139.99 47.144 141.753 46.9258 143.579 46.9258H157.937V46.957ZM149.514 72.3973C151.183 72.3973 152.694 71.9609 154.048 71.1035C155.386 70.2461 156.315 68.7496 156.835 66.6452L158.614 59.8019C158.803 59.0224 158.929 58.3054 159.007 57.6818C159.086 57.0427 159.007 56.4971 158.818 56.045C158.614 55.593 158.252 55.2344 157.701 54.985C157.15 54.7356 156.363 54.5953 155.324 54.5953H143.941C142.147 54.5953 140.604 55.063 139.344 55.9983C138.085 56.9336 137.235 58.3054 136.81 60.1136L135.125 67.1284C134.936 67.9079 134.826 68.6249 134.763 69.2796C134.7 69.9344 134.795 70.48 135.031 70.932C135.267 71.3841 135.692 71.7426 136.29 71.992C136.888 72.2414 137.723 72.3817 138.825 72.3817H149.53L149.514 72.3973Z" fill="#595857"/>
<path d="M201.338 46.957C203.384 46.957 205.242 47.1285 206.911 47.4715C208.595 47.8144 209.996 48.3912 211.146 49.1706C212.295 49.95 213.145 50.9789 213.727 52.2259C214.31 53.473 214.53 55.0163 214.42 56.8245C214.326 58.4301 213.948 59.9266 213.302 61.3452C212.641 62.7637 211.744 64.0108 210.579 65.102C209.414 66.1932 208.013 67.0661 206.375 67.752C204.722 68.4379 202.849 68.8432 200.755 68.9991L211.492 80.0046H203.353C202.644 80.0046 202.046 79.9734 201.542 79.8955C201.038 79.8175 200.582 79.6928 200.141 79.5057C199.716 79.3187 199.307 79.0693 198.929 78.7419C198.551 78.4145 198.11 77.9937 197.622 77.4792L186.649 65.3047C186.397 65.0552 186.256 64.8058 186.208 64.5096C186.161 64.229 186.193 63.9485 186.303 63.699C186.413 63.4496 186.586 63.2314 186.822 63.0599C187.059 62.8884 187.358 62.8105 187.688 62.8105H197.937C198.976 62.8105 199.921 62.6546 200.771 62.3584C201.621 62.0623 202.345 61.6725 202.943 61.1737C203.542 60.6905 203.998 60.1449 204.345 59.5213C204.675 58.8978 204.848 58.2898 204.848 57.6819C204.88 56.7154 204.549 55.9672 203.841 55.4216C203.132 54.876 202.093 54.611 200.692 54.611H185.154L178.935 80.0046H172.984C172.276 80.0046 171.741 79.8955 171.331 79.6928C170.938 79.4902 170.639 79.194 170.434 78.8354C170.229 78.4769 170.135 78.056 170.135 77.5728C170.135 77.0895 170.198 76.5907 170.324 76.0763L176.952 49.0459C177.14 48.2665 177.408 47.7209 177.77 47.4091C178.132 47.1129 178.778 46.957 179.691 46.957H201.322H201.338Z" fill="#595857"/>
<path d="M285.896 49.3577C285.109 48.6094 284.07 48.017 282.811 47.5962C281.551 47.1753 279.977 46.957 278.119 46.957H256.315C255.921 46.957 255.512 47.035 255.103 47.2064C254.693 47.3779 254.3 47.6117 253.938 47.9079C253.576 48.2041 253.245 48.5471 252.977 48.9212C252.71 49.2953 252.521 49.685 252.426 50.0747L251.324 54.5954H275.427C276.639 54.5954 277.489 54.7513 277.962 55.063C278.434 55.3748 278.67 55.9516 278.67 56.7622C278.67 57.5104 278.513 58.1495 278.198 58.6328C277.883 59.1316 277.458 59.5213 276.938 59.8175C276.419 60.0981 275.836 60.3008 275.175 60.4255C274.514 60.5502 273.853 60.6125 273.192 60.6125H253.072C252.159 60.6125 251.387 60.8619 250.742 61.3764C250.096 61.8908 249.687 62.5299 249.514 63.2782L246.271 75.9048C246.003 77.0272 246.019 77.9781 246.365 78.7731C246.696 79.5681 247.546 79.9734 248.884 79.9734H279.19C280.528 79.9734 281.614 79.6305 282.433 78.9602C283.251 78.2743 283.787 77.4637 284.038 76.4972L285.093 72.3818H256.787L257.889 67.7209H274.168C276.183 67.7209 278.04 67.4403 279.772 66.8791C281.488 66.3179 282.968 65.5229 284.212 64.4785C285.44 63.434 286.416 62.1558 287.108 60.6593C287.817 59.1472 288.163 57.4481 288.163 55.5463C288.163 54.2836 287.99 53.1145 287.644 52.0545C287.297 50.9944 286.715 50.0903 285.928 49.3421L285.896 49.3577Z" fill="url(#paint0_linear_6494_69437)"/>
<path d="M330.94 49.8253C330.058 48.8432 328.861 48.1262 327.35 47.6585C325.839 47.1909 324.044 46.957 321.982 46.957H308.946C307.12 46.957 305.357 47.1753 303.688 47.5962C302.004 48.017 300.508 48.625 299.154 49.4356C297.816 50.2306 296.667 51.2283 295.722 52.4286C294.778 53.6133 294.101 54.9851 293.707 56.5283L291.015 66.8011C290.496 68.7965 290.307 70.6047 290.464 72.2415C290.621 73.8783 291.094 75.2657 291.897 76.4348C292.7 77.604 293.833 78.4925 295.297 79.1004C296.761 79.724 298.524 80.0358 300.603 80.0358H313.685C318.077 80.0358 321.635 79.0849 324.39 77.1831C327.13 75.2813 328.94 72.4442 329.837 68.6718L332.167 58.8978C332.656 56.8401 332.797 55.0786 332.577 53.5821C332.356 52.0856 331.821 50.8541 330.924 49.8721L330.94 49.8253ZM323.052 57.6819C322.973 58.321 322.848 59.0225 322.659 59.8019L322.218 61.4855L320.565 67.8144C319.856 70.5268 317.385 72.4286 314.551 72.413L308.395 72.3818H304.192C303.09 72.3818 302.256 72.2571 301.657 71.9921C301.059 71.7271 300.65 71.3842 300.398 70.9321C300.162 70.48 300.067 69.9344 300.13 69.2797C300.193 68.625 300.319 67.9079 300.492 67.1285L300.791 65.8658L302.303 59.3187C302.948 56.5283 305.467 54.5486 308.364 54.5642H312.583L319.368 54.5798C320.407 54.5798 321.195 54.7045 321.746 54.9695C322.297 55.2189 322.674 55.5774 322.863 56.0295C323.068 56.4816 323.115 57.0272 323.052 57.6663V57.6819Z" fill="url(#paint1_linear_6494_69437)"/>
<path d="M374.072 49.0147C373.269 48.3288 372.214 47.83 370.939 47.4715C369.664 47.1285 368.09 46.957 366.232 46.957H343.688C343.294 46.957 342.885 47.035 342.475 47.2064C342.066 47.3779 341.673 47.6117 341.311 47.9079C340.948 48.2041 340.618 48.5471 340.35 48.9212C340.083 49.2953 339.894 49.685 339.799 50.0747L338.697 54.5954H363.524C364.736 54.5954 365.602 54.7357 366.106 55.0319C366.61 55.3124 366.862 55.8425 366.862 56.5907C366.862 57.0428 366.736 57.4481 366.468 57.8066C366.216 58.1651 365.87 58.4925 365.445 58.7575C365.02 59.0225 364.516 59.2563 363.965 59.4434C363.398 59.6305 362.831 59.7396 362.249 59.8019H341.814L340.901 63.5587C340.634 64.5876 340.681 65.3982 341.059 66.0061C341.436 66.6141 342.318 66.9103 343.688 66.9103H362.06C362.642 66.9103 363.115 66.9726 363.477 67.1129C363.839 67.2532 364.122 67.4091 364.327 67.6117C364.532 67.8144 364.658 68.0326 364.72 68.2976C364.783 68.5471 364.799 68.7965 364.768 69.0459C364.61 70.1994 364.028 71.0412 363.004 71.5868C361.981 72.1324 360.832 72.3974 359.557 72.3974H334.415L333.36 76.2478C333.093 77.2766 333.203 78.1495 333.707 78.8978C334.21 79.6305 335.139 80.0046 336.525 80.0046H359.289C361.304 80.0046 363.209 79.7707 365.02 79.2875C366.83 78.8043 368.42 78.0716 369.79 77.0739C371.159 76.0763 372.261 74.8136 373.08 73.2859C373.899 71.7583 374.308 69.9656 374.308 67.8768C374.308 67.0038 374.103 66.1776 373.71 65.3826C373.316 64.6032 372.781 63.8861 372.104 63.2626C373.379 62.2337 374.418 61.0334 375.19 59.646C375.961 58.2587 376.355 56.6686 376.355 54.8916C376.355 53.6289 376.166 52.5065 375.804 51.5244C375.442 50.5424 374.843 49.7162 374.04 49.0303L374.072 49.0147Z" fill="url(#paint2_linear_6494_69437)"/>
<path d="M419.43 49.8253C418.548 48.8432 417.352 48.1262 415.84 47.6585C414.329 47.1909 412.534 46.957 410.472 46.957H397.437C395.61 46.957 393.847 47.1753 392.178 47.5962C390.494 48.017 388.998 48.625 387.644 49.4356C386.306 50.2306 385.157 51.2283 384.212 52.4286C383.268 53.6133 382.591 54.9851 382.197 56.5283L379.505 66.8011C378.986 68.7965 378.797 70.6047 378.954 72.2415C379.112 73.8783 379.584 75.2657 380.387 76.4348C381.19 77.604 382.323 78.4925 383.787 79.1004C385.251 79.724 387.015 80.0358 389.093 80.0358H402.175C406.568 80.0358 410.126 79.0849 412.881 77.1831C415.62 75.2813 417.43 72.4442 418.328 68.6718L420.658 58.8978C421.146 56.8401 421.287 55.0786 421.067 53.5821C420.847 52.0856 420.311 50.8541 419.414 49.8721L419.43 49.8253ZM411.542 57.6819C411.464 58.321 411.338 59.0225 411.149 59.8019L410.708 61.4855L409.055 67.8144C408.347 70.5268 405.875 72.4286 403.041 72.413L396.886 72.3818H392.682C391.58 72.3818 390.746 72.2571 390.148 71.9921C389.549 71.7427 389.14 71.3842 388.888 70.9321C388.652 70.48 388.558 69.9344 388.621 69.2797C388.683 68.625 388.809 67.9079 388.983 67.1285L389.282 65.8658L390.793 59.3187C391.439 56.5283 393.957 54.5486 396.854 54.5642H401.073L407.859 54.5798C408.898 54.5798 409.685 54.7045 410.236 54.9695C410.787 55.2189 411.165 55.5774 411.354 56.0295C411.558 56.4816 411.605 57.0272 411.542 57.6663V57.6819Z" fill="url(#paint3_linear_6494_69437)"/>
</g>
<defs>
<linearGradient id="paint0_linear_6494_69437" x1="246.05" y1="64.4629" x2="434.613" y2="55.7187" gradientUnits="userSpaceOnUse">
<stop offset="0.08" stop-color="#1A2589"/>
<stop offset="0.22" stop-color="#0E4D9F"/>
<stop offset="0.38" stop-color="#0474B4"/>
<stop offset="0.47" stop-color="#0083BD"/>
<stop offset="0.54" stop-color="#008B9E"/>
<stop offset="0.65" stop-color="#009774"/>
<stop offset="0.76" stop-color="#009F55"/>
<stop offset="0.85" stop-color="#00A542"/>
<stop offset="0.91" stop-color="#00A73C"/>
</linearGradient>
<linearGradient id="paint1_linear_6494_69437" x1="246.147" y1="66.4426" x2="434.71" y2="57.6984" gradientUnits="userSpaceOnUse">
<stop offset="0.08" stop-color="#1A2589"/>
<stop offset="0.22" stop-color="#0E4D9F"/>
<stop offset="0.38" stop-color="#0474B4"/>
<stop offset="0.47" stop-color="#0083BD"/>
<stop offset="0.54" stop-color="#008B9E"/>
<stop offset="0.65" stop-color="#009774"/>
<stop offset="0.76" stop-color="#009F55"/>
<stop offset="0.85" stop-color="#00A542"/>
<stop offset="0.91" stop-color="#00A73C"/>
</linearGradient>
<linearGradient id="paint2_linear_6494_69437" x1="246.222" y1="68.2665" x2="434.785" y2="59.5222" gradientUnits="userSpaceOnUse">
<stop offset="0.08" stop-color="#1A2589"/>
<stop offset="0.22" stop-color="#0E4D9F"/>
<stop offset="0.38" stop-color="#0474B4"/>
<stop offset="0.47" stop-color="#0083BD"/>
<stop offset="0.54" stop-color="#008B9E"/>
<stop offset="0.65" stop-color="#009774"/>
<stop offset="0.76" stop-color="#009F55"/>
<stop offset="0.85" stop-color="#00A542"/>
<stop offset="0.91" stop-color="#00A73C"/>
</linearGradient>
<linearGradient id="paint3_linear_6494_69437" x1="246.334" y1="70.4488" x2="434.882" y2="61.7046" gradientUnits="userSpaceOnUse">
<stop offset="0.08" stop-color="#1A2589"/>
<stop offset="0.22" stop-color="#0E4D9F"/>
<stop offset="0.38" stop-color="#0474B4"/>
<stop offset="0.47" stop-color="#0083BD"/>
<stop offset="0.54" stop-color="#008B9E"/>
<stop offset="0.65" stop-color="#009774"/>
<stop offset="0.76" stop-color="#009F55"/>
<stop offset="0.85" stop-color="#00A542"/>
<stop offset="0.91" stop-color="#00A73C"/>
</linearGradient>
<clipPath id="clip0_6494_69437">
<rect width="502" height="80" fill="white"/>
</clipPath>
</defs>
</svg>
