<svg width="110" height="110" viewBox="0 0 110 110" fill="none" xmlns="http://www.w3.org/2000/svg">
<path d="M60.4883 0C61.5927 0.000189094 62.4883 0.895548 62.4883 2V6.15723C65.5241 7.16103 68.2793 8.78054 70.6074 10.8672L74.2851 8.75781C75.2398 8.21024 76.4583 8.5364 77.0107 9.48828L82.2373 18.4951C82.7934 19.4534 82.4646 20.6815 81.5039 21.2334L77.7949 23.3633C78.1013 24.8606 78.2627 26.4111 78.2627 27.999C78.2627 29.5843 78.1013 31.1319 77.7959 32.627L81.5205 34.7666C82.4812 35.3185 82.81 36.5466 82.2539 37.5049L77.0273 46.5117C76.4749 47.4635 75.2573 47.7896 74.3027 47.2422L70.6123 45.125C68.2875 47.2101 65.5363 48.828 62.5049 49.833V54C62.5049 55.1045 61.6094 56 60.5049 56H50.0371C48.9325 56 48.0371 55.1046 48.0371 54V49.8389C45.0017 48.8352 42.2467 47.2171 39.9189 45.1309L36.2392 47.2422C35.2846 47.7897 34.0671 47.4634 33.5146 46.5117L28.2871 37.5049C27.7311 36.5466 28.0608 35.3185 29.0215 34.7666L32.7295 32.6357C32.4229 31.1381 32.2627 29.5873 32.2627 27.999C32.2627 26.4142 32.4223 24.8667 32.7275 23.3721L29.0039 21.2334C28.0433 20.6814 27.7145 19.4534 28.2705 18.4951L33.498 9.48828C34.0506 8.53668 35.2681 8.21031 36.2226 8.75781L39.9101 10.873C42.2352 8.7873 44.9874 7.16833 48.0195 6.16309V2C48.0195 0.895587 48.9152 0.000254371 50.0195 0H60.4883Z" fill="#E60040"/>
<path opacity="0.2" d="M33.4979 9.48813C34.0505 8.53653 35.268 8.21016 36.2226 8.75766L39.6317 10.7127C38.4524 13.9311 37.8095 17.408 37.8095 21.035C37.8095 35.7932 48.4666 48.0613 62.5048 50.5663V53.9998C62.5046 55.1042 61.6091 55.9997 60.5048 55.9998H50.037C48.9326 55.9998 48.0372 55.1043 48.037 53.9998V49.8387C45.0017 48.8351 42.2466 47.2168 39.9188 45.1307L36.2392 47.242C35.2847 47.7895 34.0671 47.463 33.5145 46.5116L28.287 37.5047C27.731 36.5465 28.0607 35.3183 29.0214 34.7665L32.7294 32.6356C32.4228 31.1381 32.2626 29.587 32.2626 27.9989C32.2626 26.4142 32.4222 24.8664 32.7274 23.3719L29.0038 21.2332C28.0433 20.6813 27.7145 19.4532 28.2704 18.495L33.4979 9.48813Z" fill="black"/>
<path d="M55.2624 39C61.3376 39 66.2625 34.0751 66.2625 28C66.2625 21.9249 61.3376 17 55.2624 17C49.1873 17 44.2625 21.9249 44.2625 28C44.2625 34.0751 49.1873 39 55.2624 39Z" stroke="white" stroke-width="2" stroke-miterlimit="10" stroke-linecap="round" stroke-linejoin="round"/>
<g opacity="0.7">
<path d="M1.6034 80.0067C0.607705 78.635 0.871687 76.685 2.19302 75.6514L9.3705 70.0366C10.6918 69.0029 12.5702 69.277 13.5659 70.6487L33.3975 97.9694C34.3932 99.3411 34.1292 101.291 32.8079 102.325L25.6304 107.939C24.309 108.973 22.4307 108.699 21.435 107.327L1.6034 80.0067Z" stroke="white" stroke-width="2"/>
<path d="M64.0002 68.4485L86.2218 51.8867C88.869 49.9137 92.6059 50.4547 94.59 53.0982C95.2185 53.9355 95.5963 54.8838 95.7363 55.8525C95.8243 56.0684 95.9002 56.7 95.5002 57.5" stroke="white" stroke-width="2" stroke-linecap="round"/>
<path d="M71.2014 75.434L99.4232 54.9023C102.07 52.9293 105.807 53.4703 107.791 56.1138C109.796 58.7842 109.25 62.5826 106.576 64.5757L68.4955 92.9573C67.4451 93.7402 66.219 94.1219 64.9981 94.1323L41.2086 91.9999C39.7006 91.9999 38.3238 92.4305 37.5326 92.9573C37.0513 93.2777 34.2039 95.218 32.6721 96.2413" stroke="white" stroke-width="2"/>
<path d="M31.2392 63.3908L31.3579 62.3962L31.3741 62.3981L31.3903 62.4006L31.2392 63.3908ZM71.5083 75.4369L72.4991 75.5595L72.4991 75.5595L71.5083 75.4369ZM66.2569 68.7067L66.1383 69.7012L66.122 69.6993L66.1058 69.6969L66.2569 68.7067ZM64.8526 80.6715L64.7339 81.6661L64.7178 81.6642L64.7017 81.6617L64.8526 80.6715ZM27.6236 64.1205L27.0216 63.3226L27.0755 63.2816L27.1344 63.2483L27.6236 64.1205ZM46.1842 78.8547C45.6391 78.772 45.2647 78.2617 45.348 77.7148C45.4314 77.1679 45.9408 76.7916 46.486 76.8742L46.3351 77.8644L46.1842 78.8547ZM16.1413 74.0984C15.7013 74.4326 15.0751 74.3463 14.7426 73.9056C14.4102 73.4649 14.4973 72.8367 14.9373 72.5025L15.5393 73.3004L16.1413 74.0984ZM66.2569 68.7067L66.1058 69.6969L31.0881 64.381L31.2392 63.3908L31.3903 62.4006L66.408 67.7165L66.2569 68.7067ZM71.5083 75.4369L70.5175 75.3144C70.8624 72.547 68.8958 70.0275 66.1383 69.7012L66.2569 68.7067L66.3756 67.7121C70.2334 68.1685 72.9812 71.6911 72.4991 75.5595L71.5083 75.4369ZM71.5083 75.4369L72.4991 75.5595C72.0217 79.3902 68.5542 82.118 64.7339 81.6661L64.8526 80.6715L64.9712 79.6769C67.6994 79.9997 70.1763 78.0524 70.5175 75.3144L71.5083 75.4369ZM31.2392 63.3908L31.1206 64.3854C30.0403 64.2575 28.9997 64.4914 28.1127 64.9928L27.6236 64.1205L27.1344 63.2483C28.3752 62.5469 29.8397 62.2166 31.3579 62.3962L31.2392 63.3908ZM46.3351 77.8644L46.486 76.8742L65.0035 79.6812L64.8526 80.6715L64.7017 81.6617L46.1842 78.8547L46.3351 77.8644ZM27.6236 64.1205L28.2256 64.9185L16.1413 74.0984L15.5393 73.3004L14.9373 72.5025L27.0216 63.3226L27.6236 64.1205Z" fill="white"/>
</g>
</svg>
